<svg width="169" height="91" viewBox="0 0 169 91" fill="none" xmlns="http://www.w3.org/2000/svg">
<path d="M28.0668 8.46899C26.3684 8.05587 24.8307 7.84931 23.4536 7.84931C22.0765 7.84931 21.0667 8.26243 20.424 9.08868C19.8273 9.91492 19.5289 11.3608 19.5289 13.4264L19.4601 19.9675H26.8963L26.1389 25.6135H19.4601L19.3912 35.3907L20.1486 51.5713L10.8534 53.2927L11.6796 36.5613L11.4042 25.6135H6.85986L7.61725 19.9675H11.2665L11.1976 14.7347C11.1976 10.6494 12.46 7.18372 14.9846 4.33778C17.5092 1.44593 20.5847 0 24.211 0C26.1389 0 28.1356 0.206561 30.2012 0.619682L28.0668 8.46899Z" fill="#8870FF"/>
<path d="M38.7896 53.2927C36.3109 53.2927 34.2912 52.4894 32.7305 50.8828C31.2157 49.2303 30.4584 47.0729 30.4584 44.4106L30.8715 36.4924L30.1141 19.9675L39.3405 18.2462L38.4454 39.1777C38.4454 41.1515 38.7896 42.5974 39.4782 43.5155C40.2126 44.4335 41.3602 44.8925 42.9209 44.8925C44.4815 44.8925 46.6389 44.1122 49.3931 42.5515V38.4203L48.6357 20.3118L57.9309 18.5905L57.1047 35.8039L57.1735 41.4499C57.1735 44.3876 57.9309 47.3483 59.4457 50.332L52.2849 53.4992C50.7702 50.5156 49.8521 48.1287 49.5308 46.3385C45.3996 50.9746 41.8192 53.2927 38.7896 53.2927Z" fill="#8870FF"/>
<path d="M85.5939 35.8727C85.5939 32.7055 85.3185 30.5939 84.7677 29.5382C84.2169 28.4824 82.9316 27.9546 80.9119 27.9546C78.8922 27.9546 76.5971 28.7578 74.0265 30.3644V35.3907L74.7839 51.5713L65.5575 53.2927L66.3838 36.5613C66.2002 30.4103 65.6952 24.9021 64.869 20.0364L73.2003 18.2462C73.5216 20.9085 73.7511 23.502 73.8888 26.0267C74.5774 25.1086 75.3577 24.2135 76.2299 23.3414C77.102 22.4233 78.4791 21.4135 80.3611 20.3118C82.2431 19.1642 84.2169 18.5905 86.2825 18.5905C88.394 18.5905 90.1612 19.4167 91.5842 21.0692C93.0072 22.6758 93.7187 24.8791 93.7187 27.6791L93.3055 35.3907L94.0629 51.9156L84.7677 53.6369L85.5939 35.8727Z" fill="#8870FF"/>
<path d="M9.43294 35.5026L8.53785 70.8934L9.29523 87.074L0 88.7953L0.826243 72.0639L0 37.224L9.43294 35.5026Z" fill="#9E906E"/>
<path d="M29.8088 81.7722C31.1399 81.7722 32.54 81.428 34.0088 80.7394C35.4777 80.0509 36.6253 79.3624 37.4515 78.6738L38.6909 77.641L41.8581 81.4968C41.3991 82.2772 40.6876 83.1723 39.7237 84.1821C38.7597 85.192 37.7728 86.0641 36.763 86.7985C35.799 87.4871 34.4908 88.1297 32.8383 88.7264C31.2317 89.2773 29.5563 89.5527 27.812 89.5527C24.0939 89.5527 21.0644 88.1527 18.7233 85.3526C16.3823 82.5067 15.2118 78.8574 15.2118 74.4049C15.2118 68.8048 16.8413 63.8933 20.1004 59.6702C23.3595 55.4472 27.1694 53.3357 31.5301 53.3357C34.881 53.3357 37.4745 54.2767 39.3106 56.1587C41.1926 58.0407 42.1336 60.6801 42.1336 64.0769C42.1336 66.0966 41.7893 68.3917 41.1007 70.9622L39.7237 72.4081L22.5103 73.9918C23.2906 79.1787 25.7234 81.7722 29.8088 81.7722ZM29.8088 60.4276C27.7891 60.4276 26.0907 61.2539 24.7136 62.9064C23.3365 64.5129 22.5332 66.5785 22.3037 69.1032L34.0088 67.6572C34.1465 66.6015 34.2154 65.7293 34.2154 65.0408C34.2154 61.9654 32.7465 60.4276 29.8088 60.4276Z" fill="#9E906E"/>
<path d="M55.0291 88.7953C52.3208 88.7953 50.0946 87.9461 48.3503 86.2477C46.6519 84.5034 45.8027 82.1854 45.8027 79.2935C45.8027 76.3558 47.1339 73.8311 49.7962 71.7196C52.4585 69.5622 55.6947 68.4835 59.5046 68.4835H64.1866V67.313C64.1866 65.0638 63.7276 63.526 62.8095 62.6998C61.8915 61.8736 60.1701 61.4604 57.6455 61.4604C56.5898 61.4604 55.3274 61.6899 53.8586 62.149C52.4356 62.5621 50.829 63.2277 49.0388 64.1457L47.0421 58.7063C49.0159 57.3292 51.4028 56.0898 54.2028 54.9882C57.0488 53.8865 59.3898 53.3357 61.2259 53.3357C68.4326 53.3357 72.0359 56.8243 72.0359 63.8015V77.2968C72.0359 79.8673 72.8392 82.7362 74.4458 85.9035L67.1473 89.0019C65.9997 86.7985 65.1506 84.8247 64.5997 83.0805C62.0751 86.8904 58.8849 88.7953 55.0291 88.7953ZM57.9209 81.7722C59.757 81.7722 61.8456 80.8312 64.1866 78.9492V74.336C61.7538 73.7852 59.78 73.5098 58.2652 73.5098C55.3733 73.5098 53.9274 74.7951 53.9274 77.3656C53.9274 78.6968 54.2946 79.7755 55.0291 80.6017C55.7635 81.3821 56.7275 81.7722 57.9209 81.7722Z" fill="#9E906E"/>
<path d="M79.6614 55.539L87.9927 53.7488C88.4059 57.2833 88.6813 60.6342 88.819 63.8015C92.9961 57.3292 96.9207 54.0931 100.593 54.0931L99.8355 64.8343C97.1732 64.8343 95.0617 65.0867 93.501 65.5916C91.9862 66.0507 90.4256 66.9917 88.819 68.4146V70.8934L89.5764 87.074L80.35 88.7953L81.1762 72.0639C80.9926 65.913 80.4877 60.4047 79.6614 55.539Z" fill="#9E906E"/>
<path d="M124.929 71.3753C124.929 68.2081 124.653 66.0966 124.103 65.0408C123.552 63.9851 122.267 63.4572 120.247 63.4572C118.227 63.4572 115.932 64.2605 113.362 65.8671V70.8934L114.119 87.074L104.893 88.7953L105.719 72.0639C105.535 65.913 105.03 60.4047 104.204 55.539L112.535 53.7488C112.857 56.4112 113.086 59.0046 113.224 61.5293C113.912 60.6112 114.693 59.7161 115.565 58.844C116.437 57.9259 117.814 56.9161 119.696 55.8144C121.578 54.6669 123.552 54.0931 125.617 54.0931C127.729 54.0931 129.496 54.9193 130.919 56.5718C132.342 58.1784 133.054 60.3817 133.054 63.1818L132.641 70.8934L133.398 87.4182L124.103 89.1396L124.929 71.3753Z" fill="#9E906E"/>
<path d="M97.6729 26.4588C172.175 21.2865 166.795 78.5748 139.362 80.2507" stroke="#9684A3" stroke-opacity="0.66" stroke-width="21"/>
</svg>
