<svg width="1952" height="152" viewBox="0 0 1952 152" fill="none" xmlns="http://www.w3.org/2000/svg">
<g filter="url(#filter0_d_15_40)">
<rect width="1920" height="119.553" transform="translate(16 12)" fill="white"/>
<path d="M108.067 35.469C106.368 35.0559 104.831 34.8493 103.454 34.8493C102.077 34.8493 101.067 35.2624 100.424 36.0887C99.8273 36.9149 99.5289 38.3608 99.5289 40.4264L99.4601 46.9675H106.896L106.139 52.6135H99.4601L99.3912 62.3907L100.149 78.5713L90.8534 80.2927L91.6796 63.5613L91.4042 52.6135H86.8599L87.6173 46.9675H91.2665L91.1976 41.7347C91.1976 37.6494 92.46 34.1837 94.9846 31.3378C97.5092 28.4459 100.585 27 104.211 27C106.139 27 108.136 27.2066 110.201 27.6197L108.067 35.469Z" fill="#8870FF"/>
<path d="M118.79 80.2927C116.311 80.2927 114.291 79.4894 112.731 77.8828C111.216 76.2303 110.458 74.0729 110.458 71.4106L110.871 63.4924L110.114 46.9675L119.34 45.2462L118.445 66.1777C118.445 68.1515 118.79 69.5974 119.478 70.5155C120.213 71.4335 121.36 71.8925 122.921 71.8925C124.482 71.8925 126.639 71.1122 129.393 69.5515V65.4203L128.636 47.3118L137.931 45.5905L137.105 62.8039L137.174 68.4499C137.174 71.3876 137.931 74.3483 139.446 77.332L132.285 80.4992C130.77 77.5156 129.852 75.1287 129.531 73.3385C125.4 77.9746 121.819 80.2927 118.79 80.2927Z" fill="#8870FF"/>
<path d="M165.594 62.8727C165.594 59.7055 165.319 57.5939 164.768 56.5382C164.217 55.4824 162.932 54.9546 160.912 54.9546C158.892 54.9546 156.597 55.7578 154.027 57.3644V62.3907L154.784 78.5713L145.558 80.2927L146.384 63.5613C146.2 57.4103 145.695 51.9021 144.869 47.0364L153.2 45.2462C153.522 47.9085 153.751 50.502 153.889 53.0267C154.577 52.1086 155.358 51.2135 156.23 50.3414C157.102 49.4233 158.479 48.4135 160.361 47.3118C162.243 46.1642 164.217 45.5905 166.282 45.5905C168.394 45.5905 170.161 46.4167 171.584 48.0692C173.007 49.6758 173.719 51.8791 173.719 54.6791L173.306 62.3907L174.063 78.9156L164.768 80.6369L165.594 62.8727Z" fill="#8870FF"/>
<path d="M89.4329 62.5026L88.5378 97.8934L89.2952 114.074L80 115.795L80.8262 99.0639L80 64.224L89.4329 62.5026Z" fill="#9E906E"/>
<path d="M109.809 108.772C111.14 108.772 112.54 108.428 114.009 107.739C115.478 107.051 116.625 106.362 117.452 105.674L118.691 104.641L121.858 108.497C121.399 109.277 120.688 110.172 119.724 111.182C118.76 112.192 117.773 113.064 116.763 113.799C115.799 114.487 114.491 115.13 112.838 115.726C111.232 116.277 109.556 116.553 107.812 116.553C104.094 116.553 101.064 115.153 98.7233 112.353C96.3823 109.507 95.2118 105.857 95.2118 101.405C95.2118 95.8048 96.8413 90.8933 100.1 86.6702C103.359 82.4472 107.169 80.3357 111.53 80.3357C114.881 80.3357 117.474 81.2767 119.311 83.1587C121.193 85.0407 122.134 87.6801 122.134 91.0769C122.134 93.0966 121.789 95.3917 121.101 97.9622L119.724 99.4081L102.51 100.992C103.291 106.179 105.723 108.772 109.809 108.772ZM109.809 87.4276C107.789 87.4276 106.091 88.2539 104.714 89.9064C103.337 91.5129 102.533 93.5785 102.304 96.1032L114.009 94.6572C114.147 93.6015 114.215 92.7293 114.215 92.0408C114.215 88.9654 112.747 87.4276 109.809 87.4276Z" fill="#9E906E"/>
<path d="M135.029 115.795C132.321 115.795 130.095 114.946 128.35 113.248C126.652 111.503 125.803 109.185 125.803 106.294C125.803 103.356 127.134 100.831 129.796 98.7196C132.459 96.5622 135.695 95.4835 139.505 95.4835H144.187V94.313C144.187 92.0638 143.728 90.526 142.81 89.6998C141.891 88.8736 140.17 88.4604 137.646 88.4604C136.59 88.4604 135.327 88.6899 133.859 89.149C132.436 89.5621 130.829 90.2277 129.039 91.1457L127.042 85.7063C129.016 84.3292 131.403 83.0898 134.203 81.9882C137.049 80.8865 139.39 80.3357 141.226 80.3357C148.433 80.3357 152.036 83.8243 152.036 90.8015V104.297C152.036 106.867 152.839 109.736 154.446 112.903L147.147 116.002C146 113.799 145.151 111.825 144.6 110.08C142.075 113.89 138.885 115.795 135.029 115.795ZM137.921 108.772C139.757 108.772 141.846 107.831 144.187 105.949V101.336C141.754 100.785 139.78 100.51 138.265 100.51C135.373 100.51 133.927 101.795 133.927 104.366C133.927 105.697 134.295 106.775 135.029 107.602C135.764 108.382 136.727 108.772 137.921 108.772Z" fill="#9E906E"/>
<path d="M159.661 82.539L167.993 80.7488C168.406 84.2833 168.681 87.6342 168.819 90.8015C172.996 84.3292 176.921 81.0931 180.593 81.0931L179.836 91.8343C177.173 91.8343 175.062 92.0867 173.501 92.5916C171.986 93.0507 170.426 93.9917 168.819 95.4146V97.8934L169.576 114.074L160.35 115.795L161.176 99.0639C160.993 92.913 160.488 87.4047 159.661 82.539Z" fill="#9E906E"/>
<path d="M204.929 98.3753C204.929 95.2081 204.653 93.0966 204.103 92.0408C203.552 90.9851 202.267 90.4572 200.247 90.4572C198.227 90.4572 195.932 91.2605 193.362 92.8671V97.8934L194.119 114.074L184.893 115.795L185.719 99.0639C185.535 92.913 185.03 87.4047 184.204 82.539L192.535 80.7488C192.857 83.4112 193.086 86.0046 193.224 88.5293C193.912 87.6112 194.693 86.7161 195.565 85.844C196.437 84.9259 197.814 83.9161 199.696 82.8144C201.578 81.6669 203.552 81.0931 205.617 81.0931C207.729 81.0931 209.496 81.9193 210.919 83.5718C212.342 85.1784 213.054 87.3817 213.054 90.1818L212.641 97.8934L213.398 114.418L204.103 116.14L204.929 98.3753Z" fill="#9E906E"/>
<path d="M177.673 53.4588C252.175 48.2865 246.795 105.575 219.362 107.251" stroke="#9684A3" stroke-opacity="0.66" stroke-width="21"/>
<path d="M907.5 39.7763H1178.5L1168.69 92.9642L870.5 103.776L907.5 39.7763Z" fill="#9E906E"/>
<path d="M1185.16 39.7763H1454.5L1445.4 92.7763H1174.5L1185.16 39.7763Z" fill="#9E906E"/>
<path d="M917.7 73.7763H914.6C914.347 73.7763 914.16 73.723 914.04 73.6163C913.933 73.4963 913.88 73.3097 913.88 73.0563V60.0963C913.88 59.843 913.933 59.663 914.04 59.5563C914.16 59.4363 914.347 59.3763 914.6 59.3763H920.72C922.533 59.3763 923.773 59.7363 924.44 60.4563C925.107 61.1763 925.44 62.1163 925.44 63.2763V65.8363C925.44 66.9963 925.107 67.9363 924.44 68.6563C923.773 69.3763 922.533 69.7363 920.72 69.7363H918.42V73.0563C918.42 73.3097 918.36 73.4963 918.24 73.6163C918.133 73.723 917.953 73.7763 917.7 73.7763ZM918.38 63.1163V66.1363H920.18C920.567 66.1363 920.82 66.0363 920.94 65.8363C921.06 65.6363 921.12 65.4097 921.12 65.1563V64.0963C921.12 63.843 921.06 63.6163 920.94 63.4163C920.82 63.2163 920.567 63.1163 920.18 63.1163H918.38ZM932.538 63.5763L931.598 66.6163H934.738L933.798 63.5763C933.744 63.4563 933.684 63.3697 933.618 63.3163C933.564 63.263 933.498 63.2363 933.418 63.2363H932.918C932.838 63.2363 932.764 63.263 932.698 63.3163C932.644 63.3697 932.591 63.4563 932.538 63.5763ZM931.398 73.0563C931.398 73.3097 931.338 73.4963 931.217 73.6163C931.111 73.723 930.931 73.7763 930.678 73.7763H927.738C927.484 73.7763 927.298 73.723 927.178 73.6163C927.071 73.4963 927.018 73.3097 927.018 73.0563V67.7763C927.018 67.3763 927.078 66.9163 927.198 66.3963C927.331 65.8763 927.531 65.2697 927.798 64.5763L929.538 60.0363C929.618 59.8097 929.738 59.643 929.898 59.5363C930.071 59.4297 930.291 59.3763 930.558 59.3763H935.938C936.191 59.3763 936.398 59.4297 936.558 59.5363C936.731 59.643 936.858 59.8097 936.938 60.0363L938.678 64.5763C938.944 65.2697 939.138 65.8763 939.258 66.3963C939.391 66.9163 939.458 67.3763 939.458 67.7763V73.0563C939.458 73.3097 939.398 73.4963 939.278 73.6163C939.171 73.723 938.991 73.7763 938.738 73.7763H935.718C935.451 73.7763 935.251 73.723 935.118 73.6163C934.998 73.4963 934.938 73.3097 934.938 73.0563V70.2563H931.398V73.0563ZM942.327 73.7763C942.074 73.7763 941.887 73.723 941.767 73.6163C941.66 73.4963 941.607 73.3097 941.607 73.0563V70.6763C941.607 70.423 941.66 70.243 941.767 70.1363C941.887 70.0163 942.074 69.9563 942.327 69.9563H944.307V63.2363H942.327C942.074 63.2363 941.887 63.183 941.767 63.0763C941.66 62.9563 941.607 62.7697 941.607 62.5163V60.0963C941.607 59.843 941.66 59.663 941.767 59.5563C941.887 59.4363 942.074 59.3763 942.327 59.3763H950.847C951.1 59.3763 951.28 59.4363 951.387 59.5563C951.507 59.663 951.567 59.843 951.567 60.0963V62.5163C951.567 62.7697 951.507 62.9563 951.387 63.0763C951.28 63.183 951.1 63.2363 950.847 63.2363H948.907V69.9563H950.847C951.1 69.9563 951.28 70.0163 951.387 70.1363C951.507 70.243 951.567 70.423 951.567 70.6763V73.0563C951.567 73.3097 951.507 73.4963 951.387 73.6163C951.28 73.723 951.1 73.7763 950.847 73.7763H942.327ZM957.756 73.7763H954.756C954.503 73.7763 954.316 73.723 954.196 73.6163C954.09 73.4963 954.036 73.3097 954.036 73.0563V60.0963C954.036 59.843 954.09 59.663 954.196 59.5563C954.316 59.4363 954.503 59.3763 954.756 59.3763H956.836C957.09 59.3763 957.303 59.4163 957.476 59.4963C957.663 59.5763 957.843 59.7163 958.016 59.9163L961.896 64.3563V60.0963C961.896 59.843 961.95 59.663 962.056 59.5563C962.176 59.4363 962.363 59.3763 962.616 59.3763H965.616C965.87 59.3763 966.05 59.4363 966.156 59.5563C966.276 59.663 966.336 59.843 966.336 60.0963V73.0563C966.336 73.3097 966.276 73.4963 966.156 73.6163C966.05 73.723 965.87 73.7763 965.616 73.7763H962.616C962.363 73.7763 962.176 73.723 962.056 73.6163C961.95 73.4963 961.896 73.3097 961.896 73.0563V70.5963L958.476 66.4563V73.0563C958.476 73.3097 958.416 73.4963 958.296 73.6163C958.19 73.723 958.01 73.7763 957.756 73.7763ZM979.095 73.7763H969.815C969.562 73.7763 969.375 73.723 969.255 73.6163C969.148 73.4963 969.095 73.3097 969.095 73.0563V60.0963C969.095 59.843 969.148 59.663 969.255 59.5563C969.375 59.4363 969.562 59.3763 969.815 59.3763H979.095C979.348 59.3763 979.528 59.4363 979.635 59.5563C979.755 59.663 979.815 59.843 979.815 60.0963V62.4363C979.815 62.6897 979.755 62.8763 979.635 62.9963C979.528 63.103 979.348 63.1563 979.095 63.1563H973.575V64.6963H977.475C977.728 64.6963 977.908 64.7563 978.015 64.8763C978.135 64.983 978.195 65.163 978.195 65.4163V67.5563C978.195 67.8097 978.135 67.9963 978.015 68.1163C977.908 68.223 977.728 68.2763 977.475 68.2763H973.575V69.9963H979.095C979.348 69.9963 979.528 70.0563 979.635 70.1763C979.755 70.283 979.815 70.463 979.815 70.7163V73.0563C979.815 73.3097 979.755 73.4963 979.635 73.6163C979.528 73.723 979.348 73.7763 979.095 73.7763ZM993.081 73.7763H982.901C982.647 73.7763 982.461 73.723 982.341 73.6163C982.234 73.4963 982.181 73.3097 982.181 73.0563V60.0963C982.181 59.843 982.234 59.663 982.341 59.5563C982.461 59.4363 982.647 59.3763 982.901 59.3763H986.001C986.254 59.3763 986.434 59.4363 986.541 59.5563C986.661 59.663 986.721 59.843 986.721 60.0963V69.9963H989.461V66.7563C989.461 66.503 989.514 66.323 989.621 66.2163C989.741 66.0963 989.927 66.0363 990.181 66.0363H993.081C993.334 66.0363 993.514 66.0963 993.621 66.2163C993.741 66.323 993.801 66.503 993.801 66.7563V73.0563C993.801 73.3097 993.741 73.4963 993.621 73.6163C993.514 73.723 993.334 73.7763 993.081 73.7763ZM1008.74 73.7763H1002C1001.75 73.7763 1001.56 73.723 1001.44 73.6163C1001.34 73.4963 1001.28 73.3097 1001.28 73.0563V60.0963C1001.28 59.843 1001.34 59.663 1001.44 59.5563C1001.56 59.4363 1001.75 59.3763 1002 59.3763H1008.74C1010.41 59.3763 1011.64 59.7097 1012.44 60.3763C1013.26 61.043 1013.66 62.0697 1013.66 63.4563V69.6963C1013.66 71.083 1013.26 72.1097 1012.44 72.7763C1011.64 73.443 1010.41 73.7763 1008.74 73.7763ZM1005.82 63.1963V69.9963H1008.2C1008.52 69.9963 1008.76 69.9163 1008.9 69.7563C1009.06 69.5963 1009.14 69.3497 1009.14 69.0163V64.1563C1009.14 63.823 1009.06 63.583 1008.9 63.4363C1008.76 63.2763 1008.52 63.1963 1008.2 63.1963H1005.82ZM1026.2 73.7763H1016.92C1016.67 73.7763 1016.48 73.723 1016.36 73.6163C1016.26 73.4963 1016.2 73.3097 1016.2 73.0563V60.0963C1016.2 59.843 1016.26 59.663 1016.36 59.5563C1016.48 59.4363 1016.67 59.3763 1016.92 59.3763H1026.2C1026.46 59.3763 1026.64 59.4363 1026.74 59.5563C1026.86 59.663 1026.92 59.843 1026.92 60.0963V62.4363C1026.92 62.6897 1026.86 62.8763 1026.74 62.9963C1026.64 63.103 1026.46 63.1563 1026.2 63.1563H1020.68V64.6963H1024.58C1024.84 64.6963 1025.02 64.7563 1025.12 64.8763C1025.24 64.983 1025.3 65.163 1025.3 65.4163V67.5563C1025.3 67.8097 1025.24 67.9963 1025.12 68.1163C1025.02 68.223 1024.84 68.2763 1024.58 68.2763H1020.68V69.9963H1026.2C1026.46 69.9963 1026.64 70.0563 1026.74 70.1763C1026.86 70.283 1026.92 70.463 1026.92 70.7163V73.0563C1026.92 73.3097 1026.86 73.4963 1026.74 73.6163C1026.64 73.723 1026.46 73.7763 1026.2 73.7763ZM1044.07 73.7763H1039.19C1037.52 73.7763 1036.28 73.443 1035.47 72.7763C1034.67 72.1097 1034.27 71.083 1034.27 69.6963V63.4763C1034.27 62.0897 1034.67 61.063 1035.47 60.3963C1036.28 59.7163 1037.52 59.3763 1039.19 59.3763H1044.07C1044.32 59.3763 1044.5 59.4363 1044.61 59.5563C1044.73 59.663 1044.79 59.843 1044.79 60.0963V62.5163C1044.79 62.7697 1044.73 62.9563 1044.61 63.0763C1044.5 63.183 1044.32 63.2363 1044.07 63.2363H1040.05C1039.63 63.2363 1039.33 63.323 1039.13 63.4963C1038.93 63.6563 1038.83 63.903 1038.83 64.2363V68.9963C1038.83 69.3297 1038.93 69.5763 1039.13 69.7363C1039.33 69.883 1039.63 69.9563 1040.05 69.9563H1044.07C1044.32 69.9563 1044.5 70.0163 1044.61 70.1363C1044.73 70.243 1044.79 70.423 1044.79 70.6763V73.0563C1044.79 73.3097 1044.73 73.4963 1044.61 73.6163C1044.5 73.723 1044.32 73.7763 1044.07 73.7763ZM1059.15 69.9963C1059.15 70.6097 1059.05 71.1697 1058.87 71.6763C1058.69 72.1697 1058.37 72.5963 1057.91 72.9563C1057.45 73.303 1056.82 73.5763 1056.01 73.7763C1055.21 73.9763 1054.19 74.0763 1052.95 74.0763C1051.71 74.0763 1050.68 73.9763 1049.87 73.7763C1049.05 73.5763 1048.41 73.303 1047.95 72.9563C1047.49 72.5963 1047.17 72.1697 1046.99 71.6763C1046.81 71.1697 1046.73 70.6097 1046.73 69.9963V63.1763C1046.73 62.563 1046.81 62.0097 1046.99 61.5163C1047.17 61.0097 1047.49 60.5763 1047.95 60.2163C1048.41 59.8563 1049.05 59.5763 1049.87 59.3763C1050.68 59.1763 1051.71 59.0763 1052.95 59.0763C1054.19 59.0763 1055.21 59.1763 1056.01 59.3763C1056.82 59.5763 1057.45 59.8563 1057.91 60.2163C1058.37 60.5763 1058.69 61.0097 1058.87 61.5163C1059.05 62.0097 1059.15 62.563 1059.15 63.1763V69.9963ZM1051.27 69.2763C1051.27 69.543 1051.37 69.7697 1051.57 69.9563C1051.77 70.1297 1052.23 70.2163 1052.95 70.2163C1053.67 70.2163 1054.13 70.1297 1054.33 69.9563C1054.53 69.7697 1054.63 69.543 1054.63 69.2763V63.8963C1054.63 63.643 1054.53 63.4297 1054.33 63.2563C1054.13 63.0697 1053.67 62.9763 1052.95 62.9763C1052.23 62.9763 1051.77 63.0697 1051.57 63.2563C1051.37 63.4297 1051.27 63.643 1051.27 63.8963V69.2763ZM1065.41 73.7763H1062.41C1062.16 73.7763 1061.97 73.723 1061.85 73.6163C1061.75 73.4963 1061.69 73.3097 1061.69 73.0563V60.0963C1061.69 59.843 1061.75 59.663 1061.85 59.5563C1061.97 59.4363 1062.16 59.3763 1062.41 59.3763H1064.49C1064.75 59.3763 1064.96 59.4163 1065.13 59.4963C1065.32 59.5763 1065.5 59.7163 1065.67 59.9163L1069.55 64.3563V60.0963C1069.55 59.843 1069.61 59.663 1069.71 59.5563C1069.83 59.4363 1070.02 59.3763 1070.27 59.3763H1073.27C1073.53 59.3763 1073.71 59.4363 1073.81 59.5563C1073.93 59.663 1073.99 59.843 1073.99 60.0963V73.0563C1073.99 73.3097 1073.93 73.4963 1073.81 73.6163C1073.71 73.723 1073.53 73.7763 1073.27 73.7763H1070.27C1070.02 73.7763 1069.83 73.723 1069.71 73.6163C1069.61 73.4963 1069.55 73.3097 1069.55 73.0563V70.5963L1066.13 66.4563V73.0563C1066.13 73.3097 1066.07 73.4963 1065.95 73.6163C1065.85 73.723 1065.67 73.7763 1065.41 73.7763ZM1083.55 73.7763H1080.31C1080.06 73.7763 1079.87 73.723 1079.75 73.6163C1079.64 73.4963 1079.59 73.3097 1079.59 73.0563V63.2363H1076.65C1076.4 63.2363 1076.21 63.183 1076.09 63.0763C1075.98 62.9563 1075.93 62.7697 1075.93 62.5163V60.0963C1075.93 59.843 1075.98 59.663 1076.09 59.5563C1076.21 59.4363 1076.4 59.3763 1076.65 59.3763H1087.21C1087.46 59.3763 1087.64 59.4363 1087.75 59.5563C1087.87 59.663 1087.93 59.843 1087.93 60.0963V62.5163C1087.93 62.7697 1087.87 62.9563 1087.75 63.0763C1087.64 63.183 1087.46 63.2363 1087.21 63.2363H1084.27V73.0563C1084.27 73.3097 1084.21 73.4963 1084.09 73.6163C1083.98 73.723 1083.8 73.7763 1083.55 73.7763ZM1094.4 62.9763V65.5363H1095.9C1096.24 65.5363 1096.48 65.4497 1096.6 65.2763C1096.72 65.0897 1096.78 64.863 1096.78 64.5963V63.9163C1096.78 63.6497 1096.72 63.4297 1096.6 63.2563C1096.48 63.0697 1096.24 62.9763 1095.9 62.9763H1094.4ZM1093.68 73.7763H1090.6C1090.34 73.7763 1090.16 73.723 1090.04 73.6163C1089.93 73.4963 1089.88 73.3097 1089.88 73.0563V60.0963C1089.88 59.843 1089.93 59.663 1090.04 59.5563C1090.16 59.4363 1090.34 59.3763 1090.6 59.3763H1097.26C1098.75 59.3763 1099.78 59.6897 1100.34 60.3163C1100.91 60.9297 1101.2 61.7297 1101.2 62.7163V63.6363C1101.2 64.1963 1101.11 64.6763 1100.94 65.0763C1100.78 65.463 1100.49 65.743 1100.08 65.9163C1100.8 65.9963 1101.38 66.2897 1101.82 66.7963C1102.27 67.303 1102.5 67.9763 1102.5 68.8163V73.0563C1102.5 73.3097 1102.44 73.4963 1102.32 73.6163C1102.21 73.723 1102.03 73.7763 1101.78 73.7763H1098.68C1098.42 73.7763 1098.24 73.723 1098.12 73.6163C1098.01 73.4963 1097.96 73.3097 1097.96 73.0563V69.9963C1097.96 69.703 1097.9 69.4897 1097.78 69.3563C1097.67 69.2097 1097.48 69.1363 1097.2 69.1363H1094.4V73.0563C1094.4 73.3097 1094.34 73.4963 1094.22 73.6163C1094.11 73.723 1093.93 73.7763 1093.68 73.7763ZM1116.84 69.9963C1116.84 70.6097 1116.75 71.1697 1116.56 71.6763C1116.39 72.1697 1116.07 72.5963 1115.6 72.9563C1115.15 73.303 1114.52 73.5763 1113.7 73.7763C1112.9 73.9763 1111.88 74.0763 1110.64 74.0763C1109.4 74.0763 1108.38 73.9763 1107.56 73.7763C1106.75 73.5763 1106.11 73.303 1105.64 72.9563C1105.19 72.5963 1104.87 72.1697 1104.68 71.6763C1104.51 71.1697 1104.42 70.6097 1104.42 69.9963V63.1763C1104.42 62.563 1104.51 62.0097 1104.68 61.5163C1104.87 61.0097 1105.19 60.5763 1105.64 60.2163C1106.11 59.8563 1106.75 59.5763 1107.56 59.3763C1108.38 59.1763 1109.4 59.0763 1110.64 59.0763C1111.88 59.0763 1112.9 59.1763 1113.7 59.3763C1114.52 59.5763 1115.15 59.8563 1115.6 60.2163C1116.07 60.5763 1116.39 61.0097 1116.56 61.5163C1116.75 62.0097 1116.84 62.563 1116.84 63.1763V69.9963ZM1108.96 69.2763C1108.96 69.543 1109.06 69.7697 1109.26 69.9563C1109.46 70.1297 1109.92 70.2163 1110.64 70.2163C1111.36 70.2163 1111.82 70.1297 1112.02 69.9563C1112.22 69.7697 1112.32 69.543 1112.32 69.2763V63.8963C1112.32 63.643 1112.22 63.4297 1112.02 63.2563C1111.82 63.0697 1111.36 62.9763 1110.64 62.9763C1109.92 62.9763 1109.46 63.0697 1109.26 63.2563C1109.06 63.4297 1108.96 63.643 1108.96 63.8963V69.2763ZM1130.29 73.7763H1120.11C1119.85 73.7763 1119.67 73.723 1119.55 73.6163C1119.44 73.4963 1119.39 73.3097 1119.39 73.0563V60.0963C1119.39 59.843 1119.44 59.663 1119.55 59.5563C1119.67 59.4363 1119.85 59.3763 1120.11 59.3763H1123.21C1123.46 59.3763 1123.64 59.4363 1123.75 59.5563C1123.87 59.663 1123.93 59.843 1123.93 60.0963V69.9963H1126.67V66.7563C1126.67 66.503 1126.72 66.323 1126.83 66.2163C1126.95 66.0963 1127.13 66.0363 1127.39 66.0363H1130.29C1130.54 66.0363 1130.72 66.0963 1130.83 66.2163C1130.95 66.323 1131.01 66.503 1131.01 66.7563V73.0563C1131.01 73.3097 1130.95 73.4963 1130.83 73.6163C1130.72 73.723 1130.54 73.7763 1130.29 73.7763ZM1143.29 73.7763H1134.01C1133.76 73.7763 1133.57 73.723 1133.45 73.6163C1133.35 73.4963 1133.29 73.3097 1133.29 73.0563V60.0963C1133.29 59.843 1133.35 59.663 1133.45 59.5563C1133.57 59.4363 1133.76 59.3763 1134.01 59.3763H1143.29C1143.55 59.3763 1143.73 59.4363 1143.83 59.5563C1143.95 59.663 1144.01 59.843 1144.01 60.0963V62.4363C1144.01 62.6897 1143.95 62.8763 1143.83 62.9963C1143.73 63.103 1143.55 63.1563 1143.29 63.1563H1137.77V64.6963H1141.67C1141.93 64.6963 1142.11 64.7563 1142.21 64.8763C1142.33 64.983 1142.39 65.163 1142.39 65.4163V67.5563C1142.39 67.8097 1142.33 67.9963 1142.21 68.1163C1142.11 68.223 1141.93 68.2763 1141.67 68.2763H1137.77V69.9963H1143.29C1143.55 69.9963 1143.73 70.0563 1143.83 70.1763C1143.95 70.283 1144.01 70.463 1144.01 70.7163V73.0563C1144.01 73.3097 1143.95 73.4963 1143.83 73.6163C1143.73 73.723 1143.55 73.7763 1143.29 73.7763Z" fill="white"/>
<path d="M1245.46 72.7763H1240.58C1238.91 72.7763 1237.67 72.443 1236.86 71.7763C1236.06 71.1097 1235.66 70.083 1235.66 68.6963V62.4763C1235.66 61.0897 1236.06 60.063 1236.86 59.3963C1237.67 58.7163 1238.91 58.3763 1240.58 58.3763H1245.46C1245.71 58.3763 1245.89 58.4363 1246 58.5563C1246.12 58.663 1246.18 58.843 1246.18 59.0963V61.5163C1246.18 61.7697 1246.12 61.9563 1246 62.0763C1245.89 62.183 1245.71 62.2363 1245.46 62.2363H1241.44C1241.03 62.2363 1240.72 62.323 1240.52 62.4963C1240.32 62.6563 1240.22 62.903 1240.22 63.2363V67.9963C1240.22 68.3297 1240.32 68.5763 1240.52 68.7363C1240.72 68.883 1241.03 68.9563 1241.44 68.9563H1245.46C1245.71 68.9563 1245.89 69.0163 1246 69.1363C1246.12 69.243 1246.18 69.423 1246.18 69.6763V72.0563C1246.18 72.3097 1246.12 72.4963 1246 72.6163C1245.89 72.723 1245.71 72.7763 1245.46 72.7763ZM1253.66 62.5763L1252.72 65.6163H1255.86L1254.92 62.5763C1254.87 62.4563 1254.81 62.3697 1254.74 62.3163C1254.69 62.263 1254.62 62.2363 1254.54 62.2363H1254.04C1253.96 62.2363 1253.89 62.263 1253.82 62.3163C1253.77 62.3697 1253.71 62.4563 1253.66 62.5763ZM1252.52 72.0563C1252.52 72.3097 1252.46 72.4963 1252.34 72.6163C1252.23 72.723 1252.05 72.7763 1251.8 72.7763H1248.86C1248.61 72.7763 1248.42 72.723 1248.3 72.6163C1248.19 72.4963 1248.14 72.3097 1248.14 72.0563V66.7763C1248.14 66.3763 1248.2 65.9163 1248.32 65.3963C1248.45 64.8763 1248.65 64.2697 1248.92 63.5763L1250.66 59.0363C1250.74 58.8097 1250.86 58.643 1251.02 58.5363C1251.19 58.4297 1251.41 58.3763 1251.68 58.3763H1257.06C1257.31 58.3763 1257.52 58.4297 1257.68 58.5363C1257.85 58.643 1257.98 58.8097 1258.06 59.0363L1259.8 63.5763C1260.07 64.2697 1260.26 64.8763 1260.38 65.3963C1260.51 65.9163 1260.58 66.3763 1260.58 66.7763V72.0563C1260.58 72.3097 1260.52 72.4963 1260.4 72.6163C1260.29 72.723 1260.11 72.7763 1259.86 72.7763H1256.84C1256.57 72.7763 1256.37 72.723 1256.24 72.6163C1256.12 72.4963 1256.06 72.3097 1256.06 72.0563V69.2563H1252.52V72.0563ZM1270.51 72.7763H1263.77C1263.51 72.7763 1263.33 72.723 1263.21 72.6163C1263.1 72.4963 1263.05 72.3097 1263.05 72.0563V59.0963C1263.05 58.843 1263.1 58.663 1263.21 58.5563C1263.33 58.4363 1263.51 58.3763 1263.77 58.3763H1270.51C1272.17 58.3763 1273.41 58.7097 1274.21 59.3763C1275.02 60.043 1275.43 61.0697 1275.43 62.4563V68.6963C1275.43 70.083 1275.02 71.1097 1274.21 71.7763C1273.41 72.443 1272.17 72.7763 1270.51 72.7763ZM1267.59 62.1963V68.9963H1269.97C1270.29 68.9963 1270.52 68.9163 1270.67 68.7563C1270.83 68.5963 1270.91 68.3497 1270.91 68.0163V63.1563C1270.91 62.823 1270.83 62.583 1270.67 62.4363C1270.52 62.2763 1270.29 62.1963 1269.97 62.1963H1267.59ZM1283.19 62.5763L1282.25 65.6163H1285.39L1284.45 62.5763C1284.4 62.4563 1284.34 62.3697 1284.27 62.3163C1284.22 62.263 1284.15 62.2363 1284.07 62.2363H1283.57C1283.49 62.2363 1283.42 62.263 1283.35 62.3163C1283.3 62.3697 1283.24 62.4563 1283.19 62.5763ZM1282.05 72.0563C1282.05 72.3097 1281.99 72.4963 1281.87 72.6163C1281.76 72.723 1281.58 72.7763 1281.33 72.7763H1278.39C1278.14 72.7763 1277.95 72.723 1277.83 72.6163C1277.72 72.4963 1277.67 72.3097 1277.67 72.0563V66.7763C1277.67 66.3763 1277.73 65.9163 1277.85 65.3963C1277.98 64.8763 1278.18 64.2697 1278.45 63.5763L1280.19 59.0363C1280.27 58.8097 1280.39 58.643 1280.55 58.5363C1280.72 58.4297 1280.94 58.3763 1281.21 58.3763H1286.59C1286.84 58.3763 1287.05 58.4297 1287.21 58.5363C1287.38 58.643 1287.51 58.8097 1287.59 59.0363L1289.33 63.5763C1289.6 64.2697 1289.79 64.8763 1289.91 65.3963C1290.04 65.9163 1290.11 66.3763 1290.11 66.7763V72.0563C1290.11 72.3097 1290.05 72.4963 1289.93 72.6163C1289.82 72.723 1289.64 72.7763 1289.39 72.7763H1286.37C1286.1 72.7763 1285.9 72.723 1285.77 72.6163C1285.65 72.4963 1285.59 72.3097 1285.59 72.0563V69.2563H1282.05V72.0563ZM1299.26 72.7763H1292.94C1292.69 72.7763 1292.5 72.723 1292.38 72.6163C1292.27 72.4963 1292.22 72.3097 1292.22 72.0563V69.7163C1292.22 69.463 1292.27 69.283 1292.38 69.1763C1292.5 69.0563 1292.69 68.9963 1292.94 68.9963H1298.32C1298.49 68.9963 1298.62 68.943 1298.7 68.8363C1298.79 68.7163 1298.84 68.5763 1298.84 68.4163C1298.84 68.1897 1298.79 68.023 1298.7 67.9163C1298.62 67.8097 1298.49 67.7497 1298.32 67.7363L1295.32 67.3163C1294.39 67.183 1293.63 66.8763 1293.06 66.3963C1292.5 65.9163 1292.22 65.1163 1292.22 63.9963V61.8963C1292.22 60.763 1292.59 59.8963 1293.32 59.2963C1294.05 58.683 1295.07 58.3763 1296.36 58.3763H1301.96C1302.21 58.3763 1302.39 58.4363 1302.5 58.5563C1302.62 58.663 1302.68 58.843 1302.68 59.0963V61.4763C1302.68 61.7297 1302.62 61.9163 1302.5 62.0363C1302.39 62.143 1302.21 62.1963 1301.96 62.1963H1297.3C1297.13 62.1963 1296.99 62.2563 1296.9 62.3763C1296.81 62.483 1296.76 62.623 1296.76 62.7963C1296.76 62.9697 1296.81 63.1163 1296.9 63.2363C1296.99 63.3563 1297.13 63.423 1297.3 63.4363L1300.28 63.8363C1301.21 63.9697 1301.97 64.2763 1302.54 64.7563C1303.11 65.2363 1303.4 66.0363 1303.4 67.1563V69.2563C1303.4 70.3897 1303.03 71.263 1302.28 71.8763C1301.55 72.4763 1300.54 72.7763 1299.26 72.7763ZM1312.19 72.7763H1308.95C1308.7 72.7763 1308.51 72.723 1308.39 72.6163C1308.29 72.4963 1308.23 72.3097 1308.23 72.0563V62.2363H1305.29C1305.04 62.2363 1304.85 62.183 1304.73 62.0763C1304.63 61.9563 1304.57 61.7697 1304.57 61.5163V59.0963C1304.57 58.843 1304.63 58.663 1304.73 58.5563C1304.85 58.4363 1305.04 58.3763 1305.29 58.3763H1315.85C1316.11 58.3763 1316.29 58.4363 1316.39 58.5563C1316.51 58.663 1316.57 58.843 1316.57 59.0963V61.5163C1316.57 61.7697 1316.51 61.9563 1316.39 62.0763C1316.29 62.183 1316.11 62.2363 1315.85 62.2363H1312.91V72.0563C1312.91 72.3097 1312.85 72.4963 1312.73 72.6163C1312.63 72.723 1312.45 72.7763 1312.19 72.7763ZM1323.04 61.9763V64.5363H1324.54C1324.88 64.5363 1325.12 64.4497 1325.24 64.2763C1325.36 64.0897 1325.42 63.863 1325.42 63.5963V62.9163C1325.42 62.6497 1325.36 62.4297 1325.24 62.2563C1325.12 62.0697 1324.88 61.9763 1324.54 61.9763H1323.04ZM1322.32 72.7763H1319.24C1318.98 72.7763 1318.8 72.723 1318.68 72.6163C1318.57 72.4963 1318.52 72.3097 1318.52 72.0563V59.0963C1318.52 58.843 1318.57 58.663 1318.68 58.5563C1318.8 58.4363 1318.98 58.3763 1319.24 58.3763H1325.9C1327.39 58.3763 1328.42 58.6897 1328.98 59.3163C1329.55 59.9297 1329.84 60.7297 1329.84 61.7163V62.6363C1329.84 63.1963 1329.75 63.6763 1329.58 64.0763C1329.42 64.463 1329.13 64.743 1328.72 64.9163C1329.44 64.9963 1330.02 65.2897 1330.46 65.7963C1330.91 66.303 1331.14 66.9763 1331.14 67.8163V72.0563C1331.14 72.3097 1331.08 72.4963 1330.96 72.6163C1330.85 72.723 1330.67 72.7763 1330.42 72.7763H1327.32C1327.06 72.7763 1326.88 72.723 1326.76 72.6163C1326.65 72.4963 1326.6 72.3097 1326.6 72.0563V68.9963C1326.6 68.703 1326.54 68.4897 1326.42 68.3563C1326.31 68.2097 1326.12 68.1363 1325.84 68.1363H1323.04V72.0563C1323.04 72.3097 1322.98 72.4963 1322.86 72.6163C1322.75 72.723 1322.57 72.7763 1322.32 72.7763ZM1345.48 68.9963C1345.48 69.6097 1345.39 70.1697 1345.2 70.6763C1345.03 71.1697 1344.71 71.5963 1344.24 71.9563C1343.79 72.303 1343.16 72.5763 1342.34 72.7763C1341.54 72.9763 1340.52 73.0763 1339.28 73.0763C1338.04 73.0763 1337.02 72.9763 1336.2 72.7763C1335.39 72.5763 1334.75 72.303 1334.28 71.9563C1333.83 71.5963 1333.51 71.1697 1333.32 70.6763C1333.15 70.1697 1333.06 69.6097 1333.06 68.9963V62.1763C1333.06 61.563 1333.15 61.0097 1333.32 60.5163C1333.51 60.0097 1333.83 59.5763 1334.28 59.2163C1334.75 58.8563 1335.39 58.5763 1336.2 58.3763C1337.02 58.1763 1338.04 58.0763 1339.28 58.0763C1340.52 58.0763 1341.54 58.1763 1342.34 58.3763C1343.16 58.5763 1343.79 58.8563 1344.24 59.2163C1344.71 59.5763 1345.03 60.0097 1345.2 60.5163C1345.39 61.0097 1345.48 61.563 1345.48 62.1763V68.9963ZM1337.6 68.2763C1337.6 68.543 1337.7 68.7697 1337.9 68.9563C1338.1 69.1297 1338.56 69.2163 1339.28 69.2163C1340 69.2163 1340.46 69.1297 1340.66 68.9563C1340.86 68.7697 1340.96 68.543 1340.96 68.2763V62.8963C1340.96 62.643 1340.86 62.4297 1340.66 62.2563C1340.46 62.0697 1340 61.9763 1339.28 61.9763C1338.56 61.9763 1338.1 62.0697 1337.9 62.2563C1337.7 62.4297 1337.6 62.643 1337.6 62.8963V68.2763ZM1354.71 72.7763H1348.39C1348.14 72.7763 1347.95 72.723 1347.83 72.6163C1347.72 72.4963 1347.67 72.3097 1347.67 72.0563V69.7163C1347.67 69.463 1347.72 69.283 1347.83 69.1763C1347.95 69.0563 1348.14 68.9963 1348.39 68.9963H1353.77C1353.94 68.9963 1354.07 68.943 1354.15 68.8363C1354.24 68.7163 1354.29 68.5763 1354.29 68.4163C1354.29 68.1897 1354.24 68.023 1354.15 67.9163C1354.07 67.8097 1353.94 67.7497 1353.77 67.7363L1350.77 67.3163C1349.84 67.183 1349.08 66.8763 1348.51 66.3963C1347.95 65.9163 1347.67 65.1163 1347.67 63.9963V61.8963C1347.67 60.763 1348.04 59.8963 1348.77 59.2963C1349.5 58.683 1350.52 58.3763 1351.81 58.3763H1357.41C1357.66 58.3763 1357.84 58.4363 1357.95 58.5563C1358.07 58.663 1358.13 58.843 1358.13 59.0963V61.4763C1358.13 61.7297 1358.07 61.9163 1357.95 62.0363C1357.84 62.143 1357.66 62.1963 1357.41 62.1963H1352.75C1352.58 62.1963 1352.44 62.2563 1352.35 62.3763C1352.26 62.483 1352.21 62.623 1352.21 62.7963C1352.21 62.9697 1352.26 63.1163 1352.35 63.2363C1352.44 63.3563 1352.58 63.423 1352.75 63.4363L1355.73 63.8363C1356.66 63.9697 1357.42 64.2763 1357.99 64.7563C1358.56 65.2363 1358.85 66.0363 1358.85 67.1563V69.2563C1358.85 70.3897 1358.48 71.263 1357.73 71.8763C1357 72.4763 1355.99 72.7763 1354.71 72.7763Z" fill="white"/>
<path d="M1382 71.7763L1389.36 59.0263H1374.64L1382 71.7763Z" fill="white"/>
<path d="M1667.99 37.4262L1862.51 29.4567V114.096L1640.49 99.9262L1667.99 37.4262Z" fill="#AAB69B"/>
<path d="M1804.24 94.9262C1803.24 94.9262 1802.37 94.5512 1801.62 93.8012C1800.87 93.0512 1800.49 92.1762 1800.49 91.1762V53.6762C1800.49 52.6762 1800.87 51.8012 1801.62 51.0512C1802.37 50.3012 1803.24 49.9262 1804.24 49.9262H1822.43V53.6762H1804.24V91.1762H1822.43V94.9262H1804.24ZM1834.62 83.3637L1831.93 80.6762L1838.31 74.3012H1816.43V70.5512H1838.18L1831.81 64.1762L1834.49 61.4887L1845.49 72.4887L1834.62 83.3637Z" fill="white"/>
<path d="M1692.39 84.9262H1682.28C1681.87 84.9262 1681.57 84.8408 1681.38 84.6702C1681.21 84.4782 1681.13 84.1795 1681.13 83.7742V80.0302C1681.13 79.6248 1681.21 79.3368 1681.38 79.1662C1681.57 78.9742 1681.87 78.8782 1682.28 78.8782H1690.89C1691.16 78.8782 1691.37 78.7928 1691.49 78.6222C1691.64 78.4302 1691.72 78.2062 1691.72 77.9502C1691.72 77.5875 1691.64 77.3208 1691.49 77.1502C1691.37 76.9795 1691.16 76.8835 1690.89 76.8622L1686.09 76.1902C1684.59 75.9768 1683.39 75.4862 1682.47 74.7182C1681.57 73.9502 1681.13 72.6702 1681.13 70.8782V67.5182C1681.13 65.7048 1681.71 64.3182 1682.89 63.3582C1684.06 62.3768 1685.68 61.8862 1687.75 61.8862H1696.71C1697.12 61.8862 1697.4 61.9822 1697.57 62.1742C1697.77 62.3448 1697.86 62.6328 1697.86 63.0382V66.8462C1697.86 67.2515 1697.77 67.5502 1697.57 67.7422C1697.4 67.9128 1697.12 67.9982 1696.71 67.9982H1689.25C1688.98 67.9982 1688.76 68.0942 1688.61 68.2862C1688.46 68.4568 1688.39 68.6808 1688.39 68.9582C1688.39 69.2355 1688.46 69.4702 1688.61 69.6622C1688.76 69.8542 1688.98 69.9608 1689.25 69.9822L1694.02 70.6222C1695.52 70.8355 1696.72 71.3262 1697.64 72.0942C1698.56 72.8622 1699.01 74.1422 1699.01 75.9342V79.2942C1699.01 81.1075 1698.42 82.5048 1697.22 83.4862C1696.05 84.4462 1694.44 84.9262 1692.39 84.9262ZM1710.87 68.6062L1709.36 73.4702H1714.39L1712.88 68.6062C1712.8 68.4142 1712.7 68.2755 1712.59 68.1902C1712.51 68.1048 1712.4 68.0622 1712.27 68.0622H1711.47C1711.35 68.0622 1711.23 68.1048 1711.12 68.1902C1711.04 68.2755 1710.95 68.4142 1710.87 68.6062ZM1709.04 83.7742C1709.04 84.1795 1708.95 84.4782 1708.75 84.6702C1708.58 84.8408 1708.3 84.9262 1707.89 84.9262H1703.19C1702.78 84.9262 1702.48 84.8408 1702.29 84.6702C1702.12 84.4782 1702.03 84.1795 1702.03 83.7742V75.3262C1702.03 74.6862 1702.13 73.9502 1702.32 73.1182C1702.54 72.2862 1702.86 71.3155 1703.28 70.2062L1706.07 62.9422C1706.19 62.5795 1706.39 62.3128 1706.64 62.1422C1706.92 61.9715 1707.27 61.8862 1707.7 61.8862H1716.31C1716.71 61.8862 1717.04 61.9715 1717.3 62.1422C1717.58 62.3128 1717.78 62.5795 1717.91 62.9422L1720.69 70.2062C1721.12 71.3155 1721.43 72.2862 1721.62 73.1182C1721.83 73.9502 1721.94 74.6862 1721.94 75.3262V83.7742C1721.94 84.1795 1721.84 84.4782 1721.65 84.6702C1721.48 84.8408 1721.19 84.9262 1720.79 84.9262H1715.95C1715.53 84.9262 1715.21 84.8408 1714.99 84.6702C1714.8 84.4782 1714.71 84.1795 1714.71 83.7742V79.2942H1709.04V83.7742ZM1726.53 84.9262C1726.12 84.9262 1725.83 84.8408 1725.63 84.6702C1725.46 84.4782 1725.38 84.1795 1725.38 83.7742V79.9662C1725.38 79.5608 1725.46 79.2728 1725.63 79.1022C1725.83 78.9102 1726.12 78.8142 1726.53 78.8142H1729.7V68.0622H1726.53C1726.12 68.0622 1725.83 67.9768 1725.63 67.8062C1725.46 67.6142 1725.38 67.3155 1725.38 66.9102V63.0382C1725.38 62.6328 1725.46 62.3448 1725.63 62.1742C1725.83 61.9822 1726.12 61.8862 1726.53 61.8862H1740.16C1740.57 61.8862 1740.85 61.9822 1741.03 62.1742C1741.22 62.3448 1741.31 62.6328 1741.31 63.0382V66.9102C1741.31 67.3155 1741.22 67.6142 1741.03 67.8062C1740.85 67.9768 1740.57 68.0622 1740.16 68.0622H1737.06V78.8142H1740.16C1740.57 78.8142 1740.85 78.9102 1741.03 79.1022C1741.22 79.2728 1741.31 79.5608 1741.31 79.9662V83.7742C1741.31 84.1795 1741.22 84.4782 1741.03 84.6702C1740.85 84.8408 1740.57 84.9262 1740.16 84.9262H1726.53ZM1752.5 67.6462V71.7422H1754.9C1755.45 71.7422 1755.82 71.6035 1756.02 71.3262C1756.21 71.0275 1756.3 70.6648 1756.3 70.2382V69.1502C1756.3 68.7235 1756.21 68.3715 1756.02 68.0942C1755.82 67.7955 1755.45 67.6462 1754.9 67.6462H1752.5ZM1751.34 84.9262H1746.42C1746.01 84.9262 1745.71 84.8408 1745.52 84.6702C1745.35 84.4782 1745.26 84.1795 1745.26 83.7742V63.0382C1745.26 62.6328 1745.35 62.3448 1745.52 62.1742C1745.71 61.9822 1746.01 61.8862 1746.42 61.8862H1757.07C1759.46 61.8862 1761.1 62.3875 1762 63.3902C1762.92 64.3715 1763.38 65.6515 1763.38 67.2302V68.7022C1763.38 69.5982 1763.24 70.3662 1762.96 71.0062C1762.7 71.6248 1762.25 72.0728 1761.58 72.3502C1762.74 72.4782 1763.66 72.9475 1764.37 73.7582C1765.09 74.5688 1765.46 75.6462 1765.46 76.9902V83.7742C1765.46 84.1795 1765.36 84.4782 1765.17 84.6702C1765 84.8408 1764.71 84.9262 1764.3 84.9262H1759.34C1758.94 84.9262 1758.64 84.8408 1758.45 84.6702C1758.28 84.4782 1758.19 84.1795 1758.19 83.7742V78.8782C1758.19 78.4088 1758.1 78.0675 1757.9 77.8542C1757.73 77.6195 1757.42 77.5022 1756.98 77.5022H1752.5V83.7742C1752.5 84.1795 1752.4 84.4782 1752.21 84.6702C1752.04 84.8408 1751.75 84.9262 1751.34 84.9262Z" fill="white"/>
</g>
<defs>
<filter id="filter0_d_15_40" x="0" y="0" width="1952" height="151.553" filterUnits="userSpaceOnUse" color-interpolation-filters="sRGB">
<feFlood flood-opacity="0" result="BackgroundImageFix"/>
<feColorMatrix in="SourceAlpha" type="matrix" values="0 0 0 0 0 0 0 0 0 0 0 0 0 0 0 0 0 0 127 0" result="hardAlpha"/>
<feMorphology radius="1" operator="dilate" in="SourceAlpha" result="effect1_dropShadow_15_40"/>
<feOffset dy="4"/>
<feGaussianBlur stdDeviation="7.5"/>
<feComposite in2="hardAlpha" operator="out"/>
<feColorMatrix type="matrix" values="0 0 0 0 0 0 0 0 0 0 0 0 0 0 0 0 0 0 0.25 0"/>
<feBlend mode="normal" in2="BackgroundImageFix" result="effect1_dropShadow_15_40"/>
<feBlend mode="normal" in="SourceGraphic" in2="effect1_dropShadow_15_40" result="shape"/>
</filter>
</defs>
</svg>
