<svg width="144" height="62" viewBox="0 0 144 62" fill="none" xmlns="http://www.w3.org/2000/svg">
<rect width="144" height="62" rx="10" fill="#D9D9D9"/>
<path d="M11.12 24V14.2H12.562L17.392 21.536V14.2H18.736V24H17.602L12.45 16.258V24H11.12ZM23.025 24.14C22.4884 24.14 22.031 24.0327 21.653 23.818C21.275 23.5987 20.9857 23.2673 20.785 22.824C20.589 22.3807 20.491 21.816 20.491 21.13V17.14H21.751V20.78C21.751 21.508 21.8747 22.0633 22.122 22.446C22.374 22.8287 22.7824 23.02 23.347 23.02C23.7344 23.02 24.0937 22.9267 24.425 22.74C24.7564 22.5533 24.985 22.2547 25.111 21.844L24.929 22.53V17.14H26.189V24H25.069L24.817 22.656L25.153 22.88C24.9244 23.3047 24.6444 23.622 24.313 23.832C23.9864 24.0373 23.557 24.14 23.025 24.14ZM27.9028 24V17.14H28.8828L29.1348 18.456L28.6588 18.232C29.0882 17.77 29.5058 17.4503 29.9118 17.273C30.3178 17.091 30.7448 17 31.1928 17C31.5288 17 31.8508 17.056 32.1588 17.168C32.4715 17.2753 32.7515 17.4667 32.9988 17.742C33.2508 18.0127 33.4515 18.3907 33.6008 18.876L33.2508 18.722C33.4562 18.19 33.7712 17.77 34.1958 17.462C34.6205 17.154 35.1922 17 35.9108 17C36.4848 17 36.9678 17.1073 37.3598 17.322C37.7518 17.532 38.0458 17.8563 38.2418 18.295C38.4425 18.729 38.5428 19.282 38.5428 19.954V24H37.2828V19.968C37.2828 19.324 37.1568 18.855 36.9048 18.561C36.6528 18.267 36.2422 18.12 35.6728 18.12C35.2715 18.12 34.9495 18.183 34.7068 18.309C34.4642 18.4303 34.2798 18.589 34.1538 18.785C34.0325 18.981 33.9508 19.1887 33.9088 19.408C33.8715 19.6273 33.8528 19.8327 33.8528 20.024V24H32.5928V20.22C32.5928 19.66 32.5252 19.2283 32.3898 18.925C32.2545 18.6217 32.0655 18.4117 31.8228 18.295C31.5802 18.1783 31.3002 18.12 30.9828 18.12C30.5208 18.12 30.1078 18.2227 29.7438 18.428C29.3798 18.6287 29.1348 18.9507 29.0088 19.394L29.1628 18.708V24H27.9028ZM43.4702 24.14C42.6628 24.14 41.9838 23.9743 41.4332 23.643C40.8825 23.3117 40.4648 22.873 40.1802 22.327C39.9002 21.7763 39.7602 21.172 39.7602 20.514C39.7602 19.8747 39.8908 19.289 40.1522 18.757C40.4182 18.225 40.8008 17.8003 41.3002 17.483C41.8042 17.161 42.4108 17 43.1202 17C43.6895 17 44.1958 17.1143 44.6392 17.343C45.0872 17.567 45.4372 17.896 45.6892 18.33C45.9458 18.7593 46.0742 19.282 46.0742 19.898C46.0742 19.996 46.0695 20.1033 46.0602 20.22C46.0555 20.332 46.0415 20.4487 46.0182 20.57H41.0482C41.1088 21.2047 41.2605 21.6993 41.5032 22.054C41.7458 22.4087 42.0515 22.6583 42.4202 22.803C42.7888 22.9477 43.1902 23.02 43.6242 23.02C43.9415 23.02 44.2728 22.9873 44.6182 22.922C44.9635 22.8567 45.2902 22.754 45.5982 22.614L45.7662 23.608C45.5002 23.7247 45.1758 23.8437 44.7932 23.965C44.4105 24.0817 43.9695 24.14 43.4702 24.14ZM41.1602 19.702H44.7722C44.7722 19.38 44.7115 19.1 44.5902 18.862C44.4688 18.624 44.2845 18.442 44.0372 18.316C43.7898 18.1853 43.4748 18.12 43.0922 18.12C42.5322 18.12 42.1005 18.26 41.7972 18.54C41.4985 18.8153 41.2862 19.2027 41.1602 19.702ZM47.3442 24V17.14H48.3802L48.5342 18.274C48.8842 17.84 49.2179 17.5203 49.5352 17.315C49.8572 17.105 50.2002 17 50.5642 17C50.6809 17 50.7882 17.014 50.8862 17.042L50.7602 18.428C50.6996 18.414 50.6342 18.4047 50.5642 18.4C50.4989 18.3907 50.4242 18.386 50.3402 18.386C49.9762 18.386 49.6402 18.4677 49.3322 18.631C49.0289 18.7897 48.8142 18.9647 48.6882 19.156V24H47.3442ZM54.5922 24.14C53.8735 24.14 53.2599 23.9813 52.7512 23.664C52.2472 23.342 51.8599 22.9127 51.5892 22.376C51.3232 21.8347 51.1902 21.2327 51.1902 20.57C51.1902 19.9073 51.3232 19.3077 51.5892 18.771C51.8599 18.2297 52.2472 17.8003 52.7512 17.483C53.2599 17.161 53.8735 17 54.5922 17C55.3062 17 55.9175 17.161 56.4262 17.483C56.9349 17.8003 57.3222 18.2297 57.5882 18.771C57.8589 19.3077 57.9942 19.9073 57.9942 20.57C57.9942 21.2327 57.8589 21.8347 57.5882 22.376C57.3222 22.9127 56.9349 23.342 56.4262 23.664C55.9175 23.9813 55.3062 24.14 54.5922 24.14ZM54.5922 23.02C55.2735 23.02 55.7962 22.8053 56.1602 22.376C56.5242 21.942 56.7062 21.34 56.7062 20.57C56.7062 19.8 56.5242 19.2003 56.1602 18.771C55.7962 18.337 55.2735 18.12 54.5922 18.12C53.9155 18.12 53.3929 18.337 53.0242 18.771C52.6602 19.2003 52.4782 19.8 52.4782 20.57C52.4782 21.34 52.6602 21.942 53.0242 22.376C53.3929 22.8053 53.9155 23.02 54.5922 23.02ZM65.154 24.14C64.5707 24.14 64.0433 23.9813 63.572 23.664C63.1007 23.3467 62.725 22.9197 62.445 22.383C62.1697 21.8463 62.032 21.2467 62.032 20.584C62.032 19.954 62.158 19.366 62.41 18.82C62.6667 18.274 63.0283 17.8353 63.495 17.504C63.9617 17.168 64.5147 17 65.154 17C65.6113 17 66.0523 17.1003 66.477 17.301C66.9063 17.497 67.254 17.826 67.52 18.288L67.254 18.47V13.5H68.514V24H67.394L67.156 22.544L67.478 22.768C67.2773 23.2207 66.9623 23.5637 66.533 23.797C66.1037 24.0257 65.644 24.14 65.154 24.14ZM65.378 23.02C65.6953 23.02 66.008 22.9383 66.316 22.775C66.6287 22.6117 66.8853 22.3527 67.086 21.998C67.2913 21.6387 67.394 21.1673 67.394 20.584C67.394 20.0427 67.2913 19.59 67.086 19.226C66.8853 18.8573 66.6287 18.582 66.316 18.4C66.008 18.2133 65.6953 18.12 65.378 18.12C64.9487 18.12 64.58 18.2273 64.272 18.442C63.964 18.6567 63.7283 18.9507 63.565 19.324C63.4017 19.6927 63.32 20.1127 63.32 20.584C63.32 21.0273 63.4017 21.4333 63.565 21.802C63.7283 22.1707 63.964 22.467 64.272 22.691C64.58 22.9103 64.9487 23.02 65.378 23.02ZM73.4936 24.14C72.6863 24.14 72.0073 23.9743 71.4566 23.643C70.9059 23.3117 70.4883 22.873 70.2036 22.327C69.9236 21.7763 69.7836 21.172 69.7836 20.514C69.7836 19.8747 69.9143 19.289 70.1756 18.757C70.4416 18.225 70.8243 17.8003 71.3236 17.483C71.8276 17.161 72.4343 17 73.1436 17C73.7129 17 74.2193 17.1143 74.6626 17.343C75.1106 17.567 75.4606 17.896 75.7126 18.33C75.9693 18.7593 76.0976 19.282 76.0976 19.898C76.0976 19.996 76.0929 20.1033 76.0836 20.22C76.0789 20.332 76.0649 20.4487 76.0416 20.57H71.0716C71.1323 21.2047 71.2839 21.6993 71.5266 22.054C71.7693 22.4087 72.0749 22.6583 72.4436 22.803C72.8123 22.9477 73.2136 23.02 73.6476 23.02C73.9649 23.02 74.2963 22.9873 74.6416 22.922C74.9869 22.8567 75.3136 22.754 75.6216 22.614L75.7896 23.608C75.5236 23.7247 75.1993 23.8437 74.8166 23.965C74.4339 24.0817 73.9929 24.14 73.4936 24.14ZM71.1836 19.702H74.7956C74.7956 19.38 74.7349 19.1 74.6136 18.862C74.4923 18.624 74.3079 18.442 74.0606 18.316C73.8133 18.1853 73.4983 18.12 73.1156 18.12C72.5556 18.12 72.1239 18.26 71.8206 18.54C71.5219 18.8153 71.3096 19.2027 71.1836 19.702ZM80.3302 24L81.6462 14.2H82.7802L85.3562 19.058L87.9042 14.2H89.0522L90.3542 24H88.9542L87.9602 16.006L88.3102 16.062L85.3702 21.676L82.3742 16.062L82.7242 16.006L81.7302 24H80.3302ZM93.3875 24.14C92.9628 24.14 92.5918 24.0537 92.2745 23.881C91.9572 23.7083 91.7098 23.4727 91.5325 23.174C91.3598 22.8753 91.2735 22.5347 91.2735 22.152C91.2735 21.7647 91.3575 21.4333 91.5255 21.158C91.6982 20.878 91.9268 20.647 92.2115 20.465C92.5008 20.2783 92.8228 20.1313 93.1775 20.024C93.5322 19.912 93.8985 19.8327 94.2765 19.786C94.6592 19.7347 95.0255 19.7067 95.3755 19.702C95.3755 19.0487 95.2472 18.6217 94.9905 18.421C94.7338 18.2203 94.3628 18.12 93.8775 18.12C93.6208 18.12 93.3455 18.1597 93.0515 18.239C92.7622 18.3183 92.4355 18.484 92.0715 18.736L91.8895 17.714C92.1648 17.504 92.5078 17.3337 92.9185 17.203C93.3292 17.0677 93.7608 17 94.2135 17C94.7922 17 95.2588 17.1027 95.6135 17.308C95.9682 17.5087 96.2272 17.8493 96.3905 18.33C96.5538 18.8107 96.6355 19.464 96.6355 20.29V21.69C96.6355 22.0167 96.6495 22.2873 96.6775 22.502C96.7102 22.712 96.7802 22.8707 96.8875 22.978C96.9995 23.0807 97.1768 23.132 97.4195 23.132H97.5455L97.3495 24.14H97.2515C96.8455 24.14 96.5305 24.1003 96.3065 24.021C96.0872 23.9417 95.9192 23.8273 95.8025 23.678C95.6858 23.5287 95.5808 23.3467 95.4875 23.132C95.2308 23.4307 94.9275 23.6733 94.5775 23.86C94.2275 24.0467 93.8308 24.14 93.3875 24.14ZM93.6255 23.132C93.9615 23.132 94.2858 23.048 94.5985 22.88C94.9158 22.712 95.1748 22.488 95.3755 22.208V20.57C94.7082 20.5933 94.1668 20.6587 93.7515 20.766C93.3408 20.8733 93.0398 21.0343 92.8485 21.249C92.6572 21.4637 92.5615 21.7413 92.5615 22.082C92.5615 22.4507 92.6595 22.719 92.8555 22.887C93.0562 23.0503 93.3128 23.132 93.6255 23.132ZM100.747 24.14C100.313 24.14 99.9657 24.0607 99.7043 23.902C99.443 23.7433 99.2517 23.5403 99.1303 23.293C99.0137 23.041 98.9553 22.7773 98.9553 22.502V18.12H97.7793L97.8913 17.14H98.9553V15.446L100.215 15.32V17.14H102.021V18.12H100.215V21.732C100.215 22.1707 100.241 22.488 100.292 22.684C100.344 22.88 100.47 23.0037 100.67 23.055C100.876 23.1063 101.205 23.132 101.657 23.132H101.979L101.881 24.14H100.747ZM103.098 24V17.14H104.134L104.288 18.274C104.638 17.84 104.972 17.5203 105.289 17.315C105.611 17.105 105.954 17 106.318 17C106.435 17 106.542 17.014 106.64 17.042L106.514 18.428C106.453 18.414 106.388 18.4047 106.318 18.4C106.253 18.3907 106.178 18.386 106.094 18.386C105.73 18.386 105.394 18.4677 105.086 18.631C104.783 18.7897 104.568 18.9647 104.442 19.156V24H103.098ZM107.528 24V17.14H108.788V24H107.528ZM107.528 15.6V14.2H108.788V15.6H107.528ZM113.645 24.14C112.87 24.14 112.219 23.9837 111.692 23.671C111.169 23.3537 110.772 22.929 110.502 22.397C110.236 21.8603 110.103 21.2653 110.103 20.612C110.103 19.9307 110.231 19.317 110.488 18.771C110.749 18.225 111.148 17.7933 111.685 17.476C112.221 17.1587 112.907 17 113.743 17C114.102 17 114.44 17.0373 114.758 17.112C115.08 17.182 115.367 17.28 115.619 17.406L115.423 18.512C115.166 18.3907 114.893 18.295 114.604 18.225C114.319 18.155 114.023 18.12 113.715 18.12C112.959 18.12 112.382 18.3347 111.986 18.764C111.589 19.1933 111.391 19.7907 111.391 20.556C111.391 21.3027 111.58 21.9023 111.958 22.355C112.336 22.8077 112.912 23.034 113.687 23.034C114.004 23.034 114.307 22.9967 114.597 22.922C114.891 22.8473 115.171 22.7447 115.437 22.614L115.605 23.622C115.418 23.7527 115.145 23.8717 114.786 23.979C114.426 24.0863 114.046 24.14 113.645 24.14ZM119.316 24.14C118.779 24.14 118.322 24.0327 117.944 23.818C117.566 23.5987 117.277 23.2673 117.076 22.824C116.88 22.3807 116.782 21.816 116.782 21.13V17.14H118.042V20.78C118.042 21.508 118.166 22.0633 118.413 22.446C118.665 22.8287 119.073 23.02 119.638 23.02C120.025 23.02 120.385 22.9267 120.716 22.74C121.047 22.5533 121.276 22.2547 121.402 21.844L121.22 22.53V17.14H122.48V24H121.36L121.108 22.656L121.444 22.88C121.215 23.3047 120.935 23.622 120.604 23.832C120.277 24.0373 119.848 24.14 119.316 24.14ZM125.958 24.14C125.515 24.14 125.162 24.0607 124.901 23.902C124.644 23.7387 124.46 23.531 124.348 23.279C124.236 23.027 124.18 22.7633 124.18 22.488V13.5H125.44V21.76C125.44 22.152 125.466 22.446 125.517 22.642C125.568 22.838 125.671 22.9687 125.825 23.034C125.984 23.0993 126.224 23.132 126.546 23.132L126.364 24.14H125.958ZM129.098 24.14C128.674 24.14 128.303 24.0537 127.985 23.881C127.668 23.7083 127.421 23.4727 127.243 23.174C127.071 22.8753 126.984 22.5347 126.984 22.152C126.984 21.7647 127.068 21.4333 127.236 21.158C127.409 20.878 127.638 20.647 127.922 20.465C128.212 20.2783 128.534 20.1313 128.888 20.024C129.243 19.912 129.609 19.8327 129.987 19.786C130.37 19.7347 130.736 19.7067 131.086 19.702C131.086 19.0487 130.958 18.6217 130.701 18.421C130.445 18.2203 130.074 18.12 129.588 18.12C129.332 18.12 129.056 18.1597 128.762 18.239C128.473 18.3183 128.146 18.484 127.782 18.736L127.6 17.714C127.876 17.504 128.219 17.3337 128.629 17.203C129.04 17.0677 129.472 17 129.924 17C130.503 17 130.97 17.1027 131.324 17.308C131.679 17.5087 131.938 17.8493 132.101 18.33C132.265 18.8107 132.346 19.464 132.346 20.29V21.69C132.346 22.0167 132.36 22.2873 132.388 22.502C132.421 22.712 132.491 22.8707 132.598 22.978C132.71 23.0807 132.888 23.132 133.13 23.132H133.256L133.06 24.14H132.962C132.556 24.14 132.241 24.1003 132.017 24.021C131.798 23.9417 131.63 23.8273 131.513 23.678C131.397 23.5287 131.292 23.3467 131.198 23.132C130.942 23.4307 130.638 23.6733 130.288 23.86C129.938 24.0467 129.542 24.14 129.098 24.14ZM129.336 23.132C129.672 23.132 129.997 23.048 130.309 22.88C130.627 22.712 130.886 22.488 131.086 22.208V20.57C130.419 20.5933 129.878 20.6587 129.462 20.766C129.052 20.8733 128.751 21.0343 128.559 21.249C128.368 21.4637 128.272 21.7413 128.272 22.082C128.272 22.4507 128.37 22.719 128.566 22.887C128.767 23.0503 129.024 23.132 129.336 23.132Z" fill="black"/>
<path d="M10.672 45L11.988 35.2H13.122L15.698 40.058L18.246 35.2H19.394L20.696 45H19.296L18.302 37.006L18.652 37.062L15.712 42.676L12.716 37.062L13.066 37.006L12.072 45H10.672ZM23.7293 45.14C23.3046 45.14 22.9336 45.0537 22.6163 44.881C22.299 44.7083 22.0516 44.4727 21.8743 44.174C21.7016 43.8753 21.6153 43.5347 21.6153 43.152C21.6153 42.7647 21.6993 42.4333 21.8673 42.158C22.04 41.878 22.2686 41.647 22.5533 41.465C22.8426 41.2783 23.1646 41.1313 23.5193 41.024C23.874 40.912 24.2403 40.8327 24.6183 40.786C25.001 40.7347 25.3673 40.7067 25.7173 40.702C25.7173 40.0487 25.589 39.6217 25.3323 39.421C25.0756 39.2203 24.7046 39.12 24.2193 39.12C23.9626 39.12 23.6873 39.1597 23.3933 39.239C23.104 39.3183 22.7773 39.484 22.4133 39.736L22.2313 38.714C22.5066 38.504 22.8496 38.3337 23.2603 38.203C23.671 38.0677 24.1026 38 24.5553 38C25.134 38 25.6006 38.1027 25.9553 38.308C26.31 38.5087 26.569 38.8493 26.7323 39.33C26.8956 39.8107 26.9773 40.464 26.9773 41.29V42.69C26.9773 43.0167 26.9913 43.2873 27.0193 43.502C27.052 43.712 27.122 43.8707 27.2293 43.978C27.3413 44.0807 27.5186 44.132 27.7613 44.132H27.8873L27.6913 45.14H27.5933C27.1873 45.14 26.8723 45.1003 26.6483 45.021C26.429 44.9417 26.261 44.8273 26.1443 44.678C26.0276 44.5287 25.9226 44.3467 25.8293 44.132C25.5726 44.4307 25.2693 44.6733 24.9193 44.86C24.5693 45.0467 24.1726 45.14 23.7293 45.14ZM23.9673 44.132C24.3033 44.132 24.6276 44.048 24.9403 43.88C25.2576 43.712 25.5166 43.488 25.7173 43.208V41.57C25.05 41.5933 24.5086 41.6587 24.0933 41.766C23.6826 41.8733 23.3816 42.0343 23.1903 42.249C22.999 42.4637 22.9033 42.7413 22.9033 43.082C22.9033 43.4507 23.0013 43.719 23.1973 43.887C23.398 44.0503 23.6546 44.132 23.9673 44.132ZM31.0891 45.14C30.6551 45.14 30.3075 45.0607 30.0461 44.902C29.7848 44.7433 29.5935 44.5403 29.4721 44.293C29.3555 44.041 29.2971 43.7773 29.2971 43.502V39.12H28.1211L28.2331 38.14H29.2971V36.446L30.5571 36.32V38.14H32.3631V39.12H30.5571V42.732C30.5571 43.1707 30.5828 43.488 30.6341 43.684C30.6855 43.88 30.8115 44.0037 31.0121 44.055C31.2175 44.1063 31.5465 44.132 31.9991 44.132H32.3211L32.2231 45.14H31.0891ZM33.4399 45V38.14H34.4759L34.6299 39.274C34.9799 38.84 35.3136 38.5203 35.6309 38.315C35.9529 38.105 36.2959 38 36.6599 38C36.7766 38 36.8839 38.014 36.9819 38.042L36.8559 39.428C36.7953 39.414 36.7299 39.4047 36.6599 39.4C36.5946 39.3907 36.5199 39.386 36.4359 39.386C36.0719 39.386 35.7359 39.4677 35.4279 39.631C35.1246 39.7897 34.9099 39.9647 34.7839 40.156V45H33.4399ZM37.8696 45V38.14H39.1296V45H37.8696ZM37.1976 36.936V36.082L39.8156 34.542V35.914L37.1976 36.936ZM43.9864 45.14C43.2118 45.14 42.5608 44.9837 42.0334 44.671C41.5108 44.3537 41.1141 43.929 40.8434 43.397C40.5774 42.8603 40.4444 42.2653 40.4444 41.612C40.4444 40.9307 40.5728 40.317 40.8294 39.771C41.0908 39.225 41.4898 38.7933 42.0264 38.476C42.5631 38.1587 43.2491 38 44.0844 38C44.4438 38 44.7821 38.0373 45.0994 38.112C45.4214 38.182 45.7084 38.28 45.9604 38.406L45.7644 39.512C45.5078 39.3907 45.2348 39.295 44.9454 39.225C44.6608 39.155 44.3644 39.12 44.0564 39.12C43.3004 39.12 42.7241 39.3347 42.3274 39.764C41.9308 40.1933 41.7324 40.7907 41.7324 41.556C41.7324 42.3027 41.9214 42.9023 42.2994 43.355C42.6774 43.8077 43.2538 44.034 44.0284 44.034C44.3458 44.034 44.6491 43.9967 44.9384 43.922C45.2324 43.8473 45.5124 43.7447 45.7784 43.614L45.9464 44.622C45.7598 44.7527 45.4868 44.8717 45.1274 44.979C44.7681 45.0863 44.3878 45.14 43.9864 45.14ZM49.6578 45.14C49.1212 45.14 48.6638 45.0327 48.2858 44.818C47.9078 44.5987 47.6185 44.2673 47.4178 43.824C47.2218 43.3807 47.1238 42.816 47.1238 42.13V38.14H48.3838V41.78C48.3838 42.508 48.5075 43.0633 48.7548 43.446C49.0068 43.8287 49.4152 44.02 49.9798 44.02C50.3672 44.02 50.7265 43.9267 51.0578 43.74C51.3892 43.5533 51.6178 43.2547 51.7438 42.844L51.5618 43.53V38.14H52.8218V45H51.7018L51.4498 43.656L51.7858 43.88C51.5572 44.3047 51.2772 44.622 50.9458 44.832C50.6192 45.0373 50.1898 45.14 49.6578 45.14ZM56.2996 45.14C55.8563 45.14 55.504 45.0607 55.2426 44.902C54.986 44.7387 54.8016 44.531 54.6896 44.279C54.5776 44.027 54.5216 43.7633 54.5216 43.488V34.5H55.7816V42.76C55.7816 43.152 55.8073 43.446 55.8586 43.642C55.91 43.838 56.0126 43.9687 56.1666 44.034C56.3253 44.0993 56.5656 44.132 56.8876 44.132L56.7056 45.14H56.2996ZM59.4402 45.14C59.0156 45.14 58.6446 45.0537 58.3272 44.881C58.0099 44.7083 57.7626 44.4727 57.5852 44.174C57.4126 43.8753 57.3262 43.5347 57.3262 43.152C57.3262 42.7647 57.4102 42.4333 57.5782 42.158C57.7509 41.878 57.9796 41.647 58.2642 41.465C58.5536 41.2783 58.8756 41.1313 59.2302 41.024C59.5849 40.912 59.9512 40.8327 60.3292 40.786C60.7119 40.7347 61.0782 40.7067 61.4282 40.702C61.4282 40.0487 61.2999 39.6217 61.0432 39.421C60.7866 39.2203 60.4156 39.12 59.9302 39.12C59.6736 39.12 59.3982 39.1597 59.1042 39.239C58.8149 39.3183 58.4882 39.484 58.1242 39.736L57.9422 38.714C58.2176 38.504 58.5606 38.3337 58.9712 38.203C59.3819 38.0677 59.8136 38 60.2662 38C60.8449 38 61.3116 38.1027 61.6662 38.308C62.0209 38.5087 62.2799 38.8493 62.4432 39.33C62.6066 39.8107 62.6882 40.464 62.6882 41.29V42.69C62.6882 43.0167 62.7022 43.2873 62.7302 43.502C62.7629 43.712 62.8329 43.8707 62.9402 43.978C63.0522 44.0807 63.2296 44.132 63.4722 44.132H63.5982L63.4022 45.14H63.3042C62.8982 45.14 62.5832 45.1003 62.3592 45.021C62.1399 44.9417 61.9719 44.8273 61.8552 44.678C61.7386 44.5287 61.6336 44.3467 61.5402 44.132C61.2836 44.4307 60.9802 44.6733 60.6302 44.86C60.2802 45.0467 59.8836 45.14 59.4402 45.14ZM59.6782 44.132C60.0142 44.132 60.3386 44.048 60.6512 43.88C60.9686 43.712 61.2276 43.488 61.4282 43.208V41.57C60.7609 41.5933 60.2196 41.6587 59.8042 41.766C59.3936 41.8733 59.0926 42.0343 58.9012 42.249C58.7099 42.4637 58.6142 42.7413 58.6142 43.082C58.6142 43.4507 58.7122 43.719 58.9082 43.887C59.1089 44.0503 59.3656 44.132 59.6782 44.132Z" fill="black" fill-opacity="0.5"/>
<line x1="10" y1="52.25" x2="134" y2="52.25" stroke="black" stroke-opacity="0.6" stroke-width="0.5"/>
</svg>
