<svg width="263" height="310" viewBox="0 0 263 310" fill="none" xmlns="http://www.w3.org/2000/svg">
<path d="M54.5 10H252.5L220.5 52.5L10 60L54.5 10Z" fill="#9E906E"/>
<path d="M94.18 40H90.94C90.6867 40 90.5 39.9467 90.38 39.84C90.2733 39.72 90.22 39.5333 90.22 39.28V29.46H87.28C87.0267 29.46 86.84 29.4067 86.72 29.3C86.6133 29.18 86.56 28.9933 86.56 28.74V26.32C86.56 26.0667 86.6133 25.8867 86.72 25.78C86.84 25.66 87.0267 25.6 87.28 25.6H97.84C98.0933 25.6 98.2733 25.66 98.38 25.78C98.5 25.8867 98.56 26.0667 98.56 26.32V28.74C98.56 28.9933 98.5 29.18 98.38 29.3C98.2733 29.4067 98.0933 29.46 97.84 29.46H94.9V39.28C94.9 39.5333 94.84 39.72 94.72 39.84C94.6133 39.9467 94.4333 40 94.18 40ZM112.765 36.22C112.765 36.8333 112.672 37.3933 112.485 37.9C112.312 38.3933 111.992 38.82 111.525 39.18C111.072 39.5267 110.445 39.8 109.645 40C108.845 40.2 107.825 40.3 106.585 40.3C105.345 40.3 104.325 40.2 103.525 40C102.725 39.8 102.092 39.5267 101.625 39.18C101.172 38.82 100.852 38.3933 100.665 37.9C100.492 37.3933 100.405 36.8333 100.405 36.22V26.32C100.405 26.0667 100.458 25.8867 100.565 25.78C100.685 25.66 100.872 25.6 101.125 25.6H104.265C104.518 25.6 104.698 25.66 104.805 25.78C104.925 25.8867 104.985 26.0667 104.985 26.32V35.44C104.985 35.7067 105.085 35.9333 105.285 36.12C105.485 36.2933 105.932 36.38 106.625 36.38C107.332 36.38 107.785 36.2933 107.985 36.12C108.185 35.9333 108.285 35.7067 108.285 35.44V26.32C108.285 26.0667 108.338 25.8867 108.445 25.78C108.565 25.66 108.752 25.6 109.005 25.6H112.045C112.298 25.6 112.478 25.66 112.585 25.78C112.705 25.8867 112.765 26.0667 112.765 26.32V36.22ZM119.947 29.2V31.76H121.447C121.794 31.76 122.027 31.6733 122.147 31.5C122.267 31.3133 122.327 31.0867 122.327 30.82V30.14C122.327 29.8733 122.267 29.6533 122.147 29.48C122.027 29.2933 121.794 29.2 121.447 29.2H119.947ZM119.227 40H116.147C115.894 40 115.707 39.9467 115.587 39.84C115.48 39.72 115.427 39.5333 115.427 39.28V26.32C115.427 26.0667 115.48 25.8867 115.587 25.78C115.707 25.66 115.894 25.6 116.147 25.6H122.807C124.3 25.6 125.327 25.9133 125.887 26.54C126.46 27.1533 126.747 27.9533 126.747 28.94V29.86C126.747 30.42 126.66 30.9 126.487 31.3C126.327 31.6867 126.04 31.9667 125.627 32.14C126.347 32.22 126.927 32.5133 127.367 33.02C127.82 33.5267 128.047 34.2 128.047 35.04V39.28C128.047 39.5333 127.987 39.72 127.867 39.84C127.76 39.9467 127.58 40 127.327 40H124.227C123.974 40 123.787 39.9467 123.667 39.84C123.56 39.72 123.507 39.5333 123.507 39.28V36.22C123.507 35.9267 123.447 35.7133 123.327 35.58C123.22 35.4333 123.027 35.36 122.747 35.36H119.947V39.28C119.947 39.5333 119.887 39.72 119.767 39.84C119.66 39.9467 119.48 40 119.227 40ZM133.99 40H131.01C130.757 40 130.57 39.9467 130.45 39.84C130.343 39.72 130.29 39.5333 130.29 39.28V26.32C130.29 26.0667 130.343 25.8867 130.45 25.78C130.57 25.66 130.757 25.6 131.01 25.6H134.23C134.443 25.6 134.617 25.6467 134.75 25.74C134.897 25.8333 135.03 25.9867 135.15 26.2L136.95 29.46C137.017 29.58 137.07 29.6667 137.11 29.72C137.163 29.7733 137.23 29.8 137.31 29.8H137.49C137.57 29.8 137.63 29.7733 137.67 29.72C137.723 29.6667 137.783 29.58 137.85 29.46L139.63 26.2C139.75 25.9867 139.877 25.8333 140.01 25.74C140.157 25.6467 140.337 25.6 140.55 25.6H143.79C144.043 25.6 144.223 25.66 144.33 25.78C144.45 25.8867 144.51 26.0667 144.51 26.32V39.28C144.51 39.5333 144.45 39.72 144.33 39.84C144.223 39.9467 144.043 40 143.79 40H140.71C140.457 40 140.27 39.9467 140.15 39.84C140.043 39.72 139.99 39.5333 139.99 39.28V32.24L138.81 34.42C138.69 34.6467 138.543 34.8133 138.37 34.92C138.21 35.0133 138.003 35.06 137.75 35.06H136.95C136.697 35.06 136.483 35.0133 136.31 34.92C136.15 34.8133 136.01 34.6467 135.89 34.42L134.71 32.24V39.28C134.71 39.5333 134.65 39.72 134.53 39.84C134.423 39.9467 134.243 40 133.99 40ZM152.483 29.8L151.543 32.84H154.683L153.743 29.8C153.689 29.68 153.629 29.5933 153.563 29.54C153.509 29.4867 153.443 29.46 153.363 29.46H152.863C152.783 29.46 152.709 29.4867 152.643 29.54C152.589 29.5933 152.536 29.68 152.483 29.8ZM151.343 39.28C151.343 39.5333 151.283 39.72 151.163 39.84C151.056 39.9467 150.876 40 150.623 40H147.683C147.429 40 147.243 39.9467 147.123 39.84C147.016 39.72 146.963 39.5333 146.963 39.28V34C146.963 33.6 147.023 33.14 147.143 32.62C147.276 32.1 147.476 31.4933 147.743 30.8L149.483 26.26C149.563 26.0333 149.683 25.8667 149.843 25.76C150.016 25.6533 150.236 25.6 150.503 25.6H155.883C156.136 25.6 156.343 25.6533 156.503 25.76C156.676 25.8667 156.803 26.0333 156.883 26.26L158.623 30.8C158.889 31.4933 159.083 32.1 159.203 32.62C159.336 33.14 159.403 33.6 159.403 34V39.28C159.403 39.5333 159.343 39.72 159.223 39.84C159.116 39.9467 158.936 40 158.683 40H155.663C155.396 40 155.196 39.9467 155.063 39.84C154.943 39.72 154.883 39.5333 154.883 39.28V36.48H151.343V39.28ZM168.552 40H162.232C161.979 40 161.792 39.9467 161.672 39.84C161.566 39.72 161.512 39.5333 161.512 39.28V36.94C161.512 36.6867 161.566 36.5067 161.672 36.4C161.792 36.28 161.979 36.22 162.232 36.22H167.612C167.786 36.22 167.912 36.1667 167.992 36.06C168.086 35.94 168.132 35.8 168.132 35.64C168.132 35.4133 168.086 35.2467 167.992 35.14C167.912 35.0333 167.786 34.9733 167.612 34.96L164.612 34.54C163.679 34.4067 162.926 34.1 162.352 33.62C161.792 33.14 161.512 32.34 161.512 31.22V29.12C161.512 27.9867 161.879 27.12 162.612 26.52C163.346 25.9067 164.359 25.6 165.652 25.6H171.252C171.506 25.6 171.686 25.66 171.792 25.78C171.912 25.8867 171.972 26.0667 171.972 26.32V28.7C171.972 28.9533 171.912 29.14 171.792 29.26C171.686 29.3667 171.506 29.42 171.252 29.42H166.592C166.419 29.42 166.286 29.48 166.192 29.6C166.099 29.7067 166.052 29.8467 166.052 30.02C166.052 30.1933 166.099 30.34 166.192 30.46C166.286 30.58 166.419 30.6467 166.592 30.66L169.572 31.06C170.506 31.1933 171.259 31.5 171.832 31.98C172.406 32.46 172.692 33.26 172.692 34.38V36.48C172.692 37.6133 172.319 38.4867 171.572 39.1C170.839 39.7 169.832 40 168.552 40Z" fill="white"/>
<path d="M54.5 70H252.5L220.5 112.5L10 120L54.5 70Z" fill="#9E906E"/>
<path d="M92.6 88.8L91.66 91.84H94.8L93.86 88.8C93.8067 88.68 93.7467 88.5933 93.68 88.54C93.6267 88.4867 93.56 88.46 93.48 88.46H92.98C92.9 88.46 92.8267 88.4867 92.76 88.54C92.7067 88.5933 92.6533 88.68 92.6 88.8ZM91.46 98.28C91.46 98.5333 91.4 98.72 91.28 98.84C91.1733 98.9467 90.9933 99 90.74 99H87.8C87.5467 99 87.36 98.9467 87.24 98.84C87.1333 98.72 87.08 98.5333 87.08 98.28V93C87.08 92.6 87.14 92.14 87.26 91.62C87.3933 91.1 87.5933 90.4933 87.86 89.8L89.6 85.26C89.68 85.0333 89.8 84.8667 89.96 84.76C90.1333 84.6533 90.3533 84.6 90.62 84.6H96C96.2533 84.6 96.46 84.6533 96.62 84.76C96.7933 84.8667 96.92 85.0333 97 85.26L98.74 89.8C99.0067 90.4933 99.2 91.1 99.32 91.62C99.4533 92.14 99.52 92.6 99.52 93V98.28C99.52 98.5333 99.46 98.72 99.34 98.84C99.2333 98.9467 99.0533 99 98.8 99H95.78C95.5133 99 95.3133 98.9467 95.18 98.84C95.06 98.72 95 98.5333 95 98.28V95.48H91.46V98.28ZM112.889 99H102.709C102.456 99 102.269 98.9467 102.149 98.84C102.043 98.72 101.989 98.5333 101.989 98.28V85.32C101.989 85.0667 102.043 84.8867 102.149 84.78C102.269 84.66 102.456 84.6 102.709 84.6H105.809C106.063 84.6 106.243 84.66 106.349 84.78C106.469 84.8867 106.529 85.0667 106.529 85.32V95.22H109.269V91.98C109.269 91.7267 109.323 91.5467 109.429 91.44C109.549 91.32 109.736 91.26 109.989 91.26H112.889C113.143 91.26 113.323 91.32 113.429 91.44C113.549 91.5467 113.609 91.7267 113.609 91.98V98.28C113.609 98.5333 113.549 98.72 113.429 98.84C113.323 98.9467 113.143 99 112.889 99ZM128.156 95.22C128.156 95.8333 128.062 96.3933 127.876 96.9C127.702 97.3933 127.382 97.82 126.916 98.18C126.462 98.5267 125.836 98.8 125.036 99C124.236 99.2 123.216 99.3 121.976 99.3C120.736 99.3 119.716 99.2 118.916 99C118.116 98.8 117.482 98.5267 117.016 98.18C116.562 97.82 116.242 97.3933 116.056 96.9C115.882 96.3933 115.796 95.8333 115.796 95.22V85.32C115.796 85.0667 115.849 84.8867 115.956 84.78C116.076 84.66 116.262 84.6 116.516 84.6H119.656C119.909 84.6 120.089 84.66 120.196 84.78C120.316 84.8867 120.376 85.0667 120.376 85.32V94.44C120.376 94.7067 120.476 94.9333 120.676 95.12C120.876 95.2933 121.322 95.38 122.016 95.38C122.722 95.38 123.176 95.2933 123.376 95.12C123.576 94.9333 123.676 94.7067 123.676 94.44V85.32C123.676 85.0667 123.729 84.8867 123.836 84.78C123.956 84.66 124.142 84.6 124.396 84.6H127.436C127.689 84.6 127.869 84.66 127.976 84.78C128.096 84.8867 128.156 85.0667 128.156 85.32V95.22ZM134.538 99H131.538C131.284 99 131.098 98.9467 130.978 98.84C130.871 98.72 130.818 98.5333 130.818 98.28V85.32C130.818 85.0667 130.871 84.8867 130.978 84.78C131.098 84.66 131.284 84.6 131.538 84.6H133.618C133.871 84.6 134.084 84.64 134.258 84.72C134.444 84.8 134.624 84.94 134.798 85.14L138.678 89.58V85.32C138.678 85.0667 138.731 84.8867 138.838 84.78C138.958 84.66 139.144 84.6 139.398 84.6H142.398C142.651 84.6 142.831 84.66 142.938 84.78C143.058 84.8867 143.118 85.0667 143.118 85.32V98.28C143.118 98.5333 143.058 98.72 142.938 98.84C142.831 98.9467 142.651 99 142.398 99H139.398C139.144 99 138.958 98.9467 138.838 98.84C138.731 98.72 138.678 98.5333 138.678 98.28V95.82L135.258 91.68V98.28C135.258 98.5333 135.198 98.72 135.078 98.84C134.971 98.9467 134.791 99 134.538 99ZM158.076 95.22C158.076 95.8333 157.983 96.3933 157.796 96.9C157.623 97.3933 157.303 97.82 156.836 98.18C156.383 98.5267 155.749 98.8 154.936 99C154.136 99.2 153.116 99.3 151.876 99.3C150.636 99.3 149.609 99.2 148.796 99C147.983 98.8 147.343 98.5267 146.876 98.18C146.423 97.82 146.103 97.3933 145.916 96.9C145.743 96.3933 145.656 95.8333 145.656 95.22V88.4C145.656 87.7867 145.743 87.2333 145.916 86.74C146.103 86.2333 146.423 85.8 146.876 85.44C147.343 85.08 147.983 84.8 148.796 84.6C149.609 84.4 150.636 84.3 151.876 84.3C153.116 84.3 154.136 84.4 154.936 84.6C155.749 84.8 156.383 85.08 156.836 85.44C157.303 85.8 157.623 86.2333 157.796 86.74C157.983 87.2333 158.076 87.7867 158.076 88.4V95.22ZM150.196 94.5C150.196 94.7667 150.296 94.9933 150.496 95.18C150.696 95.3533 151.156 95.44 151.876 95.44C152.596 95.44 153.056 95.3533 153.256 95.18C153.456 94.9933 153.556 94.7667 153.556 94.5V89.12C153.556 88.8667 153.456 88.6533 153.256 88.48C153.056 88.2933 152.596 88.2 151.876 88.2C151.156 88.2 150.696 88.2933 150.496 88.48C150.296 88.6533 150.196 88.8667 150.196 89.12V94.5ZM167.302 99H160.982C160.729 99 160.542 98.9467 160.422 98.84C160.316 98.72 160.262 98.5333 160.262 98.28V95.94C160.262 95.6867 160.316 95.5067 160.422 95.4C160.542 95.28 160.729 95.22 160.982 95.22H166.362C166.536 95.22 166.662 95.1667 166.742 95.06C166.836 94.94 166.882 94.8 166.882 94.64C166.882 94.4133 166.836 94.2467 166.742 94.14C166.662 94.0333 166.536 93.9733 166.362 93.96L163.362 93.54C162.429 93.4067 161.676 93.1 161.102 92.62C160.542 92.14 160.262 91.34 160.262 90.22V88.12C160.262 86.9867 160.629 86.12 161.362 85.52C162.096 84.9067 163.109 84.6 164.402 84.6H170.002C170.256 84.6 170.436 84.66 170.542 84.78C170.662 84.8867 170.722 85.0667 170.722 85.32V87.7C170.722 87.9533 170.662 88.14 170.542 88.26C170.436 88.3667 170.256 88.42 170.002 88.42H165.342C165.169 88.42 165.036 88.48 164.942 88.6C164.849 88.7067 164.802 88.8467 164.802 89.02C164.802 89.1933 164.849 89.34 164.942 89.46C165.036 89.58 165.169 89.6467 165.342 89.66L168.322 90.06C169.256 90.1933 170.009 90.5 170.582 90.98C171.156 91.46 171.442 92.26 171.442 93.38V95.48C171.442 96.6133 171.069 97.4867 170.322 98.1C169.589 98.7 168.582 99 167.302 99Z" fill="white"/>
<path d="M54.5 130H252.5L220.5 172.5L10 180L54.5 130Z" fill="#9E906E"/>
<path d="M74.2 162H71.1C70.8467 162 70.66 161.947 70.54 161.84C70.4333 161.72 70.38 161.533 70.38 161.28V148.32C70.38 148.067 70.4333 147.887 70.54 147.78C70.66 147.66 70.8467 147.6 71.1 147.6H77.22C79.0333 147.6 80.2733 147.96 80.94 148.68C81.6067 149.4 81.94 150.34 81.94 151.5V154.06C81.94 155.22 81.6067 156.16 80.94 156.88C80.2733 157.6 79.0333 157.96 77.22 157.96H74.92V161.28C74.92 161.533 74.86 161.72 74.74 161.84C74.6333 161.947 74.4533 162 74.2 162ZM74.88 151.34V154.36H76.68C77.0667 154.36 77.32 154.26 77.44 154.06C77.56 153.86 77.62 153.633 77.62 153.38V152.32C77.62 152.067 77.56 151.84 77.44 151.64C77.32 151.44 77.0667 151.34 76.68 151.34H74.88ZM88.5328 151.2V153.76H90.0328C90.3795 153.76 90.6128 153.673 90.7328 153.5C90.8528 153.313 90.9128 153.087 90.9128 152.82V152.14C90.9128 151.873 90.8528 151.653 90.7328 151.48C90.6128 151.293 90.3795 151.2 90.0328 151.2H88.5328ZM87.8128 162H84.7328C84.4795 162 84.2928 161.947 84.1728 161.84C84.0661 161.72 84.0128 161.533 84.0128 161.28V148.32C84.0128 148.067 84.0661 147.887 84.1728 147.78C84.2928 147.66 84.4795 147.6 84.7328 147.6H91.3928C92.8861 147.6 93.9128 147.913 94.4728 148.54C95.0461 149.153 95.3328 149.953 95.3328 150.94V151.86C95.3328 152.42 95.2461 152.9 95.0728 153.3C94.9128 153.687 94.6261 153.967 94.2128 154.14C94.9328 154.22 95.5128 154.513 95.9528 155.02C96.4061 155.527 96.6328 156.2 96.6328 157.04V161.28C96.6328 161.533 96.5728 161.72 96.4528 161.84C96.3461 161.947 96.1661 162 95.9128 162H92.8128C92.5595 162 92.3728 161.947 92.2528 161.84C92.1461 161.72 92.0928 161.533 92.0928 161.28V158.22C92.0928 157.927 92.0328 157.713 91.9128 157.58C91.8061 157.433 91.6128 157.36 91.3328 157.36H88.5328V161.28C88.5328 161.533 88.4728 161.72 88.3528 161.84C88.2461 161.947 88.0661 162 87.8128 162ZM110.978 158.22C110.978 158.833 110.885 159.393 110.698 159.9C110.525 160.393 110.205 160.82 109.738 161.18C109.285 161.527 108.652 161.8 107.838 162C107.038 162.2 106.018 162.3 104.778 162.3C103.538 162.3 102.512 162.2 101.698 162C100.885 161.8 100.245 161.527 99.7784 161.18C99.3251 160.82 99.0051 160.393 98.8184 159.9C98.6451 159.393 98.5584 158.833 98.5584 158.22V151.4C98.5584 150.787 98.6451 150.233 98.8184 149.74C99.0051 149.233 99.3251 148.8 99.7784 148.44C100.245 148.08 100.885 147.8 101.698 147.6C102.512 147.4 103.538 147.3 104.778 147.3C106.018 147.3 107.038 147.4 107.838 147.6C108.652 147.8 109.285 148.08 109.738 148.44C110.205 148.8 110.525 149.233 110.698 149.74C110.885 150.233 110.978 150.787 110.978 151.4V158.22ZM103.098 157.5C103.098 157.767 103.198 157.993 103.398 158.18C103.598 158.353 104.058 158.44 104.778 158.44C105.498 158.44 105.958 158.353 106.158 158.18C106.358 157.993 106.458 157.767 106.458 157.5V152.12C106.458 151.867 106.358 151.653 106.158 151.48C105.958 151.293 105.498 151.2 104.778 151.2C104.058 151.2 103.598 151.293 103.398 151.48C103.198 151.653 103.098 151.867 103.098 152.12V157.5ZM117.345 162H114.245C113.991 162 113.805 161.947 113.685 161.84C113.578 161.72 113.525 161.533 113.525 161.28V148.32C113.525 148.067 113.578 147.887 113.685 147.78C113.805 147.66 113.991 147.6 114.245 147.6H123.165C123.418 147.6 123.598 147.66 123.705 147.78C123.825 147.887 123.885 148.067 123.885 148.32V150.7C123.885 150.953 123.825 151.14 123.705 151.26C123.598 151.367 123.418 151.42 123.165 151.42H118.065V153.5H121.545C121.798 153.5 121.978 153.56 122.085 153.68C122.205 153.787 122.265 153.967 122.265 154.22V156.62C122.265 156.873 122.205 157.06 122.085 157.18C121.978 157.287 121.798 157.34 121.545 157.34H118.065V161.28C118.065 161.533 118.005 161.72 117.885 161.84C117.778 161.947 117.598 162 117.345 162ZM135.888 162H126.608C126.354 162 126.168 161.947 126.048 161.84C125.941 161.72 125.888 161.533 125.888 161.28V148.32C125.888 148.067 125.941 147.887 126.048 147.78C126.168 147.66 126.354 147.6 126.608 147.6H135.888C136.141 147.6 136.321 147.66 136.428 147.78C136.548 147.887 136.608 148.067 136.608 148.32V150.66C136.608 150.913 136.548 151.1 136.428 151.22C136.321 151.327 136.141 151.38 135.888 151.38H130.368V152.92H134.268C134.521 152.92 134.701 152.98 134.808 153.1C134.928 153.207 134.988 153.387 134.988 153.64V155.78C134.988 156.033 134.928 156.22 134.808 156.34C134.701 156.447 134.521 156.5 134.268 156.5H130.368V158.22H135.888C136.141 158.22 136.321 158.28 136.428 158.4C136.548 158.507 136.608 158.687 136.608 158.94V161.28C136.608 161.533 136.548 161.72 136.428 161.84C136.321 161.947 136.141 162 135.888 162ZM145.654 162H139.334C139.08 162 138.894 161.947 138.774 161.84C138.667 161.72 138.614 161.533 138.614 161.28V158.94C138.614 158.687 138.667 158.507 138.774 158.4C138.894 158.28 139.08 158.22 139.334 158.22H144.714C144.887 158.22 145.014 158.167 145.094 158.06C145.187 157.94 145.234 157.8 145.234 157.64C145.234 157.413 145.187 157.247 145.094 157.14C145.014 157.033 144.887 156.973 144.714 156.96L141.714 156.54C140.78 156.407 140.027 156.1 139.454 155.62C138.894 155.14 138.614 154.34 138.614 153.22V151.12C138.614 149.987 138.98 149.12 139.714 148.52C140.447 147.907 141.46 147.6 142.754 147.6H148.354C148.607 147.6 148.787 147.66 148.894 147.78C149.014 147.887 149.074 148.067 149.074 148.32V150.7C149.074 150.953 149.014 151.14 148.894 151.26C148.787 151.367 148.607 151.42 148.354 151.42H143.694C143.52 151.42 143.387 151.48 143.294 151.6C143.2 151.707 143.154 151.847 143.154 152.02C143.154 152.193 143.2 152.34 143.294 152.46C143.387 152.58 143.52 152.647 143.694 152.66L146.674 153.06C147.607 153.193 148.36 153.5 148.934 153.98C149.507 154.46 149.794 155.26 149.794 156.38V158.48C149.794 159.613 149.42 160.487 148.674 161.1C147.94 161.7 146.934 162 145.654 162ZM158.564 162H152.244C151.991 162 151.804 161.947 151.684 161.84C151.577 161.72 151.524 161.533 151.524 161.28V158.94C151.524 158.687 151.577 158.507 151.684 158.4C151.804 158.28 151.991 158.22 152.244 158.22H157.624C157.797 158.22 157.924 158.167 158.004 158.06C158.097 157.94 158.144 157.8 158.144 157.64C158.144 157.413 158.097 157.247 158.004 157.14C157.924 157.033 157.797 156.973 157.624 156.96L154.624 156.54C153.691 156.407 152.937 156.1 152.364 155.62C151.804 155.14 151.524 154.34 151.524 153.22V151.12C151.524 149.987 151.891 149.12 152.624 148.52C153.357 147.907 154.371 147.6 155.664 147.6H161.264C161.517 147.6 161.697 147.66 161.804 147.78C161.924 147.887 161.984 148.067 161.984 148.32V150.7C161.984 150.953 161.924 151.14 161.804 151.26C161.697 151.367 161.517 151.42 161.264 151.42H156.604C156.431 151.42 156.297 151.48 156.204 151.6C156.111 151.707 156.064 151.847 156.064 152.02C156.064 152.193 156.111 152.34 156.204 152.46C156.297 152.58 156.431 152.647 156.604 152.66L159.584 153.06C160.517 153.193 161.271 153.5 161.844 153.98C162.417 154.46 162.704 155.26 162.704 156.38V158.48C162.704 159.613 162.331 160.487 161.584 161.1C160.851 161.7 159.844 162 158.564 162ZM177.092 158.22C177.092 158.833 176.998 159.393 176.812 159.9C176.638 160.393 176.318 160.82 175.852 161.18C175.398 161.527 174.765 161.8 173.952 162C173.152 162.2 172.132 162.3 170.892 162.3C169.652 162.3 168.625 162.2 167.812 162C166.998 161.8 166.358 161.527 165.892 161.18C165.438 160.82 165.118 160.393 164.932 159.9C164.758 159.393 164.672 158.833 164.672 158.22V151.4C164.672 150.787 164.758 150.233 164.932 149.74C165.118 149.233 165.438 148.8 165.892 148.44C166.358 148.08 166.998 147.8 167.812 147.6C168.625 147.4 169.652 147.3 170.892 147.3C172.132 147.3 173.152 147.4 173.952 147.6C174.765 147.8 175.398 148.08 175.852 148.44C176.318 148.8 176.638 149.233 176.812 149.74C176.998 150.233 177.092 150.787 177.092 151.4V158.22ZM169.212 157.5C169.212 157.767 169.312 157.993 169.512 158.18C169.712 158.353 170.172 158.44 170.892 158.44C171.612 158.44 172.072 158.353 172.272 158.18C172.472 157.993 172.572 157.767 172.572 157.5V152.12C172.572 151.867 172.472 151.653 172.272 151.48C172.072 151.293 171.612 151.2 170.892 151.2C170.172 151.2 169.712 151.293 169.512 151.48C169.312 151.653 169.212 151.867 169.212 152.12V157.5ZM184.158 151.2V153.76H185.658C186.004 153.76 186.238 153.673 186.358 153.5C186.478 153.313 186.538 153.087 186.538 152.82V152.14C186.538 151.873 186.478 151.653 186.358 151.48C186.238 151.293 186.004 151.2 185.658 151.2H184.158ZM183.438 162H180.358C180.104 162 179.918 161.947 179.798 161.84C179.691 161.72 179.638 161.533 179.638 161.28V148.32C179.638 148.067 179.691 147.887 179.798 147.78C179.918 147.66 180.104 147.6 180.358 147.6H187.018C188.511 147.6 189.538 147.913 190.098 148.54C190.671 149.153 190.958 149.953 190.958 150.94V151.86C190.958 152.42 190.871 152.9 190.698 153.3C190.538 153.687 190.251 153.967 189.838 154.14C190.558 154.22 191.138 154.513 191.578 155.02C192.031 155.527 192.258 156.2 192.258 157.04V161.28C192.258 161.533 192.198 161.72 192.078 161.84C191.971 161.947 191.791 162 191.538 162H188.438C188.184 162 187.998 161.947 187.878 161.84C187.771 161.72 187.718 161.533 187.718 161.28V158.22C187.718 157.927 187.658 157.713 187.538 157.58C187.431 157.433 187.238 157.36 186.958 157.36H184.158V161.28C184.158 161.533 184.098 161.72 183.978 161.84C183.871 161.947 183.691 162 183.438 162Z" fill="white"/>
<path d="M54.5 190H252.5L220.5 232.5L10 240L54.5 190Z" fill="#9E906E"/>
<path d="M74.2 222H71.1C70.8467 222 70.66 221.947 70.54 221.84C70.4333 221.72 70.38 221.533 70.38 221.28V208.32C70.38 208.067 70.4333 207.887 70.54 207.78C70.66 207.66 70.8467 207.6 71.1 207.6H77.22C79.0333 207.6 80.2733 207.96 80.94 208.68C81.6067 209.4 81.94 210.34 81.94 211.5V214.06C81.94 215.22 81.6067 216.16 80.94 216.88C80.2733 217.6 79.0333 217.96 77.22 217.96H74.92V221.28C74.92 221.533 74.86 221.72 74.74 221.84C74.6333 221.947 74.4533 222 74.2 222ZM74.88 211.34V214.36H76.68C77.0667 214.36 77.32 214.26 77.44 214.06C77.56 213.86 77.62 213.633 77.62 213.38V212.32C77.62 212.067 77.56 211.84 77.44 211.64C77.32 211.44 77.0667 211.34 76.68 211.34H74.88ZM94.0128 222H84.7328C84.4795 222 84.2928 221.947 84.1728 221.84C84.0661 221.72 84.0128 221.533 84.0128 221.28V208.32C84.0128 208.067 84.0661 207.887 84.1728 207.78C84.2928 207.66 84.4795 207.6 84.7328 207.6H94.0128C94.2661 207.6 94.4461 207.66 94.5528 207.78C94.6728 207.887 94.7328 208.067 94.7328 208.32V210.66C94.7328 210.913 94.6728 211.1 94.5528 211.22C94.4461 211.327 94.2661 211.38 94.0128 211.38H88.4928V212.92H92.3928C92.6461 212.92 92.8261 212.98 92.9328 213.1C93.0528 213.207 93.1128 213.387 93.1128 213.64V215.78C93.1128 216.033 93.0528 216.22 92.9328 216.34C92.8261 216.447 92.6461 216.5 92.3928 216.5H88.4928V218.22H94.0128C94.2661 218.22 94.4461 218.28 94.5528 218.4C94.6728 218.507 94.7328 218.687 94.7328 218.94V221.28C94.7328 221.533 94.6728 221.72 94.5528 221.84C94.4461 221.947 94.2661 222 94.0128 222ZM101.619 211.2V213.76H103.119C103.465 213.76 103.699 213.673 103.819 213.5C103.939 213.313 103.999 213.087 103.999 212.82V212.14C103.999 211.873 103.939 211.653 103.819 211.48C103.699 211.293 103.465 211.2 103.119 211.2H101.619ZM100.899 222H97.8188C97.5654 222 97.3788 221.947 97.2588 221.84C97.1521 221.72 97.0988 221.533 97.0988 221.28V208.32C97.0988 208.067 97.1521 207.887 97.2588 207.78C97.3788 207.66 97.5654 207.6 97.8188 207.6H104.479C105.972 207.6 106.999 207.913 107.559 208.54C108.132 209.153 108.419 209.953 108.419 210.94V211.86C108.419 212.42 108.332 212.9 108.159 213.3C107.999 213.687 107.712 213.967 107.299 214.14C108.019 214.22 108.599 214.513 109.039 215.02C109.492 215.527 109.719 216.2 109.719 217.04V221.28C109.719 221.533 109.659 221.72 109.539 221.84C109.432 221.947 109.252 222 108.999 222H105.899C105.645 222 105.459 221.947 105.339 221.84C105.232 221.72 105.179 221.533 105.179 221.28V218.22C105.179 217.927 105.119 217.713 104.999 217.58C104.892 217.433 104.699 217.36 104.419 217.36H101.619V221.28C101.619 221.533 101.559 221.72 101.439 221.84C101.332 221.947 101.152 222 100.899 222ZM122.864 222H116.564C114.898 222 113.658 221.667 112.844 221C112.044 220.333 111.644 219.307 111.644 217.92V211.68C111.644 210.293 112.044 209.267 112.844 208.6C113.658 207.933 114.898 207.6 116.564 207.6H121.564C121.818 207.6 121.998 207.66 122.104 207.78C122.224 207.887 122.284 208.067 122.284 208.32V210.74C122.284 210.993 122.224 211.18 122.104 211.3C121.998 211.407 121.818 211.46 121.564 211.46H117.404C116.991 211.46 116.684 211.547 116.484 211.72C116.284 211.88 116.184 212.127 116.184 212.46V217.24C116.184 217.573 116.258 217.82 116.404 217.98C116.564 218.14 116.798 218.22 117.104 218.22H119.044V215.1C119.044 214.847 119.098 214.667 119.204 214.56C119.324 214.44 119.511 214.38 119.764 214.38H122.864C123.118 214.38 123.298 214.44 123.404 214.56C123.524 214.667 123.584 214.847 123.584 215.1V221.28C123.584 221.533 123.524 221.72 123.404 221.84C123.298 221.947 123.118 222 122.864 222ZM138.285 218.22C138.285 218.833 138.191 219.393 138.005 219.9C137.831 220.393 137.511 220.82 137.045 221.18C136.591 221.527 135.965 221.8 135.165 222C134.365 222.2 133.345 222.3 132.105 222.3C130.865 222.3 129.845 222.2 129.045 222C128.245 221.8 127.611 221.527 127.145 221.18C126.691 220.82 126.371 220.393 126.185 219.9C126.011 219.393 125.925 218.833 125.925 218.22V208.32C125.925 208.067 125.978 207.887 126.085 207.78C126.205 207.66 126.391 207.6 126.645 207.6H129.785C130.038 207.6 130.218 207.66 130.325 207.78C130.445 207.887 130.505 208.067 130.505 208.32V217.44C130.505 217.707 130.605 217.933 130.805 218.12C131.005 218.293 131.451 218.38 132.145 218.38C132.851 218.38 133.305 218.293 133.505 218.12C133.705 217.933 133.805 217.707 133.805 217.44V208.32C133.805 208.067 133.858 207.887 133.965 207.78C134.085 207.66 134.271 207.6 134.525 207.6H137.565C137.818 207.6 137.998 207.66 138.105 207.78C138.225 207.887 138.285 208.067 138.285 208.32V218.22ZM144.666 222H141.666C141.413 222 141.226 221.947 141.106 221.84C141 221.72 140.946 221.533 140.946 221.28V208.32C140.946 208.067 141 207.887 141.106 207.78C141.226 207.66 141.413 207.6 141.666 207.6H143.746C144 207.6 144.213 207.64 144.386 207.72C144.573 207.8 144.753 207.94 144.926 208.14L148.806 212.58V208.32C148.806 208.067 148.86 207.887 148.966 207.78C149.086 207.66 149.273 207.6 149.526 207.6H152.526C152.78 207.6 152.96 207.66 153.066 207.78C153.186 207.887 153.246 208.067 153.246 208.32V221.28C153.246 221.533 153.186 221.72 153.066 221.84C152.96 221.947 152.78 222 152.526 222H149.526C149.273 222 149.086 221.947 148.966 221.84C148.86 221.72 148.806 221.533 148.806 221.28V218.82L145.386 214.68V221.28C145.386 221.533 145.326 221.72 145.206 221.84C145.1 221.947 144.92 222 144.666 222ZM162.805 222H159.565C159.312 222 159.125 221.947 159.005 221.84C158.898 221.72 158.845 221.533 158.845 221.28V211.46H155.905C155.652 211.46 155.465 211.407 155.345 211.3C155.238 211.18 155.185 210.993 155.185 210.74V208.32C155.185 208.067 155.238 207.887 155.345 207.78C155.465 207.66 155.652 207.6 155.905 207.6H166.465C166.718 207.6 166.898 207.66 167.005 207.78C167.125 207.887 167.185 208.067 167.185 208.32V210.74C167.185 210.993 167.125 211.18 167.005 211.3C166.898 211.407 166.718 211.46 166.465 211.46H163.525V221.28C163.525 221.533 163.465 221.72 163.345 221.84C163.238 221.947 163.058 222 162.805 222ZM173.549 211.8L172.609 214.84H175.749L174.809 211.8C174.756 211.68 174.696 211.593 174.629 211.54C174.576 211.487 174.509 211.46 174.429 211.46H173.929C173.849 211.46 173.776 211.487 173.709 211.54C173.656 211.593 173.603 211.68 173.549 211.8ZM172.409 221.28C172.409 221.533 172.349 221.72 172.229 221.84C172.123 221.947 171.943 222 171.689 222H168.749C168.496 222 168.309 221.947 168.189 221.84C168.083 221.72 168.029 221.533 168.029 221.28V216C168.029 215.6 168.089 215.14 168.209 214.62C168.343 214.1 168.543 213.493 168.809 212.8L170.549 208.26C170.629 208.033 170.749 207.867 170.909 207.76C171.083 207.653 171.303 207.6 171.569 207.6H176.949C177.203 207.6 177.409 207.653 177.569 207.76C177.743 207.867 177.869 208.033 177.949 208.26L179.689 212.8C179.956 213.493 180.149 214.1 180.269 214.62C180.403 215.14 180.469 215.6 180.469 216V221.28C180.469 221.533 180.409 221.72 180.289 221.84C180.183 221.947 180.003 222 179.749 222H176.729C176.463 222 176.263 221.947 176.129 221.84C176.009 221.72 175.949 221.533 175.949 221.28V218.48H172.409V221.28ZM189.619 222H183.299C183.045 222 182.859 221.947 182.739 221.84C182.632 221.72 182.579 221.533 182.579 221.28V218.94C182.579 218.687 182.632 218.507 182.739 218.4C182.859 218.28 183.045 218.22 183.299 218.22H188.679C188.852 218.22 188.979 218.167 189.059 218.06C189.152 217.94 189.199 217.8 189.199 217.64C189.199 217.413 189.152 217.247 189.059 217.14C188.979 217.033 188.852 216.973 188.679 216.96L185.679 216.54C184.745 216.407 183.992 216.1 183.419 215.62C182.859 215.14 182.579 214.34 182.579 213.22V211.12C182.579 209.987 182.945 209.12 183.679 208.52C184.412 207.907 185.425 207.6 186.719 207.6H192.319C192.572 207.6 192.752 207.66 192.859 207.78C192.979 207.887 193.039 208.067 193.039 208.32V210.7C193.039 210.953 192.979 211.14 192.859 211.26C192.752 211.367 192.572 211.42 192.319 211.42H187.659C187.485 211.42 187.352 211.48 187.259 211.6C187.165 211.707 187.119 211.847 187.119 212.02C187.119 212.193 187.165 212.34 187.259 212.46C187.352 212.58 187.485 212.647 187.659 212.66L190.639 213.06C191.572 213.193 192.325 213.5 192.899 213.98C193.472 214.46 193.759 215.26 193.759 216.38V218.48C193.759 219.613 193.385 220.487 192.639 221.1C191.905 221.7 190.899 222 189.619 222Z" fill="white"/>
<path d="M54.5 250H252.5L220.5 292.5L10 300L54.5 250Z" fill="#9E906E"/>
<path d="M62.28 271.84L61.528 274.272H64.04L63.288 271.84C63.2453 271.744 63.1973 271.675 63.144 271.632C63.1013 271.589 63.048 271.568 62.984 271.568H62.584C62.52 271.568 62.4613 271.589 62.408 271.632C62.3653 271.675 62.3227 271.744 62.28 271.84ZM61.368 279.424C61.368 279.627 61.32 279.776 61.224 279.872C61.1387 279.957 60.9947 280 60.792 280H58.44C58.2373 280 58.088 279.957 57.992 279.872C57.9067 279.776 57.864 279.627 57.864 279.424V275.2C57.864 274.88 57.912 274.512 58.008 274.096C58.1147 273.68 58.2747 273.195 58.488 272.64L59.88 269.008C59.944 268.827 60.04 268.693 60.168 268.608C60.3067 268.523 60.4827 268.48 60.696 268.48H65C65.2027 268.48 65.368 268.523 65.496 268.608C65.6347 268.693 65.736 268.827 65.8 269.008L67.192 272.64C67.4053 273.195 67.56 273.68 67.656 274.096C67.7627 274.512 67.816 274.88 67.816 275.2V279.424C67.816 279.627 67.768 279.776 67.672 279.872C67.5867 279.957 67.4427 280 67.24 280H64.824C64.6107 280 64.4507 279.957 64.344 279.872C64.248 279.776 64.2 279.627 64.2 279.424V277.184H61.368V279.424ZM75.7595 280H70.3675C70.1648 280 70.0155 279.957 69.9195 279.872C69.8342 279.776 69.7915 279.627 69.7915 279.424V269.056C69.7915 268.853 69.8342 268.709 69.9195 268.624C70.0155 268.528 70.1648 268.48 70.3675 268.48H75.7595C77.0928 268.48 78.0795 268.747 78.7195 269.28C79.3702 269.813 79.6955 270.635 79.6955 271.744V276.736C79.6955 277.845 79.3702 278.667 78.7195 279.2C78.0795 279.733 77.0928 280 75.7595 280ZM73.4235 271.536V276.976H75.3275C75.5835 276.976 75.7702 276.912 75.8875 276.784C76.0155 276.656 76.0795 276.459 76.0795 276.192V272.304C76.0795 272.037 76.0155 271.845 75.8875 271.728C75.7702 271.6 75.5835 271.536 75.3275 271.536H73.4235ZM84.689 280H82.305C82.1023 280 81.953 279.957 81.857 279.872C81.7717 279.776 81.729 279.627 81.729 279.424V269.056C81.729 268.853 81.7717 268.709 81.857 268.624C81.953 268.528 82.1023 268.48 82.305 268.48H84.881C85.0517 268.48 85.1903 268.517 85.297 268.592C85.4143 268.667 85.521 268.789 85.617 268.96L87.057 271.568C87.1103 271.664 87.153 271.733 87.185 271.776C87.2277 271.819 87.281 271.84 87.345 271.84H87.489C87.553 271.84 87.601 271.819 87.633 271.776C87.6757 271.733 87.7237 271.664 87.777 271.568L89.201 268.96C89.297 268.789 89.3983 268.667 89.505 268.592C89.6223 268.517 89.7663 268.48 89.937 268.48H92.529C92.7317 268.48 92.8757 268.528 92.961 268.624C93.057 268.709 93.105 268.853 93.105 269.056V279.424C93.105 279.627 93.057 279.776 92.961 279.872C92.8757 279.957 92.7317 280 92.529 280H90.065C89.8623 280 89.713 279.957 89.617 279.872C89.5317 279.776 89.489 279.627 89.489 279.424V273.792L88.545 275.536C88.449 275.717 88.3317 275.851 88.193 275.936C88.065 276.011 87.8997 276.048 87.697 276.048H87.057C86.8543 276.048 86.6837 276.011 86.545 275.936C86.417 275.851 86.305 275.717 86.209 275.536L85.265 273.792V279.424C85.265 279.627 85.217 279.776 85.121 279.872C85.0357 279.957 84.8917 280 84.689 280ZM95.6271 280C95.4245 280 95.2751 279.957 95.1791 279.872C95.0938 279.776 95.0511 279.627 95.0511 279.424V277.52C95.0511 277.317 95.0938 277.173 95.1791 277.088C95.2751 276.992 95.4245 276.944 95.6271 276.944H97.2111V271.568H95.6271C95.4245 271.568 95.2751 271.525 95.1791 271.44C95.0938 271.344 95.0511 271.195 95.0511 270.992V269.056C95.0511 268.853 95.0938 268.709 95.1791 268.624C95.2751 268.528 95.4245 268.48 95.6271 268.48H102.443C102.646 268.48 102.79 268.528 102.875 268.624C102.971 268.709 103.019 268.853 103.019 269.056V270.992C103.019 271.195 102.971 271.344 102.875 271.44C102.79 271.525 102.646 271.568 102.443 271.568H100.891V276.944H102.443C102.646 276.944 102.79 276.992 102.875 277.088C102.971 277.173 103.019 277.317 103.019 277.52V279.424C103.019 279.627 102.971 279.776 102.875 279.872C102.79 279.957 102.646 280 102.443 280H95.6271ZM107.971 280H105.571C105.368 280 105.219 279.957 105.123 279.872C105.037 279.776 104.995 279.627 104.995 279.424V269.056C104.995 268.853 105.037 268.709 105.123 268.624C105.219 268.528 105.368 268.48 105.571 268.48H107.235C107.437 268.48 107.608 268.512 107.747 268.576C107.896 268.64 108.04 268.752 108.179 268.912L111.283 272.464V269.056C111.283 268.853 111.325 268.709 111.411 268.624C111.507 268.528 111.656 268.48 111.859 268.48H114.259C114.461 268.48 114.605 268.528 114.691 268.624C114.787 268.709 114.835 268.853 114.835 269.056V279.424C114.835 279.627 114.787 279.776 114.691 279.872C114.605 279.957 114.461 280 114.259 280H111.859C111.656 280 111.507 279.957 111.411 279.872C111.325 279.776 111.283 279.627 111.283 279.424V277.456L108.547 274.144V279.424C108.547 279.627 108.499 279.776 108.403 279.872C108.317 279.957 108.173 280 107.971 280ZM117.362 280C117.159 280 117.01 279.957 116.914 279.872C116.828 279.776 116.786 279.627 116.786 279.424V277.52C116.786 277.317 116.828 277.173 116.914 277.088C117.01 276.992 117.159 276.944 117.362 276.944H118.946V271.568H117.362C117.159 271.568 117.01 271.525 116.914 271.44C116.828 271.344 116.786 271.195 116.786 270.992V269.056C116.786 268.853 116.828 268.709 116.914 268.624C117.01 268.528 117.159 268.48 117.362 268.48H124.178C124.38 268.48 124.524 268.528 124.61 268.624C124.706 268.709 124.753 268.853 124.753 269.056V270.992C124.753 271.195 124.706 271.344 124.61 271.44C124.524 271.525 124.38 271.568 124.178 271.568H122.626V276.944H124.178C124.38 276.944 124.524 276.992 124.61 277.088C124.706 277.173 124.753 277.317 124.753 277.52V279.424C124.753 279.627 124.706 279.776 124.61 279.872C124.524 279.957 124.38 280 124.178 280H117.362ZM132.073 280H127.017C126.814 280 126.665 279.957 126.569 279.872C126.484 279.776 126.441 279.627 126.441 279.424V277.552C126.441 277.349 126.484 277.205 126.569 277.12C126.665 277.024 126.814 276.976 127.017 276.976H131.321C131.46 276.976 131.561 276.933 131.625 276.848C131.7 276.752 131.737 276.64 131.737 276.512C131.737 276.331 131.7 276.197 131.625 276.112C131.561 276.027 131.46 275.979 131.321 275.968L128.921 275.632C128.174 275.525 127.572 275.28 127.113 274.896C126.665 274.512 126.441 273.872 126.441 272.976V271.296C126.441 270.389 126.734 269.696 127.321 269.216C127.908 268.725 128.718 268.48 129.753 268.48H134.233C134.436 268.48 134.58 268.528 134.665 268.624C134.761 268.709 134.809 268.853 134.809 269.056V270.96C134.809 271.163 134.761 271.312 134.665 271.408C134.58 271.493 134.436 271.536 134.233 271.536H130.505C130.366 271.536 130.26 271.584 130.185 271.68C130.11 271.765 130.073 271.877 130.073 272.016C130.073 272.155 130.11 272.272 130.185 272.368C130.26 272.464 130.366 272.517 130.505 272.528L132.889 272.848C133.636 272.955 134.238 273.2 134.697 273.584C135.156 273.968 135.385 274.608 135.385 275.504V277.184C135.385 278.091 135.086 278.789 134.489 279.28C133.902 279.76 133.097 280 132.073 280ZM142.419 280H139.827C139.624 280 139.475 279.957 139.379 279.872C139.294 279.776 139.251 279.627 139.251 279.424V271.568H136.899C136.696 271.568 136.547 271.525 136.451 271.44C136.366 271.344 136.323 271.195 136.323 270.992V269.056C136.323 268.853 136.366 268.709 136.451 268.624C136.547 268.528 136.696 268.48 136.899 268.48H145.347C145.55 268.48 145.694 268.528 145.779 268.624C145.875 268.709 145.923 268.853 145.923 269.056V270.992C145.923 271.195 145.875 271.344 145.779 271.44C145.694 271.525 145.55 271.568 145.347 271.568H142.995V279.424C142.995 279.627 142.947 279.776 142.851 279.872C142.766 279.957 142.622 280 142.419 280ZM151.095 271.36V273.408H152.295C152.572 273.408 152.759 273.339 152.855 273.2C152.951 273.051 152.999 272.869 152.999 272.656V272.112C152.999 271.899 152.951 271.723 152.855 271.584C152.759 271.435 152.572 271.36 152.295 271.36H151.095ZM150.519 280H148.055C147.852 280 147.703 279.957 147.607 279.872C147.522 279.776 147.479 279.627 147.479 279.424V269.056C147.479 268.853 147.522 268.709 147.607 268.624C147.703 268.528 147.852 268.48 148.055 268.48H153.383C154.578 268.48 155.399 268.731 155.847 269.232C156.306 269.723 156.535 270.363 156.535 271.152V271.888C156.535 272.336 156.466 272.72 156.327 273.04C156.199 273.349 155.97 273.573 155.639 273.712C156.215 273.776 156.679 274.011 157.031 274.416C157.394 274.821 157.575 275.36 157.575 276.032V279.424C157.575 279.627 157.527 279.776 157.431 279.872C157.346 279.957 157.202 280 156.999 280H154.519C154.316 280 154.167 279.957 154.071 279.872C153.986 279.776 153.943 279.627 153.943 279.424V276.976C153.943 276.741 153.895 276.571 153.799 276.464C153.714 276.347 153.559 276.288 153.335 276.288H151.095V279.424C151.095 279.627 151.047 279.776 150.951 279.872C150.866 279.957 150.722 280 150.519 280ZM163.546 271.84L162.794 274.272H165.306L164.554 271.84C164.511 271.744 164.463 271.675 164.41 271.632C164.367 271.589 164.314 271.568 164.25 271.568H163.85C163.786 271.568 163.727 271.589 163.674 271.632C163.631 271.675 163.588 271.744 163.546 271.84ZM162.634 279.424C162.634 279.627 162.586 279.776 162.49 279.872C162.404 279.957 162.26 280 162.058 280H159.706C159.503 280 159.354 279.957 159.258 279.872C159.172 279.776 159.13 279.627 159.13 279.424V275.2C159.13 274.88 159.178 274.512 159.274 274.096C159.38 273.68 159.54 273.195 159.754 272.64L161.146 269.008C161.21 268.827 161.306 268.693 161.434 268.608C161.572 268.523 161.748 268.48 161.962 268.48H166.266C166.468 268.48 166.634 268.523 166.762 268.608C166.9 268.693 167.002 268.827 167.066 269.008L168.458 272.64C168.671 273.195 168.826 273.68 168.922 274.096C169.028 274.512 169.082 274.88 169.082 275.2V279.424C169.082 279.627 169.034 279.776 168.938 279.872C168.852 279.957 168.708 280 168.506 280H166.09C165.876 280 165.716 279.957 165.61 279.872C165.514 279.776 165.466 279.627 165.466 279.424V277.184H162.634V279.424ZM177.025 280H171.633C171.43 280 171.281 279.957 171.185 279.872C171.1 279.776 171.057 279.627 171.057 279.424V269.056C171.057 268.853 171.1 268.709 171.185 268.624C171.281 268.528 171.43 268.48 171.633 268.48H177.025C178.358 268.48 179.345 268.747 179.985 269.28C180.636 269.813 180.961 270.635 180.961 271.744V276.736C180.961 277.845 180.636 278.667 179.985 279.2C179.345 279.733 178.358 280 177.025 280ZM174.689 271.536V276.976H176.593C176.849 276.976 177.036 276.912 177.153 276.784C177.281 276.656 177.345 276.459 177.345 276.192V272.304C177.345 272.037 177.281 271.845 177.153 271.728C177.036 271.6 176.849 271.536 176.593 271.536H174.689ZM192.755 276.976C192.755 277.467 192.68 277.915 192.531 278.32C192.392 278.715 192.136 279.056 191.763 279.344C191.4 279.621 190.893 279.84 190.243 280C189.603 280.16 188.787 280.24 187.795 280.24C186.803 280.24 185.981 280.16 185.331 280C184.68 279.84 184.168 279.621 183.795 279.344C183.432 279.056 183.176 278.715 183.027 278.32C182.888 277.915 182.819 277.467 182.819 276.976V271.52C182.819 271.029 182.888 270.587 183.027 270.192C183.176 269.787 183.432 269.44 183.795 269.152C184.168 268.864 184.68 268.64 185.331 268.48C185.981 268.32 186.803 268.24 187.795 268.24C188.787 268.24 189.603 268.32 190.243 268.48C190.893 268.64 191.4 268.864 191.763 269.152C192.136 269.44 192.392 269.787 192.531 270.192C192.68 270.587 192.755 271.029 192.755 271.52V276.976ZM186.451 276.4C186.451 276.613 186.531 276.795 186.691 276.944C186.851 277.083 187.219 277.152 187.795 277.152C188.371 277.152 188.739 277.083 188.899 276.944C189.059 276.795 189.139 276.613 189.139 276.4V272.096C189.139 271.893 189.059 271.723 188.899 271.584C188.739 271.435 188.371 271.36 187.795 271.36C187.219 271.36 186.851 271.435 186.691 271.584C186.531 271.723 186.451 271.893 186.451 272.096V276.4ZM198.408 271.36V273.408H199.608C199.885 273.408 200.072 273.339 200.168 273.2C200.264 273.051 200.312 272.869 200.312 272.656V272.112C200.312 271.899 200.264 271.723 200.168 271.584C200.072 271.435 199.885 271.36 199.608 271.36H198.408ZM197.832 280H195.368C195.165 280 195.016 279.957 194.92 279.872C194.834 279.776 194.792 279.627 194.792 279.424V269.056C194.792 268.853 194.834 268.709 194.92 268.624C195.016 268.528 195.165 268.48 195.368 268.48H200.696C201.89 268.48 202.712 268.731 203.16 269.232C203.618 269.723 203.848 270.363 203.848 271.152V271.888C203.848 272.336 203.778 272.72 203.64 273.04C203.512 273.349 203.282 273.573 202.952 273.712C203.528 273.776 203.992 274.011 204.344 274.416C204.706 274.821 204.888 275.36 204.888 276.032V279.424C204.888 279.627 204.84 279.776 204.744 279.872C204.658 279.957 204.514 280 204.312 280H201.832C201.629 280 201.48 279.957 201.384 279.872C201.298 279.776 201.256 279.627 201.256 279.424V276.976C201.256 276.741 201.208 276.571 201.112 276.464C201.026 276.347 200.872 276.288 200.648 276.288H198.408V279.424C198.408 279.627 198.36 279.776 198.264 279.872C198.178 279.957 198.034 280 197.832 280Z" fill="white"/>
</svg>
