<svg width="273" height="216" viewBox="0 0 273 216" fill="none" xmlns="http://www.w3.org/2000/svg">
<g filter="url(#filter0_d_17_124)">
<path d="M59.5 15H257.5L225.5 57.5L15 65L59.5 15Z" fill="#9E906E"/>
<path d="M99.18 45H95.94C95.6867 45 95.5 44.9467 95.38 44.84C95.2733 44.72 95.22 44.5333 95.22 44.28V34.46H92.28C92.0267 34.46 91.84 34.4067 91.72 34.3C91.6133 34.18 91.56 33.9933 91.56 33.74V31.32C91.56 31.0667 91.6133 30.8867 91.72 30.78C91.84 30.66 92.0267 30.6 92.28 30.6H102.84C103.093 30.6 103.273 30.66 103.38 30.78C103.5 30.8867 103.56 31.0667 103.56 31.32V33.74C103.56 33.9933 103.5 34.18 103.38 34.3C103.273 34.4067 103.093 34.46 102.84 34.46H99.9V44.28C99.9 44.5333 99.84 44.72 99.72 44.84C99.6133 44.9467 99.4333 45 99.18 45ZM117.765 41.22C117.765 41.8333 117.672 42.3933 117.485 42.9C117.312 43.3933 116.992 43.82 116.525 44.18C116.072 44.5267 115.445 44.8 114.645 45C113.845 45.2 112.825 45.3 111.585 45.3C110.345 45.3 109.325 45.2 108.525 45C107.725 44.8 107.092 44.5267 106.625 44.18C106.172 43.82 105.852 43.3933 105.665 42.9C105.492 42.3933 105.405 41.8333 105.405 41.22V31.32C105.405 31.0667 105.458 30.8867 105.565 30.78C105.685 30.66 105.872 30.6 106.125 30.6H109.265C109.518 30.6 109.698 30.66 109.805 30.78C109.925 30.8867 109.985 31.0667 109.985 31.32V40.44C109.985 40.7067 110.085 40.9333 110.285 41.12C110.485 41.2933 110.932 41.38 111.625 41.38C112.332 41.38 112.785 41.2933 112.985 41.12C113.185 40.9333 113.285 40.7067 113.285 40.44V31.32C113.285 31.0667 113.338 30.8867 113.445 30.78C113.565 30.66 113.752 30.6 114.005 30.6H117.045C117.298 30.6 117.478 30.66 117.585 30.78C117.705 30.8867 117.765 31.0667 117.765 31.32V41.22ZM124.947 34.2V36.76H126.447C126.794 36.76 127.027 36.6733 127.147 36.5C127.267 36.3133 127.327 36.0867 127.327 35.82V35.14C127.327 34.8733 127.267 34.6533 127.147 34.48C127.027 34.2933 126.794 34.2 126.447 34.2H124.947ZM124.227 45H121.147C120.894 45 120.707 44.9467 120.587 44.84C120.48 44.72 120.427 44.5333 120.427 44.28V31.32C120.427 31.0667 120.48 30.8867 120.587 30.78C120.707 30.66 120.894 30.6 121.147 30.6H127.807C129.3 30.6 130.327 30.9133 130.887 31.54C131.46 32.1533 131.747 32.9533 131.747 33.94V34.86C131.747 35.42 131.66 35.9 131.487 36.3C131.327 36.6867 131.04 36.9667 130.627 37.14C131.347 37.22 131.927 37.5133 132.367 38.02C132.82 38.5267 133.047 39.2 133.047 40.04V44.28C133.047 44.5333 132.987 44.72 132.867 44.84C132.76 44.9467 132.58 45 132.327 45H129.227C128.974 45 128.787 44.9467 128.667 44.84C128.56 44.72 128.507 44.5333 128.507 44.28V41.22C128.507 40.9267 128.447 40.7133 128.327 40.58C128.22 40.4333 128.027 40.36 127.747 40.36H124.947V44.28C124.947 44.5333 124.887 44.72 124.767 44.84C124.66 44.9467 124.48 45 124.227 45ZM138.99 45H136.01C135.757 45 135.57 44.9467 135.45 44.84C135.343 44.72 135.29 44.5333 135.29 44.28V31.32C135.29 31.0667 135.343 30.8867 135.45 30.78C135.57 30.66 135.757 30.6 136.01 30.6H139.23C139.443 30.6 139.617 30.6467 139.75 30.74C139.897 30.8333 140.03 30.9867 140.15 31.2L141.95 34.46C142.017 34.58 142.07 34.6667 142.11 34.72C142.163 34.7733 142.23 34.8 142.31 34.8H142.49C142.57 34.8 142.63 34.7733 142.67 34.72C142.723 34.6667 142.783 34.58 142.85 34.46L144.63 31.2C144.75 30.9867 144.877 30.8333 145.01 30.74C145.157 30.6467 145.337 30.6 145.55 30.6H148.79C149.043 30.6 149.223 30.66 149.33 30.78C149.45 30.8867 149.51 31.0667 149.51 31.32V44.28C149.51 44.5333 149.45 44.72 149.33 44.84C149.223 44.9467 149.043 45 148.79 45H145.71C145.457 45 145.27 44.9467 145.15 44.84C145.043 44.72 144.99 44.5333 144.99 44.28V37.24L143.81 39.42C143.69 39.6467 143.543 39.8133 143.37 39.92C143.21 40.0133 143.003 40.06 142.75 40.06H141.95C141.697 40.06 141.483 40.0133 141.31 39.92C141.15 39.8133 141.01 39.6467 140.89 39.42L139.71 37.24V44.28C139.71 44.5333 139.65 44.72 139.53 44.84C139.423 44.9467 139.243 45 138.99 45ZM157.483 34.8L156.543 37.84H159.683L158.743 34.8C158.689 34.68 158.629 34.5933 158.563 34.54C158.509 34.4867 158.443 34.46 158.363 34.46H157.863C157.783 34.46 157.709 34.4867 157.643 34.54C157.589 34.5933 157.536 34.68 157.483 34.8ZM156.343 44.28C156.343 44.5333 156.283 44.72 156.163 44.84C156.056 44.9467 155.876 45 155.623 45H152.683C152.429 45 152.243 44.9467 152.123 44.84C152.016 44.72 151.963 44.5333 151.963 44.28V39C151.963 38.6 152.023 38.14 152.143 37.62C152.276 37.1 152.476 36.4933 152.743 35.8L154.483 31.26C154.563 31.0333 154.683 30.8667 154.843 30.76C155.016 30.6533 155.236 30.6 155.503 30.6H160.883C161.136 30.6 161.343 30.6533 161.503 30.76C161.676 30.8667 161.803 31.0333 161.883 31.26L163.623 35.8C163.889 36.4933 164.083 37.1 164.203 37.62C164.336 38.14 164.403 38.6 164.403 39V44.28C164.403 44.5333 164.343 44.72 164.223 44.84C164.116 44.9467 163.936 45 163.683 45H160.663C160.396 45 160.196 44.9467 160.063 44.84C159.943 44.72 159.883 44.5333 159.883 44.28V41.48H156.343V44.28ZM173.552 45H167.232C166.979 45 166.792 44.9467 166.672 44.84C166.566 44.72 166.512 44.5333 166.512 44.28V41.94C166.512 41.6867 166.566 41.5067 166.672 41.4C166.792 41.28 166.979 41.22 167.232 41.22H172.612C172.786 41.22 172.912 41.1667 172.992 41.06C173.086 40.94 173.132 40.8 173.132 40.64C173.132 40.4133 173.086 40.2467 172.992 40.14C172.912 40.0333 172.786 39.9733 172.612 39.96L169.612 39.54C168.679 39.4067 167.926 39.1 167.352 38.62C166.792 38.14 166.512 37.34 166.512 36.22V34.12C166.512 32.9867 166.879 32.12 167.612 31.52C168.346 30.9067 169.359 30.6 170.652 30.6H176.252C176.506 30.6 176.686 30.66 176.792 30.78C176.912 30.8867 176.972 31.0667 176.972 31.32V33.7C176.972 33.9533 176.912 34.14 176.792 34.26C176.686 34.3667 176.506 34.42 176.252 34.42H171.592C171.419 34.42 171.286 34.48 171.192 34.6C171.099 34.7067 171.052 34.8467 171.052 35.02C171.052 35.1933 171.099 35.34 171.192 35.46C171.286 35.58 171.419 35.6467 171.592 35.66L174.572 36.06C175.506 36.1933 176.259 36.5 176.832 36.98C177.406 37.46 177.692 38.26 177.692 39.38V41.48C177.692 42.6133 177.319 43.4867 176.572 44.1C175.839 44.7 174.832 45 173.552 45Z" fill="white"/>
<path d="M59.5 83H257.5L225.5 125.5L15 133L59.5 83Z" fill="#9E906E"/>
<path d="M97.6 101.8L96.66 104.84H99.8L98.86 101.8C98.8067 101.68 98.7467 101.593 98.68 101.54C98.6267 101.487 98.56 101.46 98.48 101.46H97.98C97.9 101.46 97.8267 101.487 97.76 101.54C97.7067 101.593 97.6533 101.68 97.6 101.8ZM96.46 111.28C96.46 111.533 96.4 111.72 96.28 111.84C96.1733 111.947 95.9933 112 95.74 112H92.8C92.5467 112 92.36 111.947 92.24 111.84C92.1333 111.72 92.08 111.533 92.08 111.28V106C92.08 105.6 92.14 105.14 92.26 104.62C92.3933 104.1 92.5933 103.493 92.86 102.8L94.6 98.26C94.68 98.0333 94.8 97.8667 94.96 97.76C95.1333 97.6533 95.3533 97.6 95.62 97.6H101C101.253 97.6 101.46 97.6533 101.62 97.76C101.793 97.8667 101.92 98.0333 102 98.26L103.74 102.8C104.007 103.493 104.2 104.1 104.32 104.62C104.453 105.14 104.52 105.6 104.52 106V111.28C104.52 111.533 104.46 111.72 104.34 111.84C104.233 111.947 104.053 112 103.8 112H100.78C100.513 112 100.313 111.947 100.18 111.84C100.06 111.72 100 111.533 100 111.28V108.48H96.46V111.28ZM117.889 112H107.709C107.456 112 107.269 111.947 107.149 111.84C107.043 111.72 106.989 111.533 106.989 111.28V98.32C106.989 98.0667 107.043 97.8867 107.149 97.78C107.269 97.66 107.456 97.6 107.709 97.6H110.809C111.063 97.6 111.243 97.66 111.349 97.78C111.469 97.8867 111.529 98.0667 111.529 98.32V108.22H114.269V104.98C114.269 104.727 114.323 104.547 114.429 104.44C114.549 104.32 114.736 104.26 114.989 104.26H117.889C118.143 104.26 118.323 104.32 118.429 104.44C118.549 104.547 118.609 104.727 118.609 104.98V111.28C118.609 111.533 118.549 111.72 118.429 111.84C118.323 111.947 118.143 112 117.889 112ZM133.156 108.22C133.156 108.833 133.062 109.393 132.876 109.9C132.702 110.393 132.382 110.82 131.916 111.18C131.462 111.527 130.836 111.8 130.036 112C129.236 112.2 128.216 112.3 126.976 112.3C125.736 112.3 124.716 112.2 123.916 112C123.116 111.8 122.482 111.527 122.016 111.18C121.562 110.82 121.242 110.393 121.056 109.9C120.882 109.393 120.796 108.833 120.796 108.22V98.32C120.796 98.0667 120.849 97.8867 120.956 97.78C121.076 97.66 121.262 97.6 121.516 97.6H124.656C124.909 97.6 125.089 97.66 125.196 97.78C125.316 97.8867 125.376 98.0667 125.376 98.32V107.44C125.376 107.707 125.476 107.933 125.676 108.12C125.876 108.293 126.322 108.38 127.016 108.38C127.722 108.38 128.176 108.293 128.376 108.12C128.576 107.933 128.676 107.707 128.676 107.44V98.32C128.676 98.0667 128.729 97.8867 128.836 97.78C128.956 97.66 129.142 97.6 129.396 97.6H132.436C132.689 97.6 132.869 97.66 132.976 97.78C133.096 97.8867 133.156 98.0667 133.156 98.32V108.22ZM139.538 112H136.538C136.284 112 136.098 111.947 135.978 111.84C135.871 111.72 135.818 111.533 135.818 111.28V98.32C135.818 98.0667 135.871 97.8867 135.978 97.78C136.098 97.66 136.284 97.6 136.538 97.6H138.618C138.871 97.6 139.084 97.64 139.258 97.72C139.444 97.8 139.624 97.94 139.798 98.14L143.678 102.58V98.32C143.678 98.0667 143.731 97.8867 143.838 97.78C143.958 97.66 144.144 97.6 144.398 97.6H147.398C147.651 97.6 147.831 97.66 147.938 97.78C148.058 97.8867 148.118 98.0667 148.118 98.32V111.28C148.118 111.533 148.058 111.72 147.938 111.84C147.831 111.947 147.651 112 147.398 112H144.398C144.144 112 143.958 111.947 143.838 111.84C143.731 111.72 143.678 111.533 143.678 111.28V108.82L140.258 104.68V111.28C140.258 111.533 140.198 111.72 140.078 111.84C139.971 111.947 139.791 112 139.538 112ZM163.076 108.22C163.076 108.833 162.983 109.393 162.796 109.9C162.623 110.393 162.303 110.82 161.836 111.18C161.383 111.527 160.749 111.8 159.936 112C159.136 112.2 158.116 112.3 156.876 112.3C155.636 112.3 154.609 112.2 153.796 112C152.983 111.8 152.343 111.527 151.876 111.18C151.423 110.82 151.103 110.393 150.916 109.9C150.743 109.393 150.656 108.833 150.656 108.22V101.4C150.656 100.787 150.743 100.233 150.916 99.74C151.103 99.2333 151.423 98.8 151.876 98.44C152.343 98.08 152.983 97.8 153.796 97.6C154.609 97.4 155.636 97.3 156.876 97.3C158.116 97.3 159.136 97.4 159.936 97.6C160.749 97.8 161.383 98.08 161.836 98.44C162.303 98.8 162.623 99.2333 162.796 99.74C162.983 100.233 163.076 100.787 163.076 101.4V108.22ZM155.196 107.5C155.196 107.767 155.296 107.993 155.496 108.18C155.696 108.353 156.156 108.44 156.876 108.44C157.596 108.44 158.056 108.353 158.256 108.18C158.456 107.993 158.556 107.767 158.556 107.5V102.12C158.556 101.867 158.456 101.653 158.256 101.48C158.056 101.293 157.596 101.2 156.876 101.2C156.156 101.2 155.696 101.293 155.496 101.48C155.296 101.653 155.196 101.867 155.196 102.12V107.5ZM172.302 112H165.982C165.729 112 165.542 111.947 165.422 111.84C165.316 111.72 165.262 111.533 165.262 111.28V108.94C165.262 108.687 165.316 108.507 165.422 108.4C165.542 108.28 165.729 108.22 165.982 108.22H171.362C171.536 108.22 171.662 108.167 171.742 108.06C171.836 107.94 171.882 107.8 171.882 107.64C171.882 107.413 171.836 107.247 171.742 107.14C171.662 107.033 171.536 106.973 171.362 106.96L168.362 106.54C167.429 106.407 166.676 106.1 166.102 105.62C165.542 105.14 165.262 104.34 165.262 103.22V101.12C165.262 99.9867 165.629 99.12 166.362 98.52C167.096 97.9067 168.109 97.6 169.402 97.6H175.002C175.256 97.6 175.436 97.66 175.542 97.78C175.662 97.8867 175.722 98.0667 175.722 98.32V100.7C175.722 100.953 175.662 101.14 175.542 101.26C175.436 101.367 175.256 101.42 175.002 101.42H170.342C170.169 101.42 170.036 101.48 169.942 101.6C169.849 101.707 169.802 101.847 169.802 102.02C169.802 102.193 169.849 102.34 169.942 102.46C170.036 102.58 170.169 102.647 170.342 102.66L173.322 103.06C174.256 103.193 175.009 103.5 175.582 103.98C176.156 104.46 176.442 105.26 176.442 106.38V108.48C176.442 109.613 176.069 110.487 175.322 111.1C174.589 111.7 173.582 112 172.302 112Z" fill="white"/>
<path d="M59.5 151H257.5L225.5 193.5L15 201L59.5 151Z" fill="#9E906E"/>
<path d="M79.2 183H76.1C75.8467 183 75.66 182.947 75.54 182.84C75.4333 182.72 75.38 182.533 75.38 182.28V169.32C75.38 169.067 75.4333 168.887 75.54 168.78C75.66 168.66 75.8467 168.6 76.1 168.6H82.22C84.0333 168.6 85.2733 168.96 85.94 169.68C86.6067 170.4 86.94 171.34 86.94 172.5V175.06C86.94 176.22 86.6067 177.16 85.94 177.88C85.2733 178.6 84.0333 178.96 82.22 178.96H79.92V182.28C79.92 182.533 79.86 182.72 79.74 182.84C79.6333 182.947 79.4533 183 79.2 183ZM79.88 172.34V175.36H81.68C82.0667 175.36 82.32 175.26 82.44 175.06C82.56 174.86 82.62 174.633 82.62 174.38V173.32C82.62 173.067 82.56 172.84 82.44 172.64C82.32 172.44 82.0667 172.34 81.68 172.34H79.88ZM99.0128 183H89.7328C89.4795 183 89.2928 182.947 89.1728 182.84C89.0661 182.72 89.0128 182.533 89.0128 182.28V169.32C89.0128 169.067 89.0661 168.887 89.1728 168.78C89.2928 168.66 89.4795 168.6 89.7328 168.6H99.0128C99.2661 168.6 99.4461 168.66 99.5528 168.78C99.6728 168.887 99.7328 169.067 99.7328 169.32V171.66C99.7328 171.913 99.6728 172.1 99.5528 172.22C99.4461 172.327 99.2661 172.38 99.0128 172.38H93.4928V173.92H97.3928C97.6461 173.92 97.8261 173.98 97.9328 174.1C98.0528 174.207 98.1128 174.387 98.1128 174.64V176.78C98.1128 177.033 98.0528 177.22 97.9328 177.34C97.8261 177.447 97.6461 177.5 97.3928 177.5H93.4928V179.22H99.0128C99.2661 179.22 99.4461 179.28 99.5528 179.4C99.6728 179.507 99.7328 179.687 99.7328 179.94V182.28C99.7328 182.533 99.6728 182.72 99.5528 182.84C99.4461 182.947 99.2661 183 99.0128 183ZM106.619 172.2V174.76H108.119C108.465 174.76 108.699 174.673 108.819 174.5C108.939 174.313 108.999 174.087 108.999 173.82V173.14C108.999 172.873 108.939 172.653 108.819 172.48C108.699 172.293 108.465 172.2 108.119 172.2H106.619ZM105.899 183H102.819C102.565 183 102.379 182.947 102.259 182.84C102.152 182.72 102.099 182.533 102.099 182.28V169.32C102.099 169.067 102.152 168.887 102.259 168.78C102.379 168.66 102.565 168.6 102.819 168.6H109.479C110.972 168.6 111.999 168.913 112.559 169.54C113.132 170.153 113.419 170.953 113.419 171.94V172.86C113.419 173.42 113.332 173.9 113.159 174.3C112.999 174.687 112.712 174.967 112.299 175.14C113.019 175.22 113.599 175.513 114.039 176.02C114.492 176.527 114.719 177.2 114.719 178.04V182.28C114.719 182.533 114.659 182.72 114.539 182.84C114.432 182.947 114.252 183 113.999 183H110.899C110.645 183 110.459 182.947 110.339 182.84C110.232 182.72 110.179 182.533 110.179 182.28V179.22C110.179 178.927 110.119 178.713 109.999 178.58C109.892 178.433 109.699 178.36 109.419 178.36H106.619V182.28C106.619 182.533 106.559 182.72 106.439 182.84C106.332 182.947 106.152 183 105.899 183ZM127.864 183H121.564C119.898 183 118.658 182.667 117.844 182C117.044 181.333 116.644 180.307 116.644 178.92V172.68C116.644 171.293 117.044 170.267 117.844 169.6C118.658 168.933 119.898 168.6 121.564 168.6H126.564C126.818 168.6 126.998 168.66 127.104 168.78C127.224 168.887 127.284 169.067 127.284 169.32V171.74C127.284 171.993 127.224 172.18 127.104 172.3C126.998 172.407 126.818 172.46 126.564 172.46H122.404C121.991 172.46 121.684 172.547 121.484 172.72C121.284 172.88 121.184 173.127 121.184 173.46V178.24C121.184 178.573 121.258 178.82 121.404 178.98C121.564 179.14 121.798 179.22 122.104 179.22H124.044V176.1C124.044 175.847 124.098 175.667 124.204 175.56C124.324 175.44 124.511 175.38 124.764 175.38H127.864C128.118 175.38 128.298 175.44 128.404 175.56C128.524 175.667 128.584 175.847 128.584 176.1V182.28C128.584 182.533 128.524 182.72 128.404 182.84C128.298 182.947 128.118 183 127.864 183ZM143.285 179.22C143.285 179.833 143.191 180.393 143.005 180.9C142.831 181.393 142.511 181.82 142.045 182.18C141.591 182.527 140.965 182.8 140.165 183C139.365 183.2 138.345 183.3 137.105 183.3C135.865 183.3 134.845 183.2 134.045 183C133.245 182.8 132.611 182.527 132.145 182.18C131.691 181.82 131.371 181.393 131.185 180.9C131.011 180.393 130.925 179.833 130.925 179.22V169.32C130.925 169.067 130.978 168.887 131.085 168.78C131.205 168.66 131.391 168.6 131.645 168.6H134.785C135.038 168.6 135.218 168.66 135.325 168.78C135.445 168.887 135.505 169.067 135.505 169.32V178.44C135.505 178.707 135.605 178.933 135.805 179.12C136.005 179.293 136.451 179.38 137.145 179.38C137.851 179.38 138.305 179.293 138.505 179.12C138.705 178.933 138.805 178.707 138.805 178.44V169.32C138.805 169.067 138.858 168.887 138.965 168.78C139.085 168.66 139.271 168.6 139.525 168.6H142.565C142.818 168.6 142.998 168.66 143.105 168.78C143.225 168.887 143.285 169.067 143.285 169.32V179.22ZM149.666 183H146.666C146.413 183 146.226 182.947 146.106 182.84C146 182.72 145.946 182.533 145.946 182.28V169.32C145.946 169.067 146 168.887 146.106 168.78C146.226 168.66 146.413 168.6 146.666 168.6H148.746C149 168.6 149.213 168.64 149.386 168.72C149.573 168.8 149.753 168.94 149.926 169.14L153.806 173.58V169.32C153.806 169.067 153.86 168.887 153.966 168.78C154.086 168.66 154.273 168.6 154.526 168.6H157.526C157.78 168.6 157.96 168.66 158.066 168.78C158.186 168.887 158.246 169.067 158.246 169.32V182.28C158.246 182.533 158.186 182.72 158.066 182.84C157.96 182.947 157.78 183 157.526 183H154.526C154.273 183 154.086 182.947 153.966 182.84C153.86 182.72 153.806 182.533 153.806 182.28V179.82L150.386 175.68V182.28C150.386 182.533 150.326 182.72 150.206 182.84C150.1 182.947 149.92 183 149.666 183ZM167.805 183H164.565C164.312 183 164.125 182.947 164.005 182.84C163.898 182.72 163.845 182.533 163.845 182.28V172.46H160.905C160.652 172.46 160.465 172.407 160.345 172.3C160.238 172.18 160.185 171.993 160.185 171.74V169.32C160.185 169.067 160.238 168.887 160.345 168.78C160.465 168.66 160.652 168.6 160.905 168.6H171.465C171.718 168.6 171.898 168.66 172.005 168.78C172.125 168.887 172.185 169.067 172.185 169.32V171.74C172.185 171.993 172.125 172.18 172.005 172.3C171.898 172.407 171.718 172.46 171.465 172.46H168.525V182.28C168.525 182.533 168.465 182.72 168.345 182.84C168.238 182.947 168.058 183 167.805 183ZM178.549 172.8L177.609 175.84H180.749L179.809 172.8C179.756 172.68 179.696 172.593 179.629 172.54C179.576 172.487 179.509 172.46 179.429 172.46H178.929C178.849 172.46 178.776 172.487 178.709 172.54C178.656 172.593 178.603 172.68 178.549 172.8ZM177.409 182.28C177.409 182.533 177.349 182.72 177.229 182.84C177.123 182.947 176.943 183 176.689 183H173.749C173.496 183 173.309 182.947 173.189 182.84C173.083 182.72 173.029 182.533 173.029 182.28V177C173.029 176.6 173.089 176.14 173.209 175.62C173.343 175.1 173.543 174.493 173.809 173.8L175.549 169.26C175.629 169.033 175.749 168.867 175.909 168.76C176.083 168.653 176.303 168.6 176.569 168.6H181.949C182.203 168.6 182.409 168.653 182.569 168.76C182.743 168.867 182.869 169.033 182.949 169.26L184.689 173.8C184.956 174.493 185.149 175.1 185.269 175.62C185.403 176.14 185.469 176.6 185.469 177V182.28C185.469 182.533 185.409 182.72 185.289 182.84C185.183 182.947 185.003 183 184.749 183H181.729C181.463 183 181.263 182.947 181.129 182.84C181.009 182.72 180.949 182.533 180.949 182.28V179.48H177.409V182.28ZM194.619 183H188.299C188.045 183 187.859 182.947 187.739 182.84C187.632 182.72 187.579 182.533 187.579 182.28V179.94C187.579 179.687 187.632 179.507 187.739 179.4C187.859 179.28 188.045 179.22 188.299 179.22H193.679C193.852 179.22 193.979 179.167 194.059 179.06C194.152 178.94 194.199 178.8 194.199 178.64C194.199 178.413 194.152 178.247 194.059 178.14C193.979 178.033 193.852 177.973 193.679 177.96L190.679 177.54C189.745 177.407 188.992 177.1 188.419 176.62C187.859 176.14 187.579 175.34 187.579 174.22V172.12C187.579 170.987 187.945 170.12 188.679 169.52C189.412 168.907 190.425 168.6 191.719 168.6H197.319C197.572 168.6 197.752 168.66 197.859 168.78C197.979 168.887 198.039 169.067 198.039 169.32V171.7C198.039 171.953 197.979 172.14 197.859 172.26C197.752 172.367 197.572 172.42 197.319 172.42H192.659C192.485 172.42 192.352 172.48 192.259 172.6C192.165 172.707 192.119 172.847 192.119 173.02C192.119 173.193 192.165 173.34 192.259 173.46C192.352 173.58 192.485 173.647 192.659 173.66L195.639 174.06C196.572 174.193 197.325 174.5 197.899 174.98C198.472 175.46 198.759 176.26 198.759 177.38V179.48C198.759 180.613 198.385 181.487 197.639 182.1C196.905 182.7 195.899 183 194.619 183Z" fill="white"/>
</g>
<defs>
<filter id="filter0_d_17_124" x="-10" y="-6" width="294" height="228" filterUnits="userSpaceOnUse" color-interpolation-filters="sRGB">
<feFlood flood-opacity="0" result="BackgroundImageFix"/>
<feColorMatrix in="SourceAlpha" type="matrix" values="0 0 0 0 0 0 0 0 0 0 0 0 0 0 0 0 0 0 127 0" result="hardAlpha"/>
<feOffset/>
<feGaussianBlur stdDeviation="7.5"/>
<feComposite in2="hardAlpha" operator="out"/>
<feColorMatrix type="matrix" values="0 0 0 0 0 0 0 0 0 0 0 0 0 0 0 0 0 0 0.25 0"/>
<feBlend mode="normal" in2="BackgroundImageFix" result="effect1_dropShadow_17_124"/>
<feBlend mode="normal" in="SourceGraphic" in2="effect1_dropShadow_17_124" result="shape"/>
</filter>
</defs>
</svg>
