<svg width="120" height="49" viewBox="0 0 120 49" fill="none" xmlns="http://www.w3.org/2000/svg">
<rect width="120" height="49" rx="10" fill="#9684A3"/>
<path d="M36.846 30H31.47C31.2927 30 31.162 29.9627 31.078 29.888C31.0033 29.804 30.966 29.6733 30.966 29.496V20.424C30.966 20.2467 31.0033 20.1207 31.078 20.046C31.162 19.962 31.2927 19.92 31.47 19.92H35.936C36.8507 19.92 37.5273 20.0973 37.966 20.452C38.4047 20.7973 38.624 21.334 38.624 22.062V22.734C38.624 23.126 38.554 23.448 38.414 23.7C38.2833 23.9427 38.078 24.1247 37.798 24.246C38.3953 24.302 38.8387 24.5073 39.128 24.862C39.4173 25.2167 39.562 25.7347 39.562 26.416V27.704C39.562 28.488 39.338 29.0667 38.89 29.44C38.4513 29.8133 37.77 30 36.846 30ZM34.116 22.3V23.812H35.306C35.4833 23.812 35.614 23.7653 35.698 23.672C35.7913 23.5787 35.838 23.4387 35.838 23.252V22.86C35.838 22.6733 35.7913 22.5333 35.698 22.44C35.614 22.3467 35.4833 22.3 35.306 22.3H34.116ZM34.116 25.968V27.62H35.936C36.1133 27.62 36.244 27.5733 36.328 27.48C36.4213 27.3867 36.468 27.2467 36.468 27.06V26.514C36.468 26.3273 36.4213 26.192 36.328 26.108C36.244 26.0147 36.1133 25.968 35.936 25.968H34.116ZM49.6925 27.354C49.6925 27.7833 49.6272 28.1753 49.4965 28.53C49.3752 28.8753 49.1512 29.174 48.8245 29.426C48.5072 29.6687 48.0685 29.86 47.5085 30C46.9485 30.14 46.2345 30.21 45.3665 30.21C44.4985 30.21 43.7845 30.14 43.2245 30C42.6645 29.86 42.2212 29.6687 41.8945 29.426C41.5772 29.174 41.3532 28.8753 41.2225 28.53C41.1012 28.1753 41.0405 27.7833 41.0405 27.354V20.424C41.0405 20.2467 41.0779 20.1207 41.1525 20.046C41.2365 19.962 41.3672 19.92 41.5445 19.92H43.7425C43.9199 19.92 44.0459 19.962 44.1205 20.046C44.2045 20.1207 44.2465 20.2467 44.2465 20.424V26.808C44.2465 26.9947 44.3165 27.1533 44.4565 27.284C44.5965 27.4053 44.9092 27.466 45.3945 27.466C45.8892 27.466 46.2065 27.4053 46.3465 27.284C46.4865 27.1533 46.5565 26.9947 46.5565 26.808V20.424C46.5565 20.2467 46.5939 20.1207 46.6685 20.046C46.7525 19.962 46.8832 19.92 47.0605 19.92H49.1885C49.3659 19.92 49.4919 19.962 49.5665 20.046C49.6505 20.1207 49.6925 20.2467 49.6925 20.424V27.354ZM56.3158 30H54.0478C53.8705 30 53.7398 29.9627 53.6558 29.888C53.5812 29.804 53.5438 29.6733 53.5438 29.496V22.622H51.4858C51.3085 22.622 51.1778 22.5847 51.0938 22.51C51.0192 22.426 50.9818 22.2953 50.9818 22.118V20.424C50.9818 20.2467 51.0192 20.1207 51.0938 20.046C51.1778 19.962 51.3085 19.92 51.4858 19.92H58.8778C59.0552 19.92 59.1812 19.962 59.2558 20.046C59.3398 20.1207 59.3818 20.2467 59.3818 20.424V22.118C59.3818 22.2953 59.3398 22.426 59.2558 22.51C59.1812 22.5847 59.0552 22.622 58.8778 22.622H56.8198V29.496C56.8198 29.6733 56.7778 29.804 56.6938 29.888C56.6192 29.9627 56.4932 30 56.3158 30ZM65.5033 30H63.2353C63.058 30 62.9273 29.9627 62.8433 29.888C62.7687 29.804 62.7313 29.6733 62.7313 29.496V22.622H60.6733C60.496 22.622 60.3653 22.5847 60.2813 22.51C60.2067 22.426 60.1693 22.2953 60.1693 22.118V20.424C60.1693 20.2467 60.2067 20.1207 60.2813 20.046C60.3653 19.962 60.496 19.92 60.6733 19.92H68.0653C68.2427 19.92 68.3687 19.962 68.4433 20.046C68.5273 20.1207 68.5693 20.2467 68.5693 20.424V22.118C68.5693 22.2953 68.5273 22.426 68.4433 22.51C68.3687 22.5847 68.2427 22.622 68.0653 22.622H66.0073V29.496C66.0073 29.6733 65.9653 29.804 65.8813 29.888C65.8067 29.9627 65.6807 30 65.5033 30ZM78.4025 27.354C78.4025 27.7833 78.3372 28.1753 78.2065 28.53C78.0852 28.8753 77.8612 29.174 77.5345 29.426C77.2172 29.6687 76.7738 29.86 76.2045 30C75.6445 30.14 74.9305 30.21 74.0625 30.21C73.1945 30.21 72.4758 30.14 71.9065 30C71.3372 29.86 70.8892 29.6687 70.5625 29.426C70.2452 29.174 70.0212 28.8753 69.8905 28.53C69.7692 28.1753 69.7085 27.7833 69.7085 27.354V22.58C69.7085 22.1507 69.7692 21.7633 69.8905 21.418C70.0212 21.0633 70.2452 20.76 70.5625 20.508C70.8892 20.256 71.3372 20.06 71.9065 19.92C72.4758 19.78 73.1945 19.71 74.0625 19.71C74.9305 19.71 75.6445 19.78 76.2045 19.92C76.7738 20.06 77.2172 20.256 77.5345 20.508C77.8612 20.76 78.0852 21.0633 78.2065 21.418C78.3372 21.7633 78.4025 22.1507 78.4025 22.58V27.354ZM72.8865 26.85C72.8865 27.0367 72.9565 27.1953 73.0965 27.326C73.2365 27.4473 73.5585 27.508 74.0625 27.508C74.5665 27.508 74.8885 27.4473 75.0285 27.326C75.1685 27.1953 75.2385 27.0367 75.2385 26.85V23.084C75.2385 22.9067 75.1685 22.7573 75.0285 22.636C74.8885 22.5053 74.5665 22.44 74.0625 22.44C73.5585 22.44 73.2365 22.5053 73.0965 22.636C72.9565 22.7573 72.8865 22.9067 72.8865 23.084V26.85ZM82.7888 30H80.6888C80.5114 30 80.3808 29.9627 80.2968 29.888C80.2221 29.804 80.1848 29.6733 80.1848 29.496V20.424C80.1848 20.2467 80.2221 20.1207 80.2968 20.046C80.3808 19.962 80.5114 19.92 80.6888 19.92H82.1448C82.3221 19.92 82.4714 19.948 82.5928 20.004C82.7234 20.06 82.8494 20.158 82.9708 20.298L85.6868 23.406V20.424C85.6868 20.2467 85.7241 20.1207 85.7988 20.046C85.8828 19.962 86.0134 19.92 86.1908 19.92H88.2908C88.4681 19.92 88.5941 19.962 88.6688 20.046C88.7528 20.1207 88.7948 20.2467 88.7948 20.424V29.496C88.7948 29.6733 88.7528 29.804 88.6688 29.888C88.5941 29.9627 88.4681 30 88.2908 30H86.1908C86.0134 30 85.8828 29.9627 85.7988 29.888C85.7241 29.804 85.6868 29.6733 85.6868 29.496V27.774L83.2928 24.876V29.496C83.2928 29.6733 83.2508 29.804 83.1668 29.888C83.0921 29.9627 82.9661 30 82.7888 30Z" fill="white"/>
</svg>
