<svg width="314" height="75" viewBox="0 0 314 75" fill="none" xmlns="http://www.w3.org/2000/svg">
<rect width="314" height="75" rx="10" fill="#D9D9D9"/>
<path d="M13.066 24V15.404H10.21V14.2H17.252V15.404H14.396V24H13.066ZM19.566 24.14C19.0294 24.14 18.572 24.0327 18.194 23.818C17.816 23.5987 17.5267 23.2673 17.326 22.824C17.13 22.3807 17.032 21.816 17.032 21.13V17.14H18.292V20.78C18.292 21.508 18.4157 22.0633 18.663 22.446C18.915 22.8287 19.3234 23.02 19.888 23.02C20.2754 23.02 20.6347 22.9267 20.966 22.74C21.2974 22.5533 21.526 22.2547 21.652 21.844L21.47 22.53V17.14H22.73V24H21.61L21.358 22.656L21.694 22.88C21.4654 23.3047 21.1854 23.622 20.854 23.832C20.5274 24.0373 20.098 24.14 19.566 24.14ZM24.4438 24V17.14H25.4798L25.6338 18.274C25.9838 17.84 26.3175 17.5203 26.6348 17.315C26.9568 17.105 27.2998 17 27.6638 17C27.7805 17 27.8878 17.014 27.9858 17.042L27.8598 18.428C27.7992 18.414 27.7338 18.4047 27.6638 18.4C27.5985 18.3907 27.5238 18.386 27.4398 18.386C27.0758 18.386 26.7398 18.4677 26.4318 18.631C26.1285 18.7897 25.9138 18.9647 25.7878 19.156V24H24.4438ZM28.8735 24V17.14H29.8535L30.1055 18.456L29.6295 18.232C30.0589 17.77 30.4765 17.4503 30.8825 17.273C31.2885 17.091 31.7155 17 32.1635 17C32.4995 17 32.8215 17.056 33.1295 17.168C33.4422 17.2753 33.7222 17.4667 33.9695 17.742C34.2215 18.0127 34.4222 18.3907 34.5715 18.876L34.2215 18.722C34.4269 18.19 34.7419 17.77 35.1665 17.462C35.5912 17.154 36.1629 17 36.8815 17C37.4555 17 37.9385 17.1073 38.3305 17.322C38.7225 17.532 39.0165 17.8563 39.2125 18.295C39.4132 18.729 39.5135 19.282 39.5135 19.954V24H38.2535V19.968C38.2535 19.324 38.1275 18.855 37.8755 18.561C37.6235 18.267 37.2129 18.12 36.6435 18.12C36.2422 18.12 35.9202 18.183 35.6775 18.309C35.4349 18.4303 35.2505 18.589 35.1245 18.785C35.0032 18.981 34.9215 19.1887 34.8795 19.408C34.8422 19.6273 34.8235 19.8327 34.8235 20.024V24H33.5635V20.22C33.5635 19.66 33.4959 19.2283 33.3605 18.925C33.2252 18.6217 33.0362 18.4117 32.7935 18.295C32.5509 18.1783 32.2709 18.12 31.9535 18.12C31.4915 18.12 31.0785 18.2227 30.7145 18.428C30.3505 18.6287 30.1055 18.9507 29.9795 19.394L30.1335 18.708V24H28.8735ZM42.7469 24.14C42.3222 24.14 41.9512 24.0537 41.6339 23.881C41.3165 23.7083 41.0692 23.4727 40.8919 23.174C40.7192 22.8753 40.6329 22.5347 40.6329 22.152C40.6329 21.7647 40.7169 21.4333 40.8849 21.158C41.0575 20.878 41.2862 20.647 41.5709 20.465C41.8602 20.2783 42.1822 20.1313 42.5369 20.024C42.8915 19.912 43.2579 19.8327 43.6359 19.786C44.0185 19.7347 44.3849 19.7067 44.7349 19.702C44.7349 19.0487 44.6065 18.6217 44.3499 18.421C44.0932 18.2203 43.7222 18.12 43.2369 18.12C42.9802 18.12 42.7049 18.1597 42.4109 18.239C42.1215 18.3183 41.7949 18.484 41.4309 18.736L41.2489 17.714C41.5242 17.504 41.8672 17.3337 42.2779 17.203C42.6885 17.0677 43.1202 17 43.5729 17C44.1515 17 44.6182 17.1027 44.9729 17.308C45.3275 17.5087 45.5865 17.8493 45.7499 18.33C45.9132 18.8107 45.9949 19.464 45.9949 20.29V21.69C45.9949 22.0167 46.0089 22.2873 46.0369 22.502C46.0695 22.712 46.1395 22.8707 46.2469 22.978C46.3589 23.0807 46.5362 23.132 46.7789 23.132H46.9049L46.7089 24.14H46.6109C46.2049 24.14 45.8899 24.1003 45.6659 24.021C45.4465 23.9417 45.2785 23.8273 45.1619 23.678C45.0452 23.5287 44.9402 23.3467 44.8469 23.132C44.5902 23.4307 44.2869 23.6733 43.9369 23.86C43.5869 24.0467 43.1902 24.14 42.7469 24.14ZM42.9849 23.132C43.3209 23.132 43.6452 23.048 43.9579 22.88C44.2752 22.712 44.5342 22.488 44.7349 22.208V20.57C44.0675 20.5933 43.5262 20.6587 43.1109 20.766C42.7002 20.8733 42.3992 21.0343 42.2079 21.249C42.0165 21.4637 41.9209 21.7413 41.9209 22.082C41.9209 22.4507 42.0189 22.719 42.2149 22.887C42.4155 23.0503 42.6722 23.132 42.9849 23.132ZM47.7234 18.624V17.14H49.2354V18.624H47.7234ZM47.7234 24V22.516H49.2354V24H47.7234Z" fill="black"/>
<path d="M13.92 51.196C13.514 51.196 13.108 51.1657 12.702 51.105C12.296 51.0443 11.9203 50.9673 11.575 50.874C11.2297 50.776 10.9427 50.6733 10.714 50.566L10.896 49.152C11.148 49.2733 11.4513 49.3993 11.806 49.53C12.1653 49.6607 12.5527 49.7703 12.968 49.859C13.3833 49.9477 13.8033 49.992 14.228 49.992C14.858 49.992 15.3573 49.8777 15.726 49.649C16.0993 49.4157 16.286 49.054 16.286 48.564C16.286 48.1953 16.1927 47.8943 16.006 47.661C15.8193 47.423 15.537 47.22 15.159 47.052C14.7857 46.884 14.3167 46.716 13.752 46.548C13.2153 46.3893 12.7207 46.2027 12.268 45.988C11.8153 45.7687 11.4513 45.477 11.176 45.113C10.9053 44.7443 10.77 44.2567 10.77 43.65C10.77 43.132 10.903 42.6747 11.169 42.278C11.4397 41.8767 11.834 41.564 12.352 41.34C12.8747 41.116 13.514 41.004 14.27 41.004C14.914 41.004 15.5043 41.074 16.041 41.214C16.5823 41.354 17.028 41.508 17.378 41.676L17.238 43.09C16.706 42.7727 16.1973 42.5463 15.712 42.411C15.2313 42.2757 14.732 42.208 14.214 42.208C13.64 42.208 13.164 42.3153 12.786 42.53C12.4127 42.7447 12.226 43.0947 12.226 43.58C12.226 43.9067 12.31 44.175 12.478 44.385C12.646 44.5903 12.8957 44.7677 13.227 44.917C13.5583 45.0617 13.9713 45.2087 14.466 45.358C15.1473 45.5633 15.733 45.799 16.223 46.065C16.713 46.3263 17.0887 46.6507 17.35 47.038C17.6113 47.4207 17.742 47.8967 17.742 48.466C17.742 48.886 17.6627 49.264 17.504 49.6C17.3453 49.936 17.1073 50.223 16.79 50.461C16.4727 50.699 16.0737 50.881 15.593 51.007C15.117 51.133 14.5593 51.196 13.92 51.196ZM22.3198 51.14C21.5124 51.14 20.8334 50.9743 20.2828 50.643C19.7321 50.3117 19.3144 49.873 19.0298 49.327C18.7498 48.7763 18.6098 48.172 18.6098 47.514C18.6098 46.8747 18.7404 46.289 19.0018 45.757C19.2678 45.225 19.6504 44.8003 20.1498 44.483C20.6538 44.161 21.2604 44 21.9698 44C22.5391 44 23.0454 44.1143 23.4888 44.343C23.9368 44.567 24.2868 44.896 24.5388 45.33C24.7954 45.7593 24.9238 46.282 24.9238 46.898C24.9238 46.996 24.9191 47.1033 24.9098 47.22C24.9051 47.332 24.8911 47.4487 24.8678 47.57H19.8978C19.9584 48.2047 20.1101 48.6993 20.3528 49.054C20.5954 49.4087 20.9011 49.6583 21.2698 49.803C21.6384 49.9477 22.0398 50.02 22.4738 50.02C22.7911 50.02 23.1224 49.9873 23.4678 49.922C23.8131 49.8567 24.1398 49.754 24.4478 49.614L24.6158 50.608C24.3498 50.7247 24.0254 50.8437 23.6428 50.965C23.2601 51.0817 22.8191 51.14 22.3198 51.14ZM20.0098 46.702H23.6218C23.6218 46.38 23.5611 46.1 23.4398 45.862C23.3184 45.624 23.1341 45.442 22.8868 45.316C22.6394 45.1853 22.3244 45.12 21.9418 45.12C21.3818 45.12 20.9501 45.26 20.6468 45.54C20.3481 45.8153 20.1358 46.2027 20.0098 46.702ZM27.9578 51.14C27.5145 51.14 27.1622 51.0607 26.9008 50.902C26.6442 50.7387 26.4598 50.531 26.3478 50.279C26.2358 50.027 26.1798 49.7633 26.1798 49.488V40.5H27.4398V48.76C27.4398 49.152 27.4655 49.446 27.5168 49.642C27.5682 49.838 27.6708 49.9687 27.8248 50.034C27.9835 50.0993 28.2238 50.132 28.5458 50.132L28.3638 51.14H27.9578ZM32.7241 51.14C31.9167 51.14 31.2377 50.9743 30.6871 50.643C30.1364 50.3117 29.7187 49.873 29.4341 49.327C29.1541 48.7763 29.0141 48.172 29.0141 47.514C29.0141 46.8747 29.1447 46.289 29.4061 45.757C29.6721 45.225 30.0547 44.8003 30.5541 44.483C31.0581 44.161 31.6647 44 32.3741 44C32.9434 44 33.4497 44.1143 33.8931 44.343C34.3411 44.567 34.6911 44.896 34.9431 45.33C35.1997 45.7593 35.3281 46.282 35.3281 46.898C35.3281 46.996 35.3234 47.1033 35.3141 47.22C35.3094 47.332 35.2954 47.4487 35.2721 47.57H30.3021C30.3627 48.2047 30.5144 48.6993 30.7571 49.054C30.9997 49.4087 31.3054 49.6583 31.6741 49.803C32.0427 49.9477 32.4441 50.02 32.8781 50.02C33.1954 50.02 33.5267 49.9873 33.8721 49.922C34.2174 49.8567 34.5441 49.754 34.8521 49.614L35.0201 50.608C34.7541 50.7247 34.4297 50.8437 34.0471 50.965C33.6644 51.0817 33.2234 51.14 32.7241 51.14ZM30.4141 46.702H34.0261C34.0261 46.38 33.9654 46.1 33.8441 45.862C33.7227 45.624 33.5384 45.442 33.2911 45.316C33.0437 45.1853 32.7287 45.12 32.3461 45.12C31.7861 45.12 31.3544 45.26 31.0511 45.54C30.7524 45.8153 30.5401 46.2027 30.4141 46.702ZM39.7481 51.14C38.9735 51.14 38.3225 50.9837 37.7951 50.671C37.2725 50.3537 36.8758 49.929 36.6051 49.397C36.3391 48.8603 36.2061 48.2653 36.2061 47.612C36.2061 46.9307 36.3345 46.317 36.5911 45.771C36.8525 45.225 37.2515 44.7933 37.7881 44.476C38.3248 44.1587 39.0108 44 39.8461 44C40.2055 44 40.5438 44.0373 40.8611 44.112C41.1831 44.182 41.4701 44.28 41.7221 44.406L41.5261 45.512C41.2695 45.3907 40.9965 45.295 40.7071 45.225C40.4225 45.155 40.1261 45.12 39.8181 45.12C39.0621 45.12 38.4858 45.3347 38.0891 45.764C37.6925 46.1933 37.4941 46.7907 37.4941 47.556C37.4941 48.3027 37.6831 48.9023 38.0611 49.355C38.4391 49.8077 39.0155 50.034 39.7901 50.034C40.1075 50.034 40.4108 49.9967 40.7001 49.922C40.9941 49.8473 41.2741 49.7447 41.5401 49.614L41.7081 50.622C41.5215 50.7527 41.2485 50.8717 40.8891 50.979C40.5298 51.0863 40.1495 51.14 39.7481 51.14ZM42.9556 51V44.14H44.2156V51H42.9556ZM42.9556 42.6V41.2H44.2156V42.6H42.9556ZM48.9184 51.14C48.1997 51.14 47.586 50.9813 47.0774 50.664C46.5734 50.342 46.186 49.9127 45.9154 49.376C45.6494 48.8347 45.5164 48.2327 45.5164 47.57C45.5164 46.9073 45.6494 46.3077 45.9154 45.771C46.186 45.2297 46.5734 44.8003 47.0774 44.483C47.586 44.161 48.1997 44 48.9184 44C49.6324 44 50.2437 44.161 50.7524 44.483C51.261 44.8003 51.6484 45.2297 51.9144 45.771C52.185 46.3077 52.3204 46.9073 52.3204 47.57C52.3204 48.2327 52.185 48.8347 51.9144 49.376C51.6484 49.9127 51.261 50.342 50.7524 50.664C50.2437 50.9813 49.6324 51.14 48.9184 51.14ZM48.9184 50.02C49.5997 50.02 50.1224 49.8053 50.4864 49.376C50.8504 48.942 51.0324 48.34 51.0324 47.57C51.0324 46.8 50.8504 46.2003 50.4864 45.771C50.1224 45.337 49.5997 45.12 48.9184 45.12C48.2417 45.12 47.719 45.337 47.3504 45.771C46.9864 46.2003 46.8044 46.8 46.8044 47.57C46.8044 48.34 46.9864 48.942 47.3504 49.376C47.719 49.8053 48.2417 50.02 48.9184 50.02ZM53.6196 51V44.14H54.5996L54.8516 45.456L54.3616 45.246C54.8236 44.7327 55.274 44.3967 55.7126 44.238C56.156 44.0793 56.5876 44 57.0076 44C58.011 44 58.7273 44.2893 59.1566 44.868C59.5906 45.4467 59.8076 46.2307 59.8076 47.22V51H58.5476V47.22C58.5476 46.492 58.4123 45.96 58.1416 45.624C57.871 45.288 57.409 45.12 56.7556 45.12C56.2936 45.12 55.869 45.2227 55.4816 45.428C55.099 45.6287 54.847 45.9507 54.7256 46.394L54.8796 45.624V51H53.6196ZM64.7299 51.14C63.9226 51.14 63.2436 50.9743 62.6929 50.643C62.1423 50.3117 61.7246 49.873 61.4399 49.327C61.1599 48.7763 61.0199 48.172 61.0199 47.514C61.0199 46.8747 61.1506 46.289 61.4119 45.757C61.6779 45.225 62.0606 44.8003 62.5599 44.483C63.0639 44.161 63.6706 44 64.3799 44C64.9493 44 65.4556 44.1143 65.8989 44.343C66.3469 44.567 66.6969 44.896 66.9489 45.33C67.2056 45.7593 67.3339 46.282 67.3339 46.898C67.3339 46.996 67.3293 47.1033 67.3199 47.22C67.3153 47.332 67.3013 47.4487 67.2779 47.57H62.3079C62.3686 48.2047 62.5203 48.6993 62.7629 49.054C63.0056 49.4087 63.3113 49.6583 63.6799 49.803C64.0486 49.9477 64.4499 50.02 64.8839 50.02C65.2013 50.02 65.5326 49.9873 65.8779 49.922C66.2233 49.8567 66.5499 49.754 66.8579 49.614L67.0259 50.608C66.7599 50.7247 66.4356 50.8437 66.0529 50.965C65.6703 51.0817 65.2293 51.14 64.7299 51.14ZM62.4199 46.702H66.0319C66.0319 46.38 65.9713 46.1 65.8499 45.862C65.7286 45.624 65.5443 45.442 65.2969 45.316C65.0496 45.1853 64.7346 45.12 64.3519 45.12C63.7919 45.12 63.3603 45.26 63.0569 45.54C62.7583 45.8153 62.5459 46.2027 62.4199 46.702ZM74.2125 51.14C73.6759 51.14 73.2185 51.0327 72.8405 50.818C72.4625 50.5987 72.1732 50.2673 71.9725 49.824C71.7765 49.3807 71.6785 48.816 71.6785 48.13V44.14H72.9385V47.78C72.9385 48.508 73.0622 49.0633 73.3095 49.446C73.5615 49.8287 73.9699 50.02 74.5345 50.02C74.9219 50.02 75.2812 49.9267 75.6125 49.74C75.9439 49.5533 76.1725 49.2547 76.2985 48.844L76.1165 49.53V44.14H77.3765V51H76.2565L76.0045 49.656L76.3405 49.88C76.1119 50.3047 75.8319 50.622 75.5005 50.832C75.1739 51.0373 74.7445 51.14 74.2125 51.14ZM79.0903 51V44.14H80.0703L80.3223 45.456L79.8463 45.232C80.2757 44.77 80.6933 44.4503 81.0993 44.273C81.5053 44.091 81.9323 44 82.3803 44C82.7163 44 83.0383 44.056 83.3463 44.168C83.659 44.2753 83.939 44.4667 84.1863 44.742C84.4383 45.0127 84.639 45.3907 84.7883 45.876L84.4383 45.722C84.6437 45.19 84.9587 44.77 85.3833 44.462C85.808 44.154 86.3797 44 87.0983 44C87.6723 44 88.1553 44.1073 88.5473 44.322C88.9393 44.532 89.2333 44.8563 89.4293 45.295C89.63 45.729 89.7303 46.282 89.7303 46.954V51H88.4703V46.968C88.4703 46.324 88.3443 45.855 88.0923 45.561C87.8403 45.267 87.4297 45.12 86.8603 45.12C86.459 45.12 86.137 45.183 85.8943 45.309C85.6517 45.4303 85.4673 45.589 85.3413 45.785C85.22 45.981 85.1383 46.1887 85.0963 46.408C85.059 46.6273 85.0403 46.8327 85.0403 47.024V51H83.7803V47.22C83.7803 46.66 83.7127 46.2283 83.5773 45.925C83.442 45.6217 83.253 45.4117 83.0103 45.295C82.7677 45.1783 82.4877 45.12 82.1703 45.12C81.7083 45.12 81.2953 45.2227 80.9313 45.428C80.5673 45.6287 80.3223 45.9507 80.1963 46.394L80.3503 45.708V51H79.0903ZM92.9637 51.14C92.539 51.14 92.168 51.0537 91.8507 50.881C91.5333 50.7083 91.286 50.4727 91.1087 50.174C90.936 49.8753 90.8497 49.5347 90.8497 49.152C90.8497 48.7647 90.9337 48.4333 91.1017 48.158C91.2743 47.878 91.503 47.647 91.7877 47.465C92.077 47.2783 92.399 47.1313 92.7537 47.024C93.1083 46.912 93.4747 46.8327 93.8527 46.786C94.2353 46.7347 94.6017 46.7067 94.9517 46.702C94.9517 46.0487 94.8233 45.6217 94.5667 45.421C94.31 45.2203 93.939 45.12 93.4537 45.12C93.197 45.12 92.9217 45.1597 92.6277 45.239C92.3383 45.3183 92.0117 45.484 91.6477 45.736L91.4657 44.714C91.741 44.504 92.084 44.3337 92.4947 44.203C92.9053 44.0677 93.337 44 93.7897 44C94.3683 44 94.835 44.1027 95.1897 44.308C95.5443 44.5087 95.8033 44.8493 95.9667 45.33C96.13 45.8107 96.2117 46.464 96.2117 47.29V48.69C96.2117 49.0167 96.2257 49.2873 96.2537 49.502C96.2863 49.712 96.3563 49.8707 96.4637 49.978C96.5757 50.0807 96.753 50.132 96.9957 50.132H97.1217L96.9257 51.14H96.8277C96.4217 51.14 96.1067 51.1003 95.8827 51.021C95.6633 50.9417 95.4953 50.8273 95.3787 50.678C95.262 50.5287 95.157 50.3467 95.0637 50.132C94.807 50.4307 94.5037 50.6733 94.1537 50.86C93.8037 51.0467 93.407 51.14 92.9637 51.14ZM93.2017 50.132C93.5377 50.132 93.862 50.048 94.1747 49.88C94.492 49.712 94.751 49.488 94.9517 49.208V47.57C94.2843 47.5933 93.743 47.6587 93.3277 47.766C92.917 47.8733 92.616 48.0343 92.4247 48.249C92.2333 48.4637 92.1377 48.7413 92.1377 49.082C92.1377 49.4507 92.2357 49.719 92.4317 49.887C92.6323 50.0503 92.889 50.132 93.2017 50.132ZM103.605 51.14C103.171 51.14 102.823 51.0607 102.562 50.902C102.3 50.7433 102.109 50.5403 101.988 50.293C101.871 50.041 101.813 49.7773 101.813 49.502V45.12H100.637L100.749 44.14H101.813V42.446L103.073 42.32V44.14H104.879V45.12H103.073V48.732C103.073 49.1707 103.098 49.488 103.15 49.684C103.201 49.88 103.327 50.0037 103.528 50.055C103.733 50.1063 104.062 50.132 104.515 50.132H104.837L104.739 51.14H103.605ZM108.42 51.14C107.883 51.14 107.426 51.0327 107.048 50.818C106.67 50.5987 106.38 50.2673 106.18 49.824C105.984 49.3807 105.886 48.816 105.886 48.13V44.14H107.146V47.78C107.146 48.508 107.269 49.0633 107.517 49.446C107.769 49.8287 108.177 50.02 108.742 50.02C109.129 50.02 109.488 49.9267 109.82 49.74C110.151 49.5533 110.38 49.2547 110.506 48.844L110.324 49.53V44.14H111.584V51H110.464L110.212 49.656L110.548 49.88C110.319 50.3047 110.039 50.622 109.708 50.832C109.381 51.0373 108.952 51.14 108.42 51.14ZM113.297 51V44.14H114.333L114.487 45.274C114.837 44.84 115.171 44.5203 115.488 44.315C115.81 44.105 116.153 44 116.517 44C116.634 44 116.741 44.014 116.839 44.042L116.713 45.428C116.653 45.414 116.587 45.4047 116.517 45.4C116.452 45.3907 116.377 45.386 116.293 45.386C115.929 45.386 115.593 45.4677 115.285 45.631C114.982 45.7897 114.767 45.9647 114.641 46.156V51H113.297ZM117.727 51V44.14H118.707L118.959 45.456L118.483 45.232C118.912 44.77 119.33 44.4503 119.736 44.273C120.142 44.091 120.569 44 121.017 44C121.353 44 121.675 44.056 121.983 44.168C122.296 44.2753 122.576 44.4667 122.823 44.742C123.075 45.0127 123.276 45.3907 123.425 45.876L123.075 45.722C123.28 45.19 123.595 44.77 124.02 44.462C124.445 44.154 125.016 44 125.735 44C126.309 44 126.792 44.1073 127.184 44.322C127.576 44.532 127.87 44.8563 128.066 45.295C128.267 45.729 128.367 46.282 128.367 46.954V51H127.107V46.968C127.107 46.324 126.981 45.855 126.729 45.561C126.477 45.267 126.066 45.12 125.497 45.12C125.096 45.12 124.774 45.183 124.531 45.309C124.288 45.4303 124.104 45.589 123.978 45.785C123.857 45.981 123.775 46.1887 123.733 46.408C123.696 46.6273 123.677 46.8327 123.677 47.024V51H122.417V47.22C122.417 46.66 122.349 46.2283 122.214 45.925C122.079 45.6217 121.89 45.4117 121.647 45.295C121.404 45.1783 121.124 45.12 120.807 45.12C120.345 45.12 119.932 45.2227 119.568 45.428C119.204 45.6287 118.959 45.9507 118.833 46.394L118.987 45.708V51H117.727ZM131.6 51.14C131.176 51.14 130.805 51.0537 130.487 50.881C130.17 50.7083 129.923 50.4727 129.745 50.174C129.573 49.8753 129.486 49.5347 129.486 49.152C129.486 48.7647 129.57 48.4333 129.738 48.158C129.911 47.878 130.14 47.647 130.424 47.465C130.714 47.2783 131.036 47.1313 131.39 47.024C131.745 46.912 132.111 46.8327 132.489 46.786C132.872 46.7347 133.238 46.7067 133.588 46.702C133.588 46.0487 133.46 45.6217 133.203 45.421C132.947 45.2203 132.576 45.12 132.09 45.12C131.834 45.12 131.558 45.1597 131.264 45.239C130.975 45.3183 130.648 45.484 130.284 45.736L130.102 44.714C130.378 44.504 130.721 44.3337 131.131 44.203C131.542 44.0677 131.974 44 132.426 44C133.005 44 133.472 44.1027 133.826 44.308C134.181 44.5087 134.44 44.8493 134.603 45.33C134.767 45.8107 134.848 46.464 134.848 47.29V48.69C134.848 49.0167 134.862 49.2873 134.89 49.502C134.923 49.712 134.993 49.8707 135.1 49.978C135.212 50.0807 135.39 50.132 135.632 50.132H135.758L135.562 51.14H135.464C135.058 51.14 134.743 51.1003 134.519 51.021C134.3 50.9417 134.132 50.8273 134.015 50.678C133.899 50.5287 133.794 50.3467 133.7 50.132C133.444 50.4307 133.14 50.6733 132.79 50.86C132.44 51.0467 132.044 51.14 131.6 51.14ZM131.838 50.132C132.174 50.132 132.499 50.048 132.811 49.88C133.129 49.712 133.388 49.488 133.588 49.208V47.57C132.921 47.5933 132.38 47.6587 131.964 47.766C131.554 47.8733 131.253 48.0343 131.061 48.249C130.87 48.4637 130.774 48.7413 130.774 49.082C130.774 49.4507 130.872 49.719 131.068 49.887C131.269 50.0503 131.526 50.132 131.838 50.132Z" fill="black" fill-opacity="0.5"/>
<path d="M297 49.5L304 41.5H290L297 49.5Z" fill="black"/>
<line x1="10" y1="64.25" x2="304" y2="64.25" stroke="black" stroke-opacity="0.6" stroke-width="0.5"/>
</svg>
