<svg width="144" height="106" viewBox="0 0 144 106" fill="none" xmlns="http://www.w3.org/2000/svg">
<rect width="144" height="106" rx="10" fill="#D9D9D9"/>
<path d="M11.12 24V14.2H12.562L17.392 21.536V14.2H18.736V24H17.602L12.45 16.258V24H11.12ZM23.025 24.14C22.4884 24.14 22.031 24.0327 21.653 23.818C21.275 23.5987 20.9857 23.2673 20.785 22.824C20.589 22.3807 20.491 21.816 20.491 21.13V17.14H21.751V20.78C21.751 21.508 21.8747 22.0633 22.122 22.446C22.374 22.8287 22.7824 23.02 23.347 23.02C23.7344 23.02 24.0937 22.9267 24.425 22.74C24.7564 22.5533 24.985 22.2547 25.111 21.844L24.929 22.53V17.14H26.189V24H25.069L24.817 22.656L25.153 22.88C24.9244 23.3047 24.6444 23.622 24.313 23.832C23.9864 24.0373 23.557 24.14 23.025 24.14ZM27.9028 24V17.14H28.8828L29.1348 18.456L28.6588 18.232C29.0882 17.77 29.5058 17.4503 29.9118 17.273C30.3178 17.091 30.7448 17 31.1928 17C31.5288 17 31.8508 17.056 32.1588 17.168C32.4715 17.2753 32.7515 17.4667 32.9988 17.742C33.2508 18.0127 33.4515 18.3907 33.6008 18.876L33.2508 18.722C33.4562 18.19 33.7712 17.77 34.1958 17.462C34.6205 17.154 35.1922 17 35.9108 17C36.4848 17 36.9678 17.1073 37.3598 17.322C37.7518 17.532 38.0458 17.8563 38.2418 18.295C38.4425 18.729 38.5428 19.282 38.5428 19.954V24H37.2828V19.968C37.2828 19.324 37.1568 18.855 36.9048 18.561C36.6528 18.267 36.2422 18.12 35.6728 18.12C35.2715 18.12 34.9495 18.183 34.7068 18.309C34.4642 18.4303 34.2798 18.589 34.1538 18.785C34.0325 18.981 33.9508 19.1887 33.9088 19.408C33.8715 19.6273 33.8528 19.8327 33.8528 20.024V24H32.5928V20.22C32.5928 19.66 32.5252 19.2283 32.3898 18.925C32.2545 18.6217 32.0655 18.4117 31.8228 18.295C31.5802 18.1783 31.3002 18.12 30.9828 18.12C30.5208 18.12 30.1078 18.2227 29.7438 18.428C29.3798 18.6287 29.1348 18.9507 29.0088 19.394L29.1628 18.708V24H27.9028ZM43.4702 24.14C42.6628 24.14 41.9838 23.9743 41.4332 23.643C40.8825 23.3117 40.4648 22.873 40.1802 22.327C39.9002 21.7763 39.7602 21.172 39.7602 20.514C39.7602 19.8747 39.8908 19.289 40.1522 18.757C40.4182 18.225 40.8008 17.8003 41.3002 17.483C41.8042 17.161 42.4108 17 43.1202 17C43.6895 17 44.1958 17.1143 44.6392 17.343C45.0872 17.567 45.4372 17.896 45.6892 18.33C45.9458 18.7593 46.0742 19.282 46.0742 19.898C46.0742 19.996 46.0695 20.1033 46.0602 20.22C46.0555 20.332 46.0415 20.4487 46.0182 20.57H41.0482C41.1088 21.2047 41.2605 21.6993 41.5032 22.054C41.7458 22.4087 42.0515 22.6583 42.4202 22.803C42.7888 22.9477 43.1902 23.02 43.6242 23.02C43.9415 23.02 44.2728 22.9873 44.6182 22.922C44.9635 22.8567 45.2902 22.754 45.5982 22.614L45.7662 23.608C45.5002 23.7247 45.1758 23.8437 44.7932 23.965C44.4105 24.0817 43.9695 24.14 43.4702 24.14ZM41.1602 19.702H44.7722C44.7722 19.38 44.7115 19.1 44.5902 18.862C44.4688 18.624 44.2845 18.442 44.0372 18.316C43.7898 18.1853 43.4748 18.12 43.0922 18.12C42.5322 18.12 42.1005 18.26 41.7972 18.54C41.4985 18.8153 41.2862 19.2027 41.1602 19.702ZM47.3442 24V17.14H48.3802L48.5342 18.274C48.8842 17.84 49.2179 17.5203 49.5352 17.315C49.8572 17.105 50.2002 17 50.5642 17C50.6809 17 50.7882 17.014 50.8862 17.042L50.7602 18.428C50.6996 18.414 50.6342 18.4047 50.5642 18.4C50.4989 18.3907 50.4242 18.386 50.3402 18.386C49.9762 18.386 49.6402 18.4677 49.3322 18.631C49.0289 18.7897 48.8142 18.9647 48.6882 19.156V24H47.3442ZM54.5922 24.14C53.8735 24.14 53.2599 23.9813 52.7512 23.664C52.2472 23.342 51.8599 22.9127 51.5892 22.376C51.3232 21.8347 51.1902 21.2327 51.1902 20.57C51.1902 19.9073 51.3232 19.3077 51.5892 18.771C51.8599 18.2297 52.2472 17.8003 52.7512 17.483C53.2599 17.161 53.8735 17 54.5922 17C55.3062 17 55.9175 17.161 56.4262 17.483C56.9349 17.8003 57.3222 18.2297 57.5882 18.771C57.8589 19.3077 57.9942 19.9073 57.9942 20.57C57.9942 21.2327 57.8589 21.8347 57.5882 22.376C57.3222 22.9127 56.9349 23.342 56.4262 23.664C55.9175 23.9813 55.3062 24.14 54.5922 24.14ZM54.5922 23.02C55.2735 23.02 55.7962 22.8053 56.1602 22.376C56.5242 21.942 56.7062 21.34 56.7062 20.57C56.7062 19.8 56.5242 19.2003 56.1602 18.771C55.7962 18.337 55.2735 18.12 54.5922 18.12C53.9155 18.12 53.3929 18.337 53.0242 18.771C52.6602 19.2003 52.4782 19.8 52.4782 20.57C52.4782 21.34 52.6602 21.942 53.0242 22.376C53.3929 22.8053 53.9155 23.02 54.5922 23.02ZM65.154 24.14C64.5707 24.14 64.0433 23.9813 63.572 23.664C63.1007 23.3467 62.725 22.9197 62.445 22.383C62.1697 21.8463 62.032 21.2467 62.032 20.584C62.032 19.954 62.158 19.366 62.41 18.82C62.6667 18.274 63.0283 17.8353 63.495 17.504C63.9617 17.168 64.5147 17 65.154 17C65.6113 17 66.0523 17.1003 66.477 17.301C66.9063 17.497 67.254 17.826 67.52 18.288L67.254 18.47V13.5H68.514V24H67.394L67.156 22.544L67.478 22.768C67.2773 23.2207 66.9623 23.5637 66.533 23.797C66.1037 24.0257 65.644 24.14 65.154 24.14ZM65.378 23.02C65.6953 23.02 66.008 22.9383 66.316 22.775C66.6287 22.6117 66.8853 22.3527 67.086 21.998C67.2913 21.6387 67.394 21.1673 67.394 20.584C67.394 20.0427 67.2913 19.59 67.086 19.226C66.8853 18.8573 66.6287 18.582 66.316 18.4C66.008 18.2133 65.6953 18.12 65.378 18.12C64.9487 18.12 64.58 18.2273 64.272 18.442C63.964 18.6567 63.7283 18.9507 63.565 19.324C63.4017 19.6927 63.32 20.1127 63.32 20.584C63.32 21.0273 63.4017 21.4333 63.565 21.802C63.7283 22.1707 63.964 22.467 64.272 22.691C64.58 22.9103 64.9487 23.02 65.378 23.02ZM73.4936 24.14C72.6863 24.14 72.0073 23.9743 71.4566 23.643C70.9059 23.3117 70.4883 22.873 70.2036 22.327C69.9236 21.7763 69.7836 21.172 69.7836 20.514C69.7836 19.8747 69.9143 19.289 70.1756 18.757C70.4416 18.225 70.8243 17.8003 71.3236 17.483C71.8276 17.161 72.4343 17 73.1436 17C73.7129 17 74.2193 17.1143 74.6626 17.343C75.1106 17.567 75.4606 17.896 75.7126 18.33C75.9693 18.7593 76.0976 19.282 76.0976 19.898C76.0976 19.996 76.0929 20.1033 76.0836 20.22C76.0789 20.332 76.0649 20.4487 76.0416 20.57H71.0716C71.1323 21.2047 71.2839 21.6993 71.5266 22.054C71.7693 22.4087 72.0749 22.6583 72.4436 22.803C72.8123 22.9477 73.2136 23.02 73.6476 23.02C73.9649 23.02 74.2963 22.9873 74.6416 22.922C74.9869 22.8567 75.3136 22.754 75.6216 22.614L75.7896 23.608C75.5236 23.7247 75.1993 23.8437 74.8166 23.965C74.4339 24.0817 73.9929 24.14 73.4936 24.14ZM71.1836 19.702H74.7956C74.7956 19.38 74.7349 19.1 74.6136 18.862C74.4923 18.624 74.3079 18.442 74.0606 18.316C73.8133 18.1853 73.4983 18.12 73.1156 18.12C72.5556 18.12 72.1239 18.26 71.8206 18.54C71.5219 18.8153 71.3096 19.2027 71.1836 19.702ZM80.3302 24L81.6462 14.2H82.7802L85.3562 19.058L87.9042 14.2H89.0522L90.3542 24H88.9542L87.9602 16.006L88.3102 16.062L85.3702 21.676L82.3742 16.062L82.7242 16.006L81.7302 24H80.3302ZM93.3875 24.14C92.9628 24.14 92.5918 24.0537 92.2745 23.881C91.9572 23.7083 91.7098 23.4727 91.5325 23.174C91.3598 22.8753 91.2735 22.5347 91.2735 22.152C91.2735 21.7647 91.3575 21.4333 91.5255 21.158C91.6982 20.878 91.9268 20.647 92.2115 20.465C92.5008 20.2783 92.8228 20.1313 93.1775 20.024C93.5322 19.912 93.8985 19.8327 94.2765 19.786C94.6592 19.7347 95.0255 19.7067 95.3755 19.702C95.3755 19.0487 95.2472 18.6217 94.9905 18.421C94.7338 18.2203 94.3628 18.12 93.8775 18.12C93.6208 18.12 93.3455 18.1597 93.0515 18.239C92.7622 18.3183 92.4355 18.484 92.0715 18.736L91.8895 17.714C92.1648 17.504 92.5078 17.3337 92.9185 17.203C93.3292 17.0677 93.7608 17 94.2135 17C94.7922 17 95.2588 17.1027 95.6135 17.308C95.9682 17.5087 96.2272 17.8493 96.3905 18.33C96.5538 18.8107 96.6355 19.464 96.6355 20.29V21.69C96.6355 22.0167 96.6495 22.2873 96.6775 22.502C96.7102 22.712 96.7802 22.8707 96.8875 22.978C96.9995 23.0807 97.1768 23.132 97.4195 23.132H97.5455L97.3495 24.14H97.2515C96.8455 24.14 96.5305 24.1003 96.3065 24.021C96.0872 23.9417 95.9192 23.8273 95.8025 23.678C95.6858 23.5287 95.5808 23.3467 95.4875 23.132C95.2308 23.4307 94.9275 23.6733 94.5775 23.86C94.2275 24.0467 93.8308 24.14 93.3875 24.14ZM93.6255 23.132C93.9615 23.132 94.2858 23.048 94.5985 22.88C94.9158 22.712 95.1748 22.488 95.3755 22.208V20.57C94.7082 20.5933 94.1668 20.6587 93.7515 20.766C93.3408 20.8733 93.0398 21.0343 92.8485 21.249C92.6572 21.4637 92.5615 21.7413 92.5615 22.082C92.5615 22.4507 92.6595 22.719 92.8555 22.887C93.0562 23.0503 93.3128 23.132 93.6255 23.132ZM100.747 24.14C100.313 24.14 99.9657 24.0607 99.7043 23.902C99.443 23.7433 99.2517 23.5403 99.1303 23.293C99.0137 23.041 98.9553 22.7773 98.9553 22.502V18.12H97.7793L97.8913 17.14H98.9553V15.446L100.215 15.32V17.14H102.021V18.12H100.215V21.732C100.215 22.1707 100.241 22.488 100.292 22.684C100.344 22.88 100.47 23.0037 100.67 23.055C100.876 23.1063 101.205 23.132 101.657 23.132H101.979L101.881 24.14H100.747ZM103.098 24V17.14H104.134L104.288 18.274C104.638 17.84 104.972 17.5203 105.289 17.315C105.611 17.105 105.954 17 106.318 17C106.435 17 106.542 17.014 106.64 17.042L106.514 18.428C106.453 18.414 106.388 18.4047 106.318 18.4C106.253 18.3907 106.178 18.386 106.094 18.386C105.73 18.386 105.394 18.4677 105.086 18.631C104.783 18.7897 104.568 18.9647 104.442 19.156V24H103.098ZM107.528 24V17.14H108.788V24H107.528ZM107.528 15.6V14.2H108.788V15.6H107.528ZM113.645 24.14C112.87 24.14 112.219 23.9837 111.692 23.671C111.169 23.3537 110.772 22.929 110.502 22.397C110.236 21.8603 110.103 21.2653 110.103 20.612C110.103 19.9307 110.231 19.317 110.488 18.771C110.749 18.225 111.148 17.7933 111.685 17.476C112.221 17.1587 112.907 17 113.743 17C114.102 17 114.44 17.0373 114.758 17.112C115.08 17.182 115.367 17.28 115.619 17.406L115.423 18.512C115.166 18.3907 114.893 18.295 114.604 18.225C114.319 18.155 114.023 18.12 113.715 18.12C112.959 18.12 112.382 18.3347 111.986 18.764C111.589 19.1933 111.391 19.7907 111.391 20.556C111.391 21.3027 111.58 21.9023 111.958 22.355C112.336 22.8077 112.912 23.034 113.687 23.034C114.004 23.034 114.307 22.9967 114.597 22.922C114.891 22.8473 115.171 22.7447 115.437 22.614L115.605 23.622C115.418 23.7527 115.145 23.8717 114.786 23.979C114.426 24.0863 114.046 24.14 113.645 24.14ZM119.316 24.14C118.779 24.14 118.322 24.0327 117.944 23.818C117.566 23.5987 117.277 23.2673 117.076 22.824C116.88 22.3807 116.782 21.816 116.782 21.13V17.14H118.042V20.78C118.042 21.508 118.166 22.0633 118.413 22.446C118.665 22.8287 119.073 23.02 119.638 23.02C120.025 23.02 120.385 22.9267 120.716 22.74C121.047 22.5533 121.276 22.2547 121.402 21.844L121.22 22.53V17.14H122.48V24H121.36L121.108 22.656L121.444 22.88C121.215 23.3047 120.935 23.622 120.604 23.832C120.277 24.0373 119.848 24.14 119.316 24.14ZM125.958 24.14C125.515 24.14 125.162 24.0607 124.901 23.902C124.644 23.7387 124.46 23.531 124.348 23.279C124.236 23.027 124.18 22.7633 124.18 22.488V13.5H125.44V21.76C125.44 22.152 125.466 22.446 125.517 22.642C125.568 22.838 125.671 22.9687 125.825 23.034C125.984 23.0993 126.224 23.132 126.546 23.132L126.364 24.14H125.958ZM129.098 24.14C128.674 24.14 128.303 24.0537 127.985 23.881C127.668 23.7083 127.421 23.4727 127.243 23.174C127.071 22.8753 126.984 22.5347 126.984 22.152C126.984 21.7647 127.068 21.4333 127.236 21.158C127.409 20.878 127.638 20.647 127.922 20.465C128.212 20.2783 128.534 20.1313 128.888 20.024C129.243 19.912 129.609 19.8327 129.987 19.786C130.37 19.7347 130.736 19.7067 131.086 19.702C131.086 19.0487 130.958 18.6217 130.701 18.421C130.445 18.2203 130.074 18.12 129.588 18.12C129.332 18.12 129.056 18.1597 128.762 18.239C128.473 18.3183 128.146 18.484 127.782 18.736L127.6 17.714C127.876 17.504 128.219 17.3337 128.629 17.203C129.04 17.0677 129.472 17 129.924 17C130.503 17 130.97 17.1027 131.324 17.308C131.679 17.5087 131.938 17.8493 132.101 18.33C132.265 18.8107 132.346 19.464 132.346 20.29V21.69C132.346 22.0167 132.36 22.2873 132.388 22.502C132.421 22.712 132.491 22.8707 132.598 22.978C132.71 23.0807 132.888 23.132 133.13 23.132H133.256L133.06 24.14H132.962C132.556 24.14 132.241 24.1003 132.017 24.021C131.798 23.9417 131.63 23.8273 131.513 23.678C131.397 23.5287 131.292 23.3467 131.198 23.132C130.942 23.4307 130.638 23.6733 130.288 23.86C129.938 24.0467 129.542 24.14 129.098 24.14ZM129.336 23.132C129.672 23.132 129.997 23.048 130.309 22.88C130.627 22.712 130.886 22.488 131.086 22.208V20.57C130.419 20.5933 129.878 20.6587 129.462 20.766C129.052 20.8733 128.751 21.0343 128.559 21.249C128.368 21.4637 128.272 21.7413 128.272 22.082C128.272 22.4507 128.37 22.719 128.566 22.887C128.767 23.0503 129.024 23.132 129.336 23.132Z" fill="black"/>
<path d="M45.672 67.5L46.988 57.7H48.122L50.698 62.558L53.246 57.7H54.394L55.696 67.5H54.296L53.302 59.506L53.652 59.562L50.712 65.176L47.716 59.562L48.066 59.506L47.072 67.5H45.672ZM58.7293 67.64C58.3046 67.64 57.9336 67.5537 57.6163 67.381C57.299 67.2083 57.0516 66.9727 56.8743 66.674C56.7016 66.3753 56.6153 66.0347 56.6153 65.652C56.6153 65.2647 56.6993 64.9333 56.8673 64.658C57.04 64.378 57.2686 64.147 57.5533 63.965C57.8426 63.7783 58.1646 63.6313 58.5193 63.524C58.874 63.412 59.2403 63.3327 59.6183 63.286C60.001 63.2347 60.3673 63.2067 60.7173 63.202C60.7173 62.5487 60.589 62.1217 60.3323 61.921C60.0756 61.7203 59.7046 61.62 59.2193 61.62C58.9626 61.62 58.6873 61.6597 58.3933 61.739C58.104 61.8183 57.7773 61.984 57.4133 62.236L57.2313 61.214C57.5066 61.004 57.8496 60.8337 58.2603 60.703C58.671 60.5677 59.1026 60.5 59.5553 60.5C60.134 60.5 60.6006 60.6027 60.9553 60.808C61.31 61.0087 61.569 61.3493 61.7323 61.83C61.8956 62.3107 61.9773 62.964 61.9773 63.79V65.19C61.9773 65.5167 61.9913 65.7873 62.0193 66.002C62.052 66.212 62.122 66.3707 62.2293 66.478C62.3413 66.5807 62.5186 66.632 62.7613 66.632H62.8873L62.6913 67.64H62.5933C62.1873 67.64 61.8723 67.6003 61.6483 67.521C61.429 67.4417 61.261 67.3273 61.1443 67.178C61.0276 67.0287 60.9226 66.8467 60.8293 66.632C60.5726 66.9307 60.2693 67.1733 59.9193 67.36C59.5693 67.5467 59.1726 67.64 58.7293 67.64ZM58.9673 66.632C59.3033 66.632 59.6276 66.548 59.9403 66.38C60.2576 66.212 60.5166 65.988 60.7173 65.708V64.07C60.05 64.0933 59.5086 64.1587 59.0933 64.266C58.6826 64.3733 58.3816 64.5343 58.1903 64.749C57.999 64.9637 57.9033 65.2413 57.9033 65.582C57.9033 65.9507 58.0013 66.219 58.1973 66.387C58.398 66.5503 58.6546 66.632 58.9673 66.632ZM66.0891 67.64C65.6551 67.64 65.3075 67.5607 65.0461 67.402C64.7848 67.2433 64.5935 67.0403 64.4721 66.793C64.3555 66.541 64.2971 66.2773 64.2971 66.002V61.62H63.1211L63.2331 60.64H64.2971V58.946L65.5571 58.82V60.64H67.3631V61.62H65.5571V65.232C65.5571 65.6707 65.5828 65.988 65.6341 66.184C65.6855 66.38 65.8115 66.5037 66.0121 66.555C66.2175 66.6063 66.5465 66.632 66.9991 66.632H67.3211L67.2231 67.64H66.0891ZM68.4399 67.5V60.64H69.4759L69.6299 61.774C69.9799 61.34 70.3136 61.0203 70.6309 60.815C70.9529 60.605 71.2959 60.5 71.6599 60.5C71.7766 60.5 71.8839 60.514 71.9819 60.542L71.8559 61.928C71.7953 61.914 71.7299 61.9047 71.6599 61.9C71.5946 61.8907 71.5199 61.886 71.4359 61.886C71.0719 61.886 70.7359 61.9677 70.4279 62.131C70.1246 62.2897 69.9099 62.4647 69.7839 62.656V67.5H68.4399ZM72.8696 67.5V60.64H74.1296V67.5H72.8696ZM72.1976 59.436V58.582L74.8156 57.042V58.414L72.1976 59.436ZM78.9864 67.64C78.2118 67.64 77.5608 67.4837 77.0334 67.171C76.5108 66.8537 76.1141 66.429 75.8434 65.897C75.5774 65.3603 75.4444 64.7653 75.4444 64.112C75.4444 63.4307 75.5728 62.817 75.8294 62.271C76.0908 61.725 76.4898 61.2933 77.0264 60.976C77.5631 60.6587 78.2491 60.5 79.0844 60.5C79.4438 60.5 79.7821 60.5373 80.0994 60.612C80.4214 60.682 80.7084 60.78 80.9604 60.906L80.7644 62.012C80.5078 61.8907 80.2348 61.795 79.9454 61.725C79.6608 61.655 79.3644 61.62 79.0564 61.62C78.3004 61.62 77.7241 61.8347 77.3274 62.264C76.9308 62.6933 76.7324 63.2907 76.7324 64.056C76.7324 64.8027 76.9214 65.4023 77.2994 65.855C77.6774 66.3077 78.2538 66.534 79.0284 66.534C79.3458 66.534 79.6491 66.4967 79.9384 66.422C80.2324 66.3473 80.5124 66.2447 80.7784 66.114L80.9464 67.122C80.7598 67.2527 80.4868 67.3717 80.1274 67.479C79.7681 67.5863 79.3878 67.64 78.9864 67.64ZM84.6578 67.64C84.1212 67.64 83.6638 67.5327 83.2858 67.318C82.9078 67.0987 82.6185 66.7673 82.4178 66.324C82.2218 65.8807 82.1238 65.316 82.1238 64.63V60.64H83.3838V64.28C83.3838 65.008 83.5075 65.5633 83.7548 65.946C84.0068 66.3287 84.4152 66.52 84.9798 66.52C85.3672 66.52 85.7265 66.4267 86.0578 66.24C86.3892 66.0533 86.6178 65.7547 86.7438 65.344L86.5618 66.03V60.64H87.8218V67.5H86.7018L86.4498 66.156L86.7858 66.38C86.5572 66.8047 86.2772 67.122 85.9458 67.332C85.6192 67.5373 85.1898 67.64 84.6578 67.64ZM91.2996 67.64C90.8563 67.64 90.504 67.5607 90.2426 67.402C89.986 67.2387 89.8016 67.031 89.6896 66.779C89.5776 66.527 89.5216 66.2633 89.5216 65.988V57H90.7816V65.26C90.7816 65.652 90.8073 65.946 90.8586 66.142C90.91 66.338 91.0126 66.4687 91.1666 66.534C91.3253 66.5993 91.5656 66.632 91.8876 66.632L91.7056 67.64H91.2996ZM94.4402 67.64C94.0156 67.64 93.6446 67.5537 93.3272 67.381C93.0099 67.2083 92.7626 66.9727 92.5852 66.674C92.4126 66.3753 92.3262 66.0347 92.3262 65.652C92.3262 65.2647 92.4102 64.9333 92.5782 64.658C92.7509 64.378 92.9796 64.147 93.2642 63.965C93.5536 63.7783 93.8756 63.6313 94.2302 63.524C94.5849 63.412 94.9512 63.3327 95.3292 63.286C95.7119 63.2347 96.0782 63.2067 96.4282 63.202C96.4282 62.5487 96.2999 62.1217 96.0432 61.921C95.7866 61.7203 95.4156 61.62 94.9302 61.62C94.6736 61.62 94.3982 61.6597 94.1042 61.739C93.8149 61.8183 93.4882 61.984 93.1242 62.236L92.9422 61.214C93.2176 61.004 93.5606 60.8337 93.9712 60.703C94.3819 60.5677 94.8136 60.5 95.2662 60.5C95.8449 60.5 96.3116 60.6027 96.6662 60.808C97.0209 61.0087 97.2799 61.3493 97.4432 61.83C97.6066 62.3107 97.6882 62.964 97.6882 63.79V65.19C97.6882 65.5167 97.7022 65.7873 97.7302 66.002C97.7629 66.212 97.8329 66.3707 97.9402 66.478C98.0522 66.5807 98.2296 66.632 98.4722 66.632H98.5982L98.4022 67.64H98.3042C97.8982 67.64 97.5832 67.6003 97.3592 67.521C97.1399 67.4417 96.9719 67.3273 96.8552 67.178C96.7386 67.0287 96.6336 66.8467 96.5402 66.632C96.2836 66.9307 95.9802 67.1733 95.6302 67.36C95.2802 67.5467 94.8836 67.64 94.4402 67.64ZM94.6782 66.632C95.0142 66.632 95.3386 66.548 95.6512 66.38C95.9686 66.212 96.2276 65.988 96.4282 65.708V64.07C95.7609 64.0933 95.2196 64.1587 94.8042 64.266C94.3936 64.3733 94.0926 64.5343 93.9012 64.749C93.7099 64.9637 93.6142 65.2413 93.6142 65.582C93.6142 65.9507 93.7122 66.219 93.9082 66.387C94.1089 66.5503 94.3656 66.632 94.6782 66.632Z" fill="black" fill-opacity="0.5"/>
<rect x="10.25" y="28.25" width="123.5" height="67.5" rx="9.75" stroke="black" stroke-opacity="0.6" stroke-width="0.5"/>
</svg>
