<svg width="1920" height="1080" viewBox="0 0 1920 1080" fill="none" xmlns="http://www.w3.org/2000/svg">
<g clip-path="url(#clip0_41_141)">
<rect width="1920" height="1080" fill="#C8E0FF"/>
<path d="M833.5 834C833.5 1080.87 518.815 1300 225 1300C-68.8155 1300 -307 1099.87 -307 853C-307 606.129 -89.5 174.5 283 280C500.5 316.5 754.5 675.5 833.5 834Z" fill="#FDFEFF"/>
<path d="M1517 1155C1517 1401.87 1278.82 1602 985 1602C691.184 1602 453 1401.87 453 1155C352.5 834 843.184 679 1137 679C1430.82 679 1517 908.129 1517 1155Z" fill="#FDFEFF"/>
<path d="M2318 1126C2318 1372.87 2079.82 1573 1786 1573C1492.18 1573 1143.5 1423.87 1143.5 1177C990 984 1561.68 567 1855.5 567C2149.32 567 2318 879.129 2318 1126Z" fill="#FDFEFF"/>
</g>
<defs>
<clipPath id="clip0_41_141">
<rect width="1920" height="1080" fill="white"/>
</clipPath>
</defs>
</svg>
