<svg width="250" height="91" viewBox="0 0 250 91" fill="none" xmlns="http://www.w3.org/2000/svg">
<rect y="1" width="250" height="90" rx="45" fill="#2D2D2D"/>
<rect x="2" y="1.5" width="246" height="77" rx="38.5" fill="#8870FF"/>
<path d="M63.036 52H55.228C52.5613 52 50.5773 51.4667 49.276 50.4C47.996 49.3333 47.356 47.6907 47.356 45.472V35.52C47.356 33.3013 47.996 31.6587 49.276 30.592C50.5773 29.504 52.5613 28.96 55.228 28.96H63.036C63.4413 28.96 63.7293 29.056 63.9 29.248C64.092 29.4187 64.188 29.7067 64.188 30.112V33.984C64.188 34.3893 64.092 34.688 63.9 34.88C63.7293 35.0507 63.4413 35.136 63.036 35.136H56.604C55.9427 35.136 55.452 35.2747 55.132 35.552C54.812 35.808 54.652 36.2027 54.652 36.736V44.352C54.652 44.8853 54.812 45.28 55.132 45.536C55.452 45.7707 55.9427 45.888 56.604 45.888H63.036C63.4413 45.888 63.7293 45.984 63.9 46.176C64.092 46.3467 64.188 46.6347 64.188 47.04V50.848C64.188 51.2533 64.092 51.552 63.9 51.744C63.7293 51.9147 63.4413 52 63.036 52ZM87.1655 45.952C87.1655 46.9333 87.0162 47.8293 86.7175 48.64C86.4402 49.4293 85.9282 50.112 85.1815 50.688C84.4562 51.2427 83.4428 51.68 82.1415 52C80.8615 52.32 79.2295 52.48 77.2455 52.48C75.2615 52.48 73.6188 52.32 72.3175 52C71.0162 51.68 69.9922 51.2427 69.2455 50.688C68.5202 50.112 68.0082 49.4293 67.7095 48.64C67.4322 47.8293 67.2935 46.9333 67.2935 45.952V35.04C67.2935 34.0587 67.4322 33.1733 67.7095 32.384C68.0082 31.5733 68.5202 30.88 69.2455 30.304C69.9922 29.728 71.0162 29.28 72.3175 28.96C73.6188 28.64 75.2615 28.48 77.2455 28.48C79.2295 28.48 80.8615 28.64 82.1415 28.96C83.4428 29.28 84.4562 29.728 85.1815 30.304C85.9282 30.88 86.4402 31.5733 86.7175 32.384C87.0162 33.1733 87.1655 34.0587 87.1655 35.04V45.952ZM74.5575 44.8C74.5575 45.2267 74.7175 45.5893 75.0375 45.888C75.3575 46.1653 76.0935 46.304 77.2455 46.304C78.3975 46.304 79.1335 46.1653 79.4535 45.888C79.7735 45.5893 79.9335 45.2267 79.9335 44.8V36.192C79.9335 35.7867 79.7735 35.4453 79.4535 35.168C79.1335 34.8693 78.3975 34.72 77.2455 34.72C76.0935 34.72 75.3575 34.8693 75.0375 35.168C74.7175 35.4453 74.5575 35.7867 74.5575 36.192V44.8ZM97.1593 52H92.3913C91.9859 52 91.6873 51.9147 91.4953 51.744C91.3246 51.552 91.2393 51.2533 91.2393 50.848V30.112C91.2393 29.7067 91.3246 29.4187 91.4953 29.248C91.6873 29.056 91.9859 28.96 92.3913 28.96H97.5433C97.8846 28.96 98.1619 29.0347 98.3753 29.184C98.6099 29.3333 98.8233 29.5787 99.0153 29.92L101.895 35.136C102.002 35.328 102.087 35.4667 102.151 35.552C102.237 35.6373 102.343 35.68 102.471 35.68H102.759C102.887 35.68 102.983 35.6373 103.047 35.552C103.133 35.4667 103.229 35.328 103.335 35.136L106.183 29.92C106.375 29.5787 106.578 29.3333 106.791 29.184C107.026 29.0347 107.314 28.96 107.655 28.96H112.839C113.245 28.96 113.533 29.056 113.703 29.248C113.895 29.4187 113.991 29.7067 113.991 30.112V50.848C113.991 51.2533 113.895 51.552 113.703 51.744C113.533 51.9147 113.245 52 112.839 52H107.911C107.506 52 107.207 51.9147 107.015 51.744C106.845 51.552 106.759 51.2533 106.759 50.848V39.584L104.871 43.072C104.679 43.4347 104.445 43.7013 104.167 43.872C103.911 44.0213 103.581 44.096 103.175 44.096H101.895C101.49 44.096 101.149 44.0213 100.871 43.872C100.615 43.7013 100.391 43.4347 100.199 43.072L98.3113 39.584V50.848C98.3113 51.2533 98.2153 51.552 98.0233 51.744C97.8526 51.9147 97.5646 52 97.1593 52ZM134.396 52H119.548C119.142 52 118.844 51.9147 118.652 51.744C118.481 51.552 118.396 51.2533 118.396 50.848V30.112C118.396 29.7067 118.481 29.4187 118.652 29.248C118.844 29.056 119.142 28.96 119.548 28.96H134.396C134.801 28.96 135.089 29.056 135.26 29.248C135.452 29.4187 135.548 29.7067 135.548 30.112V33.856C135.548 34.2613 135.452 34.56 135.26 34.752C135.089 34.9227 134.801 35.008 134.396 35.008H125.564V37.472H131.804C132.209 37.472 132.497 37.568 132.668 37.76C132.86 37.9307 132.956 38.2187 132.956 38.624V42.048C132.956 42.4533 132.86 42.752 132.668 42.944C132.497 43.1147 132.209 43.2 131.804 43.2H125.564V45.952H134.396C134.801 45.952 135.089 46.048 135.26 46.24C135.452 46.4107 135.548 46.6987 135.548 47.104V50.848C135.548 51.2533 135.452 51.552 135.26 51.744C135.089 51.9147 134.801 52 134.396 52ZM154.505 52H146.697C144.03 52 142.046 51.4667 140.745 50.4C139.465 49.3333 138.825 47.6907 138.825 45.472V35.52C138.825 33.3013 139.465 31.6587 140.745 30.592C142.046 29.504 144.03 28.96 146.697 28.96H154.505C154.91 28.96 155.198 29.056 155.369 29.248C155.561 29.4187 155.657 29.7067 155.657 30.112V33.984C155.657 34.3893 155.561 34.688 155.369 34.88C155.198 35.0507 154.91 35.136 154.505 35.136H148.073C147.411 35.136 146.921 35.2747 146.601 35.552C146.281 35.808 146.121 36.2027 146.121 36.736V44.352C146.121 44.8853 146.281 45.28 146.601 45.536C146.921 45.7707 147.411 45.888 148.073 45.888H154.505C154.91 45.888 155.198 45.984 155.369 46.176C155.561 46.3467 155.657 46.6347 155.657 47.04V50.848C155.657 51.2533 155.561 51.552 155.369 51.744C155.198 51.9147 154.91 52 154.505 52ZM149.417 56.032H145.385C144.851 56.032 144.521 55.9147 144.393 55.68C144.265 55.4453 144.275 55.136 144.425 54.752L147.145 47.392C147.273 47.0507 147.443 46.8267 147.657 46.72C147.87 46.592 148.169 46.6027 148.553 46.752L152.265 48.128C152.606 48.256 152.819 48.4267 152.905 48.64C153.011 48.8533 153.011 49.1093 152.905 49.408L150.889 55.072C150.782 55.4133 150.611 55.6587 150.377 55.808C150.142 55.9573 149.822 56.032 149.417 56.032ZM167.623 35.68L166.119 40.544H171.143L169.639 35.68C169.553 35.488 169.457 35.3493 169.351 35.264C169.265 35.1787 169.159 35.136 169.031 35.136H168.231C168.103 35.136 167.985 35.1787 167.879 35.264C167.793 35.3493 167.708 35.488 167.623 35.68ZM165.799 50.848C165.799 51.2533 165.703 51.552 165.51 51.744C165.34 51.9147 165.052 52 164.647 52H159.943C159.537 52 159.239 51.9147 159.047 51.744C158.876 51.552 158.791 51.2533 158.791 50.848V42.4C158.791 41.76 158.887 41.024 159.079 40.192C159.292 39.36 159.612 38.3893 160.039 37.28L162.823 30.016C162.951 29.6533 163.143 29.3867 163.399 29.216C163.676 29.0453 164.028 28.96 164.455 28.96H173.062C173.468 28.96 173.799 29.0453 174.055 29.216C174.332 29.3867 174.535 29.6533 174.663 30.016L177.447 37.28C177.873 38.3893 178.183 39.36 178.375 40.192C178.588 41.024 178.695 41.76 178.695 42.4V50.848C178.695 51.2533 178.599 51.552 178.407 51.744C178.236 51.9147 177.948 52 177.543 52H172.711C172.284 52 171.964 51.9147 171.751 51.744C171.559 51.552 171.463 51.2533 171.463 50.848V46.368H165.799V50.848ZM189.878 34.72V38.816H192.278C192.832 38.816 193.206 38.6773 193.398 38.4C193.59 38.1013 193.686 37.7387 193.686 37.312V36.224C193.686 35.7973 193.59 35.4453 193.398 35.168C193.206 34.8693 192.832 34.72 192.278 34.72H189.878ZM188.726 52H183.798C183.392 52 183.094 51.9147 182.902 51.744C182.731 51.552 182.646 51.2533 182.646 50.848V30.112C182.646 29.7067 182.731 29.4187 182.902 29.248C183.094 29.056 183.392 28.96 183.798 28.96H194.454C196.843 28.96 198.486 29.4613 199.382 30.464C200.299 31.4453 200.758 32.7253 200.758 34.304V35.776C200.758 36.672 200.619 37.44 200.342 38.08C200.086 38.6987 199.627 39.1467 198.966 39.424C200.118 39.552 201.046 40.0213 201.75 40.832C202.475 41.6427 202.838 42.72 202.838 44.064V50.848C202.838 51.2533 202.742 51.552 202.55 51.744C202.379 51.9147 202.091 52 201.686 52H196.726C196.32 52 196.022 51.9147 195.83 51.744C195.659 51.552 195.574 51.2533 195.574 50.848V45.952C195.574 45.4827 195.478 45.1413 195.286 44.928C195.115 44.6933 194.806 44.576 194.358 44.576H189.878V50.848C189.878 51.2533 189.782 51.552 189.59 51.744C189.419 51.9147 189.131 52 188.726 52Z" fill="white"/>
<rect x="2" y="1.5" width="246" height="77" rx="38.5" stroke="#2D2D2D" stroke-width="3"/>
</svg>
