<svg width="250" height="91" viewBox="0 0 250 91" fill="none" xmlns="http://www.w3.org/2000/svg">
<rect y="1" width="250" height="90" rx="45" fill="#2D2D2D"/>
<rect x="2" y="1.5" width="246" height="77" rx="38.5" fill="#AAB69B"/>
<path d="M29.452 50H24.916C24.5613 50 24.3 49.9253 24.132 49.776C23.9827 49.608 23.908 49.3467 23.908 48.992V35.244H19.792C19.4373 35.244 19.176 35.1693 19.008 35.02C18.8587 34.852 18.784 34.5907 18.784 34.236V30.848C18.784 30.4933 18.8587 30.2413 19.008 30.092C19.176 29.924 19.4373 29.84 19.792 29.84H34.576C34.9307 29.84 35.1827 29.924 35.332 30.092C35.5 30.2413 35.584 30.4933 35.584 30.848V34.236C35.584 34.5907 35.5 34.852 35.332 35.02C35.1827 35.1693 34.9307 35.244 34.576 35.244H30.46V48.992C30.46 49.3467 30.376 49.608 30.208 49.776C30.0587 49.9253 29.8067 50 29.452 50ZM52.307 50H39.315C38.9603 50 38.699 49.9253 38.531 49.776C38.3817 49.608 38.307 49.3467 38.307 48.992V30.848C38.307 30.4933 38.3817 30.2413 38.531 30.092C38.699 29.924 38.9603 29.84 39.315 29.84H52.307C52.6617 29.84 52.9137 29.924 53.063 30.092C53.231 30.2413 53.315 30.4933 53.315 30.848V34.124C53.315 34.4787 53.231 34.74 53.063 34.908C52.9137 35.0573 52.6617 35.132 52.307 35.132H44.579V37.288H50.039C50.3937 37.288 50.6457 37.372 50.795 37.54C50.963 37.6893 51.047 37.9413 51.047 38.296V41.292C51.047 41.6467 50.963 41.908 50.795 42.076C50.6457 42.2253 50.3937 42.3 50.039 42.3H44.579V44.708H52.307C52.6617 44.708 52.9137 44.792 53.063 44.96C53.231 45.1093 53.315 45.3613 53.315 45.716V48.992C53.315 49.3467 53.231 49.608 53.063 49.776C52.9137 49.9253 52.6617 50 52.307 50ZM71.8873 50H57.6353C57.2806 50 57.0193 49.9253 56.8513 49.776C56.702 49.608 56.6273 49.3467 56.6273 48.992V30.848C56.6273 30.4933 56.702 30.2413 56.8513 30.092C57.0193 29.924 57.2806 29.84 57.6353 29.84H61.9753C62.33 29.84 62.582 29.924 62.7313 30.092C62.8993 30.2413 62.9833 30.4933 62.9833 30.848V44.708H66.8193V40.172C66.8193 39.8173 66.894 39.5653 67.0433 39.416C67.2113 39.248 67.4726 39.164 67.8273 39.164H71.8873C72.242 39.164 72.494 39.248 72.6433 39.416C72.8113 39.5653 72.8953 39.8173 72.8953 40.172V48.992C72.8953 49.3467 72.8113 49.608 72.6433 49.776C72.494 49.9253 72.242 50 71.8873 50ZM83.4041 35.72L82.0881 39.976H86.4841L85.1681 35.72C85.0934 35.552 85.0094 35.4307 84.9161 35.356C84.8414 35.2813 84.7481 35.244 84.6361 35.244H83.9361C83.8241 35.244 83.7214 35.2813 83.6281 35.356C83.5534 35.4307 83.4787 35.552 83.4041 35.72ZM81.8081 48.992C81.8081 49.3467 81.7241 49.608 81.5561 49.776C81.4067 49.9253 81.1547 50 80.8001 50H76.6841C76.3294 50 76.0681 49.9253 75.9001 49.776C75.7507 49.608 75.6761 49.3467 75.6761 48.992V41.6C75.6761 41.04 75.7601 40.396 75.9281 39.668C76.1147 38.94 76.3947 38.0907 76.7681 37.12L79.2041 30.764C79.3161 30.4467 79.4841 30.2133 79.7081 30.064C79.9507 29.9147 80.2587 29.84 80.6321 29.84H88.1641C88.5187 29.84 88.8081 29.9147 89.0321 30.064C89.2747 30.2133 89.4521 30.4467 89.5641 30.764L92.0001 37.12C92.3734 38.0907 92.6441 38.94 92.8121 39.668C92.9987 40.396 93.0921 41.04 93.0921 41.6V48.992C93.0921 49.3467 93.0081 49.608 92.8401 49.776C92.6907 49.9253 92.4387 50 92.0841 50H87.8561C87.4827 50 87.2027 49.9253 87.0161 49.776C86.8481 49.608 86.7641 49.3467 86.7641 48.992V45.072H81.8081V48.992ZM104.383 50C104.028 50 103.767 49.9253 103.599 49.776C103.449 49.608 103.375 49.3467 103.375 48.992V45.66C103.375 45.3053 103.449 45.0533 103.599 44.904C103.767 44.736 104.028 44.652 104.383 44.652H107.155V35.244H104.383C104.028 35.244 103.767 35.1693 103.599 35.02C103.449 34.852 103.375 34.5907 103.375 34.236V30.848C103.375 30.4933 103.449 30.2413 103.599 30.092C103.767 29.924 104.028 29.84 104.383 29.84H116.311C116.665 29.84 116.917 29.924 117.067 30.092C117.235 30.2413 117.319 30.4933 117.319 30.848V34.236C117.319 34.5907 117.235 34.852 117.067 35.02C116.917 35.1693 116.665 35.244 116.311 35.244H113.595V44.652H116.311C116.665 44.652 116.917 44.736 117.067 44.904C117.235 45.0533 117.319 45.3053 117.319 45.66V48.992C117.319 49.3467 117.235 49.608 117.067 49.776C116.917 49.9253 116.665 50 116.311 50H104.383ZM125.984 50H121.784C121.429 50 121.168 49.9253 121 49.776C120.85 49.608 120.776 49.3467 120.776 48.992V30.848C120.776 30.4933 120.85 30.2413 121 30.092C121.168 29.924 121.429 29.84 121.784 29.84H124.696C125.05 29.84 125.349 29.896 125.592 30.008C125.853 30.12 126.105 30.316 126.348 30.596L131.78 36.812V30.848C131.78 30.4933 131.854 30.2413 132.004 30.092C132.172 29.924 132.433 29.84 132.788 29.84H136.988C137.342 29.84 137.594 29.924 137.744 30.092C137.912 30.2413 137.996 30.4933 137.996 30.848V48.992C137.996 49.3467 137.912 49.608 137.744 49.776C137.594 49.9253 137.342 50 136.988 50H132.788C132.433 50 132.172 49.9253 132.004 49.776C131.854 49.608 131.78 49.3467 131.78 48.992V45.548L126.992 39.752V48.992C126.992 49.3467 126.908 49.608 126.74 49.776C126.59 49.9253 126.338 50 125.984 50ZM142.418 50C142.063 50 141.802 49.9253 141.634 49.776C141.484 49.608 141.41 49.3467 141.41 48.992V45.66C141.41 45.3053 141.484 45.0533 141.634 44.904C141.802 44.736 142.063 44.652 142.418 44.652H145.19V35.244H142.418C142.063 35.244 141.802 35.1693 141.634 35.02C141.484 34.852 141.41 34.5907 141.41 34.236V30.848C141.41 30.4933 141.484 30.2413 141.634 30.092C141.802 29.924 142.063 29.84 142.418 29.84H154.346C154.7 29.84 154.952 29.924 155.102 30.092C155.27 30.2413 155.354 30.4933 155.354 30.848V34.236C155.354 34.5907 155.27 34.852 155.102 35.02C154.952 35.1693 154.7 35.244 154.346 35.244H151.63V44.652H154.346C154.7 44.652 154.952 44.736 155.102 44.904C155.27 45.0533 155.354 45.3053 155.354 45.66V48.992C155.354 49.3467 155.27 49.608 155.102 49.776C154.952 49.9253 154.7 50 154.346 50H142.418ZM172.223 50H165.391C163.058 50 161.322 49.5333 160.183 48.6C159.063 47.6667 158.503 46.2293 158.503 44.288V35.58C158.503 33.6387 159.063 32.2013 160.183 31.268C161.322 30.316 163.058 29.84 165.391 29.84H172.223C172.578 29.84 172.83 29.924 172.979 30.092C173.147 30.2413 173.231 30.4933 173.231 30.848V34.236C173.231 34.5907 173.147 34.852 172.979 35.02C172.83 35.1693 172.578 35.244 172.223 35.244H166.595C166.016 35.244 165.587 35.3653 165.307 35.608C165.027 35.832 164.887 36.1773 164.887 36.644V43.308C164.887 43.7747 165.027 44.12 165.307 44.344C165.587 44.5493 166.016 44.652 166.595 44.652H172.223C172.578 44.652 172.83 44.736 172.979 44.904C173.147 45.0533 173.231 45.3053 173.231 45.66V48.992C173.231 49.3467 173.147 49.608 172.979 49.776C172.83 49.9253 172.578 50 172.223 50ZM176.953 50C176.598 50 176.337 49.9253 176.169 49.776C176.02 49.608 175.945 49.3467 175.945 48.992V45.66C175.945 45.3053 176.02 45.0533 176.169 44.904C176.337 44.736 176.598 44.652 176.953 44.652H179.725V35.244H176.953C176.598 35.244 176.337 35.1693 176.169 35.02C176.02 34.852 175.945 34.5907 175.945 34.236V30.848C175.945 30.4933 176.02 30.2413 176.169 30.092C176.337 29.924 176.598 29.84 176.953 29.84H188.881C189.236 29.84 189.488 29.924 189.637 30.092C189.805 30.2413 189.889 30.4933 189.889 30.848V34.236C189.889 34.5907 189.805 34.852 189.637 35.02C189.488 35.1693 189.236 35.244 188.881 35.244H186.165V44.652H188.881C189.236 44.652 189.488 44.736 189.637 44.904C189.805 45.0533 189.889 45.3053 189.889 45.66V48.992C189.889 49.3467 189.805 49.608 189.637 49.776C189.488 49.9253 189.236 50 188.881 50H176.953ZM200.654 35.72L199.338 39.976H203.734L202.418 35.72C202.343 35.552 202.259 35.4307 202.166 35.356C202.091 35.2813 201.998 35.244 201.886 35.244H201.186C201.074 35.244 200.971 35.2813 200.878 35.356C200.803 35.4307 200.729 35.552 200.654 35.72ZM199.058 48.992C199.058 49.3467 198.974 49.608 198.806 49.776C198.657 49.9253 198.405 50 198.05 50H193.934C193.579 50 193.318 49.9253 193.15 49.776C193.001 49.608 192.926 49.3467 192.926 48.992V41.6C192.926 41.04 193.01 40.396 193.178 39.668C193.365 38.94 193.645 38.0907 194.018 37.12L196.454 30.764C196.566 30.4467 196.734 30.2133 196.958 30.064C197.201 29.9147 197.509 29.84 197.882 29.84H205.414C205.769 29.84 206.058 29.9147 206.282 30.064C206.525 30.2133 206.702 30.4467 206.814 30.764L209.25 37.12C209.623 38.0907 209.894 38.94 210.062 39.668C210.249 40.396 210.342 41.04 210.342 41.6V48.992C210.342 49.3467 210.258 49.608 210.09 49.776C209.941 49.9253 209.689 50 209.334 50H205.106C204.733 50 204.453 49.9253 204.266 49.776C204.098 49.608 204.014 49.3467 204.014 48.992V45.072H199.058V48.992ZM229.059 50H214.807C214.453 50 214.191 49.9253 214.023 49.776C213.874 49.608 213.799 49.3467 213.799 48.992V30.848C213.799 30.4933 213.874 30.2413 214.023 30.092C214.191 29.924 214.453 29.84 214.807 29.84H219.147C219.502 29.84 219.754 29.924 219.903 30.092C220.071 30.2413 220.155 30.4933 220.155 30.848V44.708H223.991V40.172C223.991 39.8173 224.066 39.5653 224.215 39.416C224.383 39.248 224.645 39.164 224.999 39.164H229.059C229.414 39.164 229.666 39.248 229.815 39.416C229.983 39.5653 230.067 39.8173 230.067 40.172V48.992C230.067 49.3467 229.983 49.608 229.815 49.776C229.666 49.9253 229.414 50 229.059 50Z" fill="white"/>
<rect x="2" y="1.5" width="246" height="77" rx="38.5" stroke="#2D2D2D" stroke-width="3"/>
</svg>
