<svg width="347" height="79" viewBox="0 0 347 79" fill="none" xmlns="http://www.w3.org/2000/svg">
<path d="M12.5 0.346802L347 6.93835L342.5 72.3046L0 78.3468L12.5 0.346802Z" fill="#8870FF"/>
<path d="M148.8 53.3468H138.4C137.893 53.3468 137.467 53.2535 137.12 53.0668C136.8 52.8801 136.547 52.5335 136.36 52.0268L132.44 42.2268C132.2 41.6401 132 41.1335 131.84 40.7068C131.68 40.2535 131.547 39.8268 131.44 39.4268C131.333 39.0268 131.253 38.6135 131.2 38.1868C131.173 37.7335 131.16 37.1868 131.16 36.5468V25.9868C131.16 25.4801 131.267 25.1201 131.48 24.9068C131.72 24.6668 132.093 24.5468 132.6 24.5468H138.96C139.467 24.5468 139.853 24.6668 140.12 24.9068C140.387 25.1201 140.52 25.4801 140.52 25.9868V37.0268C140.52 37.2935 140.547 37.5601 140.6 37.8268C140.653 38.0935 140.733 38.3735 140.84 38.6668L142.72 44.2668C142.8 44.5335 142.893 44.7201 143 44.8268C143.107 44.9068 143.267 44.9468 143.48 44.9468H143.92C144.133 44.9468 144.293 44.9068 144.4 44.8268C144.507 44.7201 144.6 44.5335 144.68 44.2668L146.56 38.6268C146.667 38.3335 146.747 38.0535 146.8 37.7868C146.853 37.5201 146.88 37.2535 146.88 36.9868V25.9868C146.88 25.4801 146.987 25.1201 147.2 24.9068C147.44 24.6668 147.813 24.5468 148.32 24.5468H154.6C155.107 24.5468 155.467 24.6668 155.68 24.9068C155.92 25.1201 156.04 25.4801 156.04 25.9868V36.5468C156.04 37.1868 156.013 37.7335 155.96 38.1868C155.933 38.6135 155.867 39.0268 155.76 39.4268C155.653 39.8268 155.52 40.2535 155.36 40.7068C155.2 41.1335 155 41.6401 154.76 42.2268L150.84 52.0268C150.653 52.5335 150.387 52.8801 150.04 53.0668C149.72 53.2535 149.307 53.3468 148.8 53.3468ZM185.379 45.7868C185.379 47.0135 185.192 48.1335 184.819 49.1468C184.472 50.1335 183.832 50.9868 182.899 51.7068C181.992 52.4001 180.725 52.9468 179.099 53.3468C177.499 53.7468 175.459 53.9468 172.979 53.9468C170.499 53.9468 168.445 53.7468 166.819 53.3468C165.192 52.9468 163.912 52.4001 162.979 51.7068C162.072 50.9868 161.432 50.1335 161.059 49.1468C160.712 48.1335 160.539 47.0135 160.539 45.7868V32.1468C160.539 30.9201 160.712 29.8135 161.059 28.8268C161.432 27.8135 162.072 26.9468 162.979 26.2268C163.912 25.5068 165.192 24.9468 166.819 24.5468C168.445 24.1468 170.499 23.9468 172.979 23.9468C175.459 23.9468 177.499 24.1468 179.099 24.5468C180.725 24.9468 181.992 25.5068 182.899 26.2268C183.832 26.9468 184.472 27.8135 184.819 28.8268C185.192 29.8135 185.379 30.9201 185.379 32.1468V45.7868ZM169.619 44.3468C169.619 44.8801 169.819 45.3335 170.219 45.7068C170.619 46.0535 171.539 46.2268 172.979 46.2268C174.419 46.2268 175.339 46.0535 175.739 45.7068C176.139 45.3335 176.339 44.8801 176.339 44.3468V33.5868C176.339 33.0801 176.139 32.6535 175.739 32.3068C175.339 31.9335 174.419 31.7468 172.979 31.7468C171.539 31.7468 170.619 31.9335 170.219 32.3068C169.819 32.6535 169.619 33.0801 169.619 33.5868V44.3468ZM212.271 53.3468H191.911C191.404 53.3468 191.031 53.2401 190.791 53.0268C190.578 52.7868 190.471 52.4135 190.471 51.9068V25.9868C190.471 25.4801 190.578 25.1201 190.791 24.9068C191.031 24.6668 191.404 24.5468 191.911 24.5468H198.111C198.618 24.5468 198.978 24.6668 199.191 24.9068C199.431 25.1201 199.551 25.4801 199.551 25.9868V45.7868H205.031V39.3068C205.031 38.8001 205.138 38.4401 205.351 38.2268C205.591 37.9868 205.964 37.8668 206.471 37.8668H212.271C212.778 37.8668 213.138 37.9868 213.351 38.2268C213.591 38.4401 213.711 38.8001 213.711 39.3068V51.9068C213.711 52.4135 213.591 52.7868 213.351 53.0268C213.138 53.2401 212.778 53.3468 212.271 53.3468ZM229.071 53.3468H222.591C222.084 53.3468 221.711 53.2401 221.471 53.0268C221.258 52.7868 221.151 52.4135 221.151 51.9068V32.2668H215.271C214.764 32.2668 214.391 32.1601 214.151 31.9468C213.938 31.7068 213.831 31.3335 213.831 30.8268V25.9868C213.831 25.4801 213.938 25.1201 214.151 24.9068C214.391 24.6668 214.764 24.5468 215.271 24.5468H236.391C236.898 24.5468 237.258 24.6668 237.471 24.9068C237.711 25.1201 237.831 25.4801 237.831 25.9868V30.8268C237.831 31.3335 237.711 31.7068 237.471 31.9468C237.258 32.1601 236.898 32.2668 236.391 32.2668H230.511V51.9068C230.511 52.4135 230.391 52.7868 230.151 53.0268C229.938 53.2401 229.578 53.3468 229.071 53.3468ZM250.559 32.9468L248.679 39.0268H254.959L253.079 32.9468C252.973 32.7068 252.853 32.5335 252.719 32.4268C252.613 32.3201 252.479 32.2668 252.319 32.2668H251.319C251.159 32.2668 251.013 32.3201 250.879 32.4268C250.773 32.5335 250.666 32.7068 250.559 32.9468ZM248.279 51.9068C248.279 52.4135 248.159 52.7868 247.919 53.0268C247.706 53.2401 247.346 53.3468 246.839 53.3468H240.959C240.453 53.3468 240.079 53.2401 239.839 53.0268C239.626 52.7868 239.519 52.4135 239.519 51.9068V41.3468C239.519 40.5468 239.639 39.6268 239.879 38.5868C240.146 37.5468 240.546 36.3335 241.079 34.9468L244.559 25.8668C244.719 25.4135 244.959 25.0801 245.279 24.8668C245.626 24.6535 246.066 24.5468 246.599 24.5468H257.359C257.866 24.5468 258.279 24.6535 258.599 24.8668C258.946 25.0801 259.199 25.4135 259.359 25.8668L262.839 34.9468C263.373 36.3335 263.759 37.5468 263.999 38.5868C264.266 39.6268 264.399 40.5468 264.399 41.3468V51.9068C264.399 52.4135 264.279 52.7868 264.039 53.0268C263.826 53.2401 263.466 53.3468 262.959 53.3468H256.919C256.386 53.3468 255.986 53.2401 255.719 53.0268C255.479 52.7868 255.359 52.4135 255.359 51.9068V46.3068H248.279V51.9068ZM278.378 31.7468V36.8668H281.378C282.071 36.8668 282.538 36.6935 282.778 36.3468C283.018 35.9735 283.138 35.5201 283.138 34.9868V33.6268C283.138 33.0935 283.018 32.6535 282.778 32.3068C282.538 31.9335 282.071 31.7468 281.378 31.7468H278.378ZM276.938 53.3468H270.778C270.271 53.3468 269.898 53.2401 269.658 53.0268C269.445 52.7868 269.338 52.4135 269.338 51.9068V25.9868C269.338 25.4801 269.445 25.1201 269.658 24.9068C269.898 24.6668 270.271 24.5468 270.778 24.5468H284.098C287.085 24.5468 289.138 25.1735 290.258 26.4268C291.405 27.6535 291.978 29.2535 291.978 31.2268V33.0668C291.978 34.1868 291.805 35.1468 291.458 35.9468C291.138 36.7201 290.565 37.2801 289.738 37.6268C291.178 37.7868 292.338 38.3735 293.218 39.3868C294.125 40.4001 294.578 41.7468 294.578 43.4268V51.9068C294.578 52.4135 294.458 52.7868 294.218 53.0268C294.005 53.2401 293.645 53.3468 293.138 53.3468H286.938C286.431 53.3468 286.058 53.2401 285.818 53.0268C285.605 52.7868 285.498 52.4135 285.498 51.9068V45.7868C285.498 45.2001 285.378 44.7735 285.138 44.5068C284.925 44.2135 284.538 44.0668 283.978 44.0668H278.378V51.9068C278.378 52.4135 278.258 52.7868 278.018 53.0268C277.805 53.2401 277.445 53.3468 276.938 53.3468Z" fill="white"/>
<path d="M48.1716 36.5184C46.6095 38.0805 46.6095 40.6131 48.1716 42.1752L73.6274 67.6311C75.1895 69.1932 77.7222 69.1932 79.2843 67.6311C80.8464 66.069 80.8464 63.5363 79.2843 61.9742L56.6569 39.3468L79.2843 16.7194C80.8464 15.1573 80.8464 12.6246 79.2843 11.0625C77.7222 9.50043 75.1895 9.50043 73.6274 11.0625L48.1716 36.5184ZM109 35.3468H51V43.3468H109V35.3468Z" fill="white"/>
</svg>
