<?xml version="1.0" encoding="UTF-8"?>
<!DOCTYPE svg PUBLIC "-//W3C//DTD SVG 1.1//EN" "http://www.w3.org/Graphics/SVG/1.1/DTD/svg11.dtd">
<!-- Creator: CorelDRAW -->
<svg xmlns="http://www.w3.org/2000/svg" xml:space="preserve" width="135mm" height="30mm" version="1.1" style="shape-rendering:geometricPrecision; text-rendering:geometricPrecision; image-rendering:optimizeQuality; fill-rule:evenodd; clip-rule:evenodd"
viewBox="0 0 13500 3000"
 xmlns:xlink="http://www.w3.org/1999/xlink"
 xmlns:xodm="http://www.corel.com/coreldraw/odm/2003">
 <defs>
  <style type="text/css">
   <![CDATA[
    .fil1 {fill:#FEFEFE;fill-rule:nonzero}
    .fil0 {fill:#FDC671;fill-rule:nonzero}
    .fil2 {fill:#FDAD71;fill-rule:nonzero}
   ]]>
  </style>
 </defs>
 <g id="Layer_x0020_1">
  <metadata id="CorelCorpID_0Corel-Layer"/>
  <g>
   <path class="fil0" d="M3604.23 2730.85l-3553.49 0 1332.56 -1019.1 -1332.56 -1019.1 2665.12 0 888.37 2038.2zm0 -509.55l0 509.55 -888.37 -509.55 888.37 0zm7106.99 -1528.65l2665.12 0 -1332.55 1019.1 1332.55 1019.1 -3553.49 0 888.37 -2038.2zm0 1528.65l-888.37 509.55 0 -509.55 888.37 0zm-7995.36 -2038.2l7995.36 0 0 2038.2 -7995.36 0 0 -2038.2z"/>
  </g>
  <path class="fil1" d="M3370.76 900.67l-34.29 0 0 281.74 45.71 0c63.61,0 112.05,-12.18 145.59,-36.77 33.54,-24.6 50.19,-59.88 50.19,-105.84 0,-48.2 -16.4,-83.23 -49.44,-105.59 -33.04,-22.36 -85.71,-33.54 -157.76,-33.54zm-286.21 861.61l0 -1055.4 271.55 0c83.48,0 149.81,5.96 198.75,18.14 48.95,12.17 92.43,32.54 130.44,61.11 39.25,28.57 69.81,64.35 91.43,107.33 21.61,42.98 32.3,88.45 32.3,136.4 0,106.83 -38.02,191.3 -114.04,253.91 -75.78,62.61 -178.88,93.91 -309.07,93.91 -13.42,0 -23.6,0 -30.56,-0.24 -6.71,-0.25 -13.17,-0.75 -18.88,-1.25l0 386.09 -251.92 0zm1009.18 -335.4l277.27 0 -136.9 -330.44 -140.37 330.44zm-395.03 335.4l538.38 -1088.2 15.9 0 526.46 1088.2 -263.6 0 -66.83 -153.54 -428.32 0 -68.33 153.54 -253.66 0zm1445.71 -863.1l-41.49 0 0 292.17 53.16 0c63.61,0 112.05,-12.92 145.59,-38.51 33.54,-25.59 50.19,-62.61 50.19,-110.56 0,-50.43 -16.15,-86.71 -48.7,-109.31 -32.54,-22.61 -85.46,-33.79 -158.75,-33.79zm-285.96 863.1l0 -1055.4 271.3 0c86.96,0 154.28,5.71 202.23,17.14 47.95,11.43 90.19,30.31 127.21,57.14 39.25,28.08 69.81,62.86 91.43,104.35 21.61,41.49 32.3,85.22 32.3,131.18 0,66.59 -16.9,124.72 -50.69,174.66 -33.79,49.94 -82.48,88.94 -146.08,117.27l321.98 453.66 -287.7 0 -281.74 -414.41 -35.77 0 0 414.41 -244.47 0zm1179.37 -335.4l277.27 0 -136.9 -330.44 -140.37 330.44zm-395.03 335.4l538.38 -1088.2 15.9 0 526.46 1088.2 -263.6 0 -66.83 -153.54 -428.32 0 -68.33 153.54 -253.66 0zm1389.31 -190.81l104.84 0c50.19,0 89.94,-12.42 118.76,-37.02 28.82,-24.84 43.23,-58.63 43.23,-101.86 0,-42.23 -14.16,-74.78 -42.23,-97.89 -28.08,-23.1 -68.08,-34.53 -119.76,-34.53l-104.84 0 0 271.3zm0 -447.2l83.73 0c49.44,0 87.95,-10.93 116.02,-32.55 27.83,-21.61 41.74,-52.17 41.74,-91.43 0,-39.5 -13.17,-68.32 -39.75,-86.7 -26.34,-18.64 -67.58,-27.83 -123.98,-27.83l-77.76 0 0 238.51zm-229.56 638.01l0 -1055.4 326.21 0c122.98,0 215.65,22.36 278.5,67.33 62.86,44.97 94.41,111.55 94.41,200 0,53.91 -14.41,99.62 -42.98,137.14 -28.82,37.76 -72.05,66.83 -129.93,87.7 64.34,14.66 114.53,44.47 151.05,89.94 36.52,45.46 54.66,100.87 54.66,166.21 0,101.37 -37.52,177.89 -112.55,229.56 -75.03,51.68 -186.08,77.52 -333.16,77.52l-286.21 0zm913.54 0l0 -1055.4 649.93 0 0 217.64 -405.46 0 0 190.8 347.33 0 0 216.15 -347.33 0 0 208.7 411.42 0 0 222.11 -655.89 0zm219.13 -1173.17l148.57 -251.92 161.49 0 -214.66 251.92 -95.4 0zm628.82 1173.17l0 -1089.69 24.09 0 657.15 615.9 0 -581.61 232.54 0 0 1095.65 -21.86 0 -659.38 -615.9 0 575.65 -232.54 0zm1107.32 -298.14c64.85,39.76 120,67.33 165.47,83.48 45.22,15.9 89.44,23.85 132.67,23.85 43.48,0 78.51,-9.69 105.09,-28.82 26.34,-19.13 39.51,-43.72 39.51,-73.79 0,-42.98 -46.96,-91.67 -141.12,-145.34 -15.16,-8.69 -26.83,-15.65 -35.03,-20.37l-71.31 -40.25c-69.31,-39.25 -120.74,-83.72 -154.03,-133.17 -33.54,-49.44 -50.19,-105.59 -50.19,-168.19 0,-84.97 32.05,-154.54 96.15,-208.95 63.85,-54.41 146.58,-81.49 247.95,-81.49 37.51,0 78.01,4.47 121.49,13.17 43.72,8.7 92.17,22.36 145.59,40.75l0 247.2c-50.93,-31.8 -99.13,-56.4 -144.85,-73.79 -45.71,-17.39 -84.47,-26.09 -116.52,-26.09 -35.53,0 -63.35,7.71 -83.72,22.86 -20.38,15.16 -30.56,36.03 -30.56,62.11 0,18.39 5.96,35.53 18.13,51.43 12.18,16.15 30.31,30.56 54.66,43.73l123.73 68.32c103.6,57.39 173.17,110.31 208.94,158.76 35.78,48.69 53.67,106.08 53.67,172.67 0,102.86 -35.03,186.09 -105.1,249.44 -70.31,63.35 -163.23,94.91 -279.25,94.91 -39.26,0 -81.99,-4.23 -128.2,-12.43 -45.96,-8.2 -96.89,-21.11 -152.05,-38.51l-21.12 -281.49z"/>
  <polygon class="fil2" points="3597.4,2717.42 2716.6,2221.3 3597.4,2221.3 "/>
  <polygon class="fil2" points="9831.79,2716.49 10712.59,2220.37 9831.79,2220.37 "/>
 </g>
</svg>
