<svg width="593" height="112" viewBox="0 0 593 112" fill="none" xmlns="http://www.w3.org/2000/svg">
<path d="M0.635742 38V3H13.5857C16.9691 3 19.9691 3.69166 22.5857 5.075C25.2024 6.45833 27.2524 8.45833 28.7357 11.075C30.2357 13.675 30.9857 16.8167 30.9857 20.5C30.9857 24.1833 30.2357 27.3333 28.7357 29.95C27.2524 32.55 25.2024 34.5417 22.5857 35.925C19.9691 37.3083 16.9691 38 13.5857 38H0.635742ZM5.38574 33.7H13.5857C16.2524 33.7 18.4857 33.15 20.2857 32.05C22.1024 30.9333 23.4691 29.3833 24.3857 27.4C25.3191 25.4167 25.7857 23.1167 25.7857 20.5C25.7857 17.8833 25.3191 15.5833 24.3857 13.6C23.4691 11.6167 22.1024 10.075 20.2857 8.975C18.4857 7.85833 16.2524 7.3 13.5857 7.3H5.38574V33.7ZM47.4709 38.5C44.5876 38.5 42.1626 37.9083 40.1959 36.725C38.2292 35.5417 36.7376 33.975 35.7209 32.025C34.7209 30.0583 34.2209 27.9 34.2209 25.55C34.2209 23.2667 34.6876 21.175 35.6209 19.275C36.5709 17.375 37.9376 15.8583 39.7209 14.725C41.5209 13.575 43.6876 13 46.2209 13C48.2542 13 50.0626 13.4083 51.6459 14.225C53.2459 15.025 54.4959 16.2 55.3959 17.75C56.3126 19.2833 56.7709 21.15 56.7709 23.35C56.7709 23.7 56.7542 24.0833 56.7209 24.5C56.7042 24.9 56.6542 25.3167 56.5709 25.75H38.8209C39.0376 28.0167 39.5792 29.7833 40.4459 31.05C41.3126 32.3167 42.4042 33.2083 43.7209 33.725C45.0376 34.2417 46.4709 34.5 48.0209 34.5C49.1542 34.5 50.3376 34.3833 51.5709 34.15C52.8042 33.9167 53.9709 33.55 55.0709 33.05L55.6709 36.6C54.7209 37.0167 53.5626 37.4417 52.1959 37.875C50.8292 38.2917 49.2542 38.5 47.4709 38.5ZM39.2209 22.65H52.1209C52.1209 21.5 51.9042 20.5 51.4709 19.65C51.0376 18.8 50.3792 18.15 49.4959 17.7C48.6126 17.2333 47.4876 17 46.1209 17C44.1209 17 42.5792 17.5 41.4959 18.5C40.4292 19.4833 39.6709 20.8667 39.2209 22.65ZM68.2568 38.5C66.0902 38.5 64.2902 38.2417 62.8568 37.725C61.4402 37.2083 60.4402 36.75 59.8568 36.35L60.4068 32C60.9402 32.4667 61.8818 33 63.2318 33.6C64.5818 34.2 66.1902 34.5 68.0568 34.5C69.6402 34.5 70.8485 34.2333 71.6818 33.7C72.5318 33.1667 72.9568 32.4167 72.9568 31.45C72.9568 30.6 72.6818 29.9167 72.1318 29.4C71.5985 28.8667 70.9485 28.45 70.1818 28.15C69.4318 27.8333 68.7235 27.5833 68.0568 27.4C66.9402 27.1 65.7818 26.725 64.5818 26.275C63.3985 25.8083 62.3985 25.1167 61.5818 24.2C60.7652 23.2833 60.3568 22 60.3568 20.35C60.3568 19.1 60.6568 17.9167 61.2568 16.8C61.8568 15.6667 62.8318 14.75 64.1818 14.05C65.5318 13.35 67.3235 13 69.5568 13C71.1902 13 72.5152 13.175 73.5318 13.525C74.5652 13.8583 75.4568 14.2167 76.2068 14.6L75.6568 18.7C74.9402 18.1 74.1068 17.5917 73.1568 17.175C72.2068 16.7583 71.0402 16.55 69.6568 16.55C68.2568 16.55 67.1152 16.8167 66.2318 17.35C65.3485 17.8667 64.9068 18.7 64.9068 19.85C64.9068 21 65.3735 21.8167 66.3068 22.3C67.2568 22.7833 68.6902 23.3167 70.6068 23.9C71.2068 24.0667 71.8985 24.3083 72.6818 24.625C73.4818 24.9417 74.2568 25.3667 75.0068 25.9C75.7568 26.4333 76.3735 27.1333 76.8568 28C77.3568 28.85 77.6068 29.9167 77.6068 31.2C77.6068 32.2833 77.3485 33.3917 76.8318 34.525C76.3152 35.6417 75.3818 36.5833 74.0318 37.35C72.6818 38.1167 70.7568 38.5 68.2568 38.5ZM93.26 38.5C90.4933 38.5 88.1683 37.9417 86.285 36.825C84.4183 35.6917 83.0016 34.175 82.035 32.275C81.085 30.3583 80.61 28.2333 80.61 25.9C80.61 23.4667 81.0683 21.275 81.985 19.325C82.9183 17.375 84.3433 15.8333 86.26 14.7C88.1766 13.5667 90.6266 13 93.61 13C94.8933 13 96.1016 13.1333 97.235 13.4C98.385 13.65 99.41 14 100.31 14.45L99.61 18.4C98.6933 17.9667 97.7183 17.625 96.685 17.375C95.6683 17.125 94.61 17 93.51 17C90.81 17 88.7516 17.7667 87.335 19.3C85.9183 20.8333 85.21 22.9667 85.21 25.7C85.21 28.3667 85.885 30.5083 87.235 32.125C88.585 33.7417 90.6433 34.55 93.41 34.55C94.5433 34.55 95.6266 34.4167 96.66 34.15C97.71 33.8833 98.71 33.5167 99.66 33.05L100.26 36.65C99.5933 37.1167 98.6183 37.5417 97.335 37.925C96.0516 38.3083 94.6933 38.5 93.26 38.5ZM104.715 38V13.5H108.415L108.965 17.55C110.215 16 111.407 14.8583 112.54 14.125C113.69 13.375 114.915 13 116.215 13C116.632 13 117.015 13.05 117.365 13.15L116.915 18.1C116.698 18.05 116.465 18.0167 116.215 18C115.982 17.9667 115.715 17.95 115.415 17.95C114.115 17.95 112.915 18.2417 111.815 18.825C110.732 19.3917 109.965 20.0167 109.515 20.7V38H104.715ZM120.535 38V13.5H125.035V38H120.535ZM120.535 8V3H125.035V8H120.535ZM142.381 38.5C139.614 38.5 137.289 37.9417 135.406 36.825C133.539 35.6917 132.123 34.175 131.156 32.275C130.206 30.3583 129.731 28.2333 129.731 25.9C129.731 23.4667 130.189 21.275 131.106 19.325C132.039 17.375 133.464 15.8333 135.381 14.7C137.298 13.5667 139.748 13 142.731 13C144.014 13 145.223 13.1333 146.356 13.4C147.506 13.65 148.531 14 149.431 14.45L148.731 18.4C147.814 17.9667 146.839 17.625 145.806 17.375C144.789 17.125 143.731 17 142.631 17C139.931 17 137.873 17.7667 136.456 19.3C135.039 20.8333 134.331 22.9667 134.331 25.7C134.331 28.3667 135.006 30.5083 136.356 32.125C137.706 33.7417 139.764 34.55 142.531 34.55C143.664 34.55 144.748 34.4167 145.781 34.15C146.831 33.8833 147.831 33.5167 148.781 33.05L149.381 36.65C148.714 37.1167 147.739 37.5417 146.456 37.925C145.173 38.3083 143.814 38.5 142.381 38.5ZM141.481 41.95L139.831 41.2C140.231 41.05 140.623 40.925 141.006 40.825C141.406 40.7417 141.831 40.7 142.281 40.7C143.631 40.7 144.689 41.0583 145.456 41.775C146.239 42.5083 146.631 43.5 146.631 44.75C146.631 46.2167 146.114 47.3417 145.081 48.125C144.064 48.9083 142.814 49.3 141.331 49.3C140.481 49.3 139.731 49.2 139.081 49C138.431 48.8167 137.881 48.6 137.431 48.35L138.181 45.9C138.681 46.1667 139.189 46.375 139.706 46.525C140.223 46.675 140.764 46.75 141.331 46.75C142.064 46.75 142.648 46.5833 143.081 46.25C143.514 45.9333 143.731 45.4667 143.731 44.85C143.731 44.25 143.523 43.7667 143.106 43.4C142.706 43.0333 142.081 42.85 141.231 42.85C140.864 42.85 140.498 42.875 140.131 42.925C139.764 42.9917 139.364 43.1 138.931 43.25L140.231 38H142.731L141.481 41.95ZM159.536 38.5C158.019 38.5 156.694 38.1917 155.561 37.575C154.428 36.9583 153.544 36.1167 152.911 35.05C152.294 33.9833 151.986 32.7667 151.986 31.4C151.986 30.0167 152.286 28.8333 152.886 27.85C153.503 26.85 154.319 26.025 155.336 25.375C156.369 24.7083 157.519 24.1833 158.786 23.8C160.053 23.4 161.361 23.1167 162.711 22.95C164.078 22.7667 165.386 22.6667 166.636 22.65C166.636 20.3167 166.178 18.7917 165.261 18.075C164.344 17.3583 163.019 17 161.286 17C160.369 17 159.386 17.1417 158.336 17.425C157.303 17.7083 156.136 18.3 154.836 19.2L154.186 15.55C155.169 14.8 156.394 14.1917 157.861 13.725C159.328 13.2417 160.869 13 162.486 13C164.553 13 166.219 13.3667 167.486 14.1C168.753 14.8167 169.678 16.0333 170.261 17.75C170.844 19.4667 171.136 21.8 171.136 24.75V29.75C171.136 30.9167 171.186 31.8833 171.286 32.65C171.403 33.4 171.653 33.9667 172.036 34.35C172.436 34.7167 173.069 34.9 173.936 34.9H174.386L173.686 38.5H173.336C171.886 38.5 170.761 38.3583 169.961 38.075C169.178 37.7917 168.578 37.3833 168.161 36.85C167.744 36.3167 167.369 35.6667 167.036 34.9C166.119 35.9667 165.036 36.8333 163.786 37.5C162.536 38.1667 161.119 38.5 159.536 38.5ZM160.386 34.9C161.586 34.9 162.744 34.6 163.861 34C164.994 33.4 165.919 32.6 166.636 31.6V25.75C164.253 25.8333 162.319 26.0667 160.836 26.45C159.369 26.8333 158.294 27.4083 157.611 28.175C156.928 28.9417 156.586 29.9333 156.586 31.15C156.586 32.4667 156.936 33.425 157.636 34.025C158.353 34.6083 159.269 34.9 160.386 34.9ZM166.486 9C165.653 9 164.844 8.80833 164.061 8.425C163.278 8.025 162.519 7.63333 161.786 7.25C161.053 6.85 160.336 6.65 159.636 6.65C158.503 6.65 157.936 7.3 157.936 8.6H154.186C154.269 6.8 154.669 5.425 155.386 4.475C156.103 3.525 157.136 3.05 158.486 3.05C159.319 3.05 160.128 3.25 160.911 3.65C161.694 4.03333 162.453 4.425 163.186 4.825C163.919 5.20833 164.636 5.4 165.336 5.4C166.469 5.4 167.036 4.75 167.036 3.45H170.786C170.719 5.25 170.319 6.625 169.586 7.575C168.869 8.525 167.836 9 166.486 9ZM188.56 38.5C185.993 38.5 183.801 37.9333 181.985 36.8C180.185 35.65 178.801 34.1167 177.835 32.2C176.885 30.2667 176.41 28.1167 176.41 25.75C176.41 23.3833 176.885 21.2417 177.835 19.325C178.801 17.3917 180.185 15.8583 181.985 14.725C183.801 13.575 185.993 13 188.56 13C191.11 13 193.293 13.575 195.11 14.725C196.926 15.8583 198.31 17.3917 199.26 19.325C200.226 21.2417 200.71 23.3833 200.71 25.75C200.71 28.1167 200.226 30.2667 199.26 32.2C198.31 34.1167 196.926 35.65 195.11 36.8C193.293 37.9333 191.11 38.5 188.56 38.5ZM188.56 34.5C190.993 34.5 192.86 33.7333 194.16 32.2C195.46 30.65 196.11 28.5 196.11 25.75C196.11 23 195.46 20.8583 194.16 19.325C192.86 17.775 190.993 17 188.56 17C186.143 17 184.276 17.775 182.96 19.325C181.66 20.8583 181.01 23 181.01 25.75C181.01 28.5 181.66 30.65 182.96 32.2C184.276 33.7333 186.143 34.5 188.56 34.5ZM226.28 38.5C224.197 38.5 222.314 37.9333 220.63 36.8C218.947 35.6667 217.605 34.1417 216.605 32.225C215.622 30.3083 215.13 28.1667 215.13 25.8C215.13 23.55 215.58 21.45 216.48 19.5C217.397 17.55 218.689 15.9833 220.355 14.8C222.022 13.6 223.997 13 226.28 13C227.914 13 229.489 13.3583 231.005 14.075C232.539 14.775 233.78 15.95 234.73 17.6L233.78 18.25V0.499997H238.28V38H234.28L233.43 32.8L234.58 33.6C233.864 35.2167 232.739 36.4417 231.205 37.275C229.672 38.0917 228.03 38.5 226.28 38.5ZM227.08 34.5C228.214 34.5 229.33 34.2083 230.43 33.625C231.547 33.0417 232.464 32.1167 233.18 30.85C233.914 29.5667 234.28 27.8833 234.28 25.8C234.28 23.8667 233.914 22.25 233.18 20.95C232.464 19.6333 231.547 18.65 230.43 18C229.33 17.3333 228.214 17 227.08 17C225.547 17 224.23 17.3833 223.13 18.15C222.03 18.9167 221.189 19.9667 220.605 21.3C220.022 22.6167 219.73 24.1167 219.73 25.8C219.73 27.3833 220.022 28.8333 220.605 30.15C221.189 31.4667 222.03 32.525 223.13 33.325C224.23 34.1083 225.547 34.5 227.08 34.5ZM255.015 38.5C252.448 38.5 250.256 37.9333 248.44 36.8C246.64 35.65 245.256 34.1167 244.29 32.2C243.34 30.2667 242.865 28.1167 242.865 25.75C242.865 23.3833 243.34 21.2417 244.29 19.325C245.256 17.3917 246.64 15.8583 248.44 14.725C250.256 13.575 252.448 13 255.015 13C257.565 13 259.748 13.575 261.565 14.725C263.381 15.8583 264.765 17.3917 265.715 19.325C266.681 21.2417 267.165 23.3833 267.165 25.75C267.165 28.1167 266.681 30.2667 265.715 32.2C264.765 34.1167 263.381 35.65 261.565 36.8C259.748 37.9333 257.565 38.5 255.015 38.5ZM255.015 34.5C257.448 34.5 259.315 33.7333 260.615 32.2C261.915 30.65 262.565 28.5 262.565 25.75C262.565 23 261.915 20.8583 260.615 19.325C259.315 17.775 257.448 17 255.015 17C252.598 17 250.731 17.775 249.415 19.325C248.115 20.8583 247.465 23 247.465 25.75C247.465 28.5 248.115 30.65 249.415 32.2C250.731 33.7333 252.598 34.5 255.015 34.5ZM300.285 50.1V32.75L301.035 33.65C300.369 35.2667 299.277 36.4833 297.76 37.3C296.26 38.1 294.535 38.5 292.585 38.5C290.169 38.5 288.144 37.9333 286.51 36.8C284.894 35.6667 283.677 34.1417 282.86 32.225C282.044 30.2917 281.635 28.1333 281.635 25.75C281.635 23.5167 282.069 21.4333 282.935 19.5C283.802 17.55 285.044 15.9833 286.66 14.8C288.294 13.6 290.252 13 292.535 13C294.835 13 296.685 13.4583 298.085 14.375C299.502 15.275 300.719 16.55 301.735 18.2L300.485 19.1L301.285 13.5H304.785V50.1H300.285ZM293.185 34.5C294.535 34.5 295.76 34.2 296.86 33.6C297.977 32.9833 298.869 32.0333 299.535 30.75C300.202 29.4667 300.535 27.8 300.535 25.75C300.535 22.8 299.819 20.6083 298.385 19.175C296.952 17.725 295.219 17 293.185 17C291.019 17 289.319 17.775 288.085 19.325C286.852 20.8583 286.235 23 286.235 25.75C286.235 28.5 286.852 30.65 288.085 32.2C289.319 33.7333 291.019 34.5 293.185 34.5ZM319.667 38.5C317.751 38.5 316.117 38.1167 314.767 37.35C313.417 36.5667 312.384 35.3833 311.667 33.8C310.967 32.2167 310.617 30.2 310.617 27.75V13.5H315.117V26.5C315.117 29.1 315.559 31.0833 316.442 32.45C317.342 33.8167 318.801 34.5 320.817 34.5C322.201 34.5 323.484 34.1667 324.667 33.5C325.851 32.8333 326.667 31.7667 327.117 30.3L326.467 32.75V13.5H330.967V38H326.967L326.067 33.2L327.267 34C326.451 35.5167 325.451 36.65 324.267 37.4C323.101 38.1333 321.567 38.5 319.667 38.5ZM348.838 38.5C345.955 38.5 343.53 37.9083 341.563 36.725C339.596 35.5417 338.105 33.975 337.088 32.025C336.088 30.0583 335.588 27.9 335.588 25.55C335.588 23.2667 336.055 21.175 336.988 19.275C337.938 17.375 339.305 15.8583 341.088 14.725C342.888 13.575 345.055 13 347.588 13C349.621 13 351.43 13.4083 353.013 14.225C354.613 15.025 355.863 16.2 356.763 17.75C357.68 19.2833 358.138 21.15 358.138 23.35C358.138 23.7 358.121 24.0833 358.088 24.5C358.071 24.9 358.021 25.3167 357.938 25.75H340.188C340.405 28.0167 340.946 29.7833 341.813 31.05C342.68 32.3167 343.771 33.2083 345.088 33.725C346.405 34.2417 347.838 34.5 349.388 34.5C350.521 34.5 351.705 34.3833 352.938 34.15C354.171 33.9167 355.338 33.55 356.438 33.05L357.038 36.6C356.088 37.0167 354.93 37.4417 353.563 37.875C352.196 38.2917 350.621 38.5 348.838 38.5ZM340.588 22.65H353.488C353.488 21.5 353.271 20.5 352.838 19.65C352.405 18.8 351.746 18.15 350.863 17.7C349.98 17.2333 348.855 17 347.488 17C345.488 17 343.946 17.5 342.863 18.5C341.796 19.4833 341.038 20.8667 340.588 22.65ZM385.654 38.5C382.771 38.5 380.346 37.9083 378.379 36.725C376.413 35.5417 374.921 33.975 373.904 32.025C372.904 30.0583 372.404 27.9 372.404 25.55C372.404 23.2667 372.871 21.175 373.804 19.275C374.754 17.375 376.121 15.8583 377.904 14.725C379.704 13.575 381.871 13 384.404 13C386.438 13 388.246 13.4083 389.829 14.225C391.429 15.025 392.679 16.2 393.579 17.75C394.496 19.2833 394.954 21.15 394.954 23.35C394.954 23.7 394.938 24.0833 394.904 24.5C394.888 24.9 394.838 25.3167 394.754 25.75H377.004C377.221 28.0167 377.763 29.7833 378.629 31.05C379.496 32.3167 380.588 33.2083 381.904 33.725C383.221 34.2417 384.654 34.5 386.204 34.5C387.338 34.5 388.521 34.3833 389.754 34.15C390.988 33.9167 392.154 33.55 393.254 33.05L393.854 36.6C392.904 37.0167 391.746 37.4417 390.379 37.875C389.013 38.2917 387.438 38.5 385.654 38.5ZM377.404 22.65H390.304C390.304 21.5 390.088 20.5 389.654 19.65C389.221 18.8 388.563 18.15 387.679 17.7C386.796 17.2333 385.671 17 384.304 17C382.304 17 380.763 17.5 379.679 18.5C378.613 19.4833 377.854 20.8667 377.404 22.65ZM380.104 9.2V6.15L389.454 0.649998V5.55L380.104 9.2ZM421.421 38.5C418.854 38.5 416.663 37.9333 414.846 36.8C413.046 35.65 411.663 34.1167 410.696 32.2C409.746 30.2667 409.271 28.1167 409.271 25.75C409.271 23.3833 409.746 21.2417 410.696 19.325C411.663 17.3917 413.046 15.8583 414.846 14.725C416.663 13.575 418.854 13 421.421 13C423.971 13 426.154 13.575 427.971 14.725C429.788 15.8583 431.171 17.3917 432.121 19.325C433.088 21.2417 433.571 23.3833 433.571 25.75C433.571 28.1167 433.088 30.2667 432.121 32.2C431.171 34.1167 429.788 35.65 427.971 36.8C426.154 37.9333 423.971 38.5 421.421 38.5ZM421.421 34.5C423.854 34.5 425.721 33.7333 427.021 32.2C428.321 30.65 428.971 28.5 428.971 25.75C428.971 23 428.321 20.8583 427.021 19.325C425.721 17.775 423.854 17 421.421 17C419.004 17 417.138 17.775 415.821 19.325C414.521 20.8583 413.871 23 413.871 25.75C413.871 28.5 414.521 30.65 415.821 32.2C417.138 33.7333 419.004 34.5 421.421 34.5ZM466.692 50.1V32.75L467.442 33.65C466.775 35.2667 465.683 36.4833 464.167 37.3C462.667 38.1 460.942 38.5 458.992 38.5C456.575 38.5 454.55 37.9333 452.917 36.8C451.3 35.6667 450.083 34.1417 449.267 32.225C448.45 30.2917 448.042 28.1333 448.042 25.75C448.042 23.5167 448.475 21.4333 449.342 19.5C450.208 17.55 451.45 15.9833 453.067 14.8C454.7 13.6 456.658 13 458.942 13C461.242 13 463.092 13.4583 464.492 14.375C465.908 15.275 467.125 16.55 468.142 18.2L466.892 19.1L467.692 13.5H471.192V50.1H466.692ZM459.592 34.5C460.942 34.5 462.167 34.2 463.267 33.6C464.383 32.9833 465.275 32.0333 465.942 30.75C466.608 29.4667 466.942 27.8 466.942 25.75C466.942 22.8 466.225 20.6083 464.792 19.175C463.358 17.725 461.625 17 459.592 17C457.425 17 455.725 17.775 454.492 19.325C453.258 20.8583 452.642 23 452.642 25.75C452.642 28.5 453.258 30.65 454.492 32.2C455.725 33.7333 457.425 34.5 459.592 34.5ZM486.074 38.5C484.157 38.5 482.524 38.1167 481.174 37.35C479.824 36.5667 478.79 35.3833 478.074 33.8C477.374 32.2167 477.024 30.2 477.024 27.75V13.5H481.524V26.5C481.524 29.1 481.965 31.0833 482.849 32.45C483.749 33.8167 485.207 34.5 487.224 34.5C488.607 34.5 489.89 34.1667 491.074 33.5C492.257 32.8333 493.074 31.7667 493.524 30.3L492.874 32.75V13.5H497.374V38H493.374L492.474 33.2L493.674 34C492.857 35.5167 491.857 36.65 490.674 37.4C489.507 38.1333 487.974 38.5 486.074 38.5ZM503.494 38V13.5H507.994V38H503.494ZM503.494 8V3H507.994V8H503.494ZM512.14 38L527.29 15.2L527.84 17.45H512.94V13.5H533.34L518.19 36.3L517.64 34.05H533.09V38H512.14ZM535.675 38L550.825 15.2L551.375 17.45H536.475V13.5H556.875L541.725 36.3L541.175 34.05H556.625V38H535.675ZM578.091 38.5C576.574 38.5 575.249 38.1917 574.116 37.575C572.982 36.9583 572.099 36.1167 571.466 35.05C570.849 33.9833 570.541 32.7667 570.541 31.4C570.541 30.0167 570.841 28.8333 571.441 27.85C572.057 26.85 572.874 26.025 573.891 25.375C574.924 24.7083 576.074 24.1833 577.341 23.8C578.607 23.4 579.916 23.1167 581.266 22.95C582.632 22.7667 583.941 22.6667 585.191 22.65C585.191 20.3167 584.732 18.7917 583.816 18.075C582.899 17.3583 581.574 17 579.841 17C578.924 17 577.941 17.1417 576.891 17.425C575.857 17.7083 574.691 18.3 573.391 19.2L572.741 15.55C573.724 14.8 574.949 14.1917 576.416 13.725C577.882 13.2417 579.424 13 581.041 13C583.107 13 584.774 13.3667 586.041 14.1C587.307 14.8167 588.232 16.0333 588.816 17.75C589.399 19.4667 589.691 21.8 589.691 24.75V29.75C589.691 30.9167 589.741 31.8833 589.841 32.65C589.957 33.4 590.207 33.9667 590.591 34.35C590.991 34.7167 591.624 34.9 592.491 34.9H592.941L592.241 38.5H591.891C590.441 38.5 589.316 38.3583 588.516 38.075C587.732 37.7917 587.132 37.3833 586.716 36.85C586.299 36.3167 585.924 35.6667 585.591 34.9C584.674 35.9667 583.591 36.8333 582.341 37.5C581.091 38.1667 579.674 38.5 578.091 38.5ZM578.941 34.9C580.141 34.9 581.299 34.6 582.416 34C583.549 33.4 584.474 32.6 585.191 31.6V25.75C582.807 25.8333 580.874 26.0667 579.391 26.45C577.924 26.8333 576.849 27.4083 576.166 28.175C575.482 28.9417 575.141 29.9333 575.141 31.15C575.141 32.4667 575.491 33.425 576.191 34.025C576.907 34.6083 577.824 34.9 578.941 34.9ZM149.189 99.5C147.023 99.5 145.223 99.2417 143.789 98.725C142.373 98.2083 141.373 97.75 140.789 97.35L141.339 93C141.873 93.4667 142.814 94 144.164 94.6C145.514 95.2 147.123 95.5 148.989 95.5C150.573 95.5 151.781 95.2333 152.614 94.7C153.464 94.1667 153.889 93.4167 153.889 92.45C153.889 91.6 153.614 90.9167 153.064 90.4C152.531 89.8667 151.881 89.45 151.114 89.15C150.364 88.8333 149.656 88.5833 148.989 88.4C147.873 88.1 146.714 87.725 145.514 87.275C144.331 86.8083 143.331 86.1167 142.514 85.2C141.698 84.2833 141.289 83 141.289 81.35C141.289 80.1 141.589 78.9167 142.189 77.8C142.789 76.6667 143.764 75.75 145.114 75.05C146.464 74.35 148.256 74 150.489 74C152.123 74 153.448 74.175 154.464 74.525C155.498 74.8583 156.389 75.2167 157.139 75.6L156.589 79.7C155.873 79.1 155.039 78.5917 154.089 78.175C153.139 77.7583 151.973 77.55 150.589 77.55C149.189 77.55 148.048 77.8167 147.164 78.35C146.281 78.8667 145.839 79.7 145.839 80.85C145.839 82 146.306 82.8167 147.239 83.3C148.189 83.7833 149.623 84.3167 151.539 84.9C152.139 85.0667 152.831 85.3083 153.614 85.625C154.414 85.9417 155.189 86.3667 155.939 86.9C156.689 87.4333 157.306 88.1333 157.789 89C158.289 89.85 158.539 90.9167 158.539 92.2C158.539 93.2833 158.281 94.3917 157.764 95.525C157.248 96.6417 156.314 97.5833 154.964 98.35C153.614 99.1167 151.689 99.5 149.189 99.5ZM174.693 99.5C171.809 99.5 169.384 98.9083 167.418 97.725C165.451 96.5417 163.959 94.975 162.943 93.025C161.943 91.0583 161.443 88.9 161.443 86.55C161.443 84.2667 161.909 82.175 162.843 80.275C163.793 78.375 165.159 76.8583 166.943 75.725C168.743 74.575 170.909 74 173.443 74C175.476 74 177.284 74.4083 178.868 75.225C180.468 76.025 181.718 77.2 182.618 78.75C183.534 80.2833 183.993 82.15 183.993 84.35C183.993 84.7 183.976 85.0833 183.943 85.5C183.926 85.9 183.876 86.3167 183.793 86.75H166.043C166.259 89.0167 166.801 90.7833 167.668 92.05C168.534 93.3167 169.626 94.2083 170.943 94.725C172.259 95.2417 173.693 95.5 175.243 95.5C176.376 95.5 177.559 95.3833 178.793 95.15C180.026 94.9167 181.193 94.55 182.293 94.05L182.893 97.6C181.943 98.0167 180.784 98.4417 179.418 98.875C178.051 99.2917 176.476 99.5 174.693 99.5ZM166.443 83.65H179.343C179.343 82.5 179.126 81.5 178.693 80.65C178.259 79.8 177.601 79.15 176.718 78.7C175.834 78.2333 174.709 78 173.343 78C171.343 78 169.801 78.5 168.718 79.5C167.651 80.4833 166.893 81.8667 166.443 83.65ZM188.529 99V74.5H192.229L192.779 78.55C194.029 77 195.22 75.8583 196.354 75.125C197.504 74.375 198.729 74 200.029 74C200.445 74 200.829 74.05 201.179 74.15L200.729 79.1C200.512 79.05 200.279 79.0167 200.029 79C199.795 78.9667 199.529 78.95 199.229 78.95C197.929 78.95 196.729 79.2417 195.629 79.825C194.545 80.3917 193.779 81.0167 193.329 81.7V99H188.529ZM215.579 99V74.5H219.279L219.829 78.55C221.079 77 222.271 75.8583 223.404 75.125C224.554 74.375 225.779 74 227.079 74C227.496 74 227.879 74.05 228.229 74.15L227.779 79.1C227.563 79.05 227.329 79.0167 227.079 79C226.846 78.9667 226.579 78.95 226.279 78.95C224.979 78.95 223.779 79.2417 222.679 79.825C221.596 80.3917 220.829 81.0167 220.379 81.7V99H215.579ZM242.515 99.5C239.632 99.5 237.207 98.9083 235.24 97.725C233.273 96.5417 231.782 94.975 230.765 93.025C229.765 91.0583 229.265 88.9 229.265 86.55C229.265 84.2667 229.732 82.175 230.665 80.275C231.615 78.375 232.982 76.8583 234.765 75.725C236.565 74.575 238.732 74 241.265 74C243.298 74 245.107 74.4083 246.69 75.225C248.29 76.025 249.54 77.2 250.44 78.75C251.357 80.2833 251.815 82.15 251.815 84.35C251.815 84.7 251.798 85.0833 251.765 85.5C251.748 85.9 251.698 86.3167 251.615 86.75H233.865C234.082 89.0167 234.623 90.7833 235.49 92.05C236.357 93.3167 237.448 94.2083 238.765 94.725C240.082 95.2417 241.515 95.5 243.065 95.5C244.198 95.5 245.382 95.3833 246.615 95.15C247.848 94.9167 249.015 94.55 250.115 94.05L250.715 97.6C249.765 98.0167 248.607 98.4417 247.24 98.875C245.873 99.2917 244.298 99.5 242.515 99.5ZM234.265 83.65H247.165C247.165 82.5 246.948 81.5 246.515 80.65C246.082 79.8 245.423 79.15 244.54 78.7C243.657 78.2333 242.532 78 241.165 78C239.165 78 237.623 78.5 236.54 79.5C235.473 80.4833 234.715 81.8667 234.265 83.65ZM263.301 99.5C261.134 99.5 259.334 99.2417 257.901 98.725C256.484 98.2083 255.484 97.75 254.901 97.35L255.451 93C255.984 93.4667 256.926 94 258.276 94.6C259.626 95.2 261.234 95.5 263.101 95.5C264.684 95.5 265.892 95.2333 266.726 94.7C267.576 94.1667 268.001 93.4167 268.001 92.45C268.001 91.6 267.726 90.9167 267.176 90.4C266.642 89.8667 265.992 89.45 265.226 89.15C264.476 88.8333 263.767 88.5833 263.101 88.4C261.984 88.1 260.826 87.725 259.626 87.275C258.442 86.8083 257.442 86.1167 256.626 85.2C255.809 84.2833 255.401 83 255.401 81.35C255.401 80.1 255.701 78.9167 256.301 77.8C256.901 76.6667 257.876 75.75 259.226 75.05C260.576 74.35 262.367 74 264.601 74C266.234 74 267.559 74.175 268.576 74.525C269.609 74.8583 270.501 75.2167 271.251 75.6L270.701 79.7C269.984 79.1 269.151 78.5917 268.201 78.175C267.251 77.7583 266.084 77.55 264.701 77.55C263.301 77.55 262.159 77.8167 261.276 78.35C260.392 78.8667 259.951 79.7 259.951 80.85C259.951 82 260.417 82.8167 261.351 83.3C262.301 83.7833 263.734 84.3167 265.651 84.9C266.251 85.0667 266.942 85.3083 267.726 85.625C268.526 85.9417 269.301 86.3667 270.051 86.9C270.801 87.4333 271.417 88.1333 271.901 89C272.401 89.85 272.651 90.9167 272.651 92.2C272.651 93.2833 272.392 94.3917 271.876 95.525C271.359 96.6417 270.426 97.5833 269.076 98.35C267.726 99.1167 265.801 99.5 263.301 99.5ZM277.054 111.1V74.5H280.554L281.354 80.1L280.104 79.2C281.137 77.6 282.412 76.3333 283.929 75.4C285.446 74.4667 287.304 74 289.504 74C291.737 74 293.654 74.5667 295.254 75.7C296.854 76.8333 298.079 78.3667 298.929 80.3C299.779 82.2167 300.204 84.3667 300.204 86.75C300.204 89.1333 299.804 91.2917 299.004 93.225C298.204 95.1417 297.012 96.6667 295.429 97.8C293.846 98.9333 291.871 99.5 289.504 99.5C287.554 99.5 285.787 99.1 284.204 98.3C282.637 97.4833 281.504 96.2667 280.804 94.65L281.554 93.75V111.1H277.054ZM288.654 95.5C290.837 95.5 292.537 94.7333 293.754 93.2C294.987 91.65 295.604 89.5 295.604 86.75C295.604 84 294.987 81.8583 293.754 80.325C292.537 78.775 290.837 78 288.654 78C287.304 78 286.071 78.325 284.954 78.975C283.854 79.6083 282.971 80.575 282.304 81.875C281.637 83.1583 281.304 84.7833 281.304 86.75C281.304 88.8 281.637 90.4667 282.304 91.75C282.971 93.0333 283.854 93.9833 284.954 94.6C286.071 95.2 287.304 95.5 288.654 95.5ZM315.586 99.5C313.019 99.5 310.828 98.9333 309.011 97.8C307.211 96.65 305.828 95.1167 304.861 93.2C303.911 91.2667 303.436 89.1167 303.436 86.75C303.436 84.3833 303.911 82.2417 304.861 80.325C305.828 78.3917 307.211 76.8583 309.011 75.725C310.828 74.575 313.019 74 315.586 74C318.136 74 320.319 74.575 322.136 75.725C323.953 76.8583 325.336 78.3917 326.286 80.325C327.253 82.2417 327.736 84.3833 327.736 86.75C327.736 89.1167 327.253 91.2667 326.286 93.2C325.336 95.1167 323.953 96.65 322.136 97.8C320.319 98.9333 318.136 99.5 315.586 99.5ZM315.586 95.5C318.019 95.5 319.886 94.7333 321.186 93.2C322.486 91.65 323.136 89.5 323.136 86.75C323.136 84 322.486 81.8583 321.186 80.325C319.886 78.775 318.019 78 315.586 78C313.169 78 311.303 78.775 309.986 80.325C308.686 81.8583 308.036 84 308.036 86.75C308.036 89.5 308.686 91.65 309.986 93.2C311.303 94.7333 313.169 95.5 315.586 95.5ZM332.376 99V74.5H335.876L336.776 79.2L335.026 78.45C336.676 76.6167 338.285 75.4167 339.851 74.85C341.435 74.2833 342.976 74 344.476 74C348.06 74 350.618 75.0333 352.151 77.1C353.701 79.1667 354.476 81.9667 354.476 85.5V99H349.976V85.5C349.976 82.9 349.493 81 348.526 79.8C347.56 78.6 345.91 78 343.576 78C341.926 78 340.41 78.3667 339.026 79.1C337.66 79.8167 336.76 80.9667 336.326 82.55L336.876 79.8V99H332.376ZM370.006 99.5C367.923 99.5 366.039 98.9333 364.356 97.8C362.673 96.6667 361.331 95.1417 360.331 93.225C359.348 91.3083 358.856 89.1667 358.856 86.8C358.856 84.55 359.306 82.45 360.206 80.5C361.123 78.55 362.414 76.9833 364.081 75.8C365.748 74.6 367.723 74 370.006 74C371.639 74 373.214 74.3583 374.731 75.075C376.264 75.775 377.506 76.95 378.456 78.6L377.506 79.25V61.5H382.006V99H378.006L377.156 93.8L378.306 94.6C377.589 96.2167 376.464 97.4417 374.931 98.275C373.398 99.0917 371.756 99.5 370.006 99.5ZM370.806 95.5C371.939 95.5 373.056 95.2083 374.156 94.625C375.273 94.0417 376.189 93.1167 376.906 91.85C377.639 90.5667 378.006 88.8833 378.006 86.8C378.006 84.8667 377.639 83.25 376.906 81.95C376.189 80.6333 375.273 79.65 374.156 79C373.056 78.3333 371.939 78 370.806 78C369.273 78 367.956 78.3833 366.856 79.15C365.756 79.9167 364.914 80.9667 364.331 82.3C363.748 83.6167 363.456 85.1167 363.456 86.8C363.456 88.3833 363.748 89.8333 364.331 91.15C364.914 92.4667 365.756 93.525 366.856 94.325C367.956 95.1083 369.273 95.5 370.806 95.5ZM388.04 99V74.5H392.54V99H388.04ZM388.04 69V64H392.54V69H388.04ZM408.336 99.5C406.253 99.5 404.369 98.9333 402.686 97.8C401.003 96.6667 399.661 95.1417 398.661 93.225C397.678 91.3083 397.186 89.1667 397.186 86.8C397.186 84.55 397.636 82.45 398.536 80.5C399.453 78.55 400.744 76.9833 402.411 75.8C404.078 74.6 406.053 74 408.336 74C409.969 74 411.544 74.3583 413.061 75.075C414.594 75.775 415.836 76.95 416.786 78.6L415.836 79.25V61.5H420.336V99H416.336L415.486 93.8L416.636 94.6C415.919 96.2167 414.794 97.4417 413.261 98.275C411.728 99.0917 410.086 99.5 408.336 99.5ZM409.136 95.5C410.269 95.5 411.386 95.2083 412.486 94.625C413.603 94.0417 414.519 93.1167 415.236 91.85C415.969 90.5667 416.336 88.8833 416.336 86.8C416.336 84.8667 415.969 83.25 415.236 81.95C414.519 80.6333 413.603 79.65 412.486 79C411.386 78.3333 410.269 78 409.136 78C407.603 78 406.286 78.3833 405.186 79.15C404.086 79.9167 403.244 80.9667 402.661 82.3C402.078 83.6167 401.786 85.1167 401.786 86.8C401.786 88.3833 402.078 89.8333 402.661 91.15C403.244 92.4667 404.086 93.525 405.186 94.325C406.286 95.1083 407.603 95.5 409.136 95.5ZM437.07 99.5C434.504 99.5 432.312 98.9333 430.495 97.8C428.695 96.65 427.312 95.1167 426.345 93.2C425.395 91.2667 424.92 89.1167 424.92 86.75C424.92 84.3833 425.395 82.2417 426.345 80.325C427.312 78.3917 428.695 76.8583 430.495 75.725C432.312 74.575 434.504 74 437.07 74C439.62 74 441.804 74.575 443.62 75.725C445.437 76.8583 446.82 78.3917 447.77 80.325C448.737 82.2417 449.22 84.3833 449.22 86.75C449.22 89.1167 448.737 91.2667 447.77 93.2C446.82 95.1167 445.437 96.65 443.62 97.8C441.804 98.9333 439.62 99.5 437.07 99.5ZM437.07 95.5C439.504 95.5 441.37 94.7333 442.67 93.2C443.97 91.65 444.62 89.5 444.62 86.75C444.62 84 443.97 81.8583 442.67 80.325C441.37 78.775 439.504 78 437.07 78C434.654 78 432.787 78.775 431.47 80.325C430.17 81.8583 429.52 84 429.52 86.75C429.52 89.5 430.17 91.65 431.47 93.2C432.787 94.7333 434.654 95.5 437.07 95.5Z" fill="black"/>
</svg>
