<svg width="243" height="94" viewBox="0 0 243 94" fill="none" xmlns="http://www.w3.org/2000/svg">
<path d="M42.9941 12.4262L237.506 4.45673V89.096L15.4941 74.9262L42.9941 12.4262Z" fill="#AAB69B"/>
<path d="M179.244 69.9262C178.244 69.9262 177.369 69.5512 176.619 68.8012C175.869 68.0512 175.494 67.1762 175.494 66.1762V28.6762C175.494 27.6762 175.869 26.8012 176.619 26.0512C177.369 25.3012 178.244 24.9262 179.244 24.9262H197.432V28.6762H179.244V66.1762H197.432V69.9262H179.244ZM209.619 58.3637L206.932 55.6762L213.307 49.3012H191.432V45.5512H213.182L206.807 39.1762L209.494 36.4887L220.494 47.4887L209.619 58.3637Z" fill="white"/>
<path d="M67.3901 59.9262H57.2781C56.8728 59.9262 56.5741 59.8409 56.3821 59.6702C56.2115 59.4782 56.1261 59.1795 56.1261 58.7742V55.0302C56.1261 54.6249 56.2115 54.3369 56.3821 54.1662C56.5741 53.9742 56.8728 53.8782 57.2781 53.8782H65.8861C66.1635 53.8782 66.3661 53.7929 66.4941 53.6222C66.6435 53.4302 66.7181 53.2062 66.7181 52.9502C66.7181 52.5875 66.6435 52.3209 66.4941 52.1502C66.3661 51.9795 66.1635 51.8835 65.8861 51.8622L61.0861 51.1902C59.5928 50.9769 58.3875 50.4862 57.4701 49.7182C56.5741 48.9502 56.1261 47.6702 56.1261 45.8782V42.5182C56.1261 40.7049 56.7128 39.3182 57.8861 38.3582C59.0595 37.3769 60.6808 36.8862 62.7501 36.8862H71.7101C72.1155 36.8862 72.4035 36.9822 72.5741 37.1742C72.7661 37.3449 72.8621 37.6329 72.8621 38.0382V41.8462C72.8621 42.2515 72.7661 42.5502 72.5741 42.7422C72.4035 42.9129 72.1155 42.9982 71.7101 42.9982H64.2541C63.9768 42.9982 63.7635 43.0942 63.6141 43.2862C63.4648 43.4569 63.3901 43.6809 63.3901 43.9582C63.3901 44.2355 63.4648 44.4702 63.6141 44.6622C63.7635 44.8542 63.9768 44.9609 64.2541 44.9822L69.0221 45.6222C70.5155 45.8355 71.7208 46.3262 72.6381 47.0942C73.5555 47.8622 74.0141 49.1422 74.0141 50.9342V54.2942C74.0141 56.1075 73.4168 57.5049 72.2221 58.4862C71.0488 59.4462 69.4381 59.9262 67.3901 59.9262ZM85.8666 43.6062L84.3626 48.4702H89.3866L87.8826 43.6062C87.7973 43.4142 87.7013 43.2755 87.5946 43.1902C87.5093 43.1049 87.4026 43.0622 87.2746 43.0622H86.4746C86.3466 43.0622 86.2293 43.1049 86.1226 43.1902C86.0373 43.2755 85.952 43.4142 85.8666 43.6062ZM84.0426 58.7742C84.0426 59.1795 83.9466 59.4782 83.7546 59.6702C83.584 59.8409 83.296 59.9262 82.8906 59.9262H78.1866C77.7813 59.9262 77.4826 59.8409 77.2906 59.6702C77.12 59.4782 77.0346 59.1795 77.0346 58.7742V50.3262C77.0346 49.6862 77.1306 48.9502 77.3226 48.1182C77.536 47.2862 77.856 46.3155 78.2826 45.2062L81.0666 37.9422C81.1946 37.5795 81.3866 37.3129 81.6426 37.1422C81.92 36.9715 82.272 36.8862 82.6986 36.8862H91.3066C91.712 36.8862 92.0426 36.9715 92.2986 37.1422C92.576 37.3129 92.7786 37.5795 92.9066 37.9422L95.6906 45.2062C96.1173 46.3155 96.4266 47.2862 96.6186 48.1182C96.832 48.9502 96.9386 49.6862 96.9386 50.3262V58.7742C96.9386 59.1795 96.8426 59.4782 96.6506 59.6702C96.48 59.8409 96.192 59.9262 95.7866 59.9262H90.9546C90.528 59.9262 90.208 59.8409 89.9946 59.6702C89.8026 59.4782 89.7066 59.1795 89.7066 58.7742V54.2942H84.0426V58.7742ZM101.53 59.9262C101.124 59.9262 100.826 59.8409 100.634 59.6702C100.463 59.4782 100.378 59.1795 100.378 58.7742V54.9662C100.378 54.5609 100.463 54.2729 100.634 54.1022C100.826 53.9102 101.124 53.8142 101.53 53.8142H104.698V43.0622H101.53C101.124 43.0622 100.826 42.9769 100.634 42.8062C100.463 42.6142 100.378 42.3155 100.378 41.9102V38.0382C100.378 37.6329 100.463 37.3449 100.634 37.1742C100.826 36.9822 101.124 36.8862 101.53 36.8862H115.162C115.567 36.8862 115.855 36.9822 116.026 37.1742C116.218 37.3449 116.314 37.6329 116.314 38.0382V41.9102C116.314 42.3155 116.218 42.6142 116.026 42.8062C115.855 42.9769 115.567 43.0622 115.162 43.0622H112.058V53.8142H115.162C115.567 53.8142 115.855 53.9102 116.026 54.1022C116.218 54.2729 116.314 54.5609 116.314 54.9662V58.7742C116.314 59.1795 116.218 59.4782 116.026 59.6702C115.855 59.8409 115.567 59.9262 115.162 59.9262H101.53ZM127.497 42.6462V46.7422H129.897C130.451 46.7422 130.825 46.6035 131.017 46.3262C131.209 46.0275 131.305 45.6649 131.305 45.2382V44.1502C131.305 43.7235 131.209 43.3715 131.017 43.0942C130.825 42.7955 130.451 42.6462 129.897 42.6462H127.497ZM126.345 59.9262H121.417C121.011 59.9262 120.713 59.8409 120.521 59.6702C120.35 59.4782 120.265 59.1795 120.265 58.7742V38.0382C120.265 37.6329 120.35 37.3449 120.521 37.1742C120.713 36.9822 121.011 36.8862 121.417 36.8862H132.073C134.462 36.8862 136.105 37.3875 137.001 38.3902C137.918 39.3715 138.377 40.6515 138.377 42.2302V43.7022C138.377 44.5982 138.238 45.3662 137.961 46.0062C137.705 46.6249 137.246 47.0729 136.585 47.3502C137.737 47.4782 138.665 47.9475 139.369 48.7582C140.094 49.5689 140.457 50.6462 140.457 51.9902V58.7742C140.457 59.1795 140.361 59.4782 140.169 59.6702C139.998 59.8409 139.71 59.9262 139.305 59.9262H134.345C133.939 59.9262 133.641 59.8409 133.449 59.6702C133.278 59.4782 133.193 59.1795 133.193 58.7742V53.8782C133.193 53.4089 133.097 53.0675 132.905 52.8542C132.734 52.6195 132.425 52.5022 131.977 52.5022H127.497V58.7742C127.497 59.1795 127.401 59.4782 127.209 59.6702C127.038 59.8409 126.75 59.9262 126.345 59.9262Z" fill="white"/>
</svg>
