<svg width="40" height="45" viewBox="0 0 40 45" fill="none" xmlns="http://www.w3.org/2000/svg">
<path d="M34.5276 12.8639V30.9097H3.375V12.8639H34.5276Z" fill="#FFEA00"/>
<path d="M29.4685 15.0068L22.793 33.5038" stroke="#FFFD00" stroke-width="6.37753"/>
<path d="M22.0135 15.0068L15.3379 33.5038" stroke="#FFFD00" stroke-width="9.47065"/>
<path d="M14.6072 15.0068L7.93164 33.5038" stroke="#FFFD00" stroke-width="1.38317"/>
<path d="M32.7427 26.8495V33.1655H5.15039V26.8495H32.7427Z" fill="#FFC800"/>
<path d="M37.0957 9.09465L22.9052 0.789054C21.1077 -0.263018 18.8927 -0.263018 17.0952 0.789054L2.90432 9.09465C1.10725 10.1467 0 12.0907 0 14.1949V30.8056C0 32.9093 1.10725 34.8533 2.90432 35.9053L17.0952 44.2109C18.8927 45.263 21.1077 45.263 22.9052 44.2109L37.0957 35.9053C38.8932 34.8533 40 32.9093 40 30.8056V14.1949C40 12.0907 38.8932 10.1467 37.0957 9.09465ZM31.6377 21.2305L30.7192 26.794L30.47 28.3184L30.2336 29.7671C30.1878 30.0576 29.9381 30.2728 29.6471 30.2728H9.44904C9.15799 30.2728 8.91233 30.0576 8.86248 29.7671L8.7757 29.2365L8.62617 28.3184L8.38496 26.8405L8.37695 26.794L7.45883 21.2305C6.23364 21.1208 5.29016 20.0764 5.29016 18.8299C5.29016 17.499 6.35336 16.4213 7.66622 16.4213C8.97908 16.4213 10.0432 17.499 10.0432 18.8299C10.0432 19.0826 10.0058 19.3312 9.92657 19.5712L10.8233 20.1482L11.8456 20.8091L11.8545 20.8136C12.7227 21.378 13.7819 21.4245 14.6711 21.0198C14.6751 21.0198 14.6747 21.0198 14.6747 21.0157C15.0819 20.8303 15.4477 20.5529 15.7468 20.182L17.6368 17.8401C17.3333 17.4278 17.1722 16.9306 17.1722 16.4213C17.1722 15.0904 18.235 14.0121 19.5478 14.0121C20.8607 14.0121 21.9248 15.0904 21.9248 16.4213C21.9248 16.9306 21.7628 17.4278 21.4637 17.8401C21.4637 17.8401 21.4637 17.8446 21.4673 17.8487L22.2274 18.788L23.3494 20.182C23.9141 20.8813 24.7325 21.2598 25.5674 21.281C26.1451 21.3022 26.7272 21.1461 27.2466 20.8136L28.8994 19.7525L29.1651 19.5797C29.1696 19.5757 29.174 19.5712 29.174 19.5712C29.1366 19.462 29.1073 19.3483 29.0872 19.2342C29.0663 19.0997 29.0534 18.9648 29.0534 18.8299C29.0534 18.0846 29.3858 17.4192 29.9092 16.9771C30.3084 16.6401 30.8193 16.4339 31.3761 16.4253C31.3925 16.4213 31.413 16.4213 31.4295 16.4213C32.6591 16.4213 33.6818 17.3727 33.7939 18.6152C33.9101 19.9375 32.9462 21.1082 31.6377 21.2305Z" fill="url(#paint0_radial_501_11169)"/>
<path d="M20.7882 15.5816C20.523 15.1738 20.0673 14.9049 19.5497 14.9049C19.5203 14.9049 19.4914 14.9058 19.4629 14.9076" stroke="white" stroke-width="1.8" stroke-linecap="round" stroke-linejoin="round"/>
<path d="M32.4672 17.7932C32.2296 17.5423 31.9074 17.3745 31.5469 17.3375" stroke="white" stroke-width="1.8" stroke-linecap="round" stroke-linejoin="round"/>
<path d="M8.96357 18.3481C8.76464 17.7562 8.21146 17.3298 7.55992 17.3298C7.41662 17.3298 7.27777 17.3506 7.14648 17.3889" stroke="white" stroke-width="1.8" stroke-linecap="round" stroke-linejoin="round"/>
<defs>
<radialGradient id="paint0_radial_501_11169" cx="0" cy="0" r="1" gradientUnits="userSpaceOnUse" gradientTransform="translate(20 22.5) scale(17.2007 17.4368)">
<stop stop-color="#E68816"/>
<stop offset="0.5" stop-color="#F3AB17"/>
<stop offset="1" stop-color="#FFCD19"/>
</radialGradient>
</defs>
</svg>
