<svg width="489" height="460" viewBox="0 0 489 460" fill="none" xmlns="http://www.w3.org/2000/svg">
<path d="M234.288 362.428L100.551 289.842L7 340.688L140.659 413.278L234.288 362.428Z" fill="#FFE5E3"/>
<path d="M125.109 384.373C125.109 388.322 131.683 391.526 139.793 391.526C147.902 391.526 154.476 388.322 154.476 384.373C154.476 380.422 147.902 377.221 139.793 377.221C131.683 377.221 125.109 380.422 125.109 384.373Z" fill="#F27281"/>
<mask id="mask0_420_2478" style="mask-type:alpha" maskUnits="userSpaceOnUse" x="34" y="303" width="134" height="75">
<path d="M167.713 342.035L97.7152 303.739L34.041 338.758L104.038 377.054L167.713 342.035Z" fill="white"/>
</mask>
<g mask="url(#mask0_420_2478)">
<path d="M100.211 302.339L102.004 305.22L35.8359 341.558L34.043 338.677L100.211 302.339Z" fill="#4341AA"/>
<path d="M113.976 309.998L115.74 312.898L48.0433 349.231L46.2793 346.331L113.976 309.998Z" fill="#4341AA"/>
<path d="M126.352 317.656L128.083 320.579L61.2917 355.47L59.5605 352.548L126.352 317.656Z" fill="#4341AA"/>
<path d="M140.467 324.371L142.227 327.275L76.0605 362.65L74.3008 359.746L140.467 324.371Z" fill="#4341AA"/>
<path d="M153.19 331.566L154.974 334.453L88.0559 370.95L86.2715 368.063L153.19 331.566Z" fill="#4341AA"/>
<path d="M165.923 339.237L167.716 342.117L101.546 378.454L99.7539 375.574L165.923 339.237Z" fill="#4341AA"/>
</g>
<path d="M353.423 275.862L362.263 269.807L361.685 254.111L222.74 204.867L121.098 260.069L251.781 331.038L353.423 275.862Z" fill="#8194EF"/>
<path d="M251.963 338.537L121.281 267.568V259.682L251.963 330.651V338.537Z" fill="#C0CBFF"/>
<path d="M121.281 227.939L251.963 298.903L353.607 243.728L222.925 172.733L121.281 227.939Z" fill="#C0CBFF"/>
<path d="M355.907 244.52L353.613 243.729L353.611 251.589C361.081 254.22 363.703 267.352 356.524 273.369L353.611 275.475V283.333C353.611 283.333 355.6 282.387 359.783 279.204C370.341 271.178 367.607 248.549 355.907 244.52Z" fill="#97A4F6"/>
<path d="M352.924 248.044L334.672 259.594L250.907 304.524L132.801 240.385V261.949L250.907 326.087L352.924 270.892V248.044Z" fill="white"/>
<path d="M252.055 325.462L352.915 270.893V248.044L334.662 259.594L252.44 303.697L252.055 325.462Z" fill="#EBEFFF"/>
<path d="M353.607 283.334L251.965 338.537V330.651L353.607 275.475V283.334Z" fill="#97A4F6"/>
<path d="M353.607 251.588L251.965 306.791V298.905L353.607 243.729V251.588Z" fill="#97A4F6"/>
<path d="M251.963 306.79L121.281 235.822V227.937L251.963 298.905V306.79Z" fill="#EBEFFF"/>
<path d="M272.93 301.682V326.354L279.77 315.702L285.39 319.229L284.698 295.496L272.93 301.682Z" fill="#F27281"/>
<path d="M469.698 271.775C494.836 282.274 494.969 299.293 469.999 309.79C445.029 320.287 404.411 320.29 379.274 309.79C354.142 299.293 354.014 282.272 378.982 271.775C403.951 261.278 444.566 261.278 469.698 271.775Z" fill="#264984"/>
<path d="M155.771 224.863L147.889 219.464L148.403 205.469L272.286 161.564L362.91 210.782L246.394 274.057L155.771 224.863Z" fill="#D19846"/>
<path d="M246.229 280.741L362.744 217.466V210.436L246.229 273.711V280.741Z" fill="#DBA75D"/>
<path d="M362.743 182.134L246.228 245.405L155.604 196.212L272.119 132.913L362.743 182.134Z" fill="#FFC869"/>
<path d="M153.557 196.917L155.603 196.212V203.22C148.944 205.566 146.607 217.275 153.008 222.639L155.603 224.517V231.525C155.603 231.525 153.832 230.68 150.1 227.843C140.687 220.687 143.127 200.509 153.557 196.917Z" fill="#F7CC8D"/>
<path d="M156.225 200.06L172.498 210.359L247.182 250.417L352.485 193.231V212.458L247.182 269.643L156.225 220.432V200.06Z" fill="white"/>
<path d="M246.151 269.085L156.225 220.432V200.06L172.498 210.358L245.807 249.679L246.151 269.085Z" fill="#EBEFFF"/>
<path d="M155.604 231.523L246.227 280.741V273.711L155.604 224.516V231.523Z" fill="#F7CC8D"/>
<path d="M155.604 203.22L246.227 252.438V245.407L155.604 196.213V203.22Z" fill="#F7CC8D"/>
<path d="M246.229 252.437L362.744 189.163V182.133L246.229 245.407V252.437Z" fill="#DBA75D"/>
<path d="M438.736 331.087C441.245 332.45 442.612 334.21 442.65 336.09C442.686 337.984 441.368 339.772 438.932 341.121L415.172 354.301C414.46 354.696 413.292 354.698 412.563 354.309C411.835 353.913 411.826 353.282 412.536 352.889L436.294 339.709C438.037 338.742 438.985 337.46 438.957 336.104C438.932 334.76 437.95 333.495 436.198 332.543C434.374 331.567 432.022 331.048 429.528 331.057C427.036 331.067 424.706 331.607 422.96 332.572L392.778 349.317C390.408 350.634 390.438 352.756 392.84 354.061C395.233 355.339 399.296 355.322 401.605 354.042L421.875 342.798C422.427 342.493 422.738 342.072 422.729 341.643C422.718 341.212 422.403 340.808 421.838 340.5C420.652 339.865 418.752 339.87 417.601 340.512L403.759 348.191C403.045 348.587 401.88 348.592 401.153 348.202C400.423 347.806 400.411 347.174 401.121 346.78L414.965 339.099C417.538 337.672 421.775 337.654 424.409 339.061C425.697 339.762 426.399 340.665 426.416 341.63C426.435 342.589 425.741 343.529 424.509 344.211L404.242 355.454C402.4 356.475 399.932 357.046 397.298 357.056C394.658 357.067 392.174 356.518 390.289 355.509C386.401 353.399 386.352 350.007 390.141 347.906L420.322 331.161C422.755 329.811 426.011 329.06 429.491 329.047C432.968 329.034 436.254 329.758 438.736 331.087Z" fill="white"/>
<path d="M409.897 86.5237L350.991 55.3548C350.227 54.929 349.51 54.8661 348.893 55.1001C348.821 55.1185 348.75 55.1407 348.681 55.1668C348.609 55.1852 348.539 55.2067 348.469 55.2328C348.397 55.2528 348.327 55.2727 348.258 55.2988C348.186 55.3187 348.116 55.3394 348.046 55.3663C347.974 55.3847 347.905 55.4054 347.835 55.4323C347.764 55.4507 347.693 55.4722 347.623 55.4982C347.552 55.5167 347.481 55.5381 347.411 55.5642C347.339 55.5842 347.269 55.6041 347.2 55.6302C347.128 55.6501 347.058 55.6709 346.988 55.6977C346.916 55.7161 346.846 55.7368 346.777 55.7637C346.705 55.7821 346.634 55.8043 346.565 55.8304C346.493 55.8488 346.423 55.8703 346.353 55.8964C346.281 55.9148 346.211 55.9363 346.142 55.9624C346.07 55.9808 346 56.003 345.93 56.0299C345.858 56.0483 345.788 56.069 345.719 56.0959C345.647 56.1143 345.576 56.1365 345.507 56.1618C345.435 56.1802 345.365 56.2017 345.295 56.2278C345.223 56.2462 345.153 56.2677 345.084 56.2938C345.012 56.3137 344.942 56.3344 344.872 56.3613C344.8 56.3797 344.73 56.4004 344.661 56.4273C344.589 56.4457 344.519 56.4679 344.449 56.494C344.377 56.5124 344.307 56.5339 344.238 56.56C344.166 56.5784 344.095 56.5999 344.026 56.626C343.954 56.6459 343.884 56.6666 343.815 56.6935C343.742 56.7119 343.672 56.7326 343.603 56.7595C343.531 56.7779 343.461 56.7993 343.391 56.8254C343.319 56.8438 343.248 56.8653 343.18 56.8914C343.107 56.9098 343.037 56.9313 342.968 56.9574C342.896 56.9758 342.826 56.998 342.756 57.0249C342.684 57.0433 342.614 57.064 342.544 57.0909C341.171 57.4461 340.227 59.2174 340.227 61.8795V112.27C340.227 116.032 342.108 120.131 344.431 121.426L352.807 126.095V141.511L353.018 141.332V141.443L353.23 141.265V141.377L353.441 141.198V141.311L353.653 141.132V141.245L353.864 141.066V141.179L354.076 141.001V141.113L354.288 140.933V141.046L354.499 140.867V140.98L354.711 140.801V140.913L354.922 140.735V140.847L355.134 140.668V140.781L355.345 140.602V140.714L355.557 140.535V140.648L355.769 140.469V140.582L355.98 140.403V140.516L356.192 140.337V140.448L356.403 140.269V140.382L356.615 140.203V140.316L356.827 140.137V140.249L357.038 140.071V140.183L357.251 140.005V140.118L357.461 139.939V140.05L357.673 139.871V139.984L357.885 139.805V139.918L358.096 139.739V139.852L358.308 139.673V139.786L358.52 139.606V139.719L358.732 139.54V139.653L358.942 139.474V139.587L359.154 139.408V139.52L359.367 139.341V139.454L366.282 133.608L404.802 152.594C405.567 153.021 406.282 153.083 406.901 152.849C406.972 152.829 407.042 152.809 407.113 152.782C407.184 152.763 407.254 152.742 407.323 152.716C411.538 151.124 414.102 151.191 414.102 146.07V95.6782C414.102 91.9169 412.219 87.8179 409.897 86.5237Z" fill="#D02342"/>
<path d="M404.802 88.5803L344.431 57.4114C342.108 56.1172 340.227 58.1172 340.227 61.8793V112.27C340.227 116.032 342.108 120.131 344.431 121.426L352.806 126.095V141.511L363.794 132.22L404.802 152.594C407.124 153.889 409.006 151.889 409.006 148.127V97.7349C409.006 93.9735 407.124 89.8745 404.802 88.5803Z" fill="#FF365B"/>
<g opacity="0.076969">
<path d="M388.804 115.41C388.804 117.478 387.769 118.577 386.492 117.866C385.215 117.154 384.18 114.901 384.18 112.833C384.18 110.764 385.215 109.665 386.492 110.377C387.769 111.088 388.804 113.342 388.804 115.41Z" fill="white"/>
</g>
<path d="M404.829 205.632C404.417 206.722 401.343 216.855 400.933 217.945C400.112 220.129 399.281 222.31 398.467 224.497C396.834 228.88 395.162 233.251 393.513 237.629C391.861 242.013 390.221 246.401 388.552 250.779C386.881 255.161 385.232 259.55 383.587 263.94C381.941 268.332 380.258 272.711 378.617 277.104C378.416 277.642 378.194 278.176 378.009 278.718C374.989 286.829 379.272 295.598 390.861 301.892C409.178 311.841 438.776 311.839 456.969 301.892C468.47 295.62 472.658 286.876 469.579 278.779L442.008 205.547C441.968 205.421 441.921 205.296 441.867 205.174C441.833 205.063 441.787 204.947 441.745 204.841V204.799C441.745 198.449 441.745 192.099 441.745 185.749C441.745 183.988 441.745 182.226 441.745 180.464C441.745 183.371 441.745 186.278 441.745 189.185C441.745 189.578 441.745 189.975 441.745 190.367C441.745 184.099 441.745 177.83 441.745 171.562C441.745 169.8 441.745 168.038 441.745 166.276C441.816 164.309 440.055 162.327 436.456 160.823C429.431 157.889 418.077 157.889 411.096 160.823C407.541 162.317 405.809 164.286 405.89 166.244L404.829 205.632Z" fill="url(#paint0_linear_420_2478)"/>
<path d="M462.587 280.647C462.566 280.588 438.809 209.545 438.809 209.48C438.804 209.255 438.763 187.334 438.294 186.964C428.991 179.058 409.423 182.529 407.647 187.726C408.106 187.524 407.765 208.493 407.598 209.835C407.59 209.9 384.093 280.382 384.072 280.442C384.05 280.502 384.031 280.561 384.009 280.623C381.555 287.505 385.241 294.918 395.061 300.251C410.714 308.753 436.007 308.751 451.555 300.251C461.3 294.924 465.107 287.523 462.587 280.647Z" fill="#FFDFA8"/>
<path d="M434.802 183.579C440.791 186.08 440.822 190.135 434.873 192.635C428.925 195.136 419.248 195.137 413.259 192.635C407.272 190.135 407.241 186.08 413.189 183.579C419.138 181.078 428.814 181.078 434.802 183.579Z" fill="#FFC557"/>
<g opacity="0.20927">
<path d="M394.899 286.03L418.701 215.702V172.301L406.312 165.774C405.998 166.365 405.832 166.968 405.857 167.572C405.854 167.654 405.853 167.737 405.857 167.82C405.854 167.904 405.853 167.987 405.857 168.069C405.854 168.153 405.853 168.235 405.857 168.319C405.854 168.402 405.853 168.484 405.857 168.568C405.854 168.651 405.853 168.734 405.857 168.817C405.854 168.901 405.853 168.982 405.857 169.065C405.854 169.149 405.853 169.232 405.857 169.316C405.854 169.398 405.853 169.48 405.857 169.564C405.854 169.648 405.853 169.731 405.857 169.813C405.854 169.896 405.853 169.979 405.857 170.063C405.854 170.146 405.853 170.228 405.857 170.311C405.854 170.395 405.853 170.478 405.857 170.561C405.854 170.644 405.853 170.726 405.857 170.809C405.854 170.893 405.853 170.976 405.857 171.059C405.854 171.141 405.853 171.224 405.857 171.308C405.854 171.391 405.853 171.474 405.857 171.557C405.854 171.639 405.853 171.722 405.857 171.806C405.854 171.889 405.853 171.971 405.857 172.054C405.854 172.138 405.853 172.221 405.857 172.304C405.854 172.388 405.853 172.469 405.857 172.553C405.854 172.636 405.853 172.719 405.857 172.802C405.854 172.884 405.853 172.968 405.857 173.051C405.854 173.134 405.853 173.217 405.857 173.299C405.854 173.383 405.853 173.466 405.857 173.549C405.854 173.632 405.853 173.716 405.857 173.798C405.854 173.882 405.853 173.964 405.857 174.047C405.854 174.131 405.853 174.212 405.857 174.296C405.854 174.38 405.853 174.462 405.857 174.546C405.854 174.628 405.853 174.711 405.857 174.795C405.854 174.878 405.853 174.961 405.857 175.043C405.854 175.127 405.853 175.209 405.857 175.292C405.854 175.376 405.853 175.459 405.857 175.541C405.854 175.624 405.853 175.708 405.857 175.791C405.854 175.875 405.853 175.956 405.857 176.04C405.854 176.123 405.853 176.205 405.857 176.289C405.854 176.371 405.853 176.454 405.857 176.538C405.854 176.621 405.853 176.704 405.857 176.788C405.854 176.87 405.853 176.953 405.857 177.036C405.854 177.12 405.853 177.203 405.857 177.285C405.854 177.368 405.853 177.45 405.857 177.534C405.854 177.618 405.853 177.699 405.857 177.783C405.854 177.866 405.853 177.949 405.857 178.033C405.854 178.115 405.853 178.198 405.857 178.281C405.854 178.365 405.853 178.448 405.857 178.53C405.854 178.614 405.853 178.696 405.857 178.779C405.854 178.863 405.853 178.946 405.857 179.028C405.854 179.111 405.853 179.194 405.857 179.278C405.854 179.36 405.853 179.443 405.857 179.526C405.854 179.61 405.853 179.693 405.857 179.777C405.854 179.86 405.853 179.941 405.857 180.025C405.854 180.109 405.853 180.191 405.857 180.274C405.854 180.357 405.853 180.439 405.857 180.523C405.854 180.607 405.853 180.689 405.857 180.772C405.854 180.855 405.853 180.939 405.857 181.022C405.854 181.105 405.853 181.187 405.857 181.27C405.854 181.354 405.853 181.436 405.857 181.52C405.854 181.602 405.853 181.684 405.857 181.768C405.855 181.826 405.857 181.883 405.857 181.941C405.853 181.857 405.854 192.064 405.857 191.981C405.855 192.038 405.854 192.096 405.857 192.153C405.854 192.237 405.853 192.318 405.857 192.402C405.854 192.485 405.853 192.567 405.857 192.651C405.854 192.733 405.853 192.816 405.857 192.9C405.854 192.983 405.853 193.066 405.857 193.148C405.854 193.232 405.853 193.315 405.857 193.398C405.854 193.482 405.853 193.563 405.857 193.647C405.854 193.73 405.853 193.812 405.857 193.896C405.854 193.978 405.853 194.061 405.857 194.145C405.854 194.228 405.853 194.311 405.857 194.395C405.854 194.477 405.853 194.56 405.857 194.643C405.854 194.727 405.853 194.81 405.857 194.892C405.854 194.975 405.853 195.058 405.857 195.141C405.854 195.225 405.853 195.308 405.857 195.39C405.854 195.473 405.853 195.556 405.857 195.64C405.854 195.723 405.853 195.805 405.857 195.888C405.854 195.972 405.853 196.054 405.857 196.138C405.854 196.22 405.853 196.303 405.857 196.386C405.854 196.47 405.853 196.553 405.857 196.635C405.854 196.718 405.853 196.801 405.857 196.885C405.854 196.968 405.853 197.05 405.857 197.134C405.854 197.217 405.853 197.3 405.857 197.384C405.854 197.466 405.853 197.548 405.857 197.631C405.854 197.715 405.853 197.798 405.857 197.882C405.854 197.964 405.853 198.046 405.857 198.13C405.854 198.214 405.853 198.297 405.857 198.379C405.854 198.461 405.853 198.545 405.857 198.629C405.854 198.712 405.853 198.795 405.857 198.877C405.854 198.96 405.853 199.043 405.857 199.127C405.854 199.21 405.853 199.292 405.857 199.375C405.854 199.458 405.853 199.542 405.857 199.625C405.854 199.707 405.853 199.79 405.857 199.874C405.854 199.957 405.853 200.04 405.857 200.122C405.854 200.206 405.853 200.288 405.857 200.372C405.854 200.455 405.853 200.538 405.857 200.62C405.854 200.704 405.853 200.787 405.857 200.87C405.854 200.954 405.853 201.035 405.857 201.119C405.854 201.203 405.853 201.285 405.857 201.368C405.854 201.45 405.853 201.533 405.857 201.617C405.854 201.7 405.853 201.783 405.857 201.867C405.854 201.949 405.853 202.032 405.857 202.115C405.854 202.199 405.853 202.282 405.857 202.364C405.854 202.448 405.853 202.53 405.857 202.613C405.854 202.697 405.853 202.778 405.857 202.862C405.854 202.946 405.853 203.028 405.857 203.112C405.854 203.194 405.853 203.277 405.857 203.361C405.854 203.444 405.853 203.526 405.857 203.61C405.854 203.692 405.853 203.775 405.857 203.858C405.854 203.942 405.853 204.025 405.857 204.107C405.854 204.191 405.853 204.273 405.857 204.357C405.854 204.441 405.853 204.522 405.857 204.606C405.854 204.689 405.853 204.771 405.857 204.855C405.854 204.939 405.853 205.02 405.857 205.104C405.854 205.187 405.853 205.27 405.857 205.354C405.854 205.436 405.853 205.519 405.857 205.602C405.854 205.686 405.853 205.769 405.857 205.851C405.854 205.934 405.853 206.016 405.857 206.1C405.854 206.184 405.853 206.265 405.857 206.349C405.854 206.432 405.853 206.515 405.857 206.599L405.855 206.616C405.807 206.731 405.764 206.845 405.726 206.96C405.671 207.085 405.624 207.211 405.584 207.337C405.53 207.463 405.481 207.589 405.441 207.715C405.388 207.841 405.34 207.968 405.3 208.094C405.245 208.22 405.196 208.346 405.156 208.472C405.102 208.598 405.054 208.725 405.014 208.85C404.96 208.976 404.911 209.103 404.871 209.23C404.818 209.356 404.768 209.482 404.728 209.608C404.675 209.734 404.626 209.861 404.586 209.987C404.531 210.112 404.483 210.239 404.442 210.366C404.389 210.491 404.34 210.617 404.3 210.744C404.247 210.87 404.198 210.997 404.156 211.124C404.11 211.235 404.068 211.347 404.031 211.458C403.978 211.583 403.931 211.708 403.89 211.833C403.837 211.958 403.791 212.082 403.749 212.207C403.695 212.332 403.651 212.458 403.607 212.583C403.554 212.707 403.509 212.833 403.467 212.958C403.414 213.083 403.368 213.208 403.326 213.333C403.273 213.458 403.227 213.582 403.184 213.707C403.131 213.832 403.085 213.957 403.044 214.082C402.991 214.207 402.945 214.332 402.902 214.458C402.849 214.583 402.805 214.708 402.762 214.833C402.709 214.958 402.663 215.083 402.62 215.209C402.567 215.334 402.522 215.458 402.479 215.583C402.426 215.708 402.38 215.832 402.337 215.957C402.284 216.082 402.24 216.208 402.197 216.333C402.144 216.458 402.098 216.583 402.055 216.709C402.002 216.833 401.958 216.958 401.914 217.084C401.861 217.209 401.816 217.334 401.772 217.459C401.719 217.584 401.675 217.71 401.631 217.835C401.578 217.96 401.533 218.085 401.489 218.21C401.436 218.336 401.391 218.461 401.348 218.586C401.295 218.711 401.25 218.836 401.206 218.962C401.153 219.087 401.109 219.212 401.065 219.338C401.012 219.462 400.967 219.588 400.923 219.713C400.87 219.838 400.826 219.963 400.782 220.088C400.729 220.214 400.684 220.339 400.64 220.464C400.587 220.589 400.543 220.714 400.499 220.84C400.446 220.965 400.402 221.09 400.358 221.216C400.305 221.341 400.26 221.466 400.216 221.592C400.163 221.717 400.118 221.842 400.074 221.968C400.022 222.093 399.976 222.218 399.932 222.344C399.88 222.469 399.835 222.593 399.792 222.719C399.739 222.844 399.693 222.969 399.65 223.095C399.597 223.22 399.552 223.345 399.508 223.471C399.456 223.596 399.41 223.721 399.366 223.847C399.314 223.972 399.268 224.097 399.224 224.223C399.172 224.348 399.126 224.474 399.082 224.599C399.03 224.724 398.984 224.85 398.94 224.976C398.888 225.101 398.842 225.226 398.798 225.352C398.746 225.477 398.7 225.602 398.656 225.728C398.604 225.853 398.558 225.978 398.514 226.104C398.462 226.229 398.417 226.355 398.374 226.48C398.321 226.606 398.275 226.731 398.232 226.856C398.18 226.981 398.134 227.106 398.09 227.232C398.038 227.357 397.992 227.483 397.948 227.608C397.896 227.733 397.851 227.86 397.807 227.986C397.754 228.111 397.709 228.235 397.665 228.361C397.612 228.486 397.567 228.612 397.523 228.737C397.471 228.862 397.425 228.988 397.381 229.114C397.329 229.239 397.283 229.364 397.239 229.49C397.187 229.615 397.141 229.741 397.097 229.866C397.045 229.992 396.998 230.117 396.954 230.243C396.904 230.368 396.856 230.493 396.812 230.619C396.762 230.744 396.715 230.87 396.671 230.996C396.62 231.121 396.573 231.248 396.529 231.373C396.478 231.498 396.431 231.623 396.387 231.749C396.336 231.874 396.289 232 396.245 232.126C396.194 232.251 396.147 232.376 396.103 232.502C396.051 232.628 396.005 232.753 395.961 232.879C395.909 233.004 395.863 233.129 395.819 233.254C395.767 233.38 395.721 233.506 395.677 233.632C395.625 233.757 395.579 233.883 395.534 234.008C395.483 234.134 395.436 234.26 395.392 234.386C395.341 234.511 395.295 234.636 395.251 234.762C395.2 234.887 395.153 235.013 395.109 235.138C395.058 235.264 395.011 235.389 394.967 235.515C394.916 235.64 394.869 235.766 394.825 235.892C394.774 236.017 394.727 236.144 394.681 236.269C394.631 236.394 394.584 236.52 394.54 236.645C394.489 236.77 394.442 236.896 394.398 237.022C394.347 237.148 394.3 237.274 394.256 237.399C394.205 237.524 394.158 237.65 394.114 237.776C394.063 237.901 394.016 238.028 393.972 238.154C393.921 238.279 393.873 238.404 393.829 238.529C393.779 238.655 393.731 238.78 393.687 238.906C393.637 239.032 393.589 239.158 393.545 239.284C393.495 239.409 393.448 239.534 393.404 239.66C393.353 239.785 393.306 239.912 393.26 240.038C393.21 240.163 393.162 240.289 393.118 240.414C393.068 240.539 393.02 240.664 392.976 240.79C392.926 240.916 392.879 241.042 392.835 241.168C392.785 241.294 392.737 241.419 392.693 241.544C392.643 241.67 392.594 241.796 392.55 241.922C392.5 242.047 392.452 242.173 392.408 242.299C392.357 242.424 392.31 242.55 392.266 242.676C392.215 242.801 392.169 242.928 392.123 243.053C392.073 243.178 392.025 243.304 391.981 243.43C391.932 243.555 391.883 243.682 391.839 243.808C391.789 243.933 391.742 244.058 391.697 244.184C391.647 244.309 391.598 244.435 391.554 244.56C391.504 244.686 391.456 244.813 391.412 244.938C391.362 245.063 391.314 245.189 391.27 245.314C391.22 245.44 391.173 245.567 391.127 245.692C391.078 245.817 391.03 245.944 390.986 246.07C390.936 246.195 390.888 246.321 390.844 246.447C390.794 246.572 390.746 246.698 390.702 246.824C390.651 246.949 390.602 247.076 390.558 247.201C390.508 247.326 390.46 247.452 390.416 247.578C390.367 247.704 390.318 247.83 390.274 247.956C390.225 248.081 390.176 248.206 390.132 248.332C390.082 248.457 390.034 248.584 389.99 248.71C389.94 248.835 389.891 248.961 389.848 249.086C389.798 249.212 389.748 249.338 389.704 249.464C389.655 249.59 389.606 249.715 389.562 249.84C389.513 249.966 389.465 250.092 389.421 250.218C389.371 250.344 389.322 250.47 389.278 250.595C389.228 250.72 389.18 250.848 389.136 250.974C389.086 251.099 389.037 251.224 388.994 251.35C388.944 251.475 388.895 251.602 388.85 251.728C388.801 251.854 388.753 251.979 388.709 252.104C388.659 252.23 388.61 252.356 388.566 252.482C388.518 252.608 388.468 252.734 388.424 252.86C388.374 252.985 388.326 253.111 388.282 253.237C388.232 253.362 388.183 253.488 388.139 253.614C388.091 253.739 388.041 253.865 387.997 253.991C387.948 254.117 387.898 254.242 387.854 254.37C387.806 254.495 387.756 254.621 387.712 254.746C387.664 254.872 387.614 254.998 387.57 255.124C387.52 255.249 387.471 255.375 387.427 255.501C387.379 255.626 387.33 255.752 387.285 255.878C387.237 256.004 387.188 256.129 387.144 256.255C387.094 256.381 387.044 256.508 387 256.634C386.952 256.759 386.902 256.885 386.858 257.01C386.808 257.136 386.759 257.262 386.715 257.388C386.667 257.514 386.618 257.639 386.574 257.764C386.525 257.89 386.475 258.017 386.432 258.143C386.382 258.268 386.332 258.394 386.288 258.52C386.24 258.646 386.19 258.771 386.146 258.897C386.098 259.023 386.048 259.149 386.003 259.274C385.955 259.4 385.906 259.527 385.862 259.652C385.813 259.778 385.763 259.904 385.72 260.03C385.67 260.156 385.62 260.281 385.576 260.407C385.528 260.532 385.478 260.659 385.434 260.785C385.386 260.91 385.336 261.036 385.292 261.162C385.243 261.288 385.194 261.413 385.15 261.54C385.102 261.665 385.051 261.792 385.008 261.918C384.958 262.044 384.908 262.169 384.864 262.295C384.816 262.42 384.766 262.546 384.722 262.672C384.674 262.798 384.624 262.924 384.58 263.05C384.531 263.176 384.481 263.301 384.438 263.427C384.39 263.553 384.338 263.678 384.294 263.805C384.246 263.93 384.196 264.057 384.152 264.183C384.104 264.308 384.054 264.434 384.01 264.56C383.962 264.686 383.912 264.812 383.868 264.938C383.819 265.064 383.769 265.189 383.726 265.315C383.678 265.441 383.626 265.566 383.582 265.693C383.534 265.818 383.484 265.945 383.44 266.071C383.392 266.196 383.342 266.321 383.298 266.449C383.249 266.574 383.199 266.7 383.156 266.826C383.108 266.952 383.056 267.077 383.012 267.203C382.966 267.329 382.913 267.455 382.87 267.581C382.822 267.706 382.772 267.833 382.728 267.958C382.681 268.084 382.629 268.209 382.586 268.335C382.537 268.461 382.486 268.588 382.442 268.714C382.396 268.84 382.343 268.965 382.3 269.091C382.252 269.217 382.201 269.343 382.157 269.469C382.111 269.595 382.06 269.721 382.016 269.846C381.967 269.972 381.917 270.099 381.874 270.225C381.826 270.35 381.774 270.476 381.73 270.601C381.682 270.727 381.631 270.853 381.588 270.98C381.54 271.105 381.49 271.231 381.446 271.357C381.398 271.483 381.347 271.609 381.304 271.735C381.255 271.86 381.204 271.987 381.16 272.113C381.114 272.238 381.061 272.364 381.018 272.489C380.97 272.615 380.919 272.742 380.875 272.868C380.828 272.993 380.777 273.119 380.734 273.245C380.685 273.371 380.634 273.497 380.59 273.623C380.544 273.749 380.491 273.875 380.448 274.001C380.4 274.126 380.349 274.253 380.305 274.379C380.259 274.505 380.207 274.63 380.164 274.756C380.115 274.881 380.064 275.008 380.02 275.134C379.977 275.25 379.93 275.366 379.889 275.483C382.959 278.981 387.705 282.907 394.899 286.03Z" fill="white"/>
</g>
<path d="M436.845 162.076C443.969 165.053 444.007 169.874 436.929 172.851C429.853 175.826 418.34 175.827 411.214 172.851C404.091 169.876 404.054 165.051 411.132 162.076C418.21 159.101 429.722 159.101 436.845 162.076Z" fill="#152846"/>
<path d="M434.089 169.137C428.563 171.464 419.189 171.464 413.619 169.137C411.748 168.357 411.056 167.612 410.909 167.336L410.916 167.335C411.061 167.064 411.738 166.337 413.549 165.573C419.078 163.245 428.452 163.247 434.019 165.573C435.891 166.354 436.583 167.098 436.73 167.376C436.584 167.648 435.907 168.37 434.089 169.137ZM436.972 159.095C429.553 155.991 417.961 155.992 410.582 159.095C404.509 161.646 403.608 165.204 403.611 167.115C403.615 169.027 404.535 172.609 410.663 175.171C414.856 176.775 419.349 177.566 423.875 177.494C428.392 177.568 432.878 176.778 437.06 175.171C443.131 172.619 444.03 169.06 444.027 167.15C444.025 165.24 443.105 161.656 436.972 159.095Z" fill="url(#paint1_linear_420_2478)"/>
<path d="M430.846 136.573C430.846 137.693 429.881 138.601 428.691 138.601C427.501 138.601 426.537 137.693 426.537 136.573C426.537 135.454 427.501 134.547 428.691 134.547C429.881 134.547 430.846 135.454 430.846 136.573Z" fill="#EABD70"/>
<path d="M244.447 146.799C280.429 146.799 309.643 159.192 309.643 174.455C309.643 189.718 280.429 202.11 244.447 202.11C208.465 202.11 179.25 189.718 179.25 174.455C179.25 159.192 208.465 146.799 244.447 146.799Z" fill="#DBA75D"/>
<path d="M216.122 204.024C214.663 204.816 213.868 205.84 213.846 206.933C213.825 208.035 214.592 209.074 216.009 209.859L229.827 217.524C230.241 217.755 230.922 217.755 231.345 217.529C231.769 217.299 231.772 216.931 231.361 216.703L217.542 209.038C216.529 208.475 215.978 207.73 215.993 206.942C216.008 206.159 216.581 205.423 217.598 204.869C218.66 204.302 220.028 204.001 221.478 204.006C222.926 204.012 224.282 204.325 225.298 204.887L242.851 214.626C244.229 215.391 244.212 216.626 242.816 217.385C241.425 218.128 239.06 218.119 237.718 217.373L225.929 210.835C225.608 210.658 225.427 210.413 225.431 210.163C225.438 209.913 225.622 209.676 225.95 209.498C226.64 209.129 227.746 209.133 228.415 209.505L236.466 213.971C236.881 214.201 237.558 214.203 237.981 213.977C238.405 213.747 238.412 213.38 238 213.151L229.948 208.684C228.451 207.854 225.988 207.844 224.454 208.661C223.706 209.068 223.297 209.594 223.288 210.155C223.277 210.712 223.681 211.26 224.397 211.656L236.183 218.195C237.254 218.789 238.69 219.121 240.222 219.127C241.757 219.133 243.203 218.814 244.299 218.227C246.562 216.999 246.589 215.027 244.386 213.805L226.833 204.066C225.418 203.28 223.522 202.845 221.5 202.837C219.477 202.83 217.566 203.25 216.122 204.024Z" fill="#314891"/>
<path d="M342.912 99.2802V103.5L244.836 156.79L146.707 103.494V99.2748L342.912 99.2802Z" fill="#375EA9"/>
<path d="M190.121 113.77V162.741C190.121 179.724 214.832 193.49 245.313 193.49C275.794 193.49 300.505 179.724 300.505 162.741V113.77H190.121Z" fill="#264984"/>
<g opacity="0.11319">
<path d="M191.115 127.609C189.625 128.004 206.095 149.29 233.338 163.613C249.201 171.952 279.374 173.784 296.59 174.12C299.11 170.598 300.509 166.762 300.509 162.741V126.255L228.356 115.001C228.356 115.001 193.39 127.005 191.115 127.609Z" fill="black"/>
</g>
<path d="M146.707 103.494L244.809 50.2194L342.912 103.499L244.836 156.789L146.707 103.494Z" fill="#3960A7"/>
<path d="M146.707 99.2746L244.809 46L342.912 99.28L244.836 152.569L146.707 99.2746Z" fill="#264984"/>
<path d="M244.836 156.79V152.57L146.707 99.2748V103.494L244.836 156.79Z" fill="#4E75C1"/>
<path d="M293.398 180.707H297.502C299.872 180.707 301.743 178.813 301.57 176.59L299.518 166.562C299.362 164.557 297.587 163.006 295.449 163.006C293.313 163.006 291.539 164.557 291.382 166.562L289.329 176.59C289.157 178.813 291.028 180.707 293.398 180.707Z" fill="#EABD70"/>
<path d="M294.503 180.059H296.481V123.976L242.307 93.9244L241.303 95.527L294.503 125.037V180.059Z" fill="#EABD70"/>
<path d="M300.022 155.894C300.022 158.283 297.963 160.219 295.423 160.219C292.883 160.219 290.824 158.283 290.824 155.894C290.824 153.505 292.883 151.568 295.423 151.568C297.963 151.568 300.022 153.505 300.022 155.894Z" fill="#EABD70"/>
<path d="M172.879 350.488L172.884 351.848C172.882 351.825 172.884 351.804 172.884 351.781C172.908 350.413 173.91 349.124 175.694 348.156C177.551 347.163 179.946 346.634 182.484 346.644C185.02 346.655 187.394 347.204 189.17 348.187L189.166 346.828C187.39 345.844 185.016 345.294 182.48 345.284C179.941 345.275 177.548 345.805 175.689 346.797C173.906 347.765 172.905 349.053 172.881 350.421L172.879 350.488Z" fill="#FF7600"/>
<mask id="mask1_420_2478" style="mask-type:alpha" maskUnits="userSpaceOnUse" x="172" y="345" width="18" height="7">
<path d="M172.869 350.319L172.874 351.679C172.872 351.656 172.874 351.634 172.874 351.612C172.898 350.243 173.9 348.955 175.684 347.986C177.541 346.994 179.936 346.464 182.474 346.474C185.01 346.485 187.384 347.034 189.16 348.017L189.156 346.659C187.38 345.674 185.006 345.125 182.47 345.114C179.931 345.106 177.538 345.635 175.679 346.628C173.897 347.596 172.895 348.884 172.871 350.252L172.869 350.319Z" fill="white"/>
</mask>
<g mask="url(#mask1_420_2478)">
<path d="M172.852 350.149L172.856 351.509C172.855 351.486 172.856 351.464 172.856 351.442C172.881 350.073 173.882 348.785 175.667 347.817C176.099 347.585 176.561 347.38 177.047 347.2L177.044 345.841C176.557 346.019 176.095 346.226 175.662 346.457C173.879 347.426 172.878 348.714 172.853 350.081L172.852 350.149Z" fill="#FF7600"/>
<path d="M177.053 345.841L177.057 347.2C177.429 347.062 177.815 346.939 178.213 346.833L178.21 345.472C177.812 345.581 177.425 345.703 177.053 345.841Z" fill="#FF7600"/>
<path d="M178.209 345.472L178.213 346.833C178.536 346.746 178.866 346.669 179.203 346.603L179.199 345.245C178.862 345.31 178.532 345.386 178.209 345.472Z" fill="#FF7600"/>
<path d="M179.195 345.245L179.199 346.603C179.503 346.544 179.812 346.494 180.126 346.453L180.122 345.093C179.808 345.134 179.499 345.185 179.195 345.245Z" fill="#FF7600"/>
<path d="M180.127 345.092L180.131 346.453C180.432 346.412 180.736 346.38 181.044 346.355L181.04 344.997C180.732 345.02 180.428 345.053 180.127 345.092Z" fill="#FF7600"/>
<path d="M181.041 344.997L181.045 346.356C181.353 346.333 181.666 346.317 181.98 346.309L181.977 344.951C181.662 344.957 181.349 344.973 181.041 344.997Z" fill="#FF7600"/>
<path d="M181.973 344.951L181.977 346.309C182.138 346.306 182.299 346.303 182.462 346.305C182.628 346.305 182.791 346.309 182.955 346.313L182.951 344.955C182.787 344.95 182.623 344.946 182.458 344.945C182.296 344.945 182.134 344.946 181.973 344.951Z" fill="#FF7600"/>
<path d="M182.951 344.954L182.955 346.313C183.311 346.324 183.661 346.347 184.009 346.38L184.006 345.02C183.658 344.987 183.307 344.965 182.951 344.954Z" fill="#FF7600"/>
<path d="M184.004 345.021L184.008 346.379C184.419 346.417 184.823 346.47 185.218 346.537L185.214 345.179C184.819 345.111 184.415 345.058 184.004 345.021Z" fill="#FF7600"/>
<path d="M185.213 345.179L185.217 346.537C185.827 346.642 186.417 346.779 186.975 346.948L186.971 345.589C186.412 345.42 185.824 345.283 185.213 345.179Z" fill="#FF7600"/>
<path d="M186.977 345.589L186.981 346.948C187.769 347.186 188.499 347.488 189.15 347.848L189.146 346.489C188.495 346.129 187.765 345.827 186.977 345.589Z" fill="#FF7600"/>
</g>
<path d="M168.986 350.411L168.99 351.771C168.995 353.666 170.334 355.45 172.776 356.802L172.773 355.442C170.331 354.091 168.991 352.305 168.986 350.411Z" fill="#FF7600"/>
<mask id="mask2_420_2478" style="mask-type:alpha" maskUnits="userSpaceOnUse" x="168" y="350" width="5" height="7">
<path d="M168.846 350.154L168.85 351.514C168.855 353.409 170.194 355.194 172.635 356.546L172.632 355.186C170.191 353.834 168.851 352.049 168.846 350.154Z" fill="white"/>
</mask>
<g mask="url(#mask2_420_2478)">
<path d="M168.789 350.732L168.793 352.09C168.843 352.327 168.914 352.56 169.005 352.79L169.001 351.431C168.91 351.201 168.839 350.967 168.789 350.732Z" fill="#FF7600"/>
<path d="M168.998 351.431L169.002 352.789C169.098 353.027 169.214 353.261 169.352 353.491L169.348 352.133C169.21 351.903 169.093 351.669 168.998 351.431Z" fill="#FF7600"/>
<path d="M169.352 352.133L169.356 353.491C169.506 353.742 169.681 353.988 169.882 354.228L169.878 352.868C169.677 352.629 169.502 352.383 169.352 352.133Z" fill="#FF7600"/>
<path d="M169.879 352.867L169.883 354.227C170.121 354.511 170.393 354.788 170.7 355.056L170.696 353.695C170.389 353.429 170.117 353.152 169.879 352.867Z" fill="#FF7600"/>
<path d="M170.695 353.696L170.699 355.056C171.176 355.47 171.733 355.86 172.369 356.222L172.366 354.863C171.73 354.502 171.172 354.111 170.695 353.696Z" fill="#FF7600"/>
<path d="M172.359 354.863L172.363 356.222C172.403 356.245 172.444 356.268 172.484 356.291L172.48 354.931L172.359 354.863Z" fill="#FF7600"/>
</g>
<path d="M189.17 356.228L189.174 357.586L189.175 357.567C189.185 357.129 189.506 356.716 190.081 356.404C191.289 355.757 193.225 355.763 194.396 356.416L194.392 355.057C193.221 354.403 191.285 354.397 190.077 355.045C189.502 355.357 189.181 355.77 189.17 356.208V356.228Z" fill="#FF7600"/>
<mask id="mask3_420_2478" style="mask-type:alpha" maskUnits="userSpaceOnUse" x="188" y="354" width="7" height="4">
<path d="M188.924 356.206L188.928 357.564L188.929 357.545C188.939 357.107 189.26 356.694 189.835 356.382C191.043 355.735 192.979 355.741 194.15 356.394L194.146 355.035C192.975 354.381 191.038 354.375 189.831 355.023C189.256 355.335 188.935 355.748 188.924 356.186V356.206Z" fill="white"/>
</mask>
<g mask="url(#mask3_420_2478)">
<path d="M188.68 356.183L188.684 357.542L188.685 357.522C188.695 357.084 189.016 356.671 189.591 356.359C189.726 356.287 189.87 356.223 190.02 356.167L190.015 354.808C189.865 354.863 189.722 354.928 189.587 355C189.012 355.312 188.691 355.726 188.68 356.164V356.183Z" fill="#FF7600"/>
<path d="M190.02 354.809L190.024 356.167C190.144 356.124 190.27 356.084 190.397 356.05L190.393 354.69C190.264 354.724 190.14 354.765 190.02 354.809Z" fill="#FF7600"/>
<path d="M190.393 354.69L190.397 356.05C190.501 356.022 190.608 355.997 190.716 355.976L190.711 354.616C190.604 354.637 190.497 354.663 190.393 354.69Z" fill="#FF7600"/>
<path d="M190.707 354.616L190.711 355.976C190.811 355.956 190.913 355.94 191.014 355.926L191.01 354.567C190.908 354.581 190.807 354.597 190.707 354.616Z" fill="#FF7600"/>
<path d="M191.01 354.568L191.014 355.926C191.113 355.913 191.211 355.903 191.312 355.895L191.307 354.535C191.207 354.543 191.108 354.555 191.01 354.568Z" fill="#FF7600"/>
<path d="M191.312 354.535L191.317 355.894C191.417 355.887 191.516 355.881 191.617 355.879L191.613 354.52C191.513 354.523 191.411 354.528 191.312 354.535Z" fill="#FF7600"/>
<path d="M191.609 354.52L191.613 355.88C191.718 355.878 191.821 355.877 191.926 355.881L191.922 354.522C191.817 354.518 191.714 354.518 191.609 354.52Z" fill="#FF7600"/>
<path d="M191.922 354.522L191.926 355.88C192.039 355.884 192.151 355.892 192.263 355.902L192.259 354.542C192.147 354.532 192.035 354.526 191.922 354.522Z" fill="#FF7600"/>
<path d="M192.264 354.542L192.268 355.901C192.399 355.913 192.53 355.931 192.657 355.953L192.653 354.594C192.525 354.572 192.395 354.555 192.264 354.542Z" fill="#FF7600"/>
<path d="M192.652 354.594L192.656 355.953C192.855 355.986 193.045 356.032 193.229 356.088L193.225 354.727C193.041 354.672 192.851 354.627 192.652 354.594Z" fill="#FF7600"/>
<path d="M193.225 354.727L193.229 356.088C193.475 356.162 193.703 356.256 193.909 356.371L193.906 355.013C193.7 354.898 193.469 354.803 193.225 354.727Z" fill="#FF7600"/>
</g>
<path d="M185.41 355.932L185.414 357.29C185.417 358.25 186.122 359.189 187.356 359.873L187.352 358.514C186.118 357.83 185.413 356.892 185.41 355.932Z" fill="#FF7600"/>
<mask id="mask4_420_2478" style="mask-type:alpha" maskUnits="userSpaceOnUse" x="185" y="355" width="3" height="5">
<path d="M185.164 355.601L185.168 356.96C185.171 357.92 185.876 358.859 187.11 359.542L187.106 358.183C185.872 357.499 185.167 356.561 185.164 355.601Z" fill="white"/>
</mask>
<g mask="url(#mask4_420_2478)">
<path d="M185.07 356.043L185.075 357.402C185.125 357.526 185.185 357.649 185.258 357.768L185.254 356.409C185.181 356.289 185.12 356.167 185.07 356.043Z" fill="#FF7600"/>
<path d="M185.25 356.409L185.254 357.768C185.333 357.9 185.425 358.029 185.53 358.155L185.526 356.796C185.42 356.67 185.328 356.541 185.25 356.409Z" fill="#FF7600"/>
<path d="M185.529 356.797L185.533 358.155C185.658 358.305 185.802 358.451 185.962 358.589L185.957 357.23C185.798 357.09 185.654 356.946 185.529 356.797Z" fill="#FF7600"/>
<path d="M185.955 357.23L185.959 358.589C186.201 358.8 186.482 358.998 186.801 359.179L186.798 357.82C186.479 357.639 186.197 357.441 185.955 357.23Z" fill="#FF7600"/>
<path d="M186.797 357.82L186.801 359.179L186.86 359.212L186.856 357.853L186.797 357.82Z" fill="#FF7600"/>
</g>
<path d="M194.629 355.079L194.633 356.439L208.724 364.256L208.72 362.897L194.629 355.079Z" fill="#FF7600"/>
<path d="M211.932 363.19L211.928 361.831C211.928 362.097 211.739 362.364 211.363 362.569C210.621 362.965 209.434 362.961 208.709 362.559L208.713 363.917C209.438 364.32 210.625 364.325 211.367 363.929C211.744 363.723 211.932 363.455 211.932 363.19Z" fill="#FF7600"/>
<mask id="mask5_420_2478" style="mask-type:alpha" maskUnits="userSpaceOnUse" x="208" y="361" width="4" height="3">
<path d="M211.899 362.851L211.895 361.492C211.895 361.758 211.705 362.024 211.329 362.23C210.587 362.626 209.401 362.622 208.676 362.219L208.68 363.578C209.405 363.981 210.591 363.985 211.334 363.589C211.711 363.384 211.899 363.116 211.899 362.851Z" fill="white"/>
</mask>
<g mask="url(#mask5_420_2478)">
<path d="M208.666 361.88L208.67 363.239C208.797 363.31 208.939 363.369 209.092 363.415L209.088 362.055C208.935 362.008 208.793 361.952 208.666 361.88Z" fill="#FF7600"/>
<path d="M209.084 362.055L209.088 363.414C209.201 363.449 209.32 363.477 209.442 363.497L209.438 362.139C209.316 362.118 209.197 362.09 209.084 362.055Z" fill="#FF7600"/>
<path d="M209.441 362.139L209.445 363.497C209.525 363.51 209.604 363.522 209.686 363.53L209.682 362.171C209.6 362.163 209.521 362.153 209.441 362.139Z" fill="#FF7600"/>
<path d="M209.682 362.17L209.686 363.529C209.755 363.535 209.824 363.54 209.893 363.543L209.889 362.183C209.819 362.18 209.749 362.176 209.682 362.17Z" fill="#FF7600"/>
<path d="M209.887 362.183L209.891 363.543C209.954 363.544 210.02 363.544 210.083 363.543L210.079 362.184C210.014 362.186 209.95 362.185 209.887 362.183Z" fill="#FF7600"/>
<path d="M210.08 362.184L210.084 363.544C210.145 363.542 210.207 363.539 210.268 363.534L210.265 362.176C210.202 362.179 210.141 362.183 210.08 362.184Z" fill="#FF7600"/>
<path d="M210.268 362.176L210.272 363.535C210.333 363.53 210.392 363.524 210.454 363.515L210.449 362.156C210.388 362.164 210.329 362.172 210.268 362.176Z" fill="#FF7600"/>
<path d="M210.451 362.156L210.455 363.514C210.518 363.506 210.58 363.496 210.641 363.484L210.636 362.125C210.575 362.137 210.514 362.147 210.451 362.156Z" fill="#FF7600"/>
<path d="M210.629 362.125L210.634 363.484C210.7 363.471 210.766 363.455 210.83 363.438L210.825 362.08C210.762 362.097 210.695 362.112 210.629 362.125Z" fill="#FF7600"/>
<path d="M210.826 362.08L210.83 363.439C210.909 363.418 210.985 363.395 211.058 363.366L211.054 362.008C210.979 362.034 210.904 362.059 210.826 362.08Z" fill="#FF7600"/>
<path d="M211.053 362.008L211.057 363.366C211.149 363.332 211.236 363.295 211.319 363.25C211.696 363.045 211.883 362.777 211.883 362.512L211.879 361.153C211.879 361.418 211.69 361.685 211.315 361.891C211.232 361.934 211.144 361.973 211.053 362.008Z" fill="#FF7600"/>
</g>
<path d="M189.174 346.997L189.178 348.356L219.904 365.402L219.9 364.043L189.174 346.997Z" fill="#FF7600"/>
<path d="M221.369 367.747L221.365 366.388C221.363 365.523 220.767 364.661 219.574 363.999L219.579 365.358C220.771 366.02 221.367 366.884 221.369 367.747Z" fill="#FF7600"/>
<mask id="mask6_420_2478" style="mask-type:alpha" maskUnits="userSpaceOnUse" x="219" y="363" width="3" height="5">
<path d="M221.033 367.703L221.029 366.344C221.027 365.48 220.431 364.618 219.238 363.955L219.243 365.314C220.435 365.976 221.031 366.84 221.033 367.703Z" fill="white"/>
</mask>
<g mask="url(#mask6_420_2478)">
<path d="M218.957 363.937L218.961 365.296C219.263 365.467 219.526 365.652 219.75 365.846L219.745 364.487C219.522 364.294 219.259 364.109 218.957 363.937Z" fill="#FF7600"/>
<path d="M219.752 364.488L219.757 365.846C219.904 365.975 220.034 366.108 220.147 366.242L220.143 364.884C220.03 364.748 219.9 364.617 219.752 364.488Z" fill="#FF7600"/>
<path d="M220.141 364.883L220.145 366.242C220.241 366.358 220.325 366.476 220.397 366.596L220.393 365.237C220.322 365.117 220.237 364.998 220.141 364.883Z" fill="#FF7600"/>
<path d="M220.385 365.237L220.389 366.595C220.457 366.707 220.513 366.819 220.557 366.932L220.553 365.573C220.507 365.459 220.451 365.347 220.385 365.237Z" fill="#FF7600"/>
<path d="M220.566 365.573L220.57 366.931C220.615 367.043 220.649 367.155 220.673 367.266L220.669 365.907C220.645 365.794 220.61 365.683 220.566 365.573Z" fill="#FF7600"/>
<path d="M220.666 365.907L220.67 367.266C220.694 367.379 220.708 367.493 220.712 367.606L220.706 366.248C220.704 366.134 220.69 366.02 220.666 365.907Z" fill="#FF7600"/>
<path d="M220.707 366.248L220.712 367.606V367.659L220.709 366.301L220.707 366.248Z" fill="#FF7600"/>
</g>
<path d="M172.918 355.699L172.922 357.059L197.11 370.475L197.106 369.116L172.918 355.699Z" fill="#FF7600"/>
<path d="M200.308 369.409L200.304 368.051C200.304 368.316 200.116 368.582 199.74 368.786C199 369.183 197.809 369.179 197.084 368.776L197.088 370.136C197.813 370.539 199.004 370.542 199.744 370.146C200.12 369.941 200.308 369.675 200.308 369.409Z" fill="#FF7600"/>
<mask id="mask7_420_2478" style="mask-type:alpha" maskUnits="userSpaceOnUse" x="197" y="367" width="4" height="4">
<path d="M200.28 369.07L200.276 367.712C200.276 367.977 200.089 368.242 199.713 368.447C198.972 368.844 197.782 368.84 197.057 368.437L197.061 369.797C197.786 370.199 198.976 370.203 199.717 369.807C200.093 369.602 200.28 369.336 200.28 369.07Z" fill="white"/>
</mask>
<g mask="url(#mask7_420_2478)">
<path d="M197.045 368.097L197.049 369.456C197.176 369.527 197.318 369.586 197.468 369.632L197.464 368.272C197.313 368.227 197.172 368.169 197.045 368.097Z" fill="#FF7600"/>
<path d="M197.459 368.273L197.463 369.632C197.577 369.667 197.695 369.695 197.818 369.715L197.813 368.356C197.692 368.335 197.573 368.308 197.459 368.273Z" fill="#FF7600"/>
<path d="M197.814 368.357L197.819 369.715C197.898 369.729 197.978 369.74 198.059 369.747L198.055 368.389C197.974 368.38 197.894 368.37 197.814 368.357Z" fill="#FF7600"/>
<path d="M198.061 368.388L198.065 369.747C198.134 369.753 198.202 369.758 198.273 369.761L198.269 368.4C198.198 368.398 198.13 368.394 198.061 368.388Z" fill="#FF7600"/>
<path d="M198.266 368.4L198.27 369.761C198.333 369.762 198.399 369.762 198.462 369.761L198.458 368.402C198.393 368.403 198.329 368.403 198.266 368.4Z" fill="#FF7600"/>
<path d="M198.459 368.401L198.463 369.76C198.526 369.758 198.586 369.755 198.647 369.751L198.644 368.391C198.583 368.396 198.52 368.4 198.459 368.401Z" fill="#FF7600"/>
<path d="M198.641 368.392L198.645 369.752C198.707 369.748 198.769 369.74 198.828 369.732L198.824 368.374C198.763 368.381 198.702 368.387 198.641 368.392Z" fill="#FF7600"/>
<path d="M198.83 368.373L198.834 369.731C198.897 369.723 198.959 369.713 199.02 369.701L199.016 368.342C198.955 368.353 198.893 368.364 198.83 368.373Z" fill="#FF7600"/>
<path d="M199.014 368.343L199.018 369.701C199.085 369.688 199.151 369.673 199.214 369.656L199.21 368.298C199.147 368.314 199.08 368.329 199.014 368.343Z" fill="#FF7600"/>
<path d="M199.207 368.297L199.211 369.655C199.29 369.635 199.366 369.61 199.44 369.583L199.436 368.223C199.362 368.252 199.285 368.276 199.207 368.297Z" fill="#FF7600"/>
<path d="M199.438 368.224L199.442 369.584C199.534 369.55 199.621 369.51 199.703 369.467C200.079 369.262 200.267 368.996 200.267 368.73L200.263 367.372C200.263 367.637 200.075 367.902 199.699 368.107C199.617 368.151 199.53 368.189 199.438 368.224Z" fill="#FF7600"/>
</g>
<path d="M187.6 358.845L187.604 360.204L208.236 371.649L208.232 370.29L187.6 358.845Z" fill="#FF7600"/>
<path d="M225.084 367.752L225.08 366.393C225.084 367.813 224.081 369.24 222.073 370.331C220.155 371.357 217.625 371.916 214.937 371.905C212.255 371.894 209.743 371.314 207.867 370.273L207.872 371.632C209.746 372.673 212.259 373.254 214.941 373.264C217.629 373.275 220.159 372.715 222.077 371.69C224.085 370.599 225.088 369.172 225.084 367.752Z" fill="#FF7600"/>
<mask id="mask8_420_2478" style="mask-type:alpha" maskUnits="userSpaceOnUse" x="207" y="366" width="18" height="8">
<path d="M224.718 367.735L224.714 366.377C224.718 367.797 223.716 369.224 221.708 370.315C219.789 371.34 217.26 371.9 214.572 371.889C211.889 371.878 209.378 371.297 207.502 370.256L207.507 371.616C209.381 372.657 211.894 373.237 214.576 373.247C217.264 373.258 219.794 372.699 221.712 371.673C223.719 370.582 224.723 369.155 224.718 367.735Z" fill="white"/>
</mask>
<g mask="url(#mask8_420_2478)">
<path d="M207.139 370.24L207.144 371.599C207.829 371.981 208.603 372.301 209.437 372.553L209.434 371.193C208.599 370.941 207.826 370.622 207.139 370.24Z" fill="#FF7600"/>
<path d="M209.432 371.192L209.436 372.552C210.027 372.731 210.648 372.875 211.293 372.984L211.289 371.626C210.644 371.517 210.023 371.371 209.432 371.192Z" fill="#FF7600"/>
<path d="M211.293 371.626L211.297 372.984C211.715 373.056 212.142 373.112 212.577 373.152L212.573 371.794C212.138 371.752 211.711 371.697 211.293 371.626Z" fill="#FF7600"/>
<path d="M212.564 371.794L212.569 373.152C212.934 373.187 213.306 373.21 213.681 373.222L213.677 371.862C213.301 371.851 212.93 371.828 212.564 371.794Z" fill="#FF7600"/>
<path d="M213.68 371.862L213.684 373.222C213.858 373.227 214.034 373.231 214.21 373.231C214.384 373.232 214.557 373.231 214.73 373.226L214.725 371.867C214.553 371.87 214.38 371.874 214.206 371.872C214.03 371.87 213.854 371.868 213.68 371.862Z" fill="#FF7600"/>
<path d="M214.727 371.867L214.731 373.226C215.066 373.218 215.397 373.201 215.725 373.175L215.721 371.817C215.393 371.843 215.061 371.858 214.727 371.867Z" fill="#FF7600"/>
<path d="M215.723 371.816L215.727 373.175C216.055 373.151 216.378 373.116 216.696 373.073L216.692 371.715C216.373 371.758 216.05 371.79 215.723 371.816Z" fill="#FF7600"/>
<path d="M216.689 371.715L216.694 373.075C217.027 373.03 217.355 372.977 217.676 372.914L217.672 371.555C217.351 371.618 217.023 371.671 216.689 371.715Z" fill="#FF7600"/>
<path d="M217.67 371.554L217.674 372.914C218.03 372.844 218.378 372.764 218.718 372.674L218.714 371.313C218.374 371.406 218.025 371.485 217.67 371.554Z" fill="#FF7600"/>
<path d="M218.715 371.314L218.719 372.674C219.136 372.562 219.539 372.434 219.928 372.289L219.924 370.931C219.536 371.074 219.132 371.203 218.715 371.314Z" fill="#FF7600"/>
<path d="M219.926 370.931L219.93 372.29C220.431 372.105 220.904 371.893 221.347 371.657C223.356 370.566 224.357 369.139 224.353 367.719L224.349 366.36C224.353 367.78 223.351 369.207 221.343 370.298C220.9 370.534 220.427 370.745 219.926 370.931Z" fill="#FF7600"/>
</g>
<path d="M173.496 345.763C170.941 347.149 169.55 348.941 169.51 350.855C169.474 352.783 170.817 354.602 173.296 355.976L197.484 369.394C198.209 369.797 199.399 369.801 200.14 369.404C200.882 369.001 200.891 368.358 200.169 367.958L175.982 354.54C174.208 353.554 173.242 352.251 173.27 350.869C173.295 349.501 174.296 348.213 176.079 347.244C177.937 346.252 180.331 345.722 182.87 345.731C185.406 345.742 187.78 346.291 189.556 347.275L220.281 364.321C222.694 365.662 222.664 367.821 220.218 369.15C217.783 370.451 213.646 370.434 211.296 369.132L190.661 357.685C190.099 357.374 189.782 356.944 189.79 356.509C189.802 356.071 190.123 355.658 190.698 355.346C191.906 354.698 193.841 354.704 195.012 355.358L209.103 363.175C209.828 363.578 211.015 363.583 211.757 363.187C212.499 362.784 212.51 362.139 211.789 361.738L197.694 353.92C195.074 352.467 190.762 352.449 188.08 353.881C186.769 354.592 186.055 355.514 186.037 356.496C186.018 357.472 186.725 358.429 187.979 359.123L208.61 370.568C210.486 371.608 212.998 372.189 215.68 372.2C218.368 372.211 220.898 371.651 222.816 370.625C226.774 368.476 226.822 365.024 222.966 362.884L192.242 345.838C189.765 344.463 186.45 343.699 182.908 343.686C179.368 343.673 176.022 344.409 173.496 345.763Z" fill="#FF7600"/>
<path d="M115.817 284.225L115.813 285.312C115.813 285.295 115.813 285.276 115.813 285.26C115.792 284.164 114.992 283.134 113.566 282.359C112.079 281.564 110.164 281.141 108.133 281.149C106.106 281.158 104.207 281.596 102.785 282.383L102.788 281.296C104.209 280.509 106.108 280.07 108.137 280.062C110.167 280.054 112.083 280.477 113.568 281.272C114.996 282.047 115.796 283.077 115.816 284.172C115.817 284.189 115.817 284.208 115.817 284.225Z" fill="#DBA75D"/>
<mask id="mask9_420_2478" style="mask-type:alpha" maskUnits="userSpaceOnUse" x="102" y="280" width="14" height="6">
<path d="M115.817 284.165L115.813 285.252C115.813 285.235 115.813 285.217 115.813 285.2C115.792 284.104 114.992 283.074 113.566 282.299C112.079 281.504 110.164 281.082 108.133 281.089C106.106 281.098 104.207 281.537 102.785 282.324L102.788 281.237C104.209 280.449 106.108 280.011 108.137 280.002C110.167 279.995 112.083 280.417 113.568 281.212C114.996 281.987 115.796 283.017 115.816 284.113C115.817 284.13 115.817 284.148 115.817 284.165Z" fill="white"/>
</mask>
<g mask="url(#mask9_420_2478)">
<path d="M115.802 284.105L115.798 285.193C115.798 285.176 115.798 285.157 115.798 285.14C115.777 284.044 114.977 283.014 113.55 282.239C113.205 282.054 112.834 281.89 112.445 281.746L112.449 280.659C112.838 280.802 113.206 280.967 113.553 281.152C114.981 281.927 115.781 282.957 115.8 284.053C115.802 284.07 115.802 284.088 115.802 284.105Z" fill="#DBA75D"/>
<path d="M112.45 280.659L112.446 281.746C112.148 281.636 111.838 281.538 111.52 281.452L111.524 280.365C111.842 280.449 112.152 280.548 112.45 280.659Z" fill="#DBA75D"/>
<path d="M111.524 280.365L111.52 281.453C111.262 281.383 110.998 281.322 110.729 281.271L110.731 280.182C111.002 280.235 111.266 280.295 111.524 280.365Z" fill="#DBA75D"/>
<path d="M110.731 280.181L110.728 281.27C110.485 281.222 110.238 281.181 109.986 281.148L109.99 280.061C110.242 280.094 110.489 280.134 110.731 280.181Z" fill="#DBA75D"/>
<path d="M109.988 280.062L109.984 281.149C109.744 281.116 109.5 281.09 109.254 281.072L109.256 279.984C109.503 280.003 109.747 280.029 109.988 280.062Z" fill="#DBA75D"/>
<path d="M109.264 279.984L109.261 281.072C109.014 281.052 108.765 281.04 108.512 281.034L108.516 279.947C108.767 279.953 109.017 279.964 109.264 279.984Z" fill="#DBA75D"/>
<path d="M108.511 279.946L108.507 281.034C108.378 281.032 108.25 281.03 108.119 281.03C107.988 281.03 107.856 281.033 107.725 281.037L107.727 279.95C107.858 279.946 107.99 279.943 108.123 279.943C108.251 279.942 108.382 279.942 108.511 279.946Z" fill="#DBA75D"/>
<path d="M107.729 279.95L107.726 281.037C107.441 281.046 107.16 281.064 106.883 281.09L106.887 280.003C107.164 279.976 107.445 279.958 107.729 279.95Z" fill="#DBA75D"/>
<path d="M106.886 280.003L106.882 281.09C106.553 281.121 106.23 281.164 105.914 281.217L105.917 280.129C106.233 280.075 106.557 280.034 106.886 280.003Z" fill="#DBA75D"/>
<path d="M105.925 280.13L105.922 281.217C105.435 281.299 104.963 281.41 104.516 281.545L104.518 280.458C104.966 280.322 105.437 280.213 105.925 280.13Z" fill="#DBA75D"/>
<path d="M104.505 280.457L104.502 281.544C103.871 281.735 103.287 281.977 102.768 282.265L102.77 281.177C103.29 280.889 103.876 280.648 104.505 280.457Z" fill="#DBA75D"/>
</g>
<path d="M118.721 284.163L118.718 285.25C118.713 286.767 117.642 288.194 115.689 289.276L115.692 288.189C117.645 287.106 118.717 285.679 118.721 284.163Z" fill="#DBA75D"/>
<mask id="mask10_420_2478" style="mask-type:alpha" maskUnits="userSpaceOnUse" x="115" y="284" width="4" height="6">
<path d="M118.609 284.035L118.607 285.122C118.602 286.638 117.53 288.065 115.578 289.148L115.581 288.06C117.534 286.977 118.605 285.551 118.609 284.035Z" fill="white"/>
</mask>
<g mask="url(#mask10_420_2478)">
<path d="M118.49 283.906L118.488 284.993C118.488 285.024 118.486 285.053 118.486 285.083L118.489 283.996C118.49 283.966 118.49 283.935 118.49 283.906Z" fill="#DBA75D"/>
<path d="M118.493 283.997L118.49 285.084C118.484 285.277 118.46 285.47 118.42 285.661L118.422 284.572C118.464 284.383 118.488 284.19 118.493 283.997Z" fill="#DBA75D"/>
<path d="M118.419 284.572L118.417 285.66C118.377 285.849 118.319 286.035 118.246 286.218L118.249 285.131C118.323 284.948 118.38 284.76 118.419 284.572Z" fill="#DBA75D"/>
<path d="M118.243 285.131L118.241 286.218C118.165 286.408 118.072 286.597 117.961 286.78L117.965 285.693C118.076 285.508 118.167 285.321 118.243 285.131Z" fill="#DBA75D"/>
<path d="M117.969 285.693L117.966 286.78C117.846 286.98 117.705 287.177 117.545 287.368L117.549 286.281C117.709 286.088 117.848 285.893 117.969 285.693Z" fill="#DBA75D"/>
<path d="M117.546 286.281L117.542 287.368C117.352 287.596 117.133 287.817 116.887 288.031L116.891 286.943C117.135 286.73 117.354 286.509 117.546 286.281Z" fill="#DBA75D"/>
<path d="M116.896 286.944L116.892 288.032C116.512 288.364 116.066 288.676 115.557 288.965L115.561 287.878C116.068 287.589 116.514 287.275 116.896 286.944Z" fill="#DBA75D"/>
</g>
<path d="M102.257 288.433L102.252 289.52V289.506C102.244 289.154 101.988 288.825 101.527 288.574C100.56 288.057 99.0132 288.063 98.0762 288.585L98.0786 287.497C99.0173 286.975 100.565 286.97 101.531 287.487C101.992 287.737 102.248 288.067 102.257 288.419V288.433Z" fill="#DBA75D"/>
<mask id="mask11_420_2478" style="mask-type:alpha" maskUnits="userSpaceOnUse" x="97" y="286" width="5" height="4">
<path d="M101.901 288.108L101.897 289.195V289.181C101.888 288.829 101.633 288.499 101.172 288.248C100.205 287.732 98.6577 287.738 97.7207 288.26L97.7231 287.171C98.6618 286.65 100.21 286.645 101.175 287.161C101.636 287.412 101.892 287.742 101.901 288.093V288.108Z" fill="white"/>
</mask>
<g mask="url(#mask11_420_2478)">
<path d="M101.535 287.783L101.531 288.87V288.855C101.522 288.504 101.267 288.175 100.806 287.924C100.699 287.866 100.584 287.816 100.463 287.771L100.467 286.683C100.587 286.729 100.702 286.779 100.809 286.836C101.269 287.087 101.526 287.417 101.535 287.768V287.783Z" fill="#DBA75D"/>
<path d="M100.476 286.683L100.471 287.77C100.376 287.735 100.277 287.703 100.174 287.676L100.178 286.589C100.279 286.616 100.379 286.648 100.476 286.683Z" fill="#DBA75D"/>
<path d="M100.177 286.588L100.173 287.676C100.09 287.654 100.005 287.634 99.918 287.617L99.922 286.53C100.008 286.546 100.094 286.566 100.177 286.588Z" fill="#DBA75D"/>
<path d="M99.9162 286.531L99.9121 287.618C99.833 287.602 99.7507 287.588 99.6699 287.577L99.6724 286.49C99.7547 286.501 99.8355 286.515 99.9162 286.531Z" fill="#DBA75D"/>
<path d="M99.6742 286.489L99.6717 287.576C99.5926 287.566 99.5127 287.558 99.4336 287.552L99.436 286.465C99.5168 286.471 99.5959 286.479 99.6742 286.489Z" fill="#DBA75D"/>
<path d="M99.4403 286.465L99.4378 287.552C99.3571 287.546 99.278 287.542 99.1973 287.54L99.1997 286.453C99.2804 286.454 99.3612 286.459 99.4403 286.465Z" fill="#DBA75D"/>
<path d="M99.2001 286.453L99.1968 287.54C99.1136 287.538 99.0304 287.54 98.9473 287.542L98.9497 286.454C99.0329 286.452 99.1169 286.451 99.2001 286.453Z" fill="#DBA75D"/>
<path d="M98.954 286.454L98.9508 287.541C98.8594 287.543 98.7705 287.55 98.6816 287.559L98.6841 286.471C98.7738 286.462 98.8643 286.456 98.954 286.454Z" fill="#DBA75D"/>
<path d="M98.682 286.471L98.6795 287.559C98.5743 287.569 98.4699 287.582 98.3672 287.599L98.3713 286.512C98.4724 286.495 98.5768 286.481 98.682 286.471Z" fill="#DBA75D"/>
<path d="M98.3706 286.512L98.3665 287.599C98.2091 287.626 98.055 287.662 97.9082 287.707L97.9123 286.619C98.0583 286.574 98.2132 286.538 98.3706 286.512Z" fill="#DBA75D"/>
<path d="M97.9055 286.62L97.9014 287.707C97.7065 287.767 97.5213 287.843 97.3574 287.935L97.3599 286.846C97.5254 286.754 97.7089 286.679 97.9055 286.62Z" fill="#DBA75D"/>
</g>
<path d="M105.578 288.428L105.576 289.515C105.573 290.283 105.008 291.034 104.021 291.581L104.024 290.493C105.012 289.946 105.576 289.196 105.578 288.428Z" fill="#DBA75D"/>
<mask id="mask12_420_2478" style="mask-type:alpha" maskUnits="userSpaceOnUse" x="103" y="288" width="3" height="4">
<path d="M105.547 288.087L105.545 289.174C105.542 289.942 104.977 290.693 103.99 291.24L103.993 290.152C104.98 289.605 105.545 288.855 105.547 288.087Z" fill="white"/>
</mask>
<g mask="url(#mask12_420_2478)">
<path d="M105.512 287.745L105.509 288.832L105.508 288.877L105.51 287.789L105.512 287.745Z" fill="#DBA75D"/>
<path d="M105.506 287.789L105.504 288.877C105.501 288.972 105.489 289.069 105.469 289.163L105.473 288.076C105.492 287.98 105.504 287.885 105.506 287.789Z" fill="#DBA75D"/>
<path d="M105.468 288.076L105.464 289.163C105.443 289.26 105.414 289.355 105.377 289.45L105.379 288.362C105.417 288.268 105.447 288.173 105.468 288.076Z" fill="#DBA75D"/>
<path d="M105.377 288.362L105.374 289.449C105.335 289.548 105.286 289.646 105.229 289.743L105.231 288.654C105.29 288.558 105.338 288.461 105.377 288.362Z" fill="#DBA75D"/>
<path d="M105.233 288.655L105.231 289.744C105.167 289.849 105.093 289.952 105.01 290.052L105.012 288.965C105.097 288.864 105.17 288.762 105.233 288.655Z" fill="#DBA75D"/>
<path d="M105.015 288.965L105.012 290.052C104.912 290.172 104.797 290.288 104.67 290.4L104.672 289.313C104.801 289.201 104.915 289.085 105.015 288.965Z" fill="#DBA75D"/>
<path d="M104.673 289.312L104.671 290.4C104.476 290.568 104.251 290.727 103.996 290.871L104 289.783C104.254 289.639 104.479 289.48 104.673 289.312Z" fill="#DBA75D"/>
<path d="M104 289.784L103.996 290.871L103.949 290.897L103.952 289.81L104 289.784Z" fill="#DBA75D"/>
</g>
<path d="M98.4336 287.822L98.4304 288.909L87.1582 295.163L87.1615 294.076L98.4336 287.822Z" fill="#DBA75D"/>
<path d="M84.2441 294.389L84.2482 293.3C84.2466 293.514 84.3983 293.728 84.7 293.89C85.2937 294.207 86.2414 294.204 86.822 293.882L86.8196 294.97C86.2389 295.291 85.2896 295.296 84.6959 294.979C84.395 294.815 84.2441 294.601 84.2441 294.389Z" fill="#DBA75D"/>
<mask id="mask13_420_2478" style="mask-type:alpha" maskUnits="userSpaceOnUse" x="83" y="293" width="4" height="3">
<path d="M83.9043 294.195L83.9084 293.106C83.9067 293.319 84.0584 293.534 84.3602 293.696C84.9539 294.013 85.9015 294.01 86.4822 293.688L86.4797 294.776C85.8991 295.097 84.9498 295.102 84.3561 294.785C84.0552 294.621 83.9043 294.407 83.9043 294.195Z" fill="white"/>
</mask>
<g mask="url(#mask13_420_2478)">
<path d="M86.1369 293.494L86.1337 294.582C86.0309 294.638 85.9176 294.685 85.7969 294.722L85.7993 293.635C85.92 293.598 86.0358 293.551 86.1369 293.494Z" fill="#DBA75D"/>
<path d="M85.798 293.634L85.7955 294.721C85.7042 294.749 85.6096 294.772 85.5117 294.789L85.5142 293.7C85.612 293.684 85.7066 293.662 85.798 293.634Z" fill="#DBA75D"/>
<path d="M85.5152 293.701L85.5128 294.789C85.4492 294.799 85.3856 294.808 85.3203 294.814L85.3228 293.727C85.388 293.721 85.4524 293.711 85.5152 293.701Z" fill="#DBA75D"/>
<path d="M85.3223 293.726L85.3198 294.813C85.2652 294.818 85.2089 294.822 85.1543 294.825L85.1567 293.737C85.213 293.734 85.2677 293.731 85.3223 293.726Z" fill="#DBA75D"/>
<path d="M85.1613 293.738L85.1589 294.825C85.1067 294.826 85.0561 294.826 85.0039 294.825L85.008 293.738C85.0585 293.739 85.1107 293.739 85.1613 293.738Z" fill="#DBA75D"/>
<path d="M85.0024 293.738L84.9984 294.825C84.9486 294.824 84.9013 294.821 84.8516 294.818L84.854 293.731C84.9038 293.734 84.9527 293.737 85.0024 293.738Z" fill="#DBA75D"/>
<path d="M84.8516 293.73L84.8491 294.817C84.7994 294.813 84.7512 294.809 84.7031 294.802L84.7056 293.714C84.7537 293.722 84.8034 293.726 84.8516 293.73Z" fill="#DBA75D"/>
<path d="M84.7095 293.715L84.707 294.803C84.6565 294.796 84.6067 294.789 84.5586 294.779L84.561 293.69C84.6108 293.7 84.6597 293.708 84.7095 293.715Z" fill="#DBA75D"/>
<path d="M84.5641 293.689L84.5617 294.778C84.5087 294.767 84.4565 294.756 84.4043 294.741L84.4084 293.654C84.4589 293.668 84.5111 293.679 84.5641 293.689Z" fill="#DBA75D"/>
<path d="M84.4086 293.654L84.4045 294.741C84.3417 294.725 84.2814 294.706 84.2227 294.683L84.2267 293.596C84.2855 293.619 84.3458 293.637 84.4086 293.654Z" fill="#DBA75D"/>
<path d="M84.2241 293.596L84.22 294.683C84.1474 294.657 84.0765 294.625 84.0104 294.591C83.7095 294.426 83.5586 294.212 83.5586 294.001L83.5627 292.912C83.561 293.125 83.7127 293.339 84.0145 293.502C84.0797 293.537 84.1498 293.568 84.2241 293.596Z" fill="#DBA75D"/>
</g>
<path d="M102.806 281.356L102.803 282.444L78.2227 296.081L78.2259 294.993L102.806 281.356Z" fill="#DBA75D"/>
<path d="M76.6895 297.955L76.6935 296.868C76.696 296.178 77.1722 295.487 78.1248 294.957L78.1223 296.046C77.1682 296.574 76.6919 297.265 76.6895 297.955Z" fill="#DBA75D"/>
<mask id="mask14_420_2478" style="mask-type:alpha" maskUnits="userSpaceOnUse" x="76" y="294" width="3" height="4">
<path d="M76.5957 297.92L76.5998 296.833C76.6022 296.142 77.0785 295.452 78.031 294.922L78.0286 296.01C77.0744 296.539 76.5981 297.229 76.5957 297.92Z" fill="white"/>
</mask>
<g mask="url(#mask14_420_2478)">
<path d="M77.9376 294.887L77.9351 295.975L77.8984 295.994L77.9009 294.907L77.9376 294.887Z" fill="#DBA75D"/>
<path d="M77.8973 294.907L77.8949 295.994C77.6527 296.131 77.4423 296.279 77.2637 296.435L77.2677 295.347C77.4463 295.192 77.6568 295.044 77.8973 294.907Z" fill="#DBA75D"/>
<path d="M77.2735 295.347L77.2694 296.435C77.1511 296.537 77.0467 296.642 76.957 296.751L76.9595 295.664C77.0508 295.555 77.1552 295.45 77.2735 295.347Z" fill="#DBA75D"/>
<path d="M76.9575 295.664L76.955 296.751C76.8767 296.843 76.809 296.939 76.752 297.034L76.756 295.947C76.8131 295.85 76.8808 295.756 76.9575 295.664Z" fill="#DBA75D"/>
<path d="M76.7589 295.947L76.7548 297.034C76.7018 297.122 76.6578 297.212 76.6211 297.303L76.6235 296.216C76.6602 296.125 76.7059 296.035 76.7589 295.947Z" fill="#DBA75D"/>
<path d="M76.618 296.216L76.6156 297.303C76.5805 297.391 76.5528 297.48 76.5332 297.57L76.5373 296.483C76.5569 296.394 76.583 296.304 76.618 296.216Z" fill="#DBA75D"/>
</g>
<path d="M115.806 288.318L115.803 289.406L96.4531 300.139L96.4564 299.052L115.806 288.318Z" fill="#DBA75D"/>
<path d="M93.5352 299.364L93.5376 298.275C93.5376 298.488 93.6869 298.7 93.9878 298.864C94.5815 299.181 95.5348 299.179 96.1139 298.857L96.1106 299.944C95.5299 300.266 94.579 300.268 93.9853 299.951C93.6844 299.789 93.5335 299.576 93.5352 299.364Z" fill="#DBA75D"/>
<mask id="mask15_420_2478" style="mask-type:alpha" maskUnits="userSpaceOnUse" x="93" y="298" width="3" height="2">
<path d="M93.1914 299.169L93.1939 298.08C93.1939 298.294 93.3431 298.505 93.644 298.67C94.2377 298.986 95.1911 298.984 95.7701 298.662L95.7668 299.749C95.1862 300.071 94.2353 300.074 93.6416 299.757C93.3407 299.594 93.1898 299.381 93.1914 299.169Z" fill="white"/>
</mask>
<g mask="url(#mask15_420_2478)">
<path d="M95.4244 298.467L95.4219 299.554C95.3208 299.61 95.2066 299.657 95.0859 299.694L95.0884 298.607C95.2091 298.57 95.3233 298.523 95.4244 298.467Z" fill="#DBA75D"/>
<path d="M95.087 298.607L95.0846 299.694C94.9932 299.722 94.8986 299.744 94.8008 299.761L94.8049 298.673C94.9027 298.657 94.9973 298.635 95.087 298.607Z" fill="#DBA75D"/>
<path d="M94.804 298.673L94.7999 299.762C94.7371 299.772 94.6727 299.78 94.6074 299.787L94.6115 298.699C94.6767 298.693 94.7404 298.684 94.804 298.673Z" fill="#DBA75D"/>
<path d="M94.6141 298.699L94.6109 299.786C94.5562 299.791 94.5016 299.795 94.4453 299.797L94.4478 298.71C94.504 298.707 94.5595 298.703 94.6141 298.699Z" fill="#DBA75D"/>
<path d="M94.4523 298.71L94.4499 299.797C94.3977 299.798 94.3471 299.798 94.2949 299.797L94.299 298.71C94.3496 298.711 94.4018 298.711 94.4523 298.71Z" fill="#DBA75D"/>
<path d="M94.2951 298.71L94.291 299.797C94.2413 299.796 94.1923 299.794 94.1426 299.79L94.1467 298.703C94.1964 298.706 94.2453 298.709 94.2951 298.71Z" fill="#DBA75D"/>
<path d="M94.1422 298.703L94.1382 299.79C94.0901 299.786 94.0403 299.781 93.9922 299.774L93.9946 298.687C94.0444 298.693 94.0925 298.699 94.1422 298.703Z" fill="#DBA75D"/>
<path d="M94.006 298.686L94.0036 299.773C93.953 299.767 93.9033 299.758 93.8535 299.75L93.8576 298.661C93.9057 298.671 93.9563 298.68 94.006 298.686Z" fill="#DBA75D"/>
<path d="M93.8512 298.661L93.848 299.75C93.795 299.739 93.742 299.727 93.6914 299.713L93.6939 298.626C93.7444 298.64 93.7982 298.651 93.8512 298.661Z" fill="#DBA75D"/>
<path d="M93.6938 298.627L93.6913 299.714C93.6277 299.697 93.5665 299.677 93.5078 299.656L93.5103 298.568C93.5698 298.59 93.631 298.61 93.6938 298.627Z" fill="#DBA75D"/>
<path d="M93.506 298.568L93.5035 299.656C93.4293 299.628 93.3592 299.597 93.2939 299.562C92.993 299.399 92.8421 299.186 92.8438 298.974L92.8462 297.886C92.8462 298.099 92.9955 298.311 93.2964 298.475C93.3624 298.51 93.4334 298.541 93.506 298.568Z" fill="#DBA75D"/>
</g>
<path d="M104.063 290.835L104.06 291.922L87.5547 301.078L87.5579 299.991L104.063 290.835Z" fill="#DBA75D"/>
<path d="M73.7402 297.653L73.7443 296.566C73.7402 297.702 74.5419 298.842 76.1493 299.715C77.6841 300.537 79.7083 300.983 81.858 300.975C84.0028 300.966 86.0123 300.502 87.5128 299.67L87.5087 300.757C86.009 301.589 84.0004 302.054 81.8539 302.062C79.7042 302.07 77.68 301.624 76.1452 300.802C74.5378 299.929 73.7362 298.789 73.7402 297.653Z" fill="#DBA75D"/>
<mask id="mask16_420_2478" style="mask-type:alpha" maskUnits="userSpaceOnUse" x="73" y="296" width="15" height="6">
<path d="M73.6875 297.332L73.6916 296.245C73.6875 297.382 74.4892 298.522 76.0966 299.395C77.6314 300.216 79.6555 300.663 81.8052 300.654C83.9501 300.646 85.9595 300.182 87.4601 299.349L87.456 300.436C85.9563 301.269 83.9476 301.734 81.8012 301.741C79.6514 301.75 77.6273 301.303 76.0925 300.482C74.4851 299.609 73.6834 298.469 73.6875 297.332Z" fill="white"/>
</mask>
<g mask="url(#mask16_420_2478)">
<path d="M87.4132 299.028L87.4091 300.115C86.8603 300.42 86.2421 300.676 85.5742 300.878L85.5783 299.79C86.2462 299.589 86.8644 299.332 87.4132 299.028Z" fill="#DBA75D"/>
<path d="M85.577 299.791L85.573 300.878C85.1008 301.022 84.6033 301.137 84.0879 301.225L84.0903 300.138C84.6057 300.05 85.1048 299.933 85.577 299.791Z" fill="#DBA75D"/>
<path d="M84.0904 300.137L84.0871 301.224C83.7528 301.28 83.4119 301.325 83.0645 301.358L83.0669 300.271C83.4143 300.238 83.7568 300.193 84.0904 300.137Z" fill="#DBA75D"/>
<path d="M83.0676 300.271L83.0652 301.358C82.7724 301.385 82.4748 301.404 82.1738 301.413L82.1779 300.326C82.4788 300.316 82.7749 300.297 83.0676 300.271Z" fill="#DBA75D"/>
<path d="M82.179 300.326L82.1758 301.413C82.0363 301.418 81.8968 301.421 81.7549 301.421C81.6155 301.422 81.4777 301.421 81.3398 301.417L81.3423 300.33C81.4801 300.334 81.6196 300.335 81.759 300.334C81.8993 300.334 82.0396 300.331 82.179 300.326Z" fill="#DBA75D"/>
<path d="M81.3406 300.33L81.3381 301.417C81.0698 301.411 80.8048 301.397 80.543 301.376L80.547 300.289C80.8088 300.31 81.0739 300.324 81.3406 300.33Z" fill="#DBA75D"/>
<path d="M80.5511 300.289L80.547 301.376C80.2853 301.356 80.0267 301.33 79.7715 301.296L79.7739 300.208C80.0292 300.243 80.2885 300.269 80.5511 300.289Z" fill="#DBA75D"/>
<path d="M79.773 300.209L79.7705 301.296C79.5039 301.261 79.2421 301.217 78.9844 301.167L78.9868 300.08C79.2445 300.13 79.5063 300.174 79.773 300.209Z" fill="#DBA75D"/>
<path d="M78.9829 300.08L78.9804 301.167C78.695 301.112 78.4169 301.047 78.1445 300.975L78.1486 299.888C78.4194 299.96 78.6991 300.025 78.9829 300.08Z" fill="#DBA75D"/>
<path d="M78.1549 299.888L78.1508 300.975C77.8173 300.885 77.4935 300.782 77.1836 300.667L77.186 299.58C77.4968 299.695 77.8205 299.799 78.1549 299.888Z" fill="#DBA75D"/>
<path d="M77.1816 299.58L77.1792 300.668C76.778 300.52 76.3996 300.35 76.0456 300.161C74.4382 299.288 73.6366 298.148 73.6406 297.012L73.6447 295.925C73.6406 297.061 74.4423 298.201 76.0497 299.074C76.402 299.263 76.7804 299.432 77.1816 299.58Z" fill="#DBA75D"/>
</g>
<path d="M115.96 280.523C118.004 281.632 119.116 283.066 119.147 284.597C119.177 286.14 118.103 287.595 116.119 288.694L96.7693 299.428C96.1903 299.75 95.2378 299.752 94.6441 299.435C94.052 299.113 94.0438 298.599 94.622 298.278L113.971 287.545C115.39 286.758 116.163 285.713 116.14 284.608C116.12 283.513 115.32 282.483 113.892 281.708C112.407 280.914 110.491 280.491 108.461 280.499C106.432 280.507 104.533 280.946 103.112 281.733L78.5318 295.369C76.6014 296.442 76.6259 298.17 78.5823 299.232C80.5306 300.274 83.84 300.261 85.7206 299.217L102.228 290.06C102.677 289.812 102.931 289.469 102.924 289.12C102.915 288.769 102.659 288.439 102.198 288.189C101.233 287.672 99.6848 287.677 98.7462 288.199L87.474 294.452C86.8933 294.775 85.9449 294.778 85.3512 294.461C84.7575 294.139 84.7485 293.623 85.3267 293.302L96.6013 287.049C98.6964 285.886 102.146 285.873 104.293 287.017C105.341 287.588 105.912 288.324 105.927 289.109C105.942 289.889 105.376 290.655 104.373 291.211L87.8687 300.367C86.3681 301.2 84.3579 301.664 82.213 301.672C80.0633 301.681 78.04 301.234 76.5052 300.413C73.3377 298.693 73.2994 295.932 76.3837 294.221L100.964 280.583C102.945 279.482 105.597 278.871 108.431 278.861C111.262 278.851 113.939 279.44 115.96 280.523Z" fill="#EABD70"/>
<defs>
<linearGradient id="paint0_linear_420_2478" x1="423.824" y1="312.079" x2="464.594" y2="232.766" gradientUnits="userSpaceOnUse">
<stop stop-color="#FF725C"/>
<stop offset="0.44" stop-color="#FF9067"/>
<stop offset="1" stop-color="#FFAD71"/>
</linearGradient>
<linearGradient id="paint1_linear_420_2478" x1="405.878" y1="206.863" x2="487.43" y2="206.863" gradientUnits="userSpaceOnUse">
<stop stop-color="#FF4D31"/>
<stop offset="0.44" stop-color="#FF7D51"/>
<stop offset="1" stop-color="#FFAD71"/>
</linearGradient>
</defs>
</svg>
