<svg width="41" height="45" viewBox="0 0 41 45" fill="none" xmlns="http://www.w3.org/2000/svg">
<path d="M37.0976 9.09465L22.9072 0.789054C21.1097 -0.263018 18.8947 -0.263018 17.0972 0.789054L2.90627 9.09465C1.10921 10.1467 0.00195312 12.0907 0.00195312 14.1949V30.8056C0.00195312 32.9093 1.10921 34.8533 2.90627 35.9053L17.0972 44.2109C18.8947 45.263 21.1097 45.263 22.9072 44.2109L37.0976 35.9053C38.8951 34.8533 40.002 32.9093 40.002 30.8056V14.1949C40.002 12.0907 38.8951 10.1467 37.0976 9.09465ZM31.6397 21.2305L30.7211 26.794L30.4719 28.3184L30.2356 29.7671C30.1898 30.0576 29.9401 30.2728 29.649 30.2728H9.451C9.15994 30.2728 8.91428 30.0576 8.86444 29.7671L8.77765 29.2365L8.62812 28.3184L8.38691 26.8405L8.3789 26.794L7.46079 21.2305C6.2356 21.1208 5.29212 20.0764 5.29212 18.8299C5.29212 17.499 6.35531 16.4213 7.66817 16.4213C8.98104 16.4213 10.0451 17.499 10.0451 18.8299C10.0451 19.0826 10.0077 19.3312 9.92852 19.5712L10.8253 20.1482L11.8475 20.8091L11.8564 20.8136C12.7247 21.378 13.7839 21.4245 14.6731 21.0198C14.6771 21.0198 14.6766 21.0198 14.6766 21.0157C15.0838 20.8303 15.4497 20.5529 15.7487 20.182L17.6388 17.8401C17.3353 17.4278 17.1742 16.9306 17.1742 16.4213C17.1742 15.0904 18.2369 14.0121 19.5498 14.0121C20.8627 14.0121 21.9267 15.0904 21.9267 16.4213C21.9267 16.9306 21.7647 17.4278 21.4657 17.8401C21.4657 17.8401 21.4657 17.8446 21.4692 17.8487L22.2294 18.788L23.3513 20.182C23.9161 20.8813 24.7345 21.2598 25.5694 21.281C26.147 21.3022 26.7291 21.1461 27.2485 20.8136L28.9014 19.7525L29.1671 19.5797C29.1715 19.5757 29.176 19.5712 29.176 19.5712C29.1386 19.462 29.1092 19.3483 29.0892 19.2342C29.0683 19.0997 29.0554 18.9648 29.0554 18.8299C29.0554 18.0846 29.3878 17.4192 29.9112 16.9771C30.3104 16.6401 30.8213 16.4339 31.378 16.4253C31.3945 16.4213 31.4149 16.4213 31.4314 16.4213C32.6611 16.4213 33.6838 17.3727 33.7959 18.6152C33.9121 19.9375 32.9481 21.1082 31.6397 21.2305Z" fill="url(#paint0_radial_545_2473)"/>
<path d="M3 10L20 3.5L36 10L39 22.5L36 35L19.5 43L3 35L1.5 22.5L3 10Z" fill="#7A8386"/>
<path d="M26.9453 34H11.7133C11.3079 34 11.0093 33.9147 10.8173 33.744C10.6466 33.552 10.5613 33.2533 10.5613 32.848V27.344C10.5613 26.1067 10.6786 25.0933 10.9133 24.304C11.1693 23.4933 11.5213 22.832 11.9693 22.32C12.4173 21.808 12.9506 21.4027 13.5693 21.104C14.1879 20.8053 14.8599 20.5493 15.5853 20.336L19.8733 18.992C20.2146 18.9067 20.4386 18.7787 20.5453 18.608C20.6733 18.4373 20.7373 18.1813 20.7373 17.84C20.7373 17.52 20.6733 17.3067 20.5453 17.2C20.4173 17.072 20.1933 17.008 19.8733 17.008H12.9293C12.5239 17.008 12.2253 16.9227 12.0333 16.752C11.8626 16.56 11.7773 16.2613 11.7773 15.856V12.112C11.7773 11.7067 11.8626 11.4187 12.0333 11.248C12.2253 11.056 12.5239 10.96 12.9293 10.96H22.3693C24.1826 10.96 25.5693 11.4187 26.5293 12.336C27.5106 13.232 28.0013 14.544 28.0013 16.272V19.28C28.0013 20.88 27.5533 22.1067 26.6573 22.96C25.7613 23.8133 24.5453 24.4747 23.0093 24.944L18.6573 26.32C18.3373 26.4053 18.1133 26.5013 17.9853 26.608C17.8786 26.7147 17.8253 26.9387 17.8253 27.28V27.952H26.9453C27.3506 27.952 27.6386 28.048 27.8093 28.24C28.0013 28.4107 28.0972 28.6987 28.0972 29.104V32.848C28.0972 33.2533 28.0013 33.552 27.8093 33.744C27.6386 33.9147 27.3506 34 26.9453 34Z" fill="white"/>
<defs>
<radialGradient id="paint0_radial_545_2473" cx="0" cy="0" r="1" gradientUnits="userSpaceOnUse" gradientTransform="translate(20.002 22.5) scale(17.2007 17.4368)">
<stop stop-color="#7A8386"/>
</radialGradient>
</defs>
</svg>
