<svg width="412" height="42" viewBox="0 0 412 42" fill="none" xmlns="http://www.w3.org/2000/svg">
<path d="M19.45 37H11.35C10.7167 37 10.25 36.8667 9.95 36.6C9.68333 36.3 9.55 35.8333 9.55 35.2V10.65H2.2C1.56667 10.65 1.1 10.5167 0.8 10.25C0.533333 9.95 0.4 9.48333 0.4 8.85V2.8C0.4 2.16667 0.533333 1.71667 0.8 1.45C1.1 1.15 1.56667 0.999999 2.2 0.999999H28.6C29.2333 0.999999 29.6833 1.15 29.95 1.45C30.25 1.71667 30.4 2.16667 30.4 2.8V8.85C30.4 9.48333 30.25 9.95 29.95 10.25C29.6833 10.5167 29.2333 10.65 28.6 10.65H21.25V35.2C21.25 35.8333 21.1 36.3 20.8 36.6C20.5333 36.8667 20.0833 37 19.45 37ZM60.2625 37H37.0625C36.4292 37 35.9625 36.8667 35.6625 36.6C35.3958 36.3 35.2625 35.8333 35.2625 35.2V2.8C35.2625 2.16667 35.3958 1.71667 35.6625 1.45C35.9625 1.15 36.4292 0.999999 37.0625 0.999999H60.2625C60.8958 0.999999 61.3458 1.15 61.6125 1.45C61.9125 1.71667 62.0625 2.16667 62.0625 2.8V8.65C62.0625 9.28333 61.9125 9.75 61.6125 10.05C61.3458 10.3167 60.8958 10.45 60.2625 10.45H46.4625V14.3H56.2125C56.8458 14.3 57.2958 14.45 57.5625 14.75C57.8625 15.0167 58.0125 15.4667 58.0125 16.1V21.45C58.0125 22.0833 57.8625 22.55 57.5625 22.85C57.2958 23.1167 56.8458 23.25 56.2125 23.25H46.4625V27.55H60.2625C60.8958 27.55 61.3458 27.7 61.6125 28C61.9125 28.2667 62.0625 28.7167 62.0625 29.35V35.2C62.0625 35.8333 61.9125 36.3 61.6125 36.6C61.3458 36.8667 60.8958 37 60.2625 37ZM77.2273 37H69.7773C69.144 37 68.6773 36.8667 68.3773 36.6C68.1107 36.3 67.9773 35.8333 67.9773 35.2V2.8C67.9773 2.16667 68.1107 1.71667 68.3773 1.45C68.6773 1.15 69.144 0.999999 69.7773 0.999999H77.8273C78.3607 0.999999 78.794 1.11666 79.1273 1.35C79.494 1.58333 79.8273 1.96666 80.1273 2.5L84.6273 10.65C84.794 10.95 84.9273 11.1667 85.0273 11.3C85.1607 11.4333 85.3273 11.5 85.5273 11.5H85.9773C86.1773 11.5 86.3273 11.4333 86.4273 11.3C86.5607 11.1667 86.7107 10.95 86.8773 10.65L91.3273 2.5C91.6273 1.96666 91.944 1.58333 92.2773 1.35C92.644 1.11666 93.094 0.999999 93.6273 0.999999H101.727C102.361 0.999999 102.811 1.15 103.077 1.45C103.377 1.71667 103.527 2.16667 103.527 2.8V35.2C103.527 35.8333 103.377 36.3 103.077 36.6C102.811 36.8667 102.361 37 101.727 37H94.0273C93.394 37 92.9273 36.8667 92.6273 36.6C92.3607 36.3 92.2273 35.8333 92.2273 35.2V17.6L89.2773 23.05C88.9773 23.6167 88.6107 24.0333 88.1773 24.3C87.7773 24.5333 87.2607 24.65 86.6273 24.65H84.6273C83.994 24.65 83.4607 24.5333 83.0273 24.3C82.6273 24.0333 82.2773 23.6167 81.9773 23.05L79.0273 17.6V35.2C79.0273 35.8333 78.8773 36.3 78.5773 36.6C78.3107 36.8667 77.8607 37 77.2273 37ZM123.459 11.5L121.109 19.1H128.959L126.609 11.5C126.476 11.2 126.326 10.9833 126.159 10.85C126.026 10.7167 125.859 10.65 125.659 10.65H124.409C124.209 10.65 124.026 10.7167 123.859 10.85C123.726 10.9833 123.592 11.2 123.459 11.5ZM120.609 35.2C120.609 35.8333 120.459 36.3 120.159 36.6C119.892 36.8667 119.442 37 118.809 37H111.459C110.826 37 110.359 36.8667 110.059 36.6C109.792 36.3 109.659 35.8333 109.659 35.2V22C109.659 21 109.809 19.85 110.109 18.55C110.442 17.25 110.942 15.7333 111.609 14L115.959 2.65C116.159 2.08333 116.459 1.66666 116.859 1.4C117.292 1.13333 117.842 0.999999 118.509 0.999999H131.959C132.592 0.999999 133.109 1.13333 133.509 1.4C133.942 1.66666 134.259 2.08333 134.459 2.65L138.809 14C139.476 15.7333 139.959 17.25 140.259 18.55C140.592 19.85 140.759 21 140.759 22V35.2C140.759 35.8333 140.609 36.3 140.309 36.6C140.042 36.8667 139.592 37 138.959 37H131.409C130.742 37 130.242 36.8667 129.909 36.6C129.609 36.3 129.459 35.8333 129.459 35.2V28.2H120.609V35.2ZM178.571 37H161.721C161.087 37 160.621 36.8667 160.321 36.6C160.054 36.3 159.921 35.8333 159.921 35.2V2.8C159.921 2.16667 160.054 1.71667 160.321 1.45C160.621 1.15 161.087 0.999999 161.721 0.999999H178.571C182.737 0.999999 185.821 1.83333 187.821 3.5C189.854 5.16667 190.871 7.73333 190.871 11.2V26.8C190.871 30.2667 189.854 32.8333 187.821 34.5C185.821 36.1667 182.737 37 178.571 37ZM171.271 10.55V27.55H177.221C178.021 27.55 178.604 27.35 178.971 26.95C179.371 26.55 179.571 25.9333 179.571 25.1V12.95C179.571 12.1167 179.371 11.5167 178.971 11.15C178.604 10.75 178.021 10.55 177.221 10.55H171.271ZM227.725 27.55C227.725 29.0833 227.492 30.4833 227.025 31.75C226.592 32.9833 225.792 34.05 224.625 34.95C223.492 35.8167 221.909 36.5 219.875 37C217.875 37.5 215.325 37.75 212.225 37.75C209.125 37.75 206.559 37.5 204.525 37C202.492 36.5 200.892 35.8167 199.725 34.95C198.592 34.05 197.792 32.9833 197.325 31.75C196.892 30.4833 196.675 29.0833 196.675 27.55V10.5C196.675 8.96666 196.892 7.58333 197.325 6.35C197.792 5.08333 198.592 4 199.725 3.1C200.892 2.2 202.492 1.5 204.525 0.999999C206.559 0.499999 209.125 0.249999 212.225 0.249999C215.325 0.249999 217.875 0.499999 219.875 0.999999C221.909 1.5 223.492 2.2 224.625 3.1C225.792 4 226.592 5.08333 227.025 6.35C227.492 7.58333 227.725 8.96666 227.725 10.5V27.55ZM208.025 25.75C208.025 26.4167 208.275 26.9833 208.775 27.45C209.275 27.8833 210.425 28.1 212.225 28.1C214.025 28.1 215.175 27.8833 215.675 27.45C216.175 26.9833 216.425 26.4167 216.425 25.75V12.3C216.425 11.6667 216.175 11.1333 215.675 10.7C215.175 10.2333 214.025 10 212.225 10C210.425 10 209.275 10.2333 208.775 10.7C208.275 11.1333 208.025 11.6667 208.025 12.3V25.75ZM265.879 41.5H258.179C257.546 41.5 257.079 41.35 256.779 41.05C256.512 40.7833 256.379 40.3333 256.379 39.7V36.95C252.512 36.3833 249.896 35.2333 248.529 33.5C247.196 31.7333 246.529 29.6 246.529 27.1V10.5C246.529 8.96666 246.746 7.58333 247.179 6.35C247.646 5.08333 248.446 4 249.579 3.1C250.746 2.2 252.346 1.5 254.379 0.999999C256.412 0.499999 258.979 0.249999 262.079 0.249999C265.179 0.249999 267.729 0.499999 269.729 0.999999C271.762 1.5 273.346 2.2 274.479 3.1C275.646 4 276.446 5.08333 276.879 6.35C277.346 7.58333 277.579 8.96666 277.579 10.5V27.1C277.579 28.3667 277.429 29.55 277.129 30.65C276.829 31.7167 276.312 32.6667 275.579 33.5C274.846 34.3333 273.829 35.05 272.529 35.65C271.262 36.25 269.646 36.6833 267.679 36.95V39.7C267.679 40.3333 267.529 40.7833 267.229 41.05C266.962 41.35 266.512 41.5 265.879 41.5ZM257.879 26C257.879 26.6667 258.129 27.2333 258.629 27.7C259.129 28.1333 260.279 28.35 262.079 28.35C263.879 28.35 265.029 28.1333 265.529 27.7C266.029 27.2333 266.279 26.6667 266.279 26V12.35C266.279 11.7167 266.029 11.1833 265.529 10.75C265.029 10.2833 263.879 10.05 262.079 10.05C260.279 10.05 259.129 10.2833 258.629 10.75C258.129 11.1833 257.879 11.7167 257.879 12.35V26ZM314.594 27.55C314.594 29.0833 314.361 30.4833 313.894 31.75C313.461 32.9833 312.661 34.05 311.494 34.95C310.361 35.8167 308.794 36.5 306.794 37C304.794 37.5 302.244 37.75 299.144 37.75C296.044 37.75 293.494 37.5 291.494 37C289.494 36.5 287.911 35.8167 286.744 34.95C285.611 34.05 284.811 32.9833 284.344 31.75C283.911 30.4833 283.694 29.0833 283.694 27.55V2.8C283.694 2.16667 283.827 1.71667 284.094 1.45C284.394 1.15 284.861 0.999999 285.494 0.999999H293.344C293.977 0.999999 294.427 1.15 294.694 1.45C294.994 1.71667 295.144 2.16667 295.144 2.8V25.6C295.144 26.2667 295.394 26.8333 295.894 27.3C296.394 27.7333 297.511 27.95 299.244 27.95C301.011 27.95 302.144 27.7333 302.644 27.3C303.144 26.8333 303.394 26.2667 303.394 25.6V2.8C303.394 2.16667 303.527 1.71667 303.794 1.45C304.094 1.15 304.561 0.999999 305.194 0.999999H312.794C313.427 0.999999 313.877 1.15 314.144 1.45C314.444 1.71667 314.594 2.16667 314.594 2.8V27.55ZM322.249 37C321.615 37 321.149 36.8667 320.849 36.6C320.582 36.3 320.449 35.8333 320.449 35.2V29.25C320.449 28.6167 320.582 28.1667 320.849 27.9C321.149 27.6 321.615 27.45 322.249 27.45H327.199V10.65H322.249C321.615 10.65 321.149 10.5167 320.849 10.25C320.582 9.95 320.449 9.48333 320.449 8.85V2.8C320.449 2.16667 320.582 1.71667 320.849 1.45C321.149 1.15 321.615 0.999999 322.249 0.999999H343.549C344.182 0.999999 344.632 1.15 344.899 1.45C345.199 1.71667 345.349 2.16667 345.349 2.8V8.85C345.349 9.48333 345.199 9.95 344.899 10.25C344.632 10.5167 344.182 10.65 343.549 10.65H338.699V27.45H343.549C344.182 27.45 344.632 27.6 344.899 27.9C345.199 28.1667 345.349 28.6167 345.349 29.25V35.2C345.349 35.8333 345.199 36.3 344.899 36.6C344.632 36.8667 344.182 37 343.549 37H322.249ZM376.972 37H352.172C351.539 37 351.072 36.8667 350.772 36.6C350.506 36.3 350.372 35.8333 350.372 35.2V28.5C350.372 27.8667 350.472 27.3167 350.672 26.85C350.872 26.35 351.189 25.8667 351.622 25.4L363.772 10.65H353.072C352.439 10.65 351.972 10.5167 351.672 10.25C351.406 9.95 351.272 9.48333 351.272 8.85V2.8C351.272 2.16667 351.406 1.71667 351.672 1.45C351.972 1.15 352.439 0.999999 353.072 0.999999H376.072C376.706 0.999999 377.156 1.15 377.422 1.45C377.722 1.71667 377.872 2.16667 377.872 2.8V10.25C377.872 10.9167 377.772 11.5 377.572 12C377.372 12.4667 377.056 12.9333 376.622 13.4L365.022 27.45H376.972C377.606 27.45 378.056 27.6 378.322 27.9C378.622 28.1667 378.772 28.6167 378.772 29.25V35.2C378.772 35.8333 378.622 36.3 378.322 36.6C378.056 36.8667 377.606 37 376.972 37ZM409.736 37H384.936C384.303 37 383.836 36.8667 383.536 36.6C383.269 36.3 383.136 35.8333 383.136 35.2V28.5C383.136 27.8667 383.236 27.3167 383.436 26.85C383.636 26.35 383.953 25.8667 384.386 25.4L396.536 10.65H385.836C385.203 10.65 384.736 10.5167 384.436 10.25C384.169 9.95 384.036 9.48333 384.036 8.85V2.8C384.036 2.16667 384.169 1.71667 384.436 1.45C384.736 1.15 385.203 0.999999 385.836 0.999999H408.836C409.469 0.999999 409.919 1.15 410.186 1.45C410.486 1.71667 410.636 2.16667 410.636 2.8V10.25C410.636 10.9167 410.536 11.5 410.336 12C410.136 12.4667 409.819 12.9333 409.386 13.4L397.786 27.45H409.736C410.369 27.45 410.819 27.6 411.086 27.9C411.386 28.1667 411.536 28.6167 411.536 29.25V35.2C411.536 35.8333 411.386 36.3 411.086 36.6C410.819 36.8667 410.369 37 409.736 37Z" fill="black"/>
</svg>
