<svg width="40" height="45" viewBox="0 0 40 45" fill="none" xmlns="http://www.w3.org/2000/svg">
<path d="M37.0957 9.09465L22.9052 0.789054C21.1077 -0.263018 18.8927 -0.263018 17.0952 0.789054L2.90432 9.09465C1.10725 10.1467 0 12.0907 0 14.1949V30.8056C0 32.9093 1.10725 34.8533 2.90432 35.9054L17.0952 44.2109C18.8927 45.263 21.1077 45.263 22.9052 44.2109L37.0957 35.9054C38.8932 34.8533 40 32.9093 40 30.8056V14.1949C40 12.0907 38.8932 10.1467 37.0957 9.09465ZM31.6377 21.2305L30.7192 26.794L30.47 28.3184L30.2336 29.7671C30.1878 30.0576 29.9381 30.2728 29.6471 30.2728H9.44904C9.15799 30.2728 8.91233 30.0576 8.86248 29.7671L8.7757 29.2365L8.62617 28.3184L8.38496 26.8405L8.37695 26.794L7.45883 21.2305C6.23364 21.1208 5.29016 20.0764 5.29016 18.8299C5.29016 17.499 6.35336 16.4213 7.66622 16.4213C8.97908 16.4213 10.0432 17.499 10.0432 18.8299C10.0432 19.0826 10.0058 19.3312 9.92657 19.5712L10.8233 20.1482L11.8456 20.8091L11.8545 20.8136C12.7227 21.378 13.7819 21.4245 14.6711 21.0198C14.6751 21.0198 14.6747 21.0198 14.6747 21.0157C15.0819 20.8303 15.4477 20.5529 15.7468 20.182L17.6368 17.8401C17.3333 17.4278 17.1722 16.9306 17.1722 16.4213C17.1722 15.0904 18.235 14.0121 19.5478 14.0121C20.8607 14.0121 21.9248 15.0904 21.9248 16.4213C21.9248 16.9306 21.7628 17.4278 21.4637 17.8401C21.4637 17.8401 21.4637 17.8446 21.4673 17.8487L22.2274 18.788L23.3494 20.182C23.9141 20.8813 24.7325 21.2598 25.5674 21.281C26.1451 21.3022 26.7272 21.1461 27.2466 20.8136L28.8994 19.7525L29.1651 19.5797C29.1696 19.5757 29.174 19.5712 29.174 19.5712C29.1366 19.462 29.1073 19.3483 29.0872 19.2342C29.0663 19.0997 29.0534 18.9648 29.0534 18.8299C29.0534 18.0846 29.3858 17.4192 29.9092 16.9771C30.3084 16.6401 30.8193 16.4339 31.3761 16.4253C31.3925 16.4213 31.413 16.4213 31.4295 16.4213C32.6591 16.4213 33.6818 17.3727 33.7939 18.6152C33.9101 19.9375 32.9462 21.1082 31.6377 21.2305Z" fill="url(#paint0_radial_545_2474)"/>
<path d="M2.99805 10L19.998 3.5L35.998 10L38.998 22.5L35.998 35L19.498 43L2.99805 35L1.49805 22.5L2.99805 10Z" fill="#C6885C"/>
<path d="M13.0325 27.952H21.0645C21.5765 27.952 21.9072 27.856 22.0565 27.664C22.2058 27.472 22.2805 27.248 22.2805 26.992V26.128C22.2805 25.872 22.2058 25.6587 22.0565 25.488C21.9072 25.296 21.5765 25.2 21.0645 25.2H15.6245C15.2192 25.2 14.9205 25.1147 14.7285 24.944C14.5578 24.752 14.4725 24.4533 14.4725 24.048V20.624C14.4725 20.2187 14.5578 19.9307 14.7285 19.76C14.9205 19.568 15.2192 19.472 15.6245 19.472H18.9845C19.4965 19.472 19.8272 19.376 19.9765 19.184C20.1258 18.992 20.2005 18.768 20.2005 18.512V18.032C20.2005 17.776 20.1258 17.552 19.9765 17.36C19.8272 17.168 19.4965 17.072 18.9845 17.072H13.0325C12.6272 17.072 12.3285 16.9867 12.1365 16.816C11.9658 16.624 11.8805 16.3253 11.8805 15.92V12.112C11.8805 11.7067 11.9658 11.4187 12.1365 11.248C12.3285 11.056 12.6272 10.96 13.0325 10.96H21.9605C23.7312 10.96 25.0432 11.376 25.8965 12.208C26.7712 13.0187 27.2085 14.128 27.2085 15.536V17.392C27.2085 18.2027 27.0698 18.9067 26.7925 19.504C26.5152 20.1013 26.0245 20.5493 25.3205 20.848C26.8352 21.0187 27.8805 21.488 28.4565 22.256C29.0538 23.0027 29.3525 24.08 29.3525 25.488V28.688C29.3525 30.3307 28.8298 31.632 27.7845 32.592C26.7392 33.5307 25.1925 34 23.1445 34H13.0325C12.6272 34 12.3285 33.9147 12.1365 33.744C11.9658 33.552 11.8805 33.2533 11.8805 32.848V29.104C11.8805 28.6987 11.9658 28.4107 12.1365 28.24C12.3285 28.048 12.6272 27.952 13.0325 27.952Z" fill="white"/>
<defs>
<radialGradient id="paint0_radial_545_2474" cx="0" cy="0" r="1" gradientUnits="userSpaceOnUse" gradientTransform="translate(20 22.5) scale(17.2007 17.4368)">
<stop stop-color="#C6885C"/>
</radialGradient>
</defs>
</svg>
